<?xml version="1.0" encoding="UTF-8"?><svg id="Livello_2" xmlns="http://www.w3.org/2000/svg" viewBox="0 0 152.97 195.18"><defs><style>.cls-1{stroke-width:.75px;}.cls-1,.cls-2,.cls-3,.cls-4,.cls-5{stroke:#fff;}.cls-1,.cls-3{stroke-miterlimit:10;}.cls-2{stroke-width:1.49px;}.cls-2,.cls-6,.cls-4,.cls-5{fill:#fff;}.cls-2,.cls-4,.cls-5{stroke-miterlimit:12;}.cls-4{stroke-width:2px;}.cls-5{stroke-width:1.73px;}</style></defs><g id="oldLaser"><g id="oldLaserB"><polygon points="74.99 22.41 90.02 0 94.8 28.54 103.42 14.27 109.83 27.25 124.1 14.27 124.1 25.59 142.99 23.38 132.13 42.12 152.97 48.43 137.34 60.8 152.97 68.53 138 81.39 152.97 91.08 137.34 91.78 139 108.76 122.33 108.38 127.59 117.09 122.33 123.88 134.68 124.91 130.36 135.13 143.66 139.95 137.67 144.37 146.65 157.52 136.67 159.32 134.01 175.03 122.33 165.9 111.05 175.03 100.48 163.69 94.46 172.44 82.21 165.9 83.8 180.19 66.73 175.03 65.34 181.88 57.36 177.05 55.45 192.19 49.02 185.09 38.48 195.18 32.9 185.09 16.29 185.09 19.6 170.91 11.97 158.59 23.18 157.52 19.6 149.94 28.29 141.2 16.29 127.69 31.24 121.51 21.62 114.35 29.29 103.07 15.63 104.39 17.62 94.51 3.66 89.55 9.31 84.74 0 70.08 17.96 67.8 16.96 50.58 34.28 53.79 31.24 28.54 54.11 32.67 53.23 22.41 59.63 26.58 61.96 5.3 74.99 22.41"/><g><path class="cls-4" d="m125.38,36.29l-1.4,1.13s-2.4-3.08-5.01-1.48c-5.69,3.5,14.43,37.56,14.43,37.56l-2.08,1.1s-21.29-38.28-15.79-41.21c6.5-3.46,9.85,2.89,9.85,2.89Z"/><path class="cls-4" d="m125.38,36.29s-.52-1.11-1.34-.49c-.95.73-.06,1.61-.06,1.61l1.4-1.13Z"/></g><path class="cls-4" d="m119.06,89.22s18.64-8.06-2.26-1.6c0,0,12.36-17.36-2.74-.7,0,0-6.99-12.7-2.14.95l-5.8,1.75,1.15,1.87-20.66,7.88-.07-1.17,10.18-7.31c.32-30.42-12.14-59.47-12.14-59.47l-28.32,17.9,8.13,18.11-4.33,1.49,1.53,2.72,3.57-2.51,1.67,3.72c-.69.07-1.44.28-2.18.63-2.18,1.04-3.45,2.95-2.83,4.26.62,1.31,2.9,1.53,5.09.49.7-.33,1.3-.75,1.78-1.22l8.24,18.35c-1.09-.41-6.43-2.19-14.82-.81-.88.15-1.71.38-2.51.68l-17.13-8.95,1.44-1.71-5.77-2.75c7.27-13.48-2.08-1.33-2.08-1.33-13.09-19.82-2.98.29-2.98.29-20.8-10.08-2.62,1.31-2.62,1.31-22.55-3.47,1.7,3.08,1.7,3.08-18.15,5.44,2.52,1.96,2.52,1.96l3.49,4.23,1.48-1.75,15.28,8.62c-7.33,7.12-9.15,22.74-9.25,35.79-.57,11.37,1.15,20.95,1.15,20.95l5.66-.46-9.9,13.23-11.19-1.19,13.22,10.18,21.1-23.31,24.1-1.97-.33-5.29,28.44,8.58,5.4-14.31-8.86,6.42-25.73-12.55-1.85-29.89,22.6-9.26.99,1.61,3.87-3.46s18.82,6.21,2.64-1.47c0,0,23.62-2.67,2.03-2.64Z"/><g><path d="m81.83,93.8l14.25-6.09-8.26-14.52s5.61-3.05,3.42-14.03-4.73-21.98-20.35-15.31c-14.23,6.08-6.7,18.92-5.16,22.65,2.34,5.65,8.21,12.44,11.72,10.8l4.37,16.5Z"/><polygon class="cls-6" points="65.31 55.82 67.7 57.93 73.51 48.9 71.72 47.32 65.31 55.82"/><polygon class="cls-6" points="74.06 47.5 73.84 45.53 85.08 47.1 84.32 50.71 74.06 47.5"/><ellipse class="cls-6" cx="75.02" cy="63.8" rx="4.89" ry="8.89" transform="translate(-9.96 14.03) rotate(-10.02)"/><ellipse class="cls-6" cx="84.37" cy="58.97" rx="3.97" ry="7.21" transform="translate(-17.93 47.51) rotate(-28.56)"/><polygon class="cls-6" points="84.23 78.95 83.87 73.42 87.79 77.39 84.23 78.95"/><path class="cls-3" d="m83.02,91.51s.58-8.62,3.2-10.04,7.33,4.44,7.33,4.44l-10.53,5.59Z"/><line class="cls-1" x1="83.67" y1="86.87" x2="91.29" y2="83.54"/><line class="cls-1" x1="85.52" y1="82.08" x2="87.29" y2="89.24"/><line class="cls-1" x1="87.23" y1="81.25" x2="91.14" y2="87.2"/></g><polygon points="73.13 95.82 70.59 96.04 72.15 99.4 74.4 98.95 73.13 95.82"/><polygon points="55.18 108.39 54.19 110.74 58.59 111.22 59.19 109 55.18 108.39"/><polygon points="56.71 104.52 55.39 106.71 59.68 107.81 60.59 105.7 56.71 104.52"/><polygon points="76.8 95.64 74.71 96.12 76.6 99.57 78.82 98.48 76.8 95.64"/><ellipse cx="52.73" cy="93.97" rx="1.07" ry=".77" transform="translate(-19.66 14.16) rotate(-12.91)"/><ellipse cx="98.29" cy="97.16" rx=".8" ry="1.12" transform="translate(-24.08 161.4) rotate(-72.37)"/><path d="m54.83,95.94l.85-1.07,10.33,5.87s2.45-.95,3.32-.09c1,1-.04,2.12-1.56,1.52,0,0,1.17,1.69-.51,1.96-1.22.19-2.29-1.21-2.38-2.47l-10.06-5.71Z"/><path d="m95.46,97.61l.28,1.25-9.25,3.68s-.4,1.91-1.55,2.03c-1.32.14-1.79-1.48-.45-2.23,0,0-1.84-.12-1.04-1.51.58-1.01,1.8-.49,2.77.19l9.24-3.42Z"/><polygon points="49.69 92.93 50.3 91.68 39.05 85.63 38.67 86.63 49.69 92.93"/><polygon points="34.7 82.55 32.9 84.83 35.28 86.89 38.21 83.67 34.7 82.55"/><polygon points="36.61 81.22 39.29 77.84 39.75 78.67 37.47 81.8 36.61 81.22"/><polygon points="33.14 80.69 30.85 75.26 31.73 75.01 34.18 80.42 33.14 80.69"/><polygon points="26.21 78.93 26.48 78.28 32.14 81.52 31.25 82.42 26.21 78.93"/><polygon points="24.46 82.48 24.75 81.77 30.49 83.36 30.57 84.42 24.46 82.48"/><polygon points="27.52 86.93 27.76 87.62 31.61 86.82 31.51 85.75 27.52 86.93"/><polygon points="100.58 95.62 110.87 91.48 111.87 92.31 101.24 96.93 100.58 95.62"/><polygon points="112.1 89.35 114.29 92.52 116.42 91.14 115.25 88.41 112.1 89.35"/><polygon points="112.6 87.13 111.11 83.72 111.6 83.36 113.55 87.04 112.6 87.13"/><polygon points="115.5 86.57 118.65 82.27 119.41 82.45 116.41 86.89 115.5 86.57"/><polygon points="118.22 87.58 123.59 85.87 124.24 86.52 118.59 88.53 118.22 87.58"/><polygon points="119.06 90.78 119.11 89.7 124.72 89.65 125.05 90.54 119.06 90.78"/><polygon points="116.69 93.32 117.37 92.53 121.1 94.02 120.64 94.6 116.69 93.32"/><path d="m83.91,131.58l-22.72,10.62s.5,5.59,4.81,3.63c4.31-1.96,6.25-7.91,6.25-7.91,0,0,5.87,2.29,11.66-.16,5.79-2.45,0-6.19,0-6.19Zm-18.1,12.42c-1.89.62-3.63-1.26-3.63-1.26l6.37-2.78s-.85,3.41-2.74,4.03Zm15.96-7.33c-1.98,1.14-5.5-.29-5.5-.29l7.27-3.42s.21,2.58-1.77,3.72Z"/><g><polygon points="77.3 106.52 79.65 106.49 80.49 108.46 76.99 108.23 77.3 106.52"/><polygon points="75.52 108.07 76.08 106.35 73.34 105.48 71.44 107.2 75.52 108.07"/><polygon points="75.18 109.67 74.75 111.66 68.59 110.27 69.76 108.29 75.18 109.67"/><polygon points="76.64 110.17 76.17 112.16 81.99 113.49 82.11 111.26 76.64 110.17"/><polygon points="66.97 111.72 74.44 113.91 73.91 116.37 66 113.85 66.97 111.72"/><polygon points="73.6 117.8 73.21 119.81 64.59 117.54 65.2 115.64 73.6 117.8"/><polygon points="72.78 121.65 72.15 123.58 63.23 120.99 63.93 118.83 72.78 121.65"/><polygon points="62.37 125.5 62.69 123.39 71.66 125.67 69.39 127.39 62.37 125.5"/><polygon points="76.11 114.73 75.69 117.03 83.35 118.62 83.52 116.18 76.11 114.73"/><polygon points="75.4 118.67 75.01 120.78 83.49 122.8 83.75 120.67 75.4 118.67"/><polygon points="74.69 122.55 74.11 124.35 83.27 126.66 83.48 124.25 74.69 122.55"/><polygon points="74.75 126.31 76.14 128.75 82.68 130.04 83.17 128.02 74.75 126.31"/></g><path d="m60.18,140.9s-10.49-10.61,4.91-7.75l.04,2.24s-4.48-1.43-5.06.75,1.99,4.04,1.99,4.04l-1.88.71Z"/><polygon points="37.61 169.55 44.3 174.73 47.4 171.87 37.61 169.55"/><polygon points="113.91 152.01 117.52 153.01 119.48 146.25 113.91 152.01"/><ellipse cx="55.54" cy="159.02" rx="1.35" ry="1.04" transform="translate(-20.15 8.54) rotate(-7.45)"/><ellipse cx="99.88" cy="143.8" rx="1.17" ry=".85" transform="translate(-54.19 60.64) rotate(-26.86)"/><path d="m56.72,156.23l5.12-5.62s-1.3-1.28.61-2.26,1.16,1.89,1.16,1.89c0,0,1.82-1.91,2.27-.34.58,2.02-2.7,1.58-2.7,1.58l-4.93,5.73-1.54-.98Z"/><path d="m98.15,141.83l-7.23-3.15s.72-1.59-1.52-1.77-.33,2.07-.33,2.07c0,0-2.54-1.04-2.32.5.28,1.98,3.24.44,3.24.44l7.09,3.32,1.07-1.4Z"/><path d="m53.07,160.59l1.44.95-5.12,6.71s1.05,1.45-.38,2.28c-.86.5-.73-1.45-.73-1.45,0,0-1.84.88-1.76-.27.13-1.88,1.55-1.02,1.55-1.02l5.01-7.19Z"/><path d="m102.54,144.07l-.78,1.48,8.2,3.8s-.16,1.77,1.57,1.88c1.04.07-.12-1.62-.12-1.62,0,0,2.12-.02,1.43-1.01-1.13-1.63-1.94-.24-1.94-.24l-8.37-4.28Z"/><polygon points="54.19 115.03 53.93 112.88 58.31 112.88 58.64 115.03 54.19 115.03"/><polygon points="54.83 119.67 54.19 117.39 57.99 116.78 58.64 119.2 54.83 119.67"/><polygon points="57.06 124.1 55.62 121.72 59.45 120.25 60.62 122.18 57.06 124.1"/><polygon points="70.18 136.35 73.56 135.03 72.73 132.66 68.78 135.03 70.18 136.35"/><polygon points="67.93 133.57 71.49 131.6 70.24 129.72 66.62 132.27 67.93 133.57"/><ellipse class="cls-2" cx="30.57" cy="175.64" rx="1.53" ry="2.17" transform="translate(-146.62 155.92) rotate(-73.78)"/><ellipse class="cls-2" cx="124.24" cy="155.62" rx="1.53" ry="2.17" transform="translate(-59.89 231.43) rotate(-73.78)"/><ellipse class="cls-5" cx="39.39" cy="179.89" rx="1.77" ry="2.51" transform="translate(-22.99 6.63) rotate(-7.45)"/><ellipse class="cls-5" cx="128.87" cy="147.65" rx="1.77" ry="2.51" transform="translate(-18.05 17.95) rotate(-7.45)"/></g></g></svg>