<?xml version="1.0" encoding="UTF-8"?><svg id="Livello_2" xmlns="http://www.w3.org/2000/svg" viewBox="0 0 167.9 49.3"><defs><style>.cls-1{fill:#fff;}</style></defs><g id="Livello_1-2"><g id="_图层_6"><path class="cls-1" d="m55.9,37.9c0,.1,0,.2.2.3h.9c.1,0,.2-.1.2-.2l.9-5.4h0l2.2,5.6c0,.1.1.1.2.1h.2c.1,0,.2,0,.2-.1l2.2-5.6h0l1,5.4c0,.1.1.2.2.2h.7c.2,0,.2-.1.2-.3l-1.5-8.1c0-.1-.1-.2-.2-.2h-.2c-.1,0-.2.1-.2.1l-2.5,6.2h0l-2.6-6.2c0-.1-.1-.1-.2-.1h-.2c-.1,0-.2.1-.2.2l-1.5,8.1Zm11.1,0c0,.1.1.2.2.2h.8c.1,0,.2-.1.2-.2v-8c0-.1-.1-.2-.2-.2h-.8c-.1,0-.2.1-.2.2v8Zm3.6,0c0,.1.1.2.2.2h4.3c.1,0,.2-.1.2-.2h0v-.7c0-.1-.1-.2-.2-.2h-3.3v-7.1c0-.1-.1-.2-.2-.2h-.8c-.1,0-.2.1-.2.2h0v8Zm5.7.2h.8c.1,0,.2-.1.3-.2.2-.5.5-1.1.7-1.7h4l.7,1.7c0,.1.2.2.3.2h.8c.1,0,.2-.1.2-.2v-.1l-3.7-8.1c0-.1-.1-.1-.2-.1h-.2c-.1,0-.2.1-.2.1l-3.7,8.1c-.1.1,0,.2.2.3-.1.1,0,.1,0,0m2.2-2.8l1.5-3.3h.1l1.5,3.3h-3.1Zm6.7,2.6c0,.1.1.2.2.2h.8c.1,0,.2-.1.2-.2h0v-5.9h0l5.2,6.2h.4c.1,0,.2-.1.2-.2h0v-8.1c0-.1-.1-.2-.2-.2h-.8c-.1,0-.2.1-.2.2h0v5.7h0l-5.2-6.1h-.3c-.1,0-.2.1-.2.2h0v8.2s-.1,0-.1,0Zm8.8-4c0,2.4,2,4.3,4.4,4.3s4.3-2,4.3-4.4-2-4.3-4.4-4.3c-2.4.1-4.3,2-4.3,4.4h0m1.2,0c0-1.7,1.4-3.1,3.1-3.1s3.1,1.4,3.1,3.1-1.4,3.1-3.1,3.1h0c-1.7.1-3.1-1.3-3.1-3.1m11,4.3h4.2c.1,0,.2-.1.2-.2h0v-.5c0-.1-.1-.2-.2-.2h-1.3v-7c0-.1-.1-.2-.2-.2h-.6l-1.8,1.6v.2l.1.4c0,.1.1.1.2.1h0l1.1-.5v5.4h-1.7c-.1,0-.2.1-.2.2h0v.5c0,.1.1.2.2.2h0m5.8-2.2c0,1.3,1.1,2.3,2.8,2.3s2.8-1,2.8-2.3c-.1-.9-.6-1.6-1.5-2h0c.8-.4,1.3-1.1,1.3-2-.2-1.4-1.5-2.4-3-2.2-1.1.2-2,1.1-2.2,2.2,0,.8.5,1.5,1.2,1.9h0c-.7.3-1.3,1.2-1.4,2.1m2.8-2.6c-1-.1-1.3-.6-1.3-1.3s.6-1.3,1.3-1.3h0c.7-.1,1.3.5,1.4,1.2v.1c0,.7-.5,1.2-1.4,1.3m-1.5,2.6c.1-.8.8-1.5,1.7-1.4.8.1,1.4.7,1.4,1.4,0,.8-.7,1.4-1.5,1.3h-.1c-.8.1-1.4-.5-1.5-1.3h0m5.6-1.1c0,1.9.9,3.4,2.8,3.4,1.5,0,2.7-1.3,2.7-2.8.1-1.4-1-2.6-2.4-2.6h-.1c-.6,0-1.1.2-1.6.5.4-1.5,2.3-2.5,2.9-2.7.2-.1.3-.2.2-.3l-.2-.5c0-.1-.2-.2-.3-.2h0c-1.1.4-4,1.8-4,5.2m2.8,2.3c-1.3,0-1.8-1.4-1.7-2.4.4-.6,1-.9,1.7-.9.9,0,1.7.7,1.7,1.7,0,.9-.8,1.6-1.7,1.6m3.6,0c.6.7,1.5,1.1,2.5,1.1,1.7,0,2.7-1,2.7-2.3-.1-.9-.6-1.7-1.5-2h0c.8-.4,1.3-1.1,1.3-2,0-1.3-1.1-2.3-2.4-2.2h-.2c-.9,0-1.7.4-2.2,1.1-.1.1-.1.2,0,.3h0l.4.4c.1.1.2.1.3,0h0c.3-.4.9-.7,1.4-.7.7,0,1.4.5,1.4,1.3h0c0,.7-.6,1.3-1.7,1.3h-.7c-.2,0-.2.1-.2.2v.5c0,.2.1.3.2.3h.7c1.3,0,1.9.7,1.9,1.4,0,.8-.7,1.4-1.5,1.3h0c-.6,0-1.2-.3-1.6-.8-.1-.1-.2-.1-.3,0h0l-.5.4c0,.2,0,.3,0,.4q.1,0,0,0"/><path class="cls-1" d="m55.9,23.6c0,.2.2.3.3.3h1.6c.2,0,.3-.1.3-.3v-4.1h2.2c2.1.1,3.9-1.5,4.1-3.7.1-2.1-1.5-3.9-3.7-4.1h-4.5c-.2,0-.3.1-.3.3v11.6Zm2.3-6.1v-3.5h2c.9,0,1.7.7,1.8,1.7h0c0,1-.8,1.8-1.8,1.8h-2Zm7.3.4c0,3.4,2.8,6.2,6.2,6.2s6.2-2.8,6.2-6.2-2.8-6.2-6.2-6.2-6.2,2.7-6.2,6.1v.1m2.2,0c0-2.2,1.7-4,3.9-4s4,1.7,4,3.9-1.7,4-3.9,4h0c-2.2.1-3.9-1.7-4-3.9m12,5.7c0,.2.1.3.3.4h6.3c.2,0,.3-.1.3-.3h0v-1.5c0-.2-.1-.3-.3-.3h-4.3v-9.7c0-.2-.1-.3-.3-.3h-1.7c-.2,0-.3.1-.3.3h0v11.4Zm9.3,0c0,.2.2.3.3.3h1.6c.2,0,.3-.1.3-.3v-11.4c0-.2-.1-.3-.3-.3h-1.6c-.2,0-.3.1-.3.3v11.4Zm7.4,0c0,.2.2.3.3.3h1.6c.2,0,.3-.2.3-.3v-9.7h2.6c.2,0,.3-.1.3-.3h0v-1.4c0-.2-.1-.3-.3-.3h-7.6c-.2,0-.3.1-.3.3h0v1.4c0,.2.1.3.3.3h2.6l.2,9.7Zm7.2,0c0,.2.1.3.3.3h7c.2,0,.3-.1.3-.3h0v-1.4c0-.2-.1-.3-.3-.3h-5.1v-3h4.3c.2,0,.3-.1.3-.3h0v-1.5c0-.2-.2-.3-.3-.3h-4.3v-2.8h5.1c.2,0,.3-.1.3-.3v-1.4c0-.2-.1-.3-.3-.3h-7c-.2,0-.3.1-.3.3h0v11.3Zm9.4-5.7c0,3.4,2.8,6.2,6.2,6.2h.1c1.6,0,3.1-.6,4.2-1.7.1-.1.1-.3,0-.5l-1.1-1.1c-.1-.1-.3-.1-.4,0-.7.6-1.7,1-2.6,1-2.2,0-3.9-1.8-3.9-3.9v-.1c0-2.2,1.7-4,3.8-4h0c1,0,1.9.4,2.7,1,.1.1.3.1.4,0h0l1.1-1.1c.1-.1.1-.3,0-.5h0c-1.1-1.1-2.6-1.7-4.2-1.6-3.5.1-6.3,2.8-6.3,6.3h0m12.7,5.7c0,.2.2.3.3.3h1.6c.2,0,.3-.1.3-.3h0v-7.4h0l7.2,7.9h.4c.2,0,.3-.1.3-.3v-11.6c0-.2-.1-.3-.3-.3h-1.5c-.2,0-.3.1-.3.3h0v7.1h0l-7.2-7.6h-.4c-.2,0-.3.1-.3.3l-.1,11.6Zm13.2,0c0,.2.1.3.3.3h1.6c.2,0,.3-.1.3-.3v-11.4c0-.2-.1-.3-.3-.3h-1.6c-.2,0-.3.2-.3.3v11.4Zm4.5-5.7c0,3.4,2.8,6.2,6.2,6.2h.1c1.6,0,3.1-.6,4.2-1.7.1-.1.1-.3,0-.5l-1.1-1.1c-.1-.1-.3-.1-.4,0-.7.6-1.7,1-2.6,1-2.2,0-3.9-1.8-3.9-3.9v-.1c0-2.2,1.7-4,3.8-4h0c1,0,1.9.4,2.7,1,.1.1.3.1.4,0h0l1.1-1.1c.1-.1.2-.3,0-.4h0c-1.1-1.1-2.6-1.7-4.2-1.6-3.5,0-6.2,2.8-6.3,6.2h0m12.1,0c0,3.4,2.8,6.2,6.2,6.2s6.2-2.8,6.2-6.2-2.8-6.2-6.2-6.2c-3.5,0-6.2,2.7-6.2,6.2q-.1,0,0,0m2.2,0c0-2.2,1.7-4,3.9-4s4,1.7,4,4-1.7,4-4,4h-.1c-2,0-3.8-1.8-3.8-4"/><polygon class="cls-1" points="24.7 47.2 24.7 49.3 25.1 49.3 25.1 47.2 24.7 47.2"/><polygon class="cls-1" points="23.6 49.3 24 49.3 24.1 47.2 23.7 47.1 23.6 49.3"/><polygon class="cls-1" points="25.8 47.1 25.9 49.3 26.3 49.3 26.2 47.1 25.8 47.1"/><rect class="cls-1" x="21.66" y="47.96" width="2.2" height=".4" transform="translate(-27.08 66.96) rotate(-85.38)"/><rect class="cls-1" x="26.9" y="47" width=".4" height="2.2" transform="translate(-4.64 2.93) rotate(-5.7)"/><rect class="cls-1" x="20.58" y="47.88" width="2.2" height=".4" transform="translate(-28.8 63.36) rotate(-82.57)"/><rect class="cls-1" x="28" y="46.9" width=".4" height="2.2" transform="translate(-6.84 4.74) rotate(-8.57)"/><polygon class="cls-1" points="20.1 48.9 20.6 49 21 46.8 20.5 46.8 20.1 48.9"/><polygon class="cls-1" points="28.9 46.8 29.3 48.9 29.7 48.8 29.3 46.7 28.9 46.8"/><polygon class="cls-1" points="19 48.7 19.4 48.8 19.9 46.7 19.5 46.6 19 48.7"/><polygon class="cls-1" points="29.9 46.5 30.4 48.7 30.8 48.6 30.3 46.5 29.9 46.5"/><rect class="cls-1" x="17.28" y="47.19" width="2.2" height=".4" transform="translate(-32.2 52.43) rotate(-74.49)"/><rect class="cls-1" x="31.2" y="46.2" width=".4" height="2.2" transform="translate(-11.99 10.68) rotate(-16.26)"/><polygon class="cls-1" points="16.8 48.1 17.2 48.2 17.9 46.1 17.5 46 16.8 48.1"/><polygon class="cls-1" points="31.9 46 32.6 48 33 47.9 32.3 45.8 31.9 46"/><polygon class="cls-1" points="15.7 47.7 16.1 47.8 16.9 45.8 16.5 45.6 15.7 47.7"/><polygon class="cls-1" points="32.9 45.6 33.7 47.6 34.1 47.5 33.3 45.5 32.9 45.6"/><polygon class="cls-1" points="14.7 47.2 15.1 47.4 15.9 45.4 15.5 45.2 14.7 47.2"/><polygon class="cls-1" points="33.9 45.2 34.8 47.2 35.2 47 34.2 45 33.9 45.2"/><polygon class="cls-1" points="13.6 46.7 14 46.9 15 45 14.6 44.8 13.6 46.7"/><polygon class="cls-1" points="34.8 44.8 35.8 46.7 36.2 46.5 35.2 44.6 34.8 44.8"/><polygon class="cls-1" points="12.6 46.2 13 46.4 14 44.5 13.7 44.3 12.6 46.2"/><polygon class="cls-1" points="35.7 44.3 36.8 46.1 37.2 45.9 36.1 44 35.7 44.3"/><polygon class="cls-1" points="11.6 45.6 12 45.8 13.1 44 12.8 43.8 11.6 45.6"/><polygon class="cls-1" points="36.6 43.7 37.8 45.5 38.2 45.3 37 43.5 36.6 43.7"/><polygon class="cls-1" points="10.7 45 11 45.2 12.2 43.4 11.9 43.2 10.7 45"/><polygon class="cls-1" points="37.5 43.1 38.8 44.9 39.1 44.7 37.8 42.9 37.5 43.1"/><polygon class="cls-1" points="9.7 44.3 10.1 44.5 11.4 42.8 11.1 42.6 9.7 44.3"/><polygon class="cls-1" points="38.4 42.5 39.7 44.2 40 44 38.7 42.3 38.4 42.5"/><polygon class="cls-1" points="8.8 43.6 9.2 43.9 10.5 42.2 10.2 41.9 8.8 43.6"/><polygon class="cls-1" points="39.2 41.9 40.6 43.5 40.9 43.3 39.5 41.6 39.2 41.9"/><rect class="cls-1" x="8.02" y="42.09" width="2.2" height=".4" transform="translate(-28.49 20.92) rotate(-48.23)"/><rect class="cls-1" x="40.71" y="40.68" width=".4" height="2.2" transform="translate(-17.51 39.3) rotate(-43.17)"/><polygon class="cls-1" points="7.2 42 7.4 42.3 9 40.8 8.7 40.5 7.2 42"/><rect class="cls-1" x="41.48" y="39.97" width=".4" height="2.2" transform="translate(-16.82 42.64) rotate(-46.12)"/><polygon class="cls-1" points="6.4 41.2 6.6 41.5 8.2 40 8 39.7 6.4 41.2"/><rect class="cls-1" x="42.23" y="39.22" width=".4" height="2.2" transform="translate(-15.86 45.63) rotate(-48.74)"/><polygon class="cls-1" points="5.6 40.3 5.9 40.7 7.5 39.2 7.3 38.9 5.6 40.3"/><rect class="cls-1" x="42.91" y="38.3" width=".4" height="2.2" transform="translate(-14.55 48.69) rotate(-51.58)"/><polygon class="cls-1" points="4.9 39.4 5.1 39.8 6.9 38.4 6.6 38.1 4.9 39.4"/><polygon class="cls-1" points="42.8 38 44.5 39.3 44.8 39 43 37.7 42.8 38"/><rect class="cls-1" x="4.08" y="37.8" width="2.2" height=".4" transform="translate(-20.5 9.51) rotate(-34.27)"/><rect class="cls-1" x="44.18" y="36.48" width=".4" height="2.2" transform="translate(-11.5 53.68) rotate(-56.33)"/><rect class="cls-1" x="3.49" y="36.9" width="2.2" height=".4" transform="translate(-18.77 7.92) rotate(-31.63)"/><polygon class="cls-1" points="43.9 36.3 45.8 37.4 46 37.1 44.1 36 43.9 36.3"/><polygon class="cls-1" points="3 36.5 3.2 36.9 5.1 35.8 4.9 35.5 3 36.5"/><rect class="cls-1" x="45.18" y="34.83" width=".4" height="2.2" transform="translate(-7.69 59.04) rotate(-61.89)"/><polygon class="cls-1" points="2.5 35.5 2.7 35.9 4.6 34.9 4.4 34.5 2.5 35.5"/><polygon class="cls-1" points="44.9 34.5 46.9 35.4 47.1 35 45.1 34.1 44.9 34.5"/><polygon class="cls-1" points="2 34.5 2.2 34.8 4.2 34 4 33.6 2 34.5"/><polygon class="cls-1" points="45.4 33.5 47.4 34.3 47.5 34 45.5 33.1 45.4 33.5"/><polygon class="cls-1" points="1.6 33.4 1.7 33.8 3.8 33 3.6 32.6 1.6 33.4"/><polygon class="cls-1" points="45.8 32.5 47.8 33.3 47.9 32.9 45.9 32.2 45.8 32.5"/><polygon class="cls-1" points="1.2 32.3 1.3 32.7 3.4 32 3.3 31.6 1.2 32.3"/><polygon class="cls-1" points="46.1 31.5 48.2 32.2 48.3 31.8 46.2 31.2 46.1 31.5"/><rect class="cls-1" x=".9" y="30.9" width="2.2" height=".4" transform="translate(-8.32 1.69) rotate(-15.65)"/><polygon class="cls-1" points="46.4 30.5 48.5 31.1 48.6 30.7 46.5 30.1 46.4 30.5"/><rect class="cls-1" x=".6" y="29.8" width="2.2" height=".4" transform="translate(-6.58 1.12) rotate(-12.76)"/><polygon class="cls-1" points="46.6 29.5 48.8 30 48.8 29.6 46.7 29.1 46.6 29.5"/><polygon class="cls-1" points=".4 29 .4 29.4 2.6 29 2.5 28.6 .4 29"/><rect class="cls-1" x="47.6" y="27.16" width=".4" height="2.2" transform="translate(12.7 71.29) rotate(-81.38)"/><rect class="cls-1" x=".2" y="27.7" width="2.2" height=".4" transform="translate(-3.77 .43) rotate(-7.78)"/><polygon class="cls-1" points="47 27.5 49.2 27.8 49.2 27.3 47 27.1 47 27.5"/><rect class="cls-1" x=".2" y="26.7" width="2.2" height=".4" transform="translate(-2.41 .22) rotate(-5.14)"/><polygon class="cls-1" points="47.1 26.5 49.3 26.7 49.3 26.3 47.1 26.1 47.1 26.5"/><polygon class="cls-1" points="0 25.5 0 26 2.2 25.8 2.2 25.4 0 25.5"/><polygon class="cls-1" points="47.2 25.5 49.3 25.6 49.3 25.2 47.2 25.1 47.2 25.5"/><polygon class="cls-1" points="0 24.8 2.2 24.8 2.2 24.4 0 24.4 0 24.8"/><polygon class="cls-1" points="47.2 24.1 47.2 24.5 49.3 24.5 49.3 24.1 47.2 24.1"/><polygon class="cls-1" points="0 23.6 2.2 23.8 2.2 23.4 0 23.2 0 23.6"/><polygon class="cls-1" points="47.1 23.1 47.1 23.5 49.3 23.4 49.3 22.9 47.1 23.1"/><rect class="cls-1" x="1" y="21.29" width=".4" height="2.2" transform="translate(-21.2 21.52) rotate(-84.7)"/><polygon class="cls-1" points="47 22 47 22.4 49.2 22.2 49.2 21.8 47 22"/><polygon class="cls-1" points=".2 21.4 2.4 21.7 2.4 21.3 .3 21 .2 21.4"/><polygon class="cls-1" points="46.9 21 46.9 21.4 49.1 21.1 49 20.7 46.9 21"/><polygon class="cls-1" points=".4 20.2 2.5 20.6 2.6 20.2 .5 19.8 .4 20.2"/><polygon class="cls-1" points="46.7 20 46.8 20.4 48.9 19.9 48.8 19.5 46.7 20"/><polygon class="cls-1" points=".6 19.1 2.8 19.6 2.8 19.2 .7 18.7 .6 19.1"/><polygon class="cls-1" points="46.4 19 46.5 19.4 48.7 18.8 48.5 18.4 46.4 19"/><polygon class="cls-1" points=".9 18 3 18.6 3.1 18.2 1 17.6 .9 18"/><polygon class="cls-1" points="46.1 18 46.3 18.3 48.3 17.7 48.2 17.3 46.1 18"/><polygon class="cls-1" points="1.3 16.9 3.3 17.6 3.5 17.2 1.4 16.5 1.3 16.9"/><polygon class="cls-1" points="45.8 17 45.9 17.3 48 16.6 47.9 16.2 45.8 17"/><polygon class="cls-1" points="1.6 15.8 3.7 16.6 3.8 16.2 1.8 15.4 1.6 15.8"/><rect class="cls-1" x="45.39" y="15.49" width="2.2" height=".4" transform="translate(-2.49 18.67) rotate(-22.13)"/><polygon class="cls-1" points="2.1 14.7 4.1 15.6 4.2 15.3 2.3 14.4 2.1 14.7"/><polygon class="cls-1" points="45 15 45.2 15.4 47.2 14.5 47 14.1 45 15"/><polygon class="cls-1" points="2.6 13.7 4.5 14.7 4.7 14.3 2.8 13.3 2.6 13.7"/><polygon class="cls-1" points="44.5 14.1 44.7 14.4 46.7 13.4 46.5 13.1 44.5 14.1"/><polygon class="cls-1" points="3.1 12.7 5 13.8 5.2 13.4 3.3 12.3 3.1 12.7"/><polygon class="cls-1" points="44 13.2 44.2 13.5 46.1 12.4 45.9 12.1 44 13.2"/><rect class="cls-1" x="4.48" y="11.03" width=".4" height="2.2" transform="translate(-8.06 9.58) rotate(-57.57)"/><polygon class="cls-1" points="43.4 12.3 43.7 12.6 45.5 11.4 45.3 11.1 43.4 12.3"/><polygon class="cls-1" points="4.3 10.7 6.1 12 6.3 11.6 4.6 10.4 4.3 10.7"/><rect class="cls-1" x="42.82" y="10.8" width="2.2" height=".4" transform="translate(1.84 27.73) rotate(-35.74)"/><polygon class="cls-1" points="5 9.8 6.7 11.1 7 10.8 5.2 9.5 5 9.8"/><polygon class="cls-1" points="42.2 10.6 42.5 10.9 44.2 9.6 43.9 9.2 42.2 10.6"/><polygon class="cls-1" points="5.7 8.9 7.4 10.3 7.6 10 6 8.6 5.7 8.9"/><rect class="cls-1" x="41.39" y="8.99" width="2.2" height=".4" transform="translate(4.4 30.15) rotate(-41.02)"/><polygon class="cls-1" points="6.5 8 8.1 9.5 8.3 9.2 6.8 7.7 6.5 8"/><polygon class="cls-1" points="40.8 9 41.1 9.3 42.7 7.8 42.4 7.5 40.8 9"/><polygon class="cls-1" points="7.3 7.2 8.8 8.8 9.1 8.5 7.6 6.9 7.3 7.2"/><polygon class="cls-1" points="40.1 8.3 40.4 8.6 41.9 7 41.6 6.7 40.1 8.3"/><polygon class="cls-1" points="8.1 6.4 9.6 8 9.9 7.8 8.4 6.1 8.1 6.4"/><polygon class="cls-1" points="39.3 7.6 39.6 7.8 41 6.2 40.7 5.9 39.3 7.6"/><polygon class="cls-1" points="9 5.6 10.4 7.3 10.7 7.1 9.3 5.4 9 5.6"/><rect class="cls-1" x="38.2" y="6.02" width="2.2" height=".4" transform="translate(9.84 32.96) rotate(-51.23)"/><polygon class="cls-1" points="9.9 4.9 11.2 6.7 11.5 6.4 10.2 4.7 9.9 4.9"/><polygon class="cls-1" points="37.6 6.3 38 6.5 39.3 4.8 38.9 4.5 37.6 6.3"/><polygon class="cls-1" points="10.8 4.3 12 6.1 12.4 5.8 11.1 4 10.8 4.3"/><polygon class="cls-1" points="36.8 5.7 37.1 5.9 38.3 4.1 38 3.9 36.8 5.7"/><polygon class="cls-1" points="11.8 3.6 12.9 5.5 13.2 5.3 12.1 3.4 11.8 3.6"/><polygon class="cls-1" points="35.9 5.2 36.2 5.4 37.3 3.5 37 3.3 35.9 5.2"/><polygon class="cls-1" points="12.8 3.1 13.8 5 14.2 4.8 13.1 2.9 12.8 3.1"/><polygon class="cls-1" points="35 4.7 35.3 4.9 36.3 2.9 36 2.7 35 4.7"/><rect class="cls-1" x="14.19" y="2.3" width=".4" height="2.2" transform="translate(-.06 6.52) rotate(-25.47)"/><polygon class="cls-1" points="34 4.2 34.4 4.4 35.3 2.4 34.9 2.2 34 4.2"/><polygon class="cls-1" points="14.8 2 15.7 4.1 16.1 3.9 15.2 1.9 14.8 2"/><rect class="cls-1" x="32.58" y="2.63" width="2.2" height=".4" transform="translate(18.44 32.99) rotate(-68)"/><polygon class="cls-1" points="15.9 1.6 16.7 3.7 17 3.5 16.3 1.5 15.9 1.6"/><polygon class="cls-1" points="32.1 3.4 32.5 3.6 33.2 1.5 32.8 1.4 32.1 3.4"/><polygon class="cls-1" points="17 1.2 17.6 3.3 18 3.2 17.4 1.1 17 1.2"/><polygon class="cls-1" points="31.1 3.1 31.5 3.2 32.1 1.1 31.7 1 31.1 3.1"/><polygon class="cls-1" points="18.1 .9 18.6 3 19 2.9 18.5 .8 18.1 .9"/><rect class="cls-1" x="29.35" y="1.63" width="2.2" height=".4" transform="translate(21.03 30.84) rotate(-75.45)"/><rect class="cls-1" x="19.4" y=".5" width=".4" height="2.2" transform="translate(.1 4.15) rotate(-12.13)"/><polygon class="cls-1" points="29 2.6 29.4 2.7 29.9 .6 29.5 .5 29 2.6"/><polygon class="cls-1" points="20.3 .4 20.7 2.5 21.1 2.5 20.7 .3 20.3 .4"/><rect class="cls-1" x="27.14" y="1.15" width="2.2" height=".4" transform="translate(22.67 29.07) rotate(-81.38)"/><rect class="cls-1" x="21.6" y=".2" width=".4" height="2.2" transform="translate(0 2.7) rotate(-7.08)"/><rect class="cls-1" x="26.13" y="1.06" width="2.2" height=".4" transform="translate(22.94 28.18) rotate(-83.58)"/><polygon class="cls-1" points="22.6 .1 22.8 2.3 23.2 2.2 23 .1 22.6 .1"/><polygon class="cls-1" points="25.9 2.2 26.3 2.2 26.5 .1 26 0 25.9 2.2"/><polygon class="cls-1" points="23.8 0 23.8 2.2 24.2 2.2 24.2 0 23.8 0"/><polygon class="cls-1" points="24.9 2.2 25.3 2.2 25.3 0 24.9 0 24.9 2.2"/><path class="cls-1" d="m41.2,35.7h0s-1.9-.3-2.1-3.5l1.2,1.2h.2v-.2h0s-1.4-1.4-2.6-2.8h0c.4-.9.6-1.8.6-2.7v-.2c.4-.2.8-.3,1.2-.3h.2q.1,0,.1-.1h0q0-.1-.1-.1h-.3c-.5,0-1,.1-1.4.4-.2.1-.3.2-.4.4-1,1-2,2-3.2,2.9-.4.3-.7.5-.9.7l-.1.1s0,.1-.1.1c.5-3.9,2-7.5,4.4-10.6h.6l-.8,3.3q0,.1.1.1t.1-.1h0l.9-3.4c.3-.1.5-.2.7-.3.6-.3,1.2-.8,1.7-1.3l1-.8s.2-.2.4-.5c.5,1.5.8,3.1,1,4.8.1.7.1,1.4.1,2.1,0,2.1-.3,4.2-.8,6.2-.1-1.4-.3-3.7-.3-5.3,0-.4,0-.8.1-1.3s.1-1.1,0-1.6c0-.5,0-1.1-.1-1.6,0-.1-.1-.1-.1-.1-.1,0-.1.1-.1.1h0c.1.5.1,1,.1,1.6,0,.5,0,1-.1,1.5-.1.4-.1.9-.1,1.3,0,1.9.3,4.7.3,5.9v.4h0c-.1.3-.1.7-.1,1,0,.9.2,1.8.7,2.5-.5.1-1.2.2-2,.2m-.9,0h-1.9c-.7-.3-1.3-.7-1.8-1.3h-.2v.2h0c.4.4.8.8,1.3,1.1h-1l-.7-.1h-.2c-.1-.2-.1-.4-.1-.7,0-.2,0-.3.1-.5.8-1.2,1.4-2.4,2-3.7.4.5.8.9,1.2,1.4h0c.1,2.4,1.1,3.3,1.8,3.7h-.3m-4.5,1h0c0,.1-.3.4-.4.5s-.3.2-.5.3h-.5c-.2,0-.3-.1-.5-.1h-.1c-.2,0-.3.1-.5.1h-.1c-.1,0-.2-.2-.2-.5v-.3c.1-.2.1-.3.2-.5.2-.3.3-.7.3-1.1h0c.1-.5.2-.9.5-1.4.3-.9.4-1.9.5-2.9h0c1.1-.9,2.2-1.9,3.2-2.9.1-.1.1-.2.2-.2v.1c0,2.5-2.5,6-2.7,6.5-.1.2-.1.4-.1.6,0,.3,0,.6.1.8,0,.1,0,.2.1.2.2.1.4.5.5.8m-2.5-4.8c.1-.2.3-.4.4-.5l.7-.5c0,.4-.1,1.2-.3,1.8h0c-.7-.3-.8-.5-.8-.8h0m-.9,2l-.3-1c-.2-.4-.3-.9-.3-1.4,0-.6.1-1.1.4-1.6.1-.3.9-1.8.9-1.8l.5-1,.1-.3c0-.1,0-.2.1-.2.1-.6.2-1.2.3-1.8h0c0-.5-.1-1-.3-1.4-.1-.1-.1-.3-.1-.4v-.3c0-.2.3-1.3.4-1.6l1.4-.1c.3,0,.6-.1.8-.2v-.2h-.2c-.3.2-.5.3-.7.3h-2c-.1,0-.1.1-.1.1,0,.1.1.1.1.1h.4c-.1.3-.3,1.3-.4,1.5s0,.2,0,.4,0,.3.1.5c.2.4.3.9.3,1.4h0c-.1.6-.2,1.1-.3,1.7v.2c-.2,0-.6,0-1.2.1-.8.1-1.6.2-2.4.4.3-.5.4-1.1.4-1.6v-.1l.6-1.5h0v-.1c.2-.1.3-.2.5-.3.4-.3,1.1-1.6,1.1-1.6h0c.1-.1.1-.2.2-.4h0q0-.1.1-.2c.1-.2.3-.6.4-.9.1,0,.2-.1.3-.1.6-.3,1-.8,1.2-1.4v-.2c.7.9,1.7,1.6,2.8,2-1,1.2-1.9,2.6-2.5,4.1v-1.3q0-.1-.1-.1-.1,0-.1.1h0v.4c0,.5.1,1,.2,1.5h0c-.9,2.1-1.5,4.3-1.7,6.6h0v.1c0,.3.3.6,1,.8h.1c0,.2-.1.4-.2.6-.2.5-.4.9-.5,1.4h0c0,.1,0,.3-.1.4h0c-.4-.1-.5-.1-.9-1.4m-1-4.6s-.9,1.4-1,1.5c-.1.2-.1.4-.1.6v.2c0,.1,0,.3-.1.4v.1c0,.3.1.5.3.7.2.2.4.3.4.5h0c0,.1-.1.3-.4.4-.2.1-.5.1-.7.1h-.7c-.3,0-.3-.3-.3-.4v-.1s.2-.7.2-.8v-.8h0c.1-.3.2-.7.4-.9.1-.3.2-.6.2-.9v-2.7c.8-.2,1.6-.3,2.4-.4-.1.9-.3,1.7-.6,2.5m-2.4-1.7c-.8,1.5-2,2.9-2.1,3.1,0,.1-.1.3-.1.4,0,.4.1.7.2,1.1v.3c0,.2-.1.4-.2.6v-.2c0-.1-.1-.1-.1-.1h0c-.3,0-.5.2-.7.4-.2.4-.4.9-.5,1.3,0,.1-.1.3-.1.4,0-.1-.1-.1-.1-.2l-.1-1.6v-.1q-.1-.1-.2-.2h0v-.1c0-.1-.1-.2-.1-.4v-.4c.1-.4.3-.8.5-1.2.2-.5.4-1,.5-1.5.2-.7.4-1.4.4-1.4.1-.7.2-1.3.4-2,.1-.5.4-.9.8-1.3.2-.2.3-.5.3-.7h0l2.2-.3c.1,0,.2-.1.3-.1l-.7,1.4v.2c0,.6-.2,1.2-.5,1.7l-.1.9m-1.9,8.8h0l-.6-1.8-.1-.1s-.1,0-.1.1l-.9,2.1h0l.2-1.5h0c.1-.1.1-.3.2-.5.1-.4.2-.9.5-1.3.1-.1.3-.2.4-.3v.3l.4,3Zm-1.4.3l.7-1.7.5,1.4-1.2.3Zm1.7,1c.1,0,.1-.1.1-.1h0l-.1-1,.6-.1,3.3.7-6.1,1.7-3.1-1,3.2-.7-.2,1q0,.1.1.1.1,0,.1-.1h0l.5-1.2,1.4-.3.4,1c-.3,0-.2.1-.2,0m4.1.3l-6.4,1.9v-.8l6.4-1.8v.7Zm-6.6,1.7l-3.3-1.1v-.7l3.3,1.1v.7Zm1-12.1q-.1,0-.1.1c-.1.2-.2.3-.2.5,0,.1-.1.1-.2.2s-.1-.1-.1-.2v-.3q0-.1-.1-.1h0q-.1,0-.1.1h0v.3c0,.1,0,.3.1.4v.3h0c-.1.1-.3.2-.4.2h-.1c-.2-.1-.3-.2-.5-.3l-.4-.3-.1-.1c.1,0,.2-.1.2-.2h.1c.1.1.2.2.3.4,0,0,.1.1.1,0,.2,0,.3-.1.4-.2s.1-.3.1-.4h0c0-.3.1-.6.2-.8,0-.1,0,0,.3-.5l.4-.4c.1-.1.3-.2.5-.2.1,0,.2,0,.2.1-.2.6-.3,1.3-.4,1.9l-.4,1.4h0l-.2.4-.2.3c0,.1-.1.1-.1.1v-.2h0c0-.2.1-.3.2-.5s.1-.3.1-.5v-.4c.2,0,.4-.2.4-.4s.1-.3.2-.5c0-.1,0-.2-.2-.2q.1,0,0,0m-1.1,4.6v.6h-.3c-.5,0-.9.4-1.4.6-.4.1-.9.2-1.3.2.4-1,.7-2.1.9-3.2,0,0,.1-.8.1-1.8q0-.1-.1-.1-.1,0-.1.1h0c-.1,1-.1,1.8-.1,1.8-.2,1.1-.5,2.1-.9,3.2-.5-.2-.9-.5-1.3-.9h0s-.1-1.9-.1-2.7v-.3h0c.2-.6.3-1.2.4-1.8h0c.2-.4.2-.8.3-1.1h0c0-.2-.1-.3-.1-.5v-.2l.2-.2h0c.1.1.1.2.2.3.3.3.7.4,1.1.4h.2c.2-.1.3-.2.3-.2.2,0,.3-.2.3-.2.1,0,.2-.1.3-.3h.1c.2,0,.3-.1.4-.3v-.8c.2-.2.3-.4.4-.6.2,0,.5-.1.5-.1.3-.1.5-.3.5-.6,0-.1,0-.3-.1-.4-.1-.2-.3-.4-.5-.5,0-.1.1-.2.1-.2,0-.1-.1-.3-.2-.4-.1-.2-.3-.3-.5-.4v-2.1c.4-.1.8-.4,1-.8h.1c.1,0,.2,0,.3-.1.2-.1.3-.2.5-.3.1-.1.2-.2.2-.3l1.3.6v.2h0v.1c0,.1.1.3.2.4h0c0,.2,0,.4.1.6,0,.3.1.5.3.8h0s-.1.4-.2.4c-.4.4-.6.8-.7,1.3v.2c.1.5.4,1.4.4,1.4,0,.1.1.1.1.1h.1c-.1.2-.1.4-.2.5-.4.3-.7.7-.8,1.2-.1,0-.2-.1-.3-.1-.2,0-.5.1-.6.3l-.4.4h0c-.1-.2-.1-.5-.1-.7,0-1.1,1.3-1.6,1.3-1.7.1,0,.1-.1.1-.1,0-.1-.1-.1-.2-.1h0c-.3.1-.5.3-.8.5v-1.1c0-.1.2-.7.5-1.3.2-.5.4-1,.8-1.4.1,0,.1-.1.1-.1,0-.1-.1-.1-.1-.1h0c-.4.2-.8,1.1-1.1,1.9.1-.5.3-1.3.4-1.9q0-.1-.1-.1-.1,0-.1.1h0c-.3,1.1-.5,2.4-.5,2.7v.2c0,.5.1,1.4.1,1.5-.3.3-.4.7-.4,1.1,0,.3.1.6.2.9h0q-.2.2-.2.4c-.1.3-.2.6-.2.9h0v.3h-.7v.1c-.1-.1-.2-.3-.4-.4h-.2c-.1,0-.2.1-.2.2v.1c-.1,0-.2.1-.2.2s.1.2.2.2l.4.3c.2.1.4.3.6.3h.2c.1,0,.3,0,.4-.1v.1c-.1.2-.2.4-.2.6v.1c0,.1.1.3.3.3.1,0,.2-.1.2-.2v-.1c-.1.3-.2.6-.3.7-.2.6-.4,1-.5,1.5m-5.7-.7c.3-.2.5-.5.6-.9l.2-.4c0,.7.1,1.7.1,2.2-.5-.4-.9-.8-.9-.9m-.9.5c-.1-.4-.2-.7-.2-.8-.1-.5-.3-.9-.5-1.3.7-.1,1.3-.5,1.8-1h0c.4,0,.7-.2,1-.5-.1.5-.2.9-.4,1.4,0,0-.2.5-.4.9-.4.5-.8.9-1.3,1.3m.4,2.1c.2.2.2.5.3.8v.3c0,.1-.1.2-.1.3-.4.8-.4,1.6-2.3,1.6h-.7l-.3-.1c-.2-.1-2.6-1-3.7-1.6s-2-1.3-2.9-2.2h-.1c-.4-.4-.6-.9-.6-1.5v-.4c.6.5,1.4.8,2.2.9.5,0,.9.1,1.4.1.6,0,1.1-.1,1.6-.4,0,.6.2,1.1.5,1.5l.4.3.2.2.1.1h0c0,.1.1.2.1.3-.1,0-.2.1-.3.2,0,.1-.1.1-.1.2s.1.2.1.3h.1q.1,0,.2-.1s.1-.1.2-.1.3-.1.5-.3l.4.8h.1c.1,0,.1.1.2.1h.1s.1-.1.1-.2v-.5l-.1-.4.1.1.3.5c.1.1.2.2.3.2h.1c.1,0,.2-.1.2-.3v-.2l-.2-.6c0-.1-.1-.2-.2-.3h.1l.6.4h0c.1,0,.2,0,.2-.1v-.1c0-.1,0-.2-.1-.2l-.6-.7c-.1-.1-.2-.2-.4-.2l-.1-.1c-.1-.2-.2-.3-.4-.4-.2-.2-.4-.3-.7-.4-.2,0-.4-.1-.4-.2h0c0-.2.5-1.3.5-1.3l.3-.7.1-.2c.3.3.7.4,1.1.4.2.4.4.9.5,1.4,0,.2.3,1.1.5,1.8l.6,1m.3,1.3c.1.1.2.3.4.6.1.2.2.5.2.7,0,.3-.1.7-.1.9s-.2.2-.6.8c-.2.2-.5.3-.8.3s-.6-.1-.9-.1c-.7-.2-1.4-.3-2.1-.4-.7-.2-1.4-.5-2.1-.9-.6-.4-1.2-.9-1.8-1.4-.2-.2-.5-.3-.8-.3h0c-.5.2-.9.5-1.3.8-.1.1-.2.2-.3.3v.1c0,.1,0,.2.1.2.1.2.3.2.3.2l.3.1-.1.1-.1.1h0c-.1.1-.1.2-.1.3l-.1-.1h-.5v-.2h0c-.1-.2-.5-1-.6-1.1h0c.1-.5.3-1,.5-1.5.1-.4.2-.8.1-1.2,0-.1.1-.2.1-.3.8.9,1.8,1.6,2.8,2.2,1.1.5,3.5,1.5,3.7,1.6l.3.1c.5.2,1,.4,1.4.7h.2v-.2h0c-.3-.2-.6-.3-.9-.5h.1c1.9,0,2.1-1,2.5-1.7q.2-.1.2-.2m-10.9-5.5h0c.3-.3.7-.5,1.1-.7h.9c.1,0,.3,0,.4.1.1.1.2.8.4,1l.8.7h.2v-.2l-.8-.7c-.1-.3-.2-.6-.3-.9-.1-.1-.3-.2-.5-.2h0c-.2-.1-.3-.4-.4-.6h0v-.1c.1-.4.3-.7.6-1,.1-.1.3-.3.5-.4.3-.2.6-.4.8-.4.7.7,1.4,1.4,2.2,2h0c-.4.5-.4,1-.4,1.5v.2c0,.5,0,1,.1,1.5-.4.3-1,.5-1.5.4-.4,0-.9,0-1.4-.1-.8-.1-1.6-.4-2.2-.9l-.1-.1c-.3-.3-.4-.7-.4-1.1m-.3-.1h0c-.3.2-.5.4-.7.5-.6,0-.7-.4-.8-.8,0-.3.1-.6.1-.9,0-.4.8-.8,1-.9h.7l.5.1c.2.1.3.2.4.3l.4.2h0c0,.2.1.4.3.6h-.6c-.4.3-.9.5-1.3.9m-1.2-2.3h0c-.1-.1-.2-.1-.2-.2-.3-.3-.6-.2-1-.3h-.1l.2-.4.2-.3c.4-.9.6-1.9.5-2.9v-2.3h0c-.1-.9.3-1.8,1-2.4h1.2c-.4.5-.6,1.2-.6,1.9,0,1.2.3,3,.3,3.4h0c-.1.5-.1,1-.2,1.4-.1.3-.1.7-.1,1,0,.4.1.7.2,1.1h-.9c-.1,0-.3,0-.5,0m-1.6-.6c-.2,0-.3-.1-.4-.1l-.4-.1-.1-.1h0c.1-.1.2-.3.3-.4.1-.1.2-.3.2-.4l.4-1c.1-.2.2-.5.2-.8v-.1l.3-3.2c0-.9.3-1.7.9-2.3.2.1.3.1.5.1-.7.6-1,1.5-1,2.5h0c0,.7.1,1.5.1,2.3.1,1-.1,1.9-.5,2.8,0,.1-.1.2-.2.2-.1.2-.2.4-.3.6m-1.1-.5h0l-.8-.5c-.1-.1-.1-.2-.1-.2q0-.1.1-.2c.6-.8,1.1-1.5,1.5-2.3.2-.9.4-1.9.4-2.8,0-.6.3-1.3.6-1.8.1-.1.2-.3.3-.3l.2.1c-.5.6-.9,1.4-.9,2.3l-.3,3.4h0c0,.2-.1.5-.2.7,0,0-.3.6-.4,1,0,.1-.1.2-.2.3,0,.1-.1.2-.2.3m1.8-9.2c0-.1,0-.2.1-.3.3.2.6.4.9.4h.1c.5-.1.9-.2,1.4-.2.1,0,.3,0,.4.1.4.3.8.6,1.3.6.2,0,.4-.1.6-.2l1.3-.9h0c0,.2,0,.4.1.6,0,.4.1.7.2,1-.9.1-1.7.2-2.6.2h-1c-.5,0-1-.1-1.4-.2-.3,0-.5-.1-.8-.2l-.3-.1c-.2-.2-.3-.5-.3-.8m-.3-1c-.1-.2-.2-.4-.2-.6v-.2c.2-.2.7-.8.8-.8.3-.7.9-1.3,1.6-1.7-.1.6-.2,1.2-.2,1.4h0c.2.4.5.8.8,1.1.3.2.6.3,1,.4.2,0,1.2.4,1.4.5l.9.3-1.1.8c-.1.1-.3.2-.5.2-.4,0-.9-.4-1.1-.6s-.4-.3-.6-.3c-.4,0-1,.2-1.4.2h-.1c-.3,0-.6-.2-.8-.4h0c-.2-.1-.3-.3-.5-.3m2.3-1.9c0-.1.1-1,.2-1.5,0-.1,0-.2.1-.4.1-.5.5-.7.9-.9s.7-1,1.1-1.1c.7-.3,1.4-.5,2.1-.6.3-.1.6-.1.9-.1h.2c-.8.1-1.6.4-2.3.9-.6.6-.9,1.1-.9,1.6,0,.3.1.5.3.7.5.6,1,1.2,1.6,1.2h.2v.1c0,.6,0,1.2-.1,1.8v.3h-.1l-1-.4c-.2,0-1.2-.4-1.4-.5-.3-.1-.6-.2-.9-.4-.3-.3-.5-.6-.7-1h0l-.2.3Zm6.6-4.5h0c.4,0,.7.1,1.1.3.1.1.2.1.4.2.2.2.4.4.6.7.1.2.2.5.2.8,0,.2,0,.4-.1.6-.1.3-.2.5-.4.7-.1.2-.3.4-.6.6-.2.1-.6.2-.7.6-.1.6-.4,1.1-.7,1.6,0,0-.1.1-.1.2v.1q0,.1.1.2c.3.6.6,1.3.6,2v.1c0,.7.1,1.4.3,2s.4,1.3.8,1.4c.2,0,.3.1.4.2.2.1.4.3.6.4.1,0,.1.1.1.1h0c-.1,0-.2.1-.4.1h-.2c-.1-.1-.2-.1-.3-.1h0c-.1,0-.2.1-.2.1-.1,0-.2.1-.4.2h0v.1c0,.1-.1.2-.1.3,0,.2-.1.4-.1.5v.2c-.1.1-.2.1-.3.2h-.4c-.1-.1-.2-.2-.4-.4h-.2c-.1-.1-.1-.3-.1-.4v-.1c.1-.3.2-.5.3-.8h0c0-.2-.4-1.2-.4-1.3s-.7-.9-.8-1.1c-.3-.5-.6-1-.7-1.5-.1-.4-.2-.8-.2-1.2-.1-.2-.1-.4-.1-.6v-.5c.1-.7.1-1.7.1-1.9v-.2c.1-.5.2-.9.4-1.4.3-.7.6-1.3,1-1.9v-.2h-.1s-.1,0-.1.1c-.4.6-.7,1.3-1,1.9-.1.4-.2.9-.3,1.3h-.2c-.4,0-.9-.5-1.4-1.1-.1-.2-.2-.4-.2-.6,0-.4.3-.9.9-1.5s2.8-1,3.3-1m1.5-.4h.2c.1,0,.1-.1.1-.1h0c0-.1.2-.2.5-.3l.6-.3c.1,0,.1-.1.1-.1,0-.3.4-.4.9-.4.3,0,.5,0,.8.1h.3c.5,0,1,.2,1.4.5h.2c.5,0,.8.6.8.6l.1.1c.3.1.3.3.3.6,0,.2,0,.3-.1.5q0,.1-.3.2h0c-.1,0-.2,0-.3-.1-.2-.1-.5-.2-.7-.3l-.5-.4h-.1l-.1.1v.1c0,.1,0,.3-.1.4l-.1.1h-.1c-.2,0-.4.3-.5.3-.2.2-.4.3-.7.3-.2,0-.4.1-.6.1h-.3c-.1,0-.2-.1-.2-.1h-.5c-.1-.2-.2-.3-.4-.4v-.1c-.1-.3-.4-.6-.6-.8-.1-.1-.2-.1-.3-.2h0v-.1c0-.1.1-.3.2-.3m5.3,1.6c-.2.5-.4.9-.5,1.4v.1h-.1c0,.1-.1.1-.2.1h-.2l-.2-.2h-.2v.1l.2.2h0c-.1.1-.2.2-.3.3,0,.1,0,0-.1.1h0c-.2-.1-.4-.1-.5-.2l-.7-.4h-.2l-1.6.4c.1-.2.2-.4.3-.6.1-.2.1-.4.1-.6v-.4s0,.1.1.1c0,.1.2.2.3.1h.4c.1,0,.2.1.3.1.2,0,.4,0,.7-.1.3,0,.6-.2.8-.4.1-.1.3-.2.4-.3h0c.1-.1.2-.2.2-.3.1-.1.1-.2.1-.4l.3.2.6.3v.4m-3.4,2.7c0,.1-.1.1-.2.2l-.6.4c-.1,0-.1.1,0,.2,0,0,.1.1.1,0l.6-.4.1-.1v.4c-.1.1-.2.1-.3.1-.6.3-1.6.6-1.6.6l-.7.4-.8.4c.4-.5.6-1,.7-1.6.1-.3.3-.4.6-.5.2-.2.4-.4.6-.6h.1l1.7-.4v.1c0,.3-.1.6-.3.8m.5,1.6l-.2-.1h-.1l-.6.3c-.2.2-.3.5-.2.8v.4c0,.2.1.4.2.5h-.7c-.6,0-1.1-.4-1.4-1-.1-.1-.1-.2-.1-.2v-.4l.6-.3s1-.4,1.6-.6h0c.2.2.4.4.6.6m.3.3l.4.1.1.1c-.1.1-.2.1-.3.1h0l-.1-.1h-.2q0,.1.1.1h0l.1.1h.1c.2,0,.3-.1.5-.2l.1-.1q0-.1-.1-.2h.1c.2,0,.4.1.6.1l.4.1h-.1l-.5.1s-.1,0-.1.1v.1l.2.3v.1c0,.1-.2.2-.2.3v.3c0,.2-.1.3-.2.4-.2.2-.4.3-.5.3-.3,0-.6-.1-.8-.3l-.3-.1c-.2-.1-.2-.2-.2-.4v-.4c0-.2.1-.5.2-.7.1-.1.3-.2.5-.2h.2Zm-4.5,8l-.4.1c-.1-.3-.4-1.2-.6-2.2-.1-.5-.2-1.1-.2-1.6v-.2c0,.1.1.1.1.1.1.2.8,1.1.8,1.1l.4,1.1h0c-.1.4-.2.7-.2,1v.2c0,.1,0,.3.1.4m-5.6.2h0c.1-.5-.3-2.2-.3-3.4,0-.7.3-1.3.8-1.8h.8c.9,0,1.8-.1,2.6-.2.1.3.2.7.4,1h0v.5c0,.6,0,1.1.1,1.7.2,1,.5,1.9.6,2.2l-.5.2s-1.1.3-1.4.3-1.4.2-1.5,1h0v.6c0,.2,0,.4.2.5.1.1.2.2.3.2-.1.1-.3.2-.4.3-.3.3-.5.6-.6,1-.2-.2-.5-.4-.8-.5l-.5-.1h0c-.1-.3-.2-.7-.2-1.1,0-.3,0-.7.1-1,.1-.5.2-1,.3-1.4h0Zm7.5,8.3c.2.1.4.2.6.3l.3.3c0,.1.1.2.2.2.1.1.2.1.3.2,0,0,.5.6.5.7v.1h0l-.6-.4-.5-.2q-.1,0-.1.1v.2c.2.2.3.4.4.6,0,0,.2.4.2.6v.1l-.1.1-.1-.3-.1-.4-.5-.7h-.2v.1h0l.1.3.1.3.1.5.1.4h-.1l-.5-1.1h-.1l-.1.1v.2l-.1.1c-.1,0-.2.1-.2.1-.1,0-.2.1-.3.2h0v-.1h0c.1,0,.2-.1.2-.2,0,0,0-.1.1-.1,0-.1,0-.3-.1-.4-.1-.2-.4-.3-.4-.4l-.4-.3c-.3-.5-.5-1.1-.5-1.7h0c0-.5,0-1-.1-1.5v-.2c0-.5.1-1,.2-1.5.1-.4.3-.9.5-1.3.2-.5.6-.8,1-1.1,1.8.7,2,1.1,2,1.5v.3c0,.2-.8.4-.8.4-.1,0-.1.1-.1.1-.1.4-.2.7-.4,1.1l-.1.3-.4.7c-.2.4-.4.9-.6,1.3h0c.1.4.5.3.6.4m1.6-9.6c.6.2,1.2.4,1.7.7h0l.1.1h0s1.1,1.6,1.2,1.9c-.6-.5-1.2-.9-1.9-1.2q-.1,0-.1.1,0,.1.1.1s1.9.8,2.2,1.6c0,.2.1.3.1.3l.1.4h0c0,.4-.2,1.7-1.2,2,.2-.3.2-.7.2-1.1,0-.7-.3-1.4-.8-1.9h-.2v.2h0c.5.5.7,1.1.8,1.8,0,.4-.1.8-.3,1.2-.4.6-1.1.9-1.8,1h-.1c-.2,0-.5-.1-.7-.2-.1,0-.2-.1-.2-.2h-.1c.2-.3.3-.6.4-.9.2,0,.8-.2.9-.6v-.3c0-.5-.3-1-2-1.6.4-.3.9-.4,1.4-.4h.9c.1,0,.1-.1.1-.1q0-.1-.1-.1h-.9c-.6,0-1.2.2-1.7.6-.5.3-.8.8-1.1,1.3-.2.4-.3.8-.5,1.2-.8-.6-1.5-1.3-2.2-2l-.3-.3h-.2v.2h0l.2.2c-.2.1-.5.2-.7.4-.1-.1-.3-.2-.4-.3q-.1-.1-.1-.3v-.7c0-.5,1-.8,1.2-.8s1.5-.3,1.5-.3l.5-.2h.2l.4-.2h0c.1.1.2.2.4.4.1.1.2.1.4.1h.2c.1,0,.3-.1.4-.2.2-.1.1-.3.1-.4,0-.2,0-.3.1-.5,0-.1.1-.2.1-.3.1-.1.2-.1.3-.1l.1-.1h.5c.1,0,.3,0,.4-.1.2-.2.3-.3.4-.4m2.8-3.8c.4.3.5.3.6.5s.9.3,1.4.4c.1,0,.3,0,.4-.1.1,0,.1-.1.2-.2.2.1.5.1.7.1h.4v2h-.2c-.2-.1-.6-.4-.7-.5-.5-.1-1.1-.2-1.6-.2h-.1c-.3,0-.7.2-.9.5-.1.1-.2.2-.3.2-.2,0-.4.3-.5.4s-.1.2-.2.2h0c-.2.1-.2.4-.2.6v.3c-.1,0-.2-.1-.3-.1v-.8c-.1-1.3.5-2.5,1.5-3.3m.5-1.5c.1-.2.1-.3.1-.5.1-.6.3-1.2.5-1.7.1-.1.2-.2.3-.3.1-.3.4-.4.6-.4h.3l-.1.1c-.3.2-.5.6-.5.9v.1c0,.2.1.5.3.6.1.2.2.3.2.5h0c0,.3.1.6.2.9,0,.1.1.2.1.3s.1.3,0,.4v.2s-.2.9-.4,1h-.3c-.3,0-.5,0-.8-.1l-.3-.1h-.1c-.1-.3-.3-.3-.7-.6h0c-.1,0-.1-.1-.1-.1,0-.3.6-.8.7-1.2m2.5-2.9c.1,0,.3,0,.4.1l.3.3.1.1q-.1.1-.1.2c0,.1.1.2.2.3.2.1.5.3.7.4l-.3.3c-.1,0-.1.1-.1.1h0l.1.1h0c.1,0,.2-.1.2-.2v.2h0c-.2.1-.4.2-.5.2s-.1.1-.1.1c0,.1.1.1.1.1.2,0,.4-.1.6-.2v.1h0c.1.2.1.4.1.5v.1c-.2.1-.3.2-.5.3-.6,0-1.3-.1-1.9-.2-.1-.2-.1-.4-.1-.6h0c0-.2-.1-.5-.3-.7-.1-.1-.2-.3-.2-.5v-.1c.1-.3.2-.6.4-.8.3,0,.6-.1.9-.2m.9.6l.1.1.1.1-.2-.2h0m-.9,4.5h-.6c.1-.2.2-.5.2-.8v-.3c0-.2,0-.3-.1-.5,0-.1-.1-.2-.1-.3.6.1,1.1.2,1.7.2,0,.3.1.6.3.8h0c-.2.6-.8,1-1.4.9m-.2,6.3q-.1,0,0,0h0m0-.2h-.1v.1h0c0,.1.1.2.2.2l-.1.1h-.1l-.2-.2h-.1v.2h0l.1.1h0c-.2.1-.2.2-.3.2h-.2c-.3,0-.6-.1-.9-.3-.1-.2-.2-.3-.3-.5h-.2v.2h0v.1c0-.1-.1-.3-.1-.4l1.5-.3c.5-.2.6-.4.6-.5h0l.3-.1c.2-.1.5-.3.7-.4h.2s0,.1.1.1c-.1.2-.2.4-.3.5l-.2.1v.8h-.4s0-.1-.1-.1m1.3-2.7s.5.3.5.5c0,.1.1.2.1.3,0,.2-.1.4-.3.4h-.4c0-.1-.1-.2-.2-.2h-.2c-.1,0-.2,0-.2.1-.1.1-.5.3-.6.4s-.3,0-.4.2c0,0-.1.2-.5.4l-1.5.4c-.3-.5-1.2-1.8-1.2-1.8h0l-.1-.1h0v-.4c0-.2,0-.4.1-.4,0,0,.1,0,.1-.1l.2-.2.4-.4c.2-.1.3-.2.5-.3.2-.2.4-.4.7-.4h.1c.5.1,1.6.1,1.6.2.3.2.6.4.9.6h.2c.2,0,.3.1.4.3v.1c.1,0,.1.1.1.2s0,.1-.1.2v.1q-.2-.2-.2-.1m-.8-8.7h0s.4.1.5.2.4.2.4.3c.2.3.4.2.4.4h0v.1s.2.1.2.2l.1.1s.2,0,.2.3c0,.1,0,.2.1.3,0,.2.1.3.1.5v.2q0,.1.1.1l.1.1.1.1h0s-.1,0-.1.1v.1c.1.1.1.2.1.3v.5c0,.1-.1.2-.1.2-.1.1-.2.2-.4.3h-.3s0-.1-.1-.1h0c-.2-.2-.3-.4-.3-.7h0c.2-.1.3-.2.5-.3.1-.1.1-.2.1-.2,0-.2-.1-.4-.1-.5h0c0-.1-.1-.8-.1-.8h0v-.2l-.3-.2v-.1c0-.2-.1-.3-.2-.4-.1-.1-.4-.3-.4-.3l-.3-.3c-.2,0-.3-.1-.5-.1,0-.2.1-.2.2-.2m2.5.8c.2-.4.4-.9.3-1.4,0-.5-.1-1-.3-1.4h0l-.4-1.3c0-.1-.1-.1-.1-.1h0v.1h0l.2.9c-.1,0-.2,0-.2.1,0-.1,0-.3-.1-.4-.3-.6-1.3-1.1-1.6-1.2h-.2c-.1-.1-.1-.3-.1-.4,0-.3.1-.6.3-.8.6-.7.8-.8,1-.8l.7-.2c.3-.2.6-.3.9-.3.2,0,.4,0,.5.1q-.1.1-.2.2c-.2.3-.3.7-.4,1-.1.4-.2.7-.3,1.1h0c0,.5.1,1.1.2,1.6,0,.1.2.6.2.7s.1.5.1.5v.1h.1l.1-.1h.1c.1,0,.3,0,.4-.2,0-.2.1-.4.1-.6v-.2c0-.2-.1-.3-.1-.4v-.2c.1.3.4.9.8,1h0c.5,0,1-.2,1.4-.4v.9l-.2.8v.1s.2.4.4.5h0c.2-.1.2-.2.3-.4q0-.1.1-.2l.1-.1h0v.1c.1.8.5,1.5,1.2,1.9-.3.2-.6.4-.9.7v.1h-.2c-.2.1-.4.1-.6.2h0c-.2,0-.5.3-.8.4s-.2.6-.6.6c-.2,0-.3.1-.4.3-.1.2-.2.5-.2.5-.1,0-.1.1-.1.2l-1.5-.7v-.3c0-.1,0-.2-.1-.3v-.1h0c0-.2-.2-.3-.3-.4v-.3c-.1-.1-.1-.2-.1-.4v-.1s.4-1,.5-1m-.9-2.8c0,.1-.1.1-.2.1-.1.1-.3.1-.4.1v-.1c-.1-.5-.2-.5-.3-.6-.1-.1-.2-.2-.3-.3-.1,0-.1-.1-.2-.1h0c-.1,0-.2,0-.2.1s-.1.1-.1.2h0l-.1-.1c-.2-.1-.4-.2-.6-.2h-.2c0-.2.1-.6.1-.7.2-.2.4-.3.6-.3h.4c.3.1,1.3.6,1.5,1.1.1.1.1.2.1.4.1.2,0,.3-.1.4m-.7.4c0,.1-.2.1-.6.4-.1.1-.2.1-.4.1-.1,0-.2,0-.3-.1l-.2-.1-.7-.7c0-.1-.1-.1-.2-.1s-.2,0-.2.1h-.3c-.1,0-.2,0-.3-.1.1-.1.3-.2.3-.2.3-.1.5-.2.8-.3h.5c.2,0,.3,0,.4.1l.4.2h0c.1.1.1.2.1.2h.2c.1,0,.1-.1,0-.2,0,0-.1-.2-.2-.3l-.1-.1v-.1h.1c.1.1.2.2.3.3.2.1,0-.1.2.5v.3m5-1.6h0l.1.1v.1q0,.1.1.1h0q.1,0,.1-.1h0c.1,0,.2.1.3.1l-.3.5h0c-.4.3-.9.5-1.4.5h0c-.4-.1-.7-1.1-.7-1.1h0c0-.1.1-.2.1-.2,0-.2.1-.5.1-.7.1-.2.3-.4.4-.7.1-.1.2-.1.4-.1h.7c.1-.1.4-.4.6-.5,0,.1,0,.2.1.3.1.2.3.4.5.6.1.2.1.4.1.6h0l-.4.5h0c-.2,0-.4-.1-.6-.2-.1,0-.2,0-.2.2h0m-2.1-3h0c.1-.2.3-.4.4-.5.3-.1.6-.2.9-.3h.1c.4,0,.9.1,1.2.4h.1s.5,0,.6.3c.2.3.3.7.4,1.1h0c0,.1-.1.3-.1.4v.1c0,.1,0,0,0,0,0,.2,0,.5-.1.7v.1c0,.1-.1.2-.1.3v.1c0,.2.1.4.1.5h0c0,.1-.2.1-.2.3s0,.5-.1.5c-.1.1-.2.2-.2.4h0v.4c0,.1,0,.2-.1.3l-.1.1c-.1,0-.2,0-.2.1l-.1.1v.1s0,.1-.1.3v.2l-.2-.3.2-.8.1-1.1h0l.8-1.3v-.1c0-.3-.1-.5-.2-.7-.1-.1-.3-.3-.4-.5,0-.2-.1-.4-.1-.5,0,0,0-.1-.1-.1h-.1s-.6.5-.7.6h-.6c-.2,0-.4.1-.5.3l-.4.6c-.1.3-.2.5-.2.8,0,.1,0,.2-.1.2-.1.1-.1.2-.1.2v.1c0,.1,0,.3.1.4v.7h-.1q-.1,0-.1.1v-.2h0c-.1-.3-.2-.5-.3-.7-.1-.5-.2-1-.2-1.5h0c.1-.4.1-.8.2-1.1s.2-.6.3-.9c.1,0,.1-.1.3-.2m6.3,4.7c.2.3.3.6.3.9-.3-.2-.5-.3-.8-.4q-.1,0-.1.1h0q0,.1.1.1c.4.1.7.3,1,.5s.5.4.7.7c-1.1.2-2.1.5-3.1,1-.7-.4-1.1-1.1-1.2-1.8v-.2l.1-.1c.1-.1.1-.3.1-.5v-.4c0-.1.1-.2.1-.2.2-.2.1-.6.2-.6s.1-.1.2-.2c0-.1.1-.1,0-.2,0-.2,0-.4-.1-.6h0v-.1c1.1.3,1.9,1.1,2.5,2m2.3,2.1h.6c-1,.7-1.8,1.7-2.1,2.9-.3-.5-.7-.7-1.2-.7h-.6c-.1,0-.6-.2-.8-.2l-.3-.1c-.2-.1-.3-.1-.5-.2h-.3c.2-.3.5-.5.8-.6,1.4-.7,2.9-1.1,4.4-1.1m-8.2,4h0v-.1h0c.2-.2.2-.4.3-.6,0-.1.1-.1.2-.2.5-.1.4-.6.6-.6.2-.1.5-.2.7-.3h0c.2,0,.4-.1.7-.2h.6c.2.1.3.2.5.2.1.1.2.1.4.1.1,0,.7.2.8.2h.3c0,.1-.1.1-.1.2s0,.1.1.1l.1.1h.1c-.1.1-.1.2-.1.3v.1c0,.1.3.4.3.5v.2q-.1.1-.2.2v.1h0v.1c-.1.1-.1.2-.2.3-.1.1-.2.3-.3.4,0,0-.3,0-.4.2h0c-.1.1-.2.1-.3.1h0c-.1,0-.4.2-.5.2h0c0-.1-.1-.2,0-.3v-.2c0-.1.1-.1.2-.3v-.2q0-.1-.1-.2s-.1-.1-.1-.2v-.1c.3-.3.5-.7.7-1.1v-.2c0-.1,0-.2-.1-.3-.2-.1-.4-.3-.6-.4-.3-.1-.5-.1-.8-.2h-.3c-.2,0-.3,0-.5.1-.1.1-.5.2-.6.3s-.4.3-.4.3l-.3.6c-.3.4-.5.9-.6,1.4v-.1h0v-.1c0-.1,0-.2-.1-.4m4.1,3.9c-.2.3-.4.6-.6.8-.2.2-.4.3-.6.4-.1,0-.2.1-.3.1l-2.2.3h-.1c-.2-.3-.3-.9-.4-1.3v-.1c.1-.4.3-.8.6-1.1.1-.1.2-.2.2-.4.2.2.6.5.6.5l.4.1c.1,0,.2.1.2.2.1.1.2.7.6.8h.1l.3-.2.4.2c.1,0,.2.1.3.1.2-.2.3-.3.5-.4m2.7-3.9v.1s-.3,1-1,1.3c-.1.1-.3.1-.4.2h0v-.1q0-.1-.1-.1-.1,0-.1.1c-.1.4-.2.7-.3,1.1l-.1.2-.2.4c-.4.6-.8.7-1,.7h-.2l.1-.1v-.2h-.2l-.2.1h0l-.2-.1h-.1l-.2.2h0c-.2,0-.4-.5-.4-.6-.1-.2-.2-.3-.4-.3h-.3l-.6-.5c-.2-.2-.3-.5-.3-.8,0-.2-.1-.4,0-.6v-.2c0-.5.2-1,.5-1.4l.4-.3c.1-.1.2-.2.4-.3,0,0,.4-.2.6-.3.1,0,.2-.1.4,0h.3c.2,0,.5.1.7.1l.5.3v.3c-.2.4-.3.7-.6,1q-.1.1-.1.2c0,.1.1.3.2.3v.2s-.1.1-.2.3v.3c0,.1,0,.3.1.4,0,.1.1.1.2.1.2,0,.3-.1.5-.2h.1c.2,0,.4-.1.5-.3h0c.1,0,.2-.1.3-.1.1-.1.2-.3.3-.5.1-.1.2-.2.2-.3.1-.1.1-.2.1-.3v-.1l.1-.1c.1-.1.1-.2.1-.2v-.2c0-.1-.3-.5-.3-.5l.1-.2h0c0-.2-.2-.2-.3-.3q0-.1.1-.2v-.1h.1c.4,0,1.2.1,1.2,1.2h0c-.3.3-.3.4-.3.4m2.8-3.9c.1,0,.2,0,.4.1-.9.8-1.5,1.8-1.6,3,0,1,.7,2,2.9,2.6-.2.1-.5.2-.8.2h-.4c-1.5-.3-3-2.2-3-2.2,0-.2-.1-.4-.1-.6v-.1s.8-2.3,2.1-2.9c.1-.1.3-.2.5-.1m.6.1h.4c.6,0,1.1.2,1.5.5h.1l.8-.2h.3c.9,0,1.6.7,1.6,1.6,0,.6-1,1.6-1,1.6l-1,.8c-.4.5-1,.9-1.6,1.2-2.3-.6-2.9-1.6-2.9-2.5.2-1.2.8-2.3,1.8-3m5.3,20.5c-.4,0-.9-1.3-.8-2.5,0-.3,0-.6.1-.9.7-2.3,1-4.8,1.1-7.2,0-.7,0-1.5-.1-2.2-.1-1.7-.5-3.3-1-4.9h0c.2-.3.4-.7.4-1.1,0-1-.8-1.8-1.8-1.8h-.3l-.8.2c-.5-.3-1.1-.5-1.6-.5h-.4c-.2-.1-.4-.1-.6-.1h-.3c-.3-.1-.7-.1-1-.1s-.7,0-1,.1c-.2-.3-.4-.6-.7-.8v-.1c-.1-.4-.2-.7-.4-1-.6-1-1.5-1.8-2.6-2.2.1-.2.1-.5.1-.7v-.2h0s.1-.2.1-.4h0c-.1-.4-.3-.8-.5-1.2-.2-.3-.5-.4-.8-.4-.5-.3-1-.5-1.5-.5h-.2c-.3.1-.7.2-1,.3-.1.1-.3.3-.5.5-.2-.1-.4-.2-.7-.2-.4,0-.7.1-1,.3,0,0-.4,0-.6.1-.2.1-.5.2-1.1.9-.2.3-.4.6-.4.9,0,.2,0,.4.1.5-.2.1-.4.2-.6.4-.2.3-.2.6-.2.9h-.1c-.3,0-.6.1-.9.3,0,0-.3.1-.4.3v.1c.1.2.3.3.5.3h0c.2,0,.4-.1.4-.1h0c.1.1.8.8.8.8.2.1.4.2.6.2s.3-.1.5-.1c.3-.2.6-.1.7-.4.2,0,.4-.1.6-.2.1,0,.2-.1.2-.2h0s.3-.4.4-.3h0c.2.5.3,1,.3,1.5s-.1.9-.3,1.3c0,.1-.2.5-.4.8-.1-.1-.1-.2-.2-.3,0-.1-.1-.2-.2-.3h0c0-.4-.5-.4-.4-.5-.1-.3-.4-.4-.4-.4-.1-.2-.6-.3-.6-.3h0c-.2,0-.5.1-.7.2h-.2c-.1,0-.2,0-.3.1h-.1c-.4,0-.7.2-.8.5-.2.1-.3.3-.4.5-.2.6-.4,1.2-.5,1.8-.1.5,0,.4-.1.5s-.6.7-.7,1.2c0,.1,0,.2.1.2-1,.8-1.6,2.1-1.5,3.5v.7c-.5-.2-1-.3-1.1-.4s-.2-.1-.3-.2c-.2-.1-.4-.2-.5-.3-.1-.1-.3-.2-.5-.2h0c-.3-.4-.5-.8-.6-1.2-.2-.6-.3-1.3-.3-1.9v-.1c-.1-.7-.3-1.5-.7-2.1v-.1l.7-.4v.2c0,.1,0,.2.1.4.3.6.9,1,1.5,1.1h1.1c.3.2.6.3.9.3.2,0,.4-.1.6-.2s.3-.4.3-.6v-.1c.1-.1.2-.2.2-.4q0-.1-.1-.2l-.1-.4.4-.1s.3-.1.4-.3v-.1h-.2l-.6-.1-.6-.1h-.2l-.3-.1h0c-.2-.3-.5-.6-.8-.8.1,0,.2-.1.2-.2v-.8c.2-.3.3-.6.2-.9l.5.3c.2.1.4.2.6.2h0c.2,0,.3-.1.3-.3h0l.1-.1c.1,0,.2-.1.2-.2.1,0,.2,0,.3-.1l.1-.1c.1,0,.1.1.2.1s.2-.1.3-.3c.1-.5.3-.9.5-1.4,0-.1.1-.1.1-.2h.3c.2,0,.4-.2.5-.4,0-.2.1-.4.1-.5,0-.3-.1-.6-.5-.8-.2-.4-.6-.7-1-.7h-.1c-.4-.3-1-.5-1.5-.5h-.3c-.3,0-.5-.1-.8-.1-.5,0-1,.1-1.1.5-.3.1-1.1.2-1.2.6l-.1.4c-.2.1-.3.3-.4.6-.3-.1-.7-.2-1.1-.2h-.1s-.6-.1-1.3-.1c-.3,0-.7,0-1,.1-.7.1-1.5.3-2.1.6-.4.3-.8,1-1.1,1.1s-.8.4-1,1c0,.1,0,.2-.1.3-.1,0-1,.3-1.8,1.8-.2.3-.5.5-.7.8-.1.1-.1.2-.1.4,0,.3.1.6.2.8,0,0,.2.2.3.3-.1.1-.1.3-.1.5,0,.3.1.7.3.9-.2.2-.8.7-1,2.3,0,.9-.2,1.8-.3,2.8-.4.8-.8,1.5-1.4,2.2-.1.1-.1.2-.2.4,0,.2.1.3.2.4l.8.5h.1v.1c.1.2.4.2.7.3.2.1.4.1.6.1.1,0,.1.1.2.1.5,0,.7,0,.8.2.1.1.2.2.4.3h.4c-.3.2-.6.5-.7.9,0,.2-.1.5-.1.9,0,.5.3,1,.9,1h.2c.2-.1.5-.3.7-.5,0,.4.2.7.4,1h0c0,.2,0,.4-.1.5,0,.6.2,1.1.6,1.6-.1.2-.2.4-.2.6,0,.4-.1.7-.2,1.1-.3.5-.4,1-.6,1.6v.1c.1.2.2.5.3.7l.2.3.1.1h0c0,.1.1.2.2.3h.6c.1,0,.2,0,.3-.2v-.1h0c.1-.1.2-.3.3-.4q0-.1-.1-.2l-.4-.1c-.1,0-.2,0-.2-.1s-.1-.1-.1-.2h0s.1-.2.2-.2c.4-.3.8-.5,1.2-.7h0c.2,0,.4.1.6.2.6.5,1.2,1,1.9,1.5.7.4,1.4.7,2.1.9.7.1,1.4.2,2.1.4.3.1.7.1,1,.1.4,0,.7-.1,1-.4.4-.5.6-.5.7-.9,0-.3.1-.6.1-.9s0-.5-.2-.8c-.3-.4-.5-.7-.5-.7h0v-.3c0-.3-.1-.6-.3-.9,0-.1-.1-.4-.3-.9-.1-.3-.2-.5-.3-.8.1-.1.4-.3.6-.6.2.2,1.9,2,2.6,2.2h.2c.5,0,1-.1,1.5-.3.6-.2,1-.5,1.4-.5.1,0,.3,0,.4.1h0c0,.1.1.2.2.2l.1,1.5h0c0,.1,0,.3.2.4l-.3,1.5-3.5,1h-.1v1l.1.1,3.6,1.2h.1l6.5-1.9.1-.1v-.9h0q0-.1-.1-.1l-3.8-.8-.6.1-.4-2.7h0c.2-.3.3-.6.3-1v-.4c-.1-.3-.1-.7-.2-1,0-.1,0-.3.1-.4,0-.1,1.2-1.6,2.1-3.1v2.4c0,.3,0,.5-.1.8-.2.3-.4.7-.4,1.1v.7c0,.1-.3.8-.3.8v.1c0,.3.2.6.5.7h.8c.3,0,.6,0,.8-.1.3-.1.5-.3.5-.6v-.1c-.1-.2-.3-.4-.4-.5-.1-.2-.2-.4-.2-.6v-.1c0-.1.1-.3.1-.4h0v-.2c0-.2,0-.3.1-.5s1-1.5,1-1.5c.4-.8.6-1.7.6-2.5h0c.5,0,.8-.1,1-.1v.1l-.4.9s-.8,1.4-.9,1.8c-.3.5-.4,1.1-.4,1.7,0,.5.1,1,.3,1.4l.2.9c.4,1.3.6,1.5,1.1,1.6h0c0,.1-.1.3-.1.4-.1.2-.2.3-.2.5v.4c0,.3,0,.7.4.8h.2c.2,0,.3,0,.5-.1.2.1.3.1.5.1h.1c.1,0,.2,0,.3-.1s.4-.2.5-.3.4-.3.5-.6h0c-.1-.4-.3-.7-.5-1h0c.5.1,1.9.1,3.4.2h1.2c1.1,0,3.2-.2,3.2-.2,0,0,.1,0,.1-.1h0c0-.2-.1-.2-.2-.3q.1.1,0,0"/><path class="cls-1" d="m31.2,21.2l-1,.2c-.1,0-.1.1-.1.1,0,.1.1.1.1.1l.3-.1.1.1h.2v-.2h0l.4-.1q.1.1,0-.1c.1.1,0,0,0,0"/><path class="cls-1" d="m23.3,15.9h0c.2-.1.2-.2.3-.2h0v.1h.2v-.2h0v-.1h0s.1.1.1,0h0v-.2h-.1c-.3,0-.6.5-.6.5v.2l.1-.1"/><path class="cls-1" d="m28.5,10.6q0,.1.1.1h0q.1,0,.1-.1v-.1h.3q.1,0,.1-.1h0q0-.1-.1-.1c-.2,0-.4-.1-.6-.2h-.2v.2l.3.1v.2Z"/><path class="cls-1" d="m20.2,11.5v.2h0l.2.1-.1.1v.2h.2l.1-.1.2.1h.1q.1,0,.1-.1v-.2h0l-.6-.4s-.1,0-.2.1"/><path class="cls-1" d="m28.9,11.8c-.1,0-.2,0-.3-.1q-.1,0-.2.1v.1c.1.1.3.2.4.2h0q.1,0,.1-.1c.1-.1.1-.2,0-.2"/><path class="cls-1" d="m23.8,25.3q.1,0,.1-.1t-.1-.1h0s-.4-.1-.4-.2h-.2c-.1,0-.1.1,0,.2,0,.1.1.1.2.1h0v.2h.2l.2-.1h0"/><path class="cls-1" d="m29,11.4h-.3v.1c0,.1.1.2.3.2h0q.1,0,.1-.1h0q0-.1-.1-.2,0,.1,0,0"/><path class="cls-1" d="m39,17.2s.1,0,0,0l1-.9v-.2c0-.1-.1,0-.2,0l-.9.9c0,.1,0,.2.1.2q-.1,0,0,0c-.1,0,0,0,0,0"/></g></g></svg>