<?xml version="1.0" encoding="UTF-8"?><svg id="Livello_2" xmlns="http://www.w3.org/2000/svg" viewBox="0 0 81.36 31.92"><defs><style>.cls-1,.cls-2{fill:none;}.cls-2{stroke:#b8b8cc;stroke-miterlimit:10;}</style></defs><g id="lab1export"><g id="BKG1PlatformOFF"><ellipse class="cls-2" cx="41.42" cy="11.4" rx="35.27" ry="6.2"/><path class="cls-2" d="m41.42,17.59c-19.48,0-35.27-2.77-35.27-6.2l1.02,9.66h68.2l1.33-9.66c0,3.42-15.79,6.2-35.27,6.2Z"/><path class="cls-2" d="m43.29,23.72c.1-.88.14-1.86.16-2.66h-2.91c.03,1.24.09,2.19.2,2.91-3.26-1.22-6.33-2.13-6.3.29.05,4.57,5.26,1.55,6.54.74.3.89.77,1.09,1.43,1.02.32-.03.55-.5.71-1.16,2.9,1.08,5.39,1.83,5.3-.05-.14-2.85-3.04-2.04-5.11-1.09Z"/><rect class="cls-1" width="81.36" height="31.92"/></g></g></svg>