<?xml version="1.0" encoding="UTF-8"?><svg id="Livello_2" xmlns="http://www.w3.org/2000/svg" xmlns:xlink="http://www.w3.org/1999/xlink" viewBox="0 0 937.95 1294.56"><defs><style>.cls-1{fill:none;}.cls-2{clip-path:url(#clippath);}.cls-3{fill:#eadac1;}.cls-4{fill:#818eea;}.cls-5{fill:#96c2e5;}.cls-6{fill:#8a8a99;}.cls-7{fill:#9ea8f4;}.cls-8{fill:#d1b38b;}.cls-9{fill:#444fd3;}.cls-10{clip-path:url(#clippath-1);}</style><clipPath id="clippath"><polyline class="cls-1" points="239.02 1192.71 170.36 9.42 776.17 0 713.2 1172.13 239.02 1192.71"/></clipPath><clipPath id="clippath-1"><polygon class="cls-1" points="186.41 469.94 761.91 454.79 769.56 312.83 177.3 275.64 186.41 469.94"/></clipPath></defs><g id="lab1export"><g id="BKG1Rocket"><g id="rocket"><path class="cls-7" d="m27,1232.03s-134.05-534.51,195.2-427.54c329.25,106.97,7.35,481.32,7.35,481.32l-202.54-53.78Z"/><path class="cls-7" d="m910.95,1232.03s134.05-534.51-195.2-427.54c-329.25,106.97-7.35,481.32-7.35,481.32l202.54-53.78Z"/><polyline class="cls-4" points="239.02 1192.71 170.36 9.42 776.17 0 713.2 1172.13 239.02 1192.71"/><path class="cls-7" d="m451.68,1285.81s-40.65-479.73,16.92-502.2,25.26,510.94,25.26,510.94l-42.18-8.75Z"/><g class="cls-2"><g><polygon class="cls-7" points="186.41 469.94 761.91 454.79 769.56 312.83 177.3 275.64 186.41 469.94"/><g class="cls-10"><polygon class="cls-9" points="781.56 391.37 169.06 379.25 168.74 266.33 236.53 271.21 247.8 488.03 313.35 480.05 322.42 262.34 394.49 271.65 402.47 492.2 477.61 476.85 484.83 272.98 545.68 279.64 552.7 509.25 619.82 484.48 631.64 286.09 698.41 286.09 711.51 480.49 769.56 481.38 781.56 391.37"/></g></g></g></g><g id="piattaforme"><polygon class="cls-5" points="812.16 433.58 713.28 433.58 703.7 445.61 704.64 449.73 817.7 448.85 818.81 445.61 812.16 433.58"/><polygon class="cls-5" points="812.16 498.83 530.43 498.83 520.85 510.86 521.79 514.99 817.7 514.1 818.81 510.86 812.16 498.83"/><polygon class="cls-5" points="812.16 893.47 685.52 893.47 675.94 905.5 676.87 909.63 817.7 908.74 818.81 905.5 812.16 893.47"/><polygon class="cls-5" points="812.16 1013.59 685.52 1013.59 675.94 1025.62 676.87 1029.74 817.7 1028.86 818.81 1025.62 812.16 1013.59"/><polygon class="cls-5" points="336.6 1067.82 209.96 1067.82 200.38 1079.85 201.31 1083.98 342.14 1083.09 343.25 1079.85 336.6 1067.82"/><polygon class="cls-5" points="238.84 993.34 209.96 993.34 200.38 1005.37 201.31 1009.49 244.38 1008.61 245.49 1005.37 238.84 993.34"/><polygon class="cls-5" points="272.33 725.96 209.96 725.96 200.38 737.99 201.31 742.11 277.87 741.23 278.98 737.99 272.33 725.96"/><polygon id="button" class="cls-6" points="724.63 1023.92 728.36 1015.18 757.06 1016.04 759.84 1023.92 724.63 1023.92"/><g><polygon class="cls-3" points="782.78 1019.75 805.73 1019.75 805.73 1007.22 784.45 1008.68 781.9 1006.13 782.78 1019.75"/><polygon class="cls-3" points="800.96 1004.67 804.84 1010.36 810 1012.94 805.73 1007.22 800.96 1004.67"/><polygon class="cls-3" points="781.9 1006.13 776.05 1012.27 779.73 1015.8 784.45 1008.68 781.9 1006.13"/><polygon class="cls-8" points="784.45 1008.68 781.9 1006.13 800.96 1004.67 805.73 1007.22 784.45 1008.68"/></g></g></g></g></svg>