<?xml version="1.0" encoding="UTF-8"?><svg id="Livello_2" xmlns="http://www.w3.org/2000/svg" xmlns:xlink="http://www.w3.org/1999/xlink" viewBox="0 0 81.36 31.92"><defs><style>.cls-1,.cls-2{fill:none;}.cls-2{stroke:#8a8a99;stroke-width:7.2px;}.cls-3{fill:#b8b8cc;}.cls-4{fill:url(#Nuovo_campione_pattern_2);}</style><pattern id="Nuovo_campione_pattern_2" x="0" y="0" width="72" height="72" patternTransform="translate(-1821.29 -5325.08) rotate(-45) scale(.6)" patternUnits="userSpaceOnUse" viewBox="0 0 72 72"><g><rect class="cls-1" width="72" height="72"/><g><line class="cls-2" x1="71.75" y1="66" x2="144.25" y2="66"/><line class="cls-2" x1="71.75" y1="42" x2="144.25" y2="42"/><line class="cls-2" x1="71.75" y1="18" x2="144.25" y2="18"/><line class="cls-2" x1="71.75" y1="54" x2="144.25" y2="54"/><line class="cls-2" x1="71.75" y1="30" x2="144.25" y2="30"/><line class="cls-2" x1="71.75" y1="6" x2="144.25" y2="6"/></g><g><line class="cls-2" x1="-.25" y1="66" x2="72.25" y2="66"/><line class="cls-2" x1="-.25" y1="42" x2="72.25" y2="42"/><line class="cls-2" x1="-.25" y1="18" x2="72.25" y2="18"/><line class="cls-2" x1="-.25" y1="54" x2="72.25" y2="54"/><line class="cls-2" x1="-.25" y1="30" x2="72.25" y2="30"/><line class="cls-2" x1="-.25" y1="6" x2="72.25" y2="6"/></g><g><line class="cls-2" x1="-72.25" y1="66" x2=".25" y2="66"/><line class="cls-2" x1="-72.25" y1="42" x2=".25" y2="42"/><line class="cls-2" x1="-72.25" y1="18" x2=".25" y2="18"/><line class="cls-2" x1="-72.25" y1="54" x2=".25" y2="54"/><line class="cls-2" x1="-72.25" y1="30" x2=".25" y2="30"/><line class="cls-2" x1="-72.25" y1="6" x2=".25" y2="6"/></g></g></pattern></defs><g id="lab1export"><g id="BKG1PlatformON"><g><path class="cls-3" d="m40.53,20.42c.06,4.71.62,5.5,1.87,5.38s1.05-6.58,1.05-6.58l-2.92,1.21Z"/><path class="cls-3" d="m41.25,24.59s6.93-4.43,7.15,0-14.02-5.77-13.97-.56,6.82.56,6.82.56Z"/></g><polygon class="cls-3" points="6.14 11.17 7.16 20.83 75.36 20.83 76.69 11.17 6.14 11.17"/><polygon class="cls-4" points="6.14 11.17 7.16 20.83 75.36 20.83 76.69 11.17 6.14 11.17"/><ellipse class="cls-3" cx="41.42" cy="11.17" rx="35.27" ry="6.2"/><rect class="cls-1" width="81.36" height="31.92"/></g></g></svg>