<?xml version="1.0" encoding="UTF-8"?><svg id="Livello_2" xmlns="http://www.w3.org/2000/svg" viewBox="0 0 45.15 52.54"><defs><style>.cls-1{fill:none;}.cls-2{fill:#fff;}.cls-3{fill:#ffe100;}.cls-4{fill:#9ea8f4;}.cls-5{fill:#444fd3;}</style></defs><g id="lab1export"><g id="BKG1BotB"><path class="cls-3" d="m15.34,33.54l-2.62-.21s2.62-3.2-1.36-3.37c-5.04-.22-3.37,3.96-.92,4.04.09,0,.16,0,.23,0-.13,0-.23,0-.23,0-2.79-.03-3.38,3.92,0,3.73,3.38-.19,2.61-2.59,2.61-2.59l2.3-.1v-1.49Zm-4.39,2.79c-.73.27-1.45.12-1.62-.34s.28-1.04,1.01-1.31,1.45-.12,1.62.34-.29,1.04-1.01,1.31Zm.52-2.3c.08,0,.06,0,0,0h0Zm-.52-1.2c-.73.27-1.45.12-1.62-.34s.28-1.04,1.01-1.31,1.45-.12,1.62.34c.17.46-.29,1.04-1.01,1.31Z"/><polygon class="cls-4" points="15.17 42.27 14.67 28.65 26.36 27.72 25.07 43.66 15.17 42.27"/><polygon class="cls-4" points="12.64 28.72 30.93 28.06 30.93 10.52 11.36 10.52 12.64 28.72"/><path class="cls-3" d="m9.21,13.68l17.15-3.98S22.58-1.93,13.36,2.47c-9.22,4.4-4.15,11.21-4.15,11.21Z"/><g><ellipse class="cls-2" cx="21.14" cy="17.07" rx="3.92" ry="3.04" transform="translate(-2.9 4.4) rotate(-11.14)"/><polygon points="21.46 19.22 23.1 19.17 23.68 15.83 21.4 15.62 21.46 19.22"/><path class="cls-5" d="m25.02,16.82c0-.17,0-.34-.03-.51-.32-1.65-2.31-2.65-4.43-2.23s-3.58,2.09-3.26,3.74c.03.17.09.33.16.48l7.56-1.49Z"/></g><g><ellipse class="cls-2" cx="29.53" cy="16.75" rx="3.04" ry="3.92" transform="translate(7.93 42.94) rotate(-80.06)"/><polygon points="29.95 19.14 31.59 19.16 32.31 15.84 30.04 15.54 29.95 19.14"/><path class="cls-5" d="m33.24,17.91c.06-.16.12-.32.15-.49.29-1.65-1.2-3.3-3.33-3.67s-4.09.66-4.38,2.32c-.03.17-.03.34-.02.51l7.59,1.33Z"/></g><path class="cls-5" d="m18.05,50.75c-4.9-.23-11.87,1.04-8.98-7.51s44.43,9.18,8.98,7.51Z"/><polygon class="cls-2" points="29.32 22.59 21.87 22.97 21.71 25.28 29.58 25.1 29.32 22.59"/><polygon class="cls-5" points="21.5 33.96 36.23 33.96 36.74 30.79 21.13 30.04 21.5 33.96"/><polygon points="33.76 27.35 42.57 30.08 44.25 24.36 34.74 21.44 33.76 27.35"/><polygon points="37 27.37 34.65 36.12 36.5 36.62 38.83 28.14 37 27.37"/><rect class="cls-1" width="45.15" height="52.54"/></g></g></svg>