<?xml version="1.0" encoding="UTF-8"?><svg id="Livello_2" xmlns="http://www.w3.org/2000/svg" viewBox="0 0 36.66 21.95"><defs><style>.cls-1{fill:none;}.cls-2{fill:#fff;}.cls-3{fill:#e2e2f2;}.cls-4{fill:#8a8a99;}</style></defs><g id="lab1export"><g id="BKG1Microwave"><rect class="cls-1" width="36.66" height="21.95"/><g><polygon class="cls-2" points="2.3 21.08 35.73 20.85 35.33 2.03 2.77 1.05 2.3 21.08"/><polygon class="cls-3" points="27.09 1.78 28 20.9 35.73 20.85 35.33 2.03 27.09 1.78"/><polygon class="cls-4" points="5.1 5.59 5.35 17.39 24.73 17.74 25.15 6.04 5.1 5.59"/><ellipse class="cls-2" cx="31.57" cy="11.92" rx="2.81" ry="2.2" transform="translate(-2.17 12.02) rotate(-20.86)"/><polygon class="cls-2" points="29.04 18.75 29.36 16.12 31.15 16.34 31.2 18.7 29.04 18.75"/><polygon class="cls-2" points="32.41 19.14 32.37 17.18 34.08 17.15 34.37 19.09 32.41 19.14"/><polygon class="cls-4" points="28.81 8.03 34.34 8.16 34.62 5.7 28.47 5.58 28.81 8.03"/></g></g></g></svg>