<?xml version="1.0" encoding="UTF-8"?><svg id="Livello_2" xmlns="http://www.w3.org/2000/svg" viewBox="0 0 403.87 345.95"><defs><style>.cls-1{fill:#9ea8f4;}.cls-2{fill:#5b53f4;}</style></defs><g id="lab1export"><g id="BKG1Hammer"><g><polygon class="cls-2" points="276.03 287.02 271.65 259.36 360.02 307.61 355.06 320.96 276.03 287.02"/><g><ellipse class="cls-2" cx="253.45" cy="268.18" rx="13.9" ry="23.11" transform="translate(-80.83 111.92) rotate(-21.56)"/><g><polygon class="cls-1" points="266.97 324.27 276.96 306.68 168.54 158.92 147.92 173.05 266.97 324.27"/><polygon class="cls-2" points="106.44 287.26 291.36 135.73 199.46 0 0 159.32 106.44 287.26"/></g><g><polygon class="cls-2" points="252.5 246.99 223.88 236.98 204.73 251.91 207.81 261.85 223.55 250.82 242.73 254.15 252.5 246.99"/><g><polygon class="cls-2" points="215.91 259.49 206.34 268.19 210.36 277.97 233.18 271.06 225.87 261.16 211.71 268.87 211.9 267.91 219.03 263.45 215.91 259.49"/><polygon class="cls-2" points="223.03 268.39 212.6 277.88 216.98 288.53 241.85 281.01 233.88 270.21 218.45 278.62 218.65 277.57 226.43 272.71 223.03 268.39"/><polygon class="cls-2" points="230.38 279.42 221.05 287.9 224.97 297.44 247.23 290.7 240.09 281.04 226.28 288.57 226.47 287.63 233.43 283.28 230.38 279.42"/><polygon class="cls-2" points="238.23 289.8 231.47 295.94 234.31 302.84 250.41 297.97 245.25 290.98 235.26 296.42 235.39 295.74 240.43 292.6 238.23 289.8"/></g></g></g></g><ellipse class="cls-2" cx="381.81" cy="320.96" rx="26.61" ry="20.07" transform="translate(-91.81 477.43) rotate(-58.33)"/></g></g></svg>