<?xml version="1.0" encoding="UTF-8"?><svg id="Livello_2" xmlns="http://www.w3.org/2000/svg" xmlns:xlink="http://www.w3.org/1999/xlink" viewBox="0 0 1920 1080"><defs><style>.cls-1,.cls-2,.cls-3{fill:none;}.cls-2{stroke:#6f77eb;}.cls-2,.cls-3{stroke-miterlimit:10;stroke-width:6px;}.cls-3{stroke:#444fd3;}.cls-4{clip-path:url(#clippath);}.cls-5{fill:#818eea;}.cls-6{fill:#9ea8f4;}.cls-7{fill:#6f77eb;}.cls-8{clip-path:url(#clippath-1);}</style><clipPath id="clippath"><rect class="cls-1" width="1920" height="1080"/></clipPath><clipPath id="clippath-1"><rect class="cls-1" x="-224.19" y="837.12" width="2173.23" height="380.07"/></clipPath></defs><g id="lab1export"><g id="BKG1Main"><g class="cls-4"><g><rect class="cls-7" x="-137.02" y="-289.75" width="2081.53" height="1369.75"/><g><polygon class="cls-3" points="93.69 865.24 93.69 575.27 683.78 561.35 657.08 880.32 93.69 865.24"/><polygon class="cls-3" points="1179.79 -78.13 1202.99 906.62 1570.68 885.74 1619.39 -61.89 1179.79 -78.13"/><polygon class="cls-3" points="609.98 131.63 590.85 -22.64 884.88 -22.64 879.08 147.87 609.98 131.63"/><polygon class="cls-3" points="198.08 664.58 -354.03 678.5 -345.91 274.86 191.12 299.22 198.08 664.58"/><polygon class="cls-3" points="378.01 332.76 500.69 322.9 498.53 -268.9 353.62 -264.11 378.01 332.76"/><polygon class="cls-3" points="1656.59 88.97 1656.59 287.31 2101.99 262.95 2101.99 95.93 1656.59 88.97"/><polygon class="cls-3" points="812.75 855.58 812.75 344.07 1413.57 399.74 1437.93 906.62 812.75 855.58"/><path class="cls-3" d="m129.25,633.6c-12.28-17.66,4.14-39.28,23.48-23.72,19.34,15.55-1.04,56-23.48,23.72Z"/><path class="cls-3" d="m1367.16,476.61c-8.44-.63-22.68-13-17.94-24.96,4.74-11.97,17.6-15.05,28.43-7.18,10.83,7.87,10.07,15.84,7.45,23.25-1.69,4.79-8.8,9.58-17.94,8.89Z"/><polygon class="cls-3" points="2224.99 645.76 1756.97 687.52 1756.97 900.94 2229.63 900.94 2224.99 645.76"/><path class="cls-3" d="m1694.64,118.34c-13.04,13.04-2.33,27.05,7.39,31.22,9.72,4.17,24.11-4.18,21.78-20.61-2.33-16.44-20.22-19.55-29.17-10.6Z"/><path class="cls-3" d="m1329.66,518.49c-6.52,16.38-34.61,3.11-30.33-17.11s46.28-22.94,30.33,17.11Z"/><path class="cls-3" d="m834.51,122.41c-16.33.32-23.33-27.68,0-32.74,23.33-5.06,19.83,18.67,15.55,24.89-4.28,6.22-15.55,7.85-15.55,7.85Z"/><line class="cls-3" x1="54.47" y1="-146.17" x2="68.64" y2="174.16"/><path class="cls-6" d="m65.68,197.08c-26.22.39-37.46-33.79,0-39.96s31.84,22.78,24.97,30.38c-6.87,7.59-24.97,9.58-24.97,9.58Z"/><line class="cls-3" x1="160.45" y1="167.59" x2="171.22" y2="-145.19"/><path class="cls-6" d="m160.02,187.14c-10.36-.63-27.83-13-22.02-24.96,5.82-11.97,21.6-15.05,34.9-7.18,13.29,7.87,12.35,15.84,9.14,23.25-2.08,4.79-10.8,9.58-22.02,8.89Z"/><line class="cls-3" x1="646.09" y1="560.6" x2="653.05" y2="411.16"/><path class="cls-6" d="m656.99,382.18c23.41-.34,33.44,29.31,0,34.66-33.44,5.35-28.43-19.77-22.3-26.35,6.13-6.59,22.3-8.31,22.3-8.31Z"/><line class="cls-3" x1="510.48" y1="564.71" x2="504.46" y2="415.21"/><path class="cls-6" d="m497.26,419.79c-24.04-5.54-27.1-37.48,8.44-34.4,35.53,3.08,24.29,26.75,16.41,31.75-7.88,5-24.84,2.65-24.84,2.65Z"/><line class="cls-3" x1="579.93" y1="403.54" x2="581.38" y2="564.56"/><path class="cls-6" d="m580.14,420.33c-10.76-.21-29.33-11.48-23.73-23.26,5.6-11.78,21.87-15.35,35.93-8.27,14.07,7.08,13.38,14.82,10.31,22.1-1.98,4.7-10.86,9.66-22.52,9.43Z"/><line class="cls-3" x1="1731.07" y1="414.12" x2="1732.16" y2="286.74"/><line class="cls-3" x1="1796.16" y1="409.83" x2="1791.31" y2="282.53"/><path class="cls-6" d="m1726.49,402.3c9.97-2.86,30.58,2.95,29.09,16.18-1.48,13.22-15.34,21.4-30.49,18.42-15.16-2.97-16.94-10.8-16.38-18.87.36-5.21,6.98-12.63,17.78-15.73Z"/><path class="cls-6" d="m1793.86,430c-20.46.3-29.23-26.36,0-31.18,29.23-4.81,24.84,17.78,19.48,23.7-5.36,5.93-19.48,7.47-19.48,7.47Z"/></g><g><rect class="cls-5" x="-319.93" y="837.21" width="2407.52" height="357.84"/><g class="cls-8"><g><line class="cls-2" x1="-224.19" y1="1154" x2="977.62" y2="585.19"/><line class="cls-2" x1="-260" y1="958.18" x2="1047.68" y2="591.68"/><line class="cls-2" x1="353.62" y1="1131.85" x2="996.3" y2="576.85"/><line class="cls-2" x1="845.3" y1="1119.03" x2="938.7" y2="574.89"/><line class="cls-2" x1="853.18" y1="585.19" x2="1226.7" y2="1102.71"/><line class="cls-2" x1="1018.1" y1="591.68" x2="1619.39" y2="1102.71"/><line class="cls-2" x1="879.55" y1="615.18" x2="1996.31" y2="1006.1"/><line class="cls-2" x1="-146.36" y1="869.59" x2="2062.68" y2="881.25"/><line class="cls-2" x1="-135.46" y1="950.02" x2="2023.76" y2="940.7"/><line class="cls-2" x1="2029.99" y1="1016.46" x2="-260" y2="1016.46"/></g></g></g></g></g></g></g></svg>