<?xml version="1.0" encoding="UTF-8"?><svg id="Livello_2" xmlns="http://www.w3.org/2000/svg" viewBox="0 0 45.15 52.54"><defs><style>.cls-1{fill:none;}.cls-2{fill:#fff;}.cls-3{fill:#ffe100;}.cls-4{fill:#9ea8f4;}.cls-5{fill:#444fd3;}</style></defs><g id="lab1export"><g id="BKG1BotA"><path class="cls-3" d="m15.36,33.54l-2.62-.21s2.62-3.2-1.36-3.37c-5.04-.22-3.37,3.96-.92,4.04.09,0,.16,0,.23,0-.13,0-.23,0-.23,0-2.79-.03-3.38,3.92,0,3.73,3.38-.19,2.61-2.59,2.61-2.59l2.3-.1v-1.49Zm-4.39,2.79c-.73.27-1.45.12-1.62-.34s.28-1.04,1.01-1.31,1.45-.12,1.62.34-.29,1.04-1.01,1.31Zm.52-2.3c.08,0,.06,0,0,0h0Zm-.52-1.2c-.73.27-1.45.12-1.62-.34s.28-1.04,1.01-1.31,1.45-.12,1.62.34c.17.46-.29,1.04-1.01,1.31Z"/><polygon class="cls-4" points="15.19 42.27 14.69 28.65 26.38 27.72 25.09 43.66 15.19 42.27"/><polygon class="cls-4" points="12.65 28.72 30.95 28.06 30.95 10.52 11.37 10.52 12.65 28.72"/><path class="cls-3" d="m9.23,13.68l17.15-3.98S22.59-1.93,13.37,2.47c-9.22,4.4-4.15,11.21-4.15,11.21Z"/><g><ellipse class="cls-2" cx="21.16" cy="17.07" rx="3.92" ry="3.04" transform="translate(-2.9 4.41) rotate(-11.14)"/><polygon points="21.48 19.22 23.11 19.17 23.7 15.83 21.42 15.62 21.48 19.22"/><path class="cls-5" d="m25.03,16.82c0-.17,0-.34-.03-.51-.32-1.65-2.31-2.65-4.43-2.23s-3.58,2.09-3.26,3.74c.03.17.09.33.16.48l7.56-1.49Z"/></g><g><ellipse class="cls-2" cx="29.55" cy="16.75" rx="3.04" ry="3.92" transform="translate(7.95 42.96) rotate(-80.06)"/><polygon points="29.97 19.14 31.61 19.16 32.33 15.84 30.06 15.54 29.97 19.14"/><path class="cls-5" d="m33.26,17.91c.06-.16.12-.32.15-.49.29-1.65-1.2-3.3-3.33-3.67s-4.09.66-4.38,2.32c-.03.17-.03.34-.02.51l7.59,1.33Z"/></g><path class="cls-5" d="m18.06,50.75c-4.9-.23-11.87,1.04-8.98-7.51s44.43,9.18,8.98,7.51Z"/><polygon class="cls-2" points="29.33 22.59 21.89 22.97 21.73 25.28 29.6 25.1 29.33 22.59"/><polygon class="cls-5" points="22.72 30.6 13.25 19.32 10.5 20.96 19.95 33.4 22.72 30.6"/><polygon points="9.77 25.46 6.21 16.95 .74 19.34 4.62 28.51 9.77 25.46"/><polygon points="7.71 22.96 15.92 19.14 15.12 17.39 7.12 21.07 7.71 22.96"/><rect class="cls-1" width="45.15" height="52.54"/></g></g></svg>