<?xml version="1.0" encoding="UTF-8"?><svg id="Livello_2" xmlns="http://www.w3.org/2000/svg" xmlns:xlink="http://www.w3.org/1999/xlink" viewBox="0 0 1920 1080"><defs><style>.cls-1,.cls-2{fill:none;}.cls-2{stroke:#ffe100;stroke-miterlimit:10;stroke-width:6px;}.cls-3{clip-path:url(#clippath);}.cls-4{fill:#13102b;}.cls-5{opacity:.3;}</style><clipPath id="clippath"><rect class="cls-1" width="1920" height="1080"/></clipPath></defs><g id="lab0"><g id="BKG0Main"><g class="cls-3"><rect class="cls-4" x="-25.7" y="-29.27" width="2287.56" height="1129.31"/><g class="cls-5"><polyline class="cls-2" points="-59.62 1020.06 281.28 838.89 265.6 -81.82"/><polyline class="cls-2" points="149.92 1110.1 474.92 838.89 502.37 -145.66"/><polyline class="cls-2" points="399.27 1120.7 669.97 838.89 622.09 -172.27"/><polyline class="cls-2" points="677.95 1120.7 793.68 838.89 826.93 -103.1"/><polyline class="cls-2" points="883.3 1120.7 978.15 838.89 978.15 -190.89"/><polyline class="cls-2" points="1122.18 1120.7 1066.33 838.89 1094.25 -180.25"/><polyline class="cls-2" points="1400.86 1129.96 1200.71 838.89 1212.68 -145.66"/><polyline class="cls-2" points="1606.21 1129.96 1360.33 838.89 1335.06 -103.1"/><polyline class="cls-2" points="1859.75 1110.1 1470.4 838.89 1500 -103.1"/><polyline class="cls-2" points="2153.11 1110.1 1630.35 838.89 1724.79 -241.43"/><line class="cls-2" x1="-99.53" y1="889.54" x2="2123.18" y2="912.48"/><line class="cls-2" x1="2123.18" y1="986.31" x2="-175.35" y2="1008.25"/><polyline class="cls-2" points="-398.81 1020.06 56.18 838.89 110.83 -103.1"/><polyline class="cls-2" points="2210.97 1030.2 1872.26 838.89 1824.56 -180.25"/><line class="cls-2" x1="-143.53" y1="838.89" x2="2109.77" y2="838.89"/><line class="cls-2" x1="2017.76" y1="711.53" x2="-242.52" y2="679.61"/><line class="cls-2" x1="-112.16" y1="554.71" x2="2034.72" y2="542.79"/><line class="cls-2" x1="1997.48" y1="404.83" x2="-242.52" y2="375.57"/><line class="cls-2" x1="-202.61" y1="255.52" x2="2123.18" y2="230.93"/><line class="cls-2" x1="-112.16" y1="113.33" x2="2034.72" y2="101.4"/></g></g></g></g></svg>