<?xml version="1.0" encoding="UTF-8"?><svg id="Livello_2" xmlns="http://www.w3.org/2000/svg" xmlns:xlink="http://www.w3.org/1999/xlink" viewBox="0 0 1720.71 962.9"><defs><style>.cls-1,.cls-2{fill:none;}.cls-3{clip-path:url(#clippath);}.cls-2{stroke:#83bd49;stroke-width:4px;}.cls-4{fill:url(#Nuovo_campione_pattern_1);stroke:#000;stroke-miterlimit:10;stroke-width:11px;}.cls-5{fill:url(#Sfumatura_senza_nome_20-2);}.cls-6{fill:url(#Sfumatura_senza_nome_20-3);}.cls-7{fill:url(#Sfumatura_senza_nome_20-4);}.cls-8{fill:url(#Sfumatura_senza_nome_20);}</style><clipPath id="clippath"><path class="cls-1" d="m832.57,962.9c-295.32,0-556.2-18.18-775.54-54.04-6.26-23.01-35.89-137.29-49.73-287.49-9.06-98.34-9.69-192.61-1.86-280.19C15.08,233.44,37.61,135.6,72.42,50.3c17.38-2.68,92.62-13.83,209.61-24.85C405.26,13.84,601.32,0,835.54,0c285.92,0,563.46,20.14,825.03,59.86,6.68,17.79,35.44,99.84,50.56,231.7,10.04,87.55,12.2,179.59,6.41,273.58-7.14,115.99-26.47,235.28-57.47,354.65-45.14,4.99-403.97,43.11-827.51,43.11Z"/></clipPath><pattern id="Nuovo_campione_pattern_1" x="0" y="0" width="72" height="72" patternTransform="translate(122.32 295.18) scale(5.6)" patternUnits="userSpaceOnUse" viewBox="0 0 72 72"><g><rect class="cls-1" width="72" height="72"/><g><line class="cls-2" x1="71.75" y1="66" x2="144.25" y2="66"/><line class="cls-2" x1="71.75" y1="42" x2="144.25" y2="42"/><line class="cls-2" x1="71.75" y1="18" x2="144.25" y2="18"/><line class="cls-2" x1="71.75" y1="54" x2="144.25" y2="54"/><line class="cls-2" x1="71.75" y1="30" x2="144.25" y2="30"/><line class="cls-2" x1="71.75" y1="6" x2="144.25" y2="6"/></g><g><line class="cls-2" x1="-.25" y1="66" x2="72.25" y2="66"/><line class="cls-2" x1="-.25" y1="42" x2="72.25" y2="42"/><line class="cls-2" x1="-.25" y1="18" x2="72.25" y2="18"/><line class="cls-2" x1="-.25" y1="54" x2="72.25" y2="54"/><line class="cls-2" x1="-.25" y1="30" x2="72.25" y2="30"/><line class="cls-2" x1="-.25" y1="6" x2="72.25" y2="6"/></g><g><line class="cls-2" x1="-72.25" y1="66" x2=".25" y2="66"/><line class="cls-2" x1="-72.25" y1="42" x2=".25" y2="42"/><line class="cls-2" x1="-72.25" y1="18" x2=".25" y2="18"/><line class="cls-2" x1="-72.25" y1="54" x2=".25" y2="54"/><line class="cls-2" x1="-72.25" y1="30" x2=".25" y2="30"/><line class="cls-2" x1="-72.25" y1="6" x2=".25" y2="6"/></g></g></pattern><linearGradient id="Sfumatura_senza_nome_20" x1="-49.48" y1="496.45" x2="201.29" y2="496.45" gradientUnits="userSpaceOnUse"><stop offset=".04" stop-color="#60a228"/><stop offset=".16" stop-color="#60a228" stop-opacity=".96"/><stop offset=".32" stop-color="#60a228" stop-opacity=".86"/><stop offset=".5" stop-color="#60a228" stop-opacity=".68"/><stop offset=".7" stop-color="#60a228" stop-opacity=".44"/><stop offset=".92" stop-color="#60a228" stop-opacity=".13"/><stop offset="1" stop-color="#60a228" stop-opacity="0"/></linearGradient><linearGradient id="Sfumatura_senza_nome_20-2" x1="1230.9" y1="490.73" x2="1505.66" y2="490.73" gradientTransform="translate(265.94 5.72)" xlink:href="#Sfumatura_senza_nome_20"/><linearGradient id="Sfumatura_senza_nome_20-3" x1="1525.44" y1="363.08" x2="1765.16" y2="363.08" gradientTransform="translate(-837.22 549.12)" xlink:href="#Sfumatura_senza_nome_20"/><linearGradient id="Sfumatura_senza_nome_20-4" x1="2242.51" y1="363.08" x2="2391.81" y2="363.08" gradientTransform="translate(-1509.08 -322.93)" xlink:href="#Sfumatura_senza_nome_20"/></defs><g id="TRANSITION"><g id="TransitionLines"><g class="cls-3"><path class="cls-4" d="m51.48,915.04S-90.18,424.77,67.45,43.99c0,0,744.23-120.87,1598.19,9.56,0,0,139.67,339.93,0,872.66,0,0-907.84,105.36-1614.15-11.17Z"/><g><rect class="cls-8" x="-49.48" y="-33.84" width="250.76" height="1060.58"/><rect class="cls-5" x="1496.84" y="-33.84" width="274.77" height="1060.58" transform="translate(3268.45 992.91) rotate(180)"/><rect class="cls-6" x="688.22" y="54.65" width="239.72" height="1715.11" transform="translate(-104.12 1720.28) rotate(-90)"/><rect class="cls-7" x="733.43" y="-817.4" width="149.3" height="1715.11" transform="translate(848.23 -767.93) rotate(90)"/></g><rect class="cls-1" x="-99.64" y="-61.41" width="1920" height="1080"/></g></g></g></svg>