<?xml version="1.0" encoding="UTF-8"?><svg id="Livello_2" xmlns="http://www.w3.org/2000/svg" viewBox="0 0 554.76 554.76"><defs><style>.cls-1{fill:#232366;}</style></defs><g id="lab2export"><path id="BKG2Gear4" class="cls-1" d="m554.76,291.09v-25.9h-20.38c.04-15.96-1.19-32.24-3.85-48.74-.35-2.17-.76-4.35-1.21-6.51l16.1-5.23-8-24.63-15.35,4.99c-6.36-16.86-15.48-33.34-26.85-49.01l14.63-10.63-15.22-20.95-15.68,11.39c-11.9-13.36-25.41-25.89-40.17-37.3l12.75-17.54-20.95-15.22-12.92,17.78c-15.14-9.85-31.26-18.52-48.02-25.73l6.51-20.05-24.63-8-6.11,18.81c-17.71-5.91-35.93-10.15-54.3-12.42V0h-25.9v14.31c-19.13-.38-38.23,1.51-56.93,6l-3.56-10.97-24.63,8,3.43,10.56c-17.45,6.58-34.35,15.7-50.36,27.63l-7.71-10.61-20.95,15.22,8.79,12.1c-12.81,12.12-24.88,26.33-36,42.81l-16.24-11.8-15.22,20.95,17.88,12.99c-4.5,8.07-8.8,16.57-12.88,25.55-3.6,7.92-6.84,15.73-9.76,23.43l-23.24-7.55-8,24.63,22.95,7.46c-5.45,18.33-9.01,35.99-10.85,52.96H0v25.9h20.37c-.16,19.34,1.93,37.68,5.93,54.98l-16.97,5.51,8,24.63,16.25-5.28c6.4,17.95,14.92,34.62,25.08,49.93l-13.75,9.99,15.22,20.95,13.99-10.16c11.95,14.42,25.4,27.39,39.86,38.83l-10.74,14.78,20.95,15.22,10.8-14.87c15.76,10.31,32.32,18.98,49.13,25.92l-5.51,16.95,24.63,8,5.24-16.13c18.68,5.82,37.32,9.51,55.17,10.96v14.98h25.9v-14.46c.69-.03,1.39-.06,2.08-.1,18.34-1.05,36.29-4.31,53.61-9.53l4.8,14.76,24.63-8-5.06-15.57c17.08-7.23,33.35-16.43,48.58-27.32l11.12,15.31,20.95-15.22-11.76-16.18c13.62-11.91,26.14-25.29,37.33-39.92l17.87,12.99,15.22-20.95-18.33-13.32c9.49-15.11,17.64-31.26,24.26-48.28l22.08,7.17,8-24.63-21.78-7.08c4.93-17.13,8.31-34.97,9.99-53.34h21.6Zm-402.27,77.63c-14.21,19.89-37.89,27.33-52.89,16.62-15-10.71-15.64-35.52-1.43-55.42s37.89-27.33,52.89-16.62c15,10.71,15.64,35.52,1.43,55.42Zm4.87-162.28c-14.21,19.89-37.89,27.33-52.89,16.62s-15.64-35.52-1.43-55.42c14.21-19.89,37.89-27.33,52.89-16.62,15,10.71,15.64,35.52,1.43,55.42Zm103.59,266.31c-14.21,19.89-37.89,27.33-52.89,16.62-15-10.71-15.64-35.52-1.43-55.42,14.21-19.89,37.89-27.33,52.89-16.62,15,10.71,15.64,35.52,1.43,55.42Zm0-362.15c-14.21,19.89-37.89,27.33-52.89,16.62-15-10.71-15.64-35.52-1.43-55.42s37.89-27.33,52.89-16.62c15,10.71,15.64,35.52,1.43,55.42Zm124.49,358.3c-14.21,19.89-37.89,27.33-52.89,16.62-15-10.71-15.64-35.52-1.43-55.42,14.21-19.89,37.89-27.33,52.89-16.62,15,10.71,15.64,35.52,1.43,55.42Zm10.89-338.4c-14.21,19.89-37.89,27.33-52.89,16.62-15-10.71-15.64-35.52-1.43-55.42s37.89-27.33,52.89-16.62c15,10.71,15.64,35.52,1.43,55.42Zm23.89,53.1c14.21-19.89,37.89-27.33,52.89-16.62,15,10.71,15.64,35.52,1.43,55.42-14.21,19.89-37.89,27.33-52.89,16.62-15-10.71-15.64-35.52-1.43-55.42Zm63.55,177.45c-14.21,19.89-37.89,27.33-52.89,16.62-15-10.71-15.64-35.52-1.43-55.42,14.21-19.89,37.89-27.33,52.89-16.62,15,10.71,15.64,35.52,1.43,55.42Z"/></g></svg>