<?xml version="1.0" encoding="UTF-8"?><svg id="Livello_2" xmlns="http://www.w3.org/2000/svg" viewBox="0 0 503.46 510.33"><defs><style>.cls-1{fill:#2a2a70;}</style></defs><g id="lab2export"><path id="BKG2Gear2" class="cls-1" d="m449.1,281.88l54.36-2.68-3.78-76.72-48.83,2.41c-7.41-31.8-28.43-62.53-57.26-87.78l33.56-46.62-62.34-44.88-36.18,50.26c-30.54-13.5-63.88-21.15-96.66-20.37L216.39,0l-73.96,20.76,15,53.43c-27.13,14.22-51.59,37.11-70.85,70.6l-56.7-23.94L0,191.6l57.7,24.36c-10.34,38.8-10.08,72.08-2.49,100.4l-47.14,25.63,36.7,67.48,48.26-26.24c23.62,25.03,54.22,42.75,84.87,54.3l-10.51,59.41,75.64,13.39,9.89-55.9c11.42.79,21.64.56,30.06-.6,27.22-3.76,51.34-10.9,72.28-21.82l32.6,36.99,57.63-50.79-32.61-36.99c17.75-25.68,29.91-58.49,36.23-99.33Z"/></g></svg>