<?xml version="1.0" encoding="UTF-8"?><svg id="Livello_2" xmlns="http://www.w3.org/2000/svg" viewBox="0 0 308.6 544.7"><defs><style>.cls-1{fill:#fff;}.cls-2{fill:#c46dff;}</style></defs><g id="lab2export"><g id="BKG2CrushedTexture"><rect class="cls-2" width="308.6" height="544.7"/><polygon class="cls-1" points="131.05 482.9 139.96 464.44 128.53 449.39 145.19 459.36 164.11 449.51 154.2 467.11 163.85 480.19 147.47 470.9 131.05 482.9"/><polygon class="cls-1" points="231.02 447.65 239.37 447.1 242.42 440.01 242.23 447.94 249.54 452.68 241.29 452.7 238.58 458.76 238.59 451.07 231.02 447.65"/><polygon class="cls-1" points="268.92 31.55 277.27 31 280.32 23.9 280.13 31.83 287.44 36.57 279.19 36.6 276.49 42.66 276.49 34.96 268.92 31.55"/><polygon class="cls-1" points="174.43 97.45 181.88 85.84 175.47 74.86 185.79 82.88 199.23 77.84 191.18 88.79 196.56 98.32 186.37 90.77 174.43 97.45"/><polygon class="cls-1" points="101.22 231.41 99.32 219.45 86.99 215.65 100.46 215.65 104.07 205.4 104.07 215.84 113.94 217.36 104.07 219.64 101.22 231.41"/><polygon class="cls-1" points="205.73 339.33 196.31 323.38 176.62 324.91 195.8 317.34 195.18 300.72 201.04 315.58 215.94 312.2 203.17 320.99 205.73 339.33"/><polygon class="cls-1" points="69.68 74.5 64.19 65.19 52.7 66.08 63.89 61.67 63.52 51.97 66.95 60.64 75.64 58.67 68.19 63.8 69.68 74.5"/><polygon class="cls-1" points="250.91 188.72 247.9 183.62 241.61 184.11 247.74 181.69 247.54 176.39 249.41 181.13 254.17 180.05 250.09 182.86 250.91 188.72"/><polygon class="cls-1" points="59.65 348.52 54.28 339.42 43.05 340.29 53.99 335.97 53.63 326.49 56.98 334.97 65.48 333.04 58.19 338.05 59.65 348.52"/><polygon class="cls-1" points="40.51 140.91 54.51 145.65 46.65 159.98 40.51 140.91"/><polygon class="cls-1" points="254.18 279.75 247.36 271.51 257.64 265.67 254.18 279.75"/><polygon class="cls-1" points="169.43 385.76 163.89 400.5 148.91 391.64 169.43 385.76"/><polygon class="cls-1" points="38.1 431.99 45.67 424.43 52.45 434.12 38.1 431.99"/><polygon class="cls-1" points="155.75 33.28 156.39 23.08 167.37 25.74 155.75 33.28"/><polygon class="cls-1" points="269.14 497.2 278.18 512.96 259.29 519.77 269.14 497.2"/><polygon class="cls-1" points="247.49 84.32 260.34 71.47 271.86 87.93 247.49 84.32"/><polygon class="cls-1" points="41.43 508.4 52.51 522.14 67.59 508.4 54.51 494.83 41.43 508.4"/><polygon class="cls-1" points="176.38 179.75 188.54 180.5 188.55 166.42 175.55 166.77 176.38 179.75"/><polygon class="cls-1" points="36.24 31.47 43.26 26.6 37.16 18.85 30.15 24.68 36.24 31.47"/><polygon class="cls-1" points="42.81 245.51 36.08 255.67 48.27 262.72 54.47 251.28 42.81 245.51"/><polygon class="cls-1" points="257.81 371.15 252.5 380.29 256.75 385.76 263.93 384.17 266.85 376.99 257.81 371.15"/><polygon class="cls-1" points="126.66 284.37 134.55 291.41 140.77 288.34 140.65 280.99 134.2 276.69 126.66 284.37"/><polygon class="cls-1" points="122.99 124.26 130.58 113.19 125.72 105.86 116.48 107.2 112.11 116.01 122.99 124.26"/><polygon class="cls-1" points="190.62 524.44 186.52 517.11 181.06 517.8 179.25 523.35 182.97 528.25 190.62 524.44"/></g></g></svg>