<?xml version="1.0" encoding="UTF-8"?><svg id="Livello_2" xmlns="http://www.w3.org/2000/svg" viewBox="0 0 112.84 112.6"><defs><style>.cls-1{fill:#232366;}</style></defs><g id="lab2export"><path id="BKG2Gear5" class="cls-1" d="m99.9,60.27l12.94-.9-1.02-14.77-12.47.86c-.77-4.58-2.29-8.7-4.42-12.35l8.94-7.49-9.51-11.35-9.34,7.83c-3.42-2.55-7.26-4.58-11.35-6.07l3.11-12.45-14.37-3.59-3.28,13.12c-4.1-.22-8.24.05-12.28.81l-4.94-12.25-13.73,5.54,4.71,11.67c-3.79,2.09-7.3,4.74-10.35,7.98l-9.95-6.23-7.86,12.55,9.8,6.14c-1.7,4.21-2.65,8.63-2.88,13.08l-11.65.81,1.02,14.77,12.45-.86c1.22,4.04,3.02,7.95,5.36,11.57l-9.86,8.27,9.51,11.35,10.29-8.62c3.12,2.5,6.64,4.66,10.52,6.39l-3.23,12.92,14.37,3.59,3.13-12.53c3.93.53,8.1.67,12.49.36.21-.01.42-.04.63-.06l4.25,10.53,13.73-5.54-3.81-9.46c3.83-2.19,7.5-5.29,10.59-9.48l8.82,5.52,7.86-12.55-10.26-6.42c1.06-3.75,1.76-7.98,2.04-12.71Z"/></g></svg>