<?xml version="1.0" encoding="UTF-8"?><svg id="Livello_2" xmlns="http://www.w3.org/2000/svg" viewBox="0 0 672.07 672.07"><defs><style>.cls-1{fill:#232366;}</style></defs><g id="lab2export"><path id="BKG2Gear1" class="cls-1" d="m672.07,375.92v-77.69h-50.06c-3.09-22.26-9.15-45.73-19.01-70.27l43.99-25.4-38.85-67.28-41.55,23.99c-6.91-10.49-14.54-21.13-22.94-31.9-7.75-9.94-16.27-18.96-25.44-27.11l20.37-35.28-67.28-38.85-19.49,33.75c-23.87-9.4-49.53-15.16-75.91-17.49V0h-77.69v45.05c-24.8,3.81-49.35,10.39-72.84,19.57l-22.83-39.54-67.28,38.85,21.58,37.38c-21.2,14.98-40.32,32.59-56.42,52.66l-35.48-20.48-38.85,67.28,35.96,20.76c-8.44,22.98-13.48,47.9-14.39,74.63H0v77.69h56.09c5.02,20.72,12.34,42.25,22.22,64.53.05.11.1.21.15.32l-53.38,30.82,38.85,67.28,51.23-29.58c14.04,21.65,28.8,39.94,44.09,55.26l-25.77,44.63,67.28,38.85,21.53-37.29c24.35,12.14,49.21,18.77,73.86,21.18v42.23h77.69v-47.46c24.33-5.38,47.58-13.83,68.94-23.91l26.73,46.29,67.28-38.85-27.48-47.6c16.49-12.43,29.85-24.74,39.13-35.27,3.46-3.93,7.38-8.57,11.57-13.88l47.09,27.19,38.85-67.28-45.52-26.28c9.1-20.29,16.72-43.44,20.83-69.11h50.8Zm-542.26-93.53c-20.75-28.55-20.46-64.13.64-79.46s55.02-4.61,75.77,23.94,20.46,64.13-.64,79.46c-21.1,15.33-55.02,4.61-75.77-23.94Zm115.67,232.82c-21.1,15.33-55.02,4.61-75.77-23.94-20.75-28.55-20.46-64.13.64-79.46,21.1-15.33,55.02-4.61,75.77,23.94,20.75,28.55,20.46,64.13-.64,79.46Zm40.6-324.54c-20.75-28.55-20.46-64.13.64-79.46,21.1-15.33,55.02-4.61,75.77,23.94,20.75,28.55,20.46,64.13-.64,79.46-21.1,15.33-55.02,4.61-75.77-23.94Zm161.59,365.08c-21.1,15.33-55.02,4.61-75.77-23.94-20.75-28.55-20.46-64.13.64-79.46s55.02-4.61,75.77,23.94c20.75,28.55,20.46,64.13-.64,79.46Zm93.95-183.56c-21.1,15.33-55.02,4.61-75.77-23.94-20.75-28.55-20.46-64.13.64-79.46s55.02-4.61,75.77,23.94,20.46,64.13-.64,79.46Z"/></g></svg>