<?xml version="1.0" encoding="UTF-8"?><svg id="Livello_2" xmlns="http://www.w3.org/2000/svg" viewBox="0 0 158.83 158.84"><defs><style>.cls-1{fill:#35358e;}</style></defs><g id="lab2export"><path id="BKG2Gear3" class="cls-1" d="m158.83,65.04l-16.56-1.61c-2.01-6.3-5.58-12.94-11.32-19.86l10.77-15.08L106.67,3.45l-10.57,14.8c-7.19-2.06-14.68-2.53-22.1-1.68L66.46,0,27.25,17.83l7.51,16.51c-5.99,5.23-11.08,11.37-14.82,18.12l-15.78-1.53L0,93.8l16.31,1.58c1.2,3.16,2.72,6.33,4.64,9.48,2.26,3.71,4.63,7.1,7.09,10.19l-10.93,15.3,35.05,25.04,11.33-15.86c7.05,1.93,14.15,2.51,21,2l7.88,17.31,39.21-17.83-7.46-16.39c4.85-4.45,8.62-9.47,10.94-14.67.53-1.2,1.11-2.46,1.71-3.77l17.9,1.74,4.16-42.87Z"/></g></svg>