<?xml version="1.0" encoding="UTF-8"?><svg id="Livello_2" xmlns="http://www.w3.org/2000/svg" viewBox="0 0 266.22 266.49"><defs><style>.cls-1{fill:#35358e;}</style></defs><g id="lab2export"><path id="BKG2Gear6" class="cls-1" d="m253.41,139.8c0-4.51-.19-8.99-.57-13.42l13.37-1.41-1.1-10.51-13.51,1.42c-.74-4.82-1.69-9.58-2.86-14.23l12.85-4.17-3.26-10.05-12.53,4.07c-1.54-4.69-3.31-9.26-5.3-13.69l10.84-6.26-5.28-9.15-10.26,5.92c-2.42-4.43-5.07-8.69-7.94-12.74l8.07-7.27-7.07-7.85-7.5,6.75c-3.34-3.93-6.91-7.62-10.71-11.03l5.37-7.39-8.55-6.21-5.03,6.93c-4.19-3.08-8.6-5.87-13.23-8.3l3.28-7.37-9.65-4.3-3.22,7.24c-4.79-1.92-9.77-3.51-14.94-4.71l1.69-7.97-10.33-2.2-1.76,8.3c-4.68-.61-9.49-.93-14.43-.93-.35,0-.7,0-1.05.01V0h-10.56v9.69c-5.18.38-10.24,1.02-15.17,1.9l-2.1-9.87-10.33,2.2,2.11,9.93c-4.98,1.3-9.81,2.87-14.47,4.7l-4.16-9.35-9.65,4.3,4.15,9.33c-4.57,2.27-8.96,4.82-13.15,7.62l-6.07-8.35-8.55,6.21,6.11,8.41c-3.92,3.17-7.62,6.61-11.11,10.29l-7.95-7.16-7.07,7.85,8.1,7.3c-3.07,3.89-5.93,8.02-8.55,12.36l-9.81-5.67-5.28,9.15,10,5.77c-2.18,4.38-4.14,8.94-5.89,13.7l-11.25-3.65-3.26,10.05,11.24,3.65c-1.34,4.68-2.49,9.52-3.43,14.51l-11.5-1.21L.09,124.16l10.98,1.15c-.63,5.1-.9,10.15-.86,15.12l-10.21,1.07,1.1,10.51,9.69-1.02c.53,5.15,1.42,10.2,2.63,15.15l-8.8,2.86,3.26,10.05,8.52-2.77c1.69,4.91,3.71,9.67,6.03,14.28l-7.57,4.37,5.28,9.15,7.43-4.29c2.73,4.42,5.74,8.66,9,12.7l-6.3,5.67,7.07,7.85,6.21-5.6c3.6,3.76,7.43,7.3,11.46,10.6l-4.84,6.67,8.55,6.21,4.74-6.53c4.31,2.96,8.8,5.66,13.44,8.08l-3.21,7.2,9.65,4.3,3.12-7.02c4.84,2.02,9.82,3.74,14.91,5.14l-1.56,7.32,10.33,2.2,1.53-7.18c5.17.94,10.41,1.54,15.72,1.78v7.3h10.56v-7.3c5.26-.25,10.5-.87,15.69-1.84l1.58,7.41,10.33-2.2-1.62-7.62c5.02-1.41,9.96-3.16,14.79-5.2l3.36,7.54,9.65-4.3-3.46-7.78c4.57-2.41,9-5.11,13.26-8.08l5.27,7.26,8.55-6.21-5.41-7.45c3.94-3.27,7.69-6.78,11.22-10.53l7.14,6.43,7.07-7.85-7.3-6.57c3.15-3.98,6.05-8.16,8.69-12.54l8.87,5.12,5.28-9.15-9.11-5.26c2.18-4.5,4.09-9.16,5.7-13.98l10.55,3.43,3.26-10.05-10.95-3.56c1.11-4.77,1.93-9.66,2.43-14.68l12.2,1.28,1.1-10.51-12.73-1.34c0-.4.02-.79.02-1.18ZM43.25,78.89c7.01-9.65,21.23-11.27,31.76-3.62,10.53,7.65,13.38,21.67,6.37,31.32-7.01,9.65-21.23,11.27-31.76,3.62-10.53-7.65-13.38-21.67-6.37-31.32Zm33.76,101.57c-11.89,5.29-25.46.75-30.31-10.14-4.85-10.89.86-24.02,12.75-29.31,11.89-5.29,25.46-.75,30.31,10.14,4.85,10.89-.86,24.02-12.75,29.31Zm19.75-129.09c1.36-12.94,12.08-22.43,23.94-21.18,11.86,1.25,20.37,12.75,19.01,25.69-1.36,12.94-12.08,22.43-23.94,21.18-11.86-1.25-20.37-12.75-19.01-25.69Zm54.78,140.5c-1.36,12.94-12.08,22.43-23.94,21.18-11.86-1.25-20.37-12.75-19.01-25.69,1.36-12.94,12.08-22.43,23.94-21.18,11.86,1.25,20.37,12.75,19.01,25.69Zm7.01-99.78c-4.85-10.89.86-24.02,12.75-29.31s25.46-.75,30.31,10.14c4.85,10.89-.86,24.02-12.75,29.31-11.89,5.29-25.46.75-30.31-10.14Zm46.51,72.26c-7.01,9.65-21.23,11.27-31.76,3.62-10.53-7.65-13.38-21.67-6.37-31.32,7.01-9.65,21.23-11.27,31.76-3.62,10.53,7.65,13.38,21.67,6.37,31.32Z"/></g></svg>