<?xml version="1.0" encoding="UTF-8"?><svg id="Livello_2" xmlns="http://www.w3.org/2000/svg" xmlns:xlink="http://www.w3.org/1999/xlink" viewBox="0 0 1920 1080"><defs><style>.cls-1,.cls-2,.cls-3,.cls-4,.cls-5{fill:none;}.cls-2{stroke-width:3px;}.cls-2,.cls-3{stroke-miterlimit:10;}.cls-2,.cls-3,.cls-4,.cls-5{stroke:#19204c;}.cls-6{clip-path:url(#clippath);}.cls-7{fill:#8c84ce;}.cls-8{fill:#a3c3e8;}.cls-9{fill:#c7dcf9;}.cls-10{fill:#19204c;}.cls-11{fill:#462ca3;}.cls-12{clip-path:url(#clippath-1);}.cls-13{clip-path:url(#clippath-3);}.cls-14{clip-path:url(#clippath-2);}.cls-3{stroke-width:4px;}.cls-4{stroke-width:10px;}.cls-4,.cls-5{stroke-linejoin:bevel;}.cls-5{stroke-width:20px;}</style><clipPath id="clippath"><rect class="cls-1" width="1920" height="1080"/></clipPath><clipPath id="clippath-1"><path class="cls-1" d="m741.22-196.98c-63.94,82.85-353.36,837.65,526.99,1093.02,721.29,209.23,1160.96-593.88,790.78-1033.81-361.62-429.76-942.19-545.84-1317.77-59.21Z"/></clipPath><clipPath id="clippath-2"><polygon class="cls-1" points="1961.36 890.01 1354.15 860.26 1293.15 1162.92 1408.13 1171.9 1439.14 965.5 1953.99 990.79 1961.36 890.01"/></clipPath><clipPath id="clippath-3"><polygon class="cls-1" points="329.58 -263.9 167.01 152.09 -54.21 102.01 -25.68 22.23 122.01 63.48 259.8 -289.26 329.58 -263.9"/></clipPath></defs><g id="lab2export"><g id="BKG2Main"><g class="cls-6"><g><rect class="cls-10" x="-32.03" y="-24.61" width="1977.29" height="1129.88"/><g class="cls-12"><path class="cls-9" d="m741.22-196.98c-63.94,82.85-353.36,837.65,526.99,1093.02,721.29,209.23,1160.96-593.88,790.78-1033.81-361.62-429.76-942.19-545.84-1317.77-59.21Z"/><g><g><polygon class="cls-8" points="1369.41 63.74 1535.22 28.6 1585.62 995.7 1369.41 63.74"/><polygon class="cls-8" points="1596.88 218.32 1556.03 44.86 967.57 231.15 1596.88 218.32"/></g><g><path class="cls-5" d="m832.62-179.89c-123.69,149.11-257.39,788.12,478.86,995.63S2211.33,199.97,2039.74-45.83s-750.29-684.75-1207.12-134.06Z"/><path class="cls-5" d="m1545.8,596.18c-320.68,72.53-562.89-220.72-530.6-461.51,32.3-240.79,456.7-710.78,814.86-260.85,274.23,344.49-3.34,658.82-284.26,722.36Z"/><line class="cls-5" x1="593.02" y1="162.52" x2="735.53" y2="162.52"/><line class="cls-5" x1="1491.3" y1="849.09" x2="1494.06" y2="981.56"/><line class="cls-5" x1="735.52" y1="570.54" x2="841.68" y2="512.11"/><line class="cls-5" x1="1051.39" y1="875.81" x2="1111" y2="739.04"/><line class="cls-5" x1="1848.6" y1="752.11" x2="1929.3" y2="851.16"/><line class="cls-5" x1="810.94" y1="462.23" x2="1048.55" y2="340.54"/><polyline class="cls-5" points="832.2 497.86 1081.2 397.06 880.84 563.13"/><line class="cls-5" x1="735.53" y1="100.42" x2="1012.73" y2="107.4"/><line class="cls-5" x1="735.52" y1="151.5" x2="1013.4" y2="151.5"/><line class="cls-5" x1="735.52" y1="208.02" x2="1012.73" y2="195.2"/><polyline class="cls-5" points="1073.09 718.73 1221.77 541.32 1153.15 759.07"/><polyline class="cls-5" points="1508.64 849.09 1477.56 602.22 1426.81 840.75"/><line class="cls-5" x1="1543.56" y1="849.09" x2="1530.99" y2="599.28"/><polyline class="cls-5" points="1783.52 791.98 1702.79 533.72 1857.81 739.04"/><line class="cls-5" x1="1737.03" y1="512.11" x2="1888.95" y2="719.64"/><line class="cls-5" x1="1767.35" y1="489.91" x2="1916.71" y2="693.02"/><line class="cls-5" x1="1888.95" y1="366.26" x2="2061.63" y2="448.17"/><line class="cls-5" x1="1901.2" y1="340.9" x2="2068.74" y2="421.98"/><line class="cls-5" x1="1910.39" y1="318.14" x2="2076.01" y2="390.49"/><polyline class="cls-5" points="2053.31 471.78 1863.56 391.49 2031.07 524.79"/><line class="cls-4" x1="783.39" y1="654.68" x2="890.73" y2="574.42"/><line class="cls-4" x1="1051.39" y1="705.98" x2="994.11" y2="797.03"/><line class="cls-4" x1="847.61" y1="709.72" x2="931.45" y2="615.88"/><line class="cls-4" x1="927.08" y1="759.96" x2="987.61" y2="662.85"/><line class="cls-4" x1="1187.41" y1="776.14" x2="1153.15" y2="875.81"/><line class="cls-4" x1="1255.32" y1="798.53" x2="1229.34" y2="923.4"/><line class="cls-4" x1="1327.66" y1="820.16" x2="1305.79" y2="923.4"/><line class="cls-4" x1="1386.93" y1="935.67" x2="1401.56" y2="836"/><line class="cls-4" x1="1565.17" y1="849.09" x2="1582.47" y2="935.67"/><line class="cls-4" x1="1643.58" y1="839.18" x2="1680.9" y2="935.67"/><line class="cls-4" x1="1732.21" y1="820.16" x2="1767.35" y2="907.05"/><line class="cls-4" x1="1795.37" y1="785.63" x2="1842.03" y2="875.81"/><line class="cls-4" x1="1901.2" y1="708.37" x2="1975.29" y2="776.14"/><line class="cls-4" x1="799.63" y1="440.59" x2="701.78" y2="480.1"/><line class="cls-4" x1="773.36" y1="379.36" x2="664.27" y2="417.68"/><line class="cls-4" x1="755.41" y1="321.1" x2="634.77" y2="340"/><line class="cls-4" x1="735.52" y1="253.21" x2="624.06" y2="256.19"/><line class="cls-4" x1="739.4" y1="85.79" x2="632.73" y2="67.76"/><line class="cls-4" x1="748.73" y1="23.85" x2="619.43" y2="-9.43"/><line class="cls-5" x1="1345.44" y1="603.67" x2="1601.68" y2="-298.02"/><line class="cls-5" x1="1039.61" y1="33.15" x2="1929.1" y2="259.68"/></g></g></g><g><polygon class="cls-7" points="1957.67 890.01 1354.15 860.26 1293.15 1162.92 1408.13 1171.9 1439.14 965.5 1950.31 990.79 1957.67 890.01"/><polygon class="cls-11" points="1961.67 921.53 1408.5 882.22 1370.93 1173.74 1398.19 1186.38 1431.26 911.73 1963.37 956.08 1961.67 921.53"/><g class="cls-14"><g><line class="cls-3" x1="1611.09" y1="990.1" x2="1604.31" y2="852.59"/><line class="cls-3" x1="1565.59" y1="861.49" x2="1546.15" y2="993.3"/><line class="cls-3" x1="1497.74" y1="983.7" x2="1490.96" y2="846.2"/><line class="cls-3" x1="1435.52" y1="856.25" x2="1452.49" y2="997.92"/><line class="cls-3" x1="1327.5" y1="914.18" x2="1462.86" y2="985.42"/><line class="cls-3" x1="1303.44" y1="993.28" x2="1464.39" y2="1016.31"/><line class="cls-3" x1="1451" y1="1068.91" x2="1287.1" y2="1040.03"/></g><line class="cls-3" x1="1667.15" y1="994.42" x2="1675.68" y2="848.46"/><polyline class="cls-3" points="1723.57 994.42 1763.92 848.46 1815.35 848.46 1819.34 1010.74 1853.92 1010.74 1905.46 775.83"/></g></g><g><polygon class="cls-7" points="328.47 -261.43 167.01 152.09 -54.21 102.01 -25.68 22.23 122.01 63.48 258.7 -286.79 328.47 -261.43"/><polygon class="cls-11" points="308.54 -273.58 168.63 109.05 -38.09 46.62 -38.37 24.54 155.69 84.92 285.9 -285.11 308.54 -273.58"/><g class="cls-13"><g><line class="cls-2" x1="229.74" y1="9.98" x2="135.54" y2="-16.61"/><line class="cls-2" x1="127.42" y1="18.73" x2="217.56" y2="64.6"/><line class="cls-2" x1="194.16" y1="98.74" x2="104.29" y2="44.79"/><line class="cls-2" x1="122.86" y1="153.74" x2="115.79" y2="41.59"/><line class="cls-2" x1="62.6" y1="146.1" x2="95.54" y2="31.29"/><line class="cls-2" x1="56.25" y1="24.45" x2="26.35" y2="143"/></g></g></g></g></g></g></g></svg>