<?xml version="1.0" encoding="UTF-8"?><svg id="Livello_2" xmlns="http://www.w3.org/2000/svg" viewBox="0 0 308.6 1631.3"><defs><style>.cls-1{fill:#fff;}.cls-2{fill:#c46dff;}</style></defs><g id="lab2export"><g id="BKG2CrushedTexture"><g id="BKG2CrushedTexture-2"><rect class="cls-2" width="308.6" height="1631.3"/><polygon class="cls-1" points="131.05 1569.5 139.96 1551.04 128.53 1535.99 145.19 1545.97 164.11 1536.11 154.2 1553.71 163.85 1566.79 147.47 1557.5 131.05 1569.5"/><polygon class="cls-1" points="231.02 1534.26 239.37 1533.7 242.42 1526.61 242.23 1534.54 249.54 1539.28 241.29 1539.3 238.58 1545.37 238.59 1537.67 231.02 1534.26"/><polygon class="cls-1" points="268.92 1118.15 277.27 1117.6 280.32 1110.5 280.13 1118.44 287.44 1123.17 279.19 1123.2 276.49 1129.26 276.49 1121.57 268.92 1118.15"/><polygon class="cls-1" points="174.43 1184.05 181.88 1172.45 175.47 1161.46 185.79 1169.48 199.23 1164.44 191.18 1175.39 196.56 1184.92 186.37 1177.37 174.43 1184.05"/><polygon class="cls-1" points="101.22 1318.01 99.32 1306.05 86.99 1302.25 100.46 1302.25 104.07 1292.01 104.07 1302.44 113.94 1303.96 104.07 1306.24 101.22 1318.01"/><polygon class="cls-1" points="205.73 1425.93 196.31 1409.98 176.62 1411.51 195.8 1403.94 195.18 1387.33 201.04 1402.18 215.94 1398.8 203.17 1407.59 205.73 1425.93"/><polygon class="cls-1" points="69.68 1161.1 64.19 1151.8 52.7 1152.69 63.89 1148.27 63.52 1138.57 66.95 1147.24 75.64 1145.27 68.19 1150.4 69.68 1161.1"/><polygon class="cls-1" points="250.91 1275.32 247.9 1270.22 241.61 1270.71 247.74 1268.29 247.54 1262.99 249.41 1267.73 254.17 1266.65 250.09 1269.46 250.91 1275.32"/><polygon class="cls-1" points="59.65 1435.12 54.28 1426.02 43.05 1426.89 53.99 1422.57 53.63 1413.09 56.98 1421.57 65.48 1419.64 58.19 1424.65 59.65 1435.12"/><polygon class="cls-1" points="40.51 1227.51 54.51 1232.25 46.65 1246.58 40.51 1227.51"/><polygon class="cls-1" points="254.18 1366.35 247.36 1358.11 257.64 1352.27 254.18 1366.35"/><polygon class="cls-1" points="169.43 1472.37 163.89 1487.1 148.91 1478.24 169.43 1472.37"/><polygon class="cls-1" points="38.1 1518.59 45.67 1511.03 52.45 1520.72 38.1 1518.59"/><polygon class="cls-1" points="155.75 1119.88 156.39 1109.69 167.37 1112.34 155.75 1119.88"/><polygon class="cls-1" points="269.14 1583.8 278.18 1599.56 259.29 1606.37 269.14 1583.8"/><polygon class="cls-1" points="247.49 1170.92 260.34 1158.07 271.86 1174.53 247.49 1170.92"/><polygon class="cls-1" points="41.43 1595 52.51 1608.74 67.59 1595 54.51 1581.43 41.43 1595"/><polygon class="cls-1" points="176.38 1266.36 188.54 1267.1 188.55 1253.02 175.55 1253.38 176.38 1266.36"/><polygon class="cls-1" points="36.24 1118.07 43.26 1113.2 37.16 1105.45 30.15 1111.28 36.24 1118.07"/><polygon class="cls-1" points="42.81 1332.11 36.08 1342.28 48.27 1349.32 54.47 1337.89 42.81 1332.11"/><polygon class="cls-1" points="257.81 1457.75 252.5 1466.89 256.75 1472.37 263.93 1470.77 266.85 1463.59 257.81 1457.75"/><polygon class="cls-1" points="126.66 1370.97 134.55 1378.01 140.77 1374.94 140.65 1367.59 134.2 1363.29 126.66 1370.97"/><polygon class="cls-1" points="122.99 1210.87 130.58 1199.8 125.72 1192.46 116.48 1193.81 112.11 1202.61 122.99 1210.87"/><polygon class="cls-1" points="190.62 1611.04 186.52 1603.71 181.06 1604.4 179.25 1609.95 182.97 1614.85 190.62 1611.04"/></g><g id="BKG2CrushedTexture-3"><polygon class="cls-1" points="131.05 1024.8 139.96 1006.34 128.53 991.29 145.19 1001.26 164.11 991.41 154.2 1009.01 163.85 1022.09 147.47 1012.79 131.05 1024.8"/><polygon class="cls-1" points="231.02 989.55 239.37 989 242.42 981.91 242.23 989.84 249.54 994.58 241.29 994.6 238.58 1000.66 238.59 992.97 231.02 989.55"/><polygon class="cls-1" points="268.92 573.45 277.27 572.9 280.32 565.8 280.13 573.73 287.44 578.47 279.19 578.5 276.49 584.56 276.49 576.86 268.92 573.45"/><polygon class="cls-1" points="174.43 639.35 181.88 627.74 175.47 616.76 185.79 624.78 199.23 619.74 191.18 630.69 196.56 640.21 186.37 632.67 174.43 639.35"/><polygon class="cls-1" points="101.22 773.31 99.32 761.35 86.99 757.55 100.46 757.55 104.07 747.3 104.07 757.74 113.94 759.26 104.07 761.54 101.22 773.31"/><polygon class="cls-1" points="205.73 881.23 196.31 865.28 176.62 866.81 195.8 859.24 195.18 842.62 201.04 857.48 215.94 854.1 203.17 862.88 205.73 881.23"/><polygon class="cls-1" points="69.68 616.4 64.19 607.09 52.7 607.98 63.89 603.57 63.52 593.87 66.95 602.54 75.64 600.57 68.19 605.7 69.68 616.4"/><polygon class="cls-1" points="250.91 730.62 247.9 725.52 241.61 726.01 247.74 723.59 247.54 718.28 249.41 723.03 254.17 721.95 250.09 724.76 250.91 730.62"/><polygon class="cls-1" points="59.65 890.42 54.28 881.31 43.05 882.19 53.99 877.87 53.63 868.39 56.98 876.87 65.48 874.94 58.19 879.95 59.65 890.42"/><polygon class="cls-1" points="40.51 682.8 54.51 687.55 46.65 701.88 40.51 682.8"/><polygon class="cls-1" points="254.18 821.64 247.36 813.41 257.64 807.56 254.18 821.64"/><polygon class="cls-1" points="169.43 927.66 163.89 942.4 148.91 933.54 169.43 927.66"/><polygon class="cls-1" points="38.1 973.89 45.67 966.33 52.45 976.02 38.1 973.89"/><polygon class="cls-1" points="155.75 575.18 156.39 564.98 167.37 567.64 155.75 575.18"/><polygon class="cls-1" points="269.14 1039.1 278.18 1054.86 259.29 1061.67 269.14 1039.1"/><polygon class="cls-1" points="247.49 626.22 260.34 613.37 271.86 629.83 247.49 626.22"/><polygon class="cls-1" points="41.43 1050.3 52.51 1064.04 67.59 1050.3 54.51 1036.73 41.43 1050.3"/><polygon class="cls-1" points="176.38 721.65 188.54 722.4 188.55 708.32 175.55 708.67 176.38 721.65"/><polygon class="cls-1" points="36.24 573.37 43.26 568.5 37.16 560.74 30.15 566.58 36.24 573.37"/><polygon class="cls-1" points="42.81 787.41 36.08 797.57 48.27 804.62 54.47 793.18 42.81 787.41"/><polygon class="cls-1" points="257.81 913.04 252.5 922.19 256.75 927.66 263.93 926.07 266.85 918.89 257.81 913.04"/><polygon class="cls-1" points="126.66 826.27 134.55 833.31 140.77 830.24 140.65 822.89 134.2 818.59 126.66 826.27"/><polygon class="cls-1" points="122.99 666.16 130.58 655.09 125.72 647.76 116.48 649.1 112.11 657.91 122.99 666.16"/><polygon class="cls-1" points="190.62 1066.34 186.52 1059.01 181.06 1059.7 179.25 1065.25 182.97 1070.15 190.62 1066.34"/></g><g id="BKG2CrushedTexture-4"><polygon class="cls-1" points="131.05 480.1 139.96 461.64 128.53 446.58 145.19 456.56 164.11 446.71 154.2 464.31 163.85 477.39 147.47 468.09 131.05 480.1"/><polygon class="cls-1" points="231.02 444.85 239.37 444.3 242.42 437.21 242.23 445.14 249.54 449.88 241.29 449.9 238.58 455.96 238.59 448.27 231.02 444.85"/><polygon class="cls-1" points="268.92 28.75 277.27 28.19 280.32 21.1 280.13 29.03 287.44 33.77 279.19 33.79 276.49 39.86 276.49 32.16 268.92 28.75"/><polygon class="cls-1" points="174.43 94.65 181.88 83.04 175.47 72.05 185.79 80.08 199.23 75.04 191.18 85.99 196.56 95.51 186.37 87.97 174.43 94.65"/><polygon class="cls-1" points="101.22 228.6 99.32 216.65 86.99 212.85 100.46 212.85 104.07 202.6 104.07 213.04 113.94 214.56 104.07 216.84 101.22 228.6"/><polygon class="cls-1" points="205.73 336.53 196.31 320.58 176.62 322.1 195.8 314.53 195.18 297.92 201.04 312.78 215.94 309.4 203.17 318.18 205.73 336.53"/><polygon class="cls-1" points="69.68 71.7 64.19 62.39 52.7 63.28 63.89 58.86 63.52 49.17 66.95 57.84 75.64 55.87 68.19 60.99 69.68 71.7"/><polygon class="cls-1" points="250.91 185.92 247.9 180.82 241.61 181.31 247.74 178.89 247.54 173.58 249.41 178.33 254.17 177.25 250.09 180.05 250.91 185.92"/><polygon class="cls-1" points="59.65 345.71 54.28 336.61 43.05 337.48 53.99 333.17 53.63 323.69 56.98 332.16 65.48 330.23 58.19 335.25 59.65 345.71"/><polygon class="cls-1" points="40.51 138.1 54.51 142.84 46.65 157.18 40.51 138.1"/><polygon class="cls-1" points="254.18 276.94 247.36 268.71 257.64 262.86 254.18 276.94"/><polygon class="cls-1" points="169.43 382.96 163.89 397.7 148.91 388.84 169.43 382.96"/><polygon class="cls-1" points="38.1 429.19 45.67 421.63 52.45 431.31 38.1 429.19"/><polygon class="cls-1" points="155.75 30.48 156.39 20.28 167.37 22.94 155.75 30.48"/><polygon class="cls-1" points="269.14 494.4 278.18 510.15 259.29 516.96 269.14 494.4"/><polygon class="cls-1" points="247.49 81.52 260.34 68.67 271.86 85.13 247.49 81.52"/><polygon class="cls-1" points="41.43 505.59 52.51 519.34 67.59 505.59 54.51 492.02 41.43 505.59"/><polygon class="cls-1" points="176.38 176.95 188.54 177.69 188.55 163.62 175.55 163.97 176.38 176.95"/><polygon class="cls-1" points="36.24 28.66 43.26 23.8 37.16 16.04 30.15 21.88 36.24 28.66"/><polygon class="cls-1" points="42.81 242.71 36.08 252.87 48.27 259.92 54.47 248.48 42.81 242.71"/><polygon class="cls-1" points="257.81 368.34 252.5 377.49 256.75 382.96 263.93 381.37 266.85 374.19 257.81 368.34"/><polygon class="cls-1" points="126.66 281.57 134.55 288.61 140.77 285.54 140.65 278.19 134.2 273.89 126.66 281.57"/><polygon class="cls-1" points="122.99 121.46 130.58 110.39 125.72 103.06 116.48 104.4 112.11 113.21 122.99 121.46"/><polygon class="cls-1" points="190.62 521.64 186.52 514.31 181.06 515 179.25 520.55 182.97 525.44 190.62 521.64"/></g></g></g></svg>