<?xml version="1.0" encoding="UTF-8"?><svg id="Livello_2" xmlns="http://www.w3.org/2000/svg" viewBox="0 0 54.45 150.56"><defs><style>.cls-1{fill:#68d1e7;}.cls-2{fill:#fff;}.cls-3{fill:#ffbc61;}.cls-4{fill:#8c6239;}.cls-5{fill:#c46dff;}.cls-6{fill:#d3a888;}</style></defs><g id="us"><g id="aral"><g id="aral-2"><path d="m30.4,63.19l-7.69-11.78.77-15.29,9.51,4.94,1.05,10.08-3.64,12.05Zm-4.65-12.6l3.64,5.57,1.6-5.3-.82-7.87-3.93-2.04-.49,9.65Z"/><g id="yougIdle"><path d="m33.68,53.37c1.95,3.19,3.76,6.45,5.56,9.7,2.96,6.82,9.74,23.65,12.71,30.74,0,0,.54,1.3.54,1.3,0,0-1.27.62-1.27.62-1.14.55-5.72,2.79-6.77,3.3,0,0-.53-1.66-.53-1.66l-6.18-19.47c-.83-2.88-2.41-6.87-2.9-9.79-.67-3.36-1.3-6.73-1.85-10.13,1.84,3.88,3.73,7.74,5.32,11.7.44,1.63,1.77,5.63,2.29,7.31,0,0,6.18,19.47,6.18,19.47l-2.09-.89s5.21-2.54,5.21-2.54l-.73,1.92c-2.94-7.22-9.86-23.76-12.61-30.79-1.01-3.58-2.02-7.16-2.88-10.81h0Z"/><path d="m47.74,110.24c-.4,0-.76-.12-1.11-.35-.61-.41-.89-1.08-.84-1.86-.59.12-1.13.15-1.59.01-.55-.16-.99-.53-1.24-1.04-.16-.33-.26-.71-.15-1.18-1.42.05-1.95-.36-2.24-1.1-.27-.68-.2-1.42.2-2.08.69-1.15,2.41-1.96,3.99-2.46l-5.27-4.81,11.81-2.69.55.95c.47.81,4.53,8.03,1.43,12.05-2.38,3.08-4.15,4.55-5.55,4.55Zm-1.99-13.21l4.47,4.08,1.15-.3c-.25-1.65-.99-3.47-1.59-4.7l-4.03.92Z"/><path d="m20.23,121.49l-.29-2.99,25.99-2.51c-.26-35.4-14.6-64.02-14.75-64.31l2.67-1.36c.15.3,15.18,30.26,15.08,67.04v1.36s-28.71,2.77-28.71,2.77Z"/><path d="m18.12,102.66l-.02-1.63c0-.85-.24-20.87.5-27.96.57-5.46,4.03-21.7,4.17-22.39l.75-3.53,5.88,9,1.69-5.59,2.87.87-.66,2.19c6.99,23.09,7.56,45.28,7.56,45.5l.03,1.4-22.77,2.14Zm6.84-47.81c-1.08,5.21-2.99,14.74-3.38,18.53-.6,5.77-.54,20.97-.5,25.99l16.72-1.57c-.23-4.77-1.32-21.12-6.11-38.87l-1.29,4.26-5.44-8.33Z"/><g><path d="m51.94,150.56l-20.38-3.07-.79-14.17-1.13,14.78-23.66,2.31,15.55-10.82c-.67-3.88-3.09-19.08-3.43-38.55l-.02-1.39,22.66-2.13.12,1.52c1.64,21.61.03,37.09-.4,40.66l11.49,10.85Zm-30.82-48.18c.49,21.57,3.49,37.45,3.52,37.61l.18.96-7.71,5.37,9.72-.95,2.66-34.92,2.99.03,1.92,34.41,8.5,1.28-5.66-5.34.11-.77c.02-.16,2.22-15.85.59-39.26l-16.85,1.58Z"/><g><polygon points="22.32 106.46 22.16 101.18 29.17 100.42 29.45 105.7 22.32 106.46"/><polygon points="29 106.03 28.72 100.43 35.29 100.07 36.03 105.24 29 106.03"/><polygon points="35.4 105.53 34.88 99.92 41.8 99.56 42.07 104.74 35.4 105.53"/><polygon points="17.02 107.16 16.5 101.55 23.42 101.19 23.69 106.37 17.02 107.16"/></g><path d="m5.98,150.41l16.92-11.78,7.3,2.1-.56,7.38-23.66,2.31Zm17.47-8.5l-6.32,4.4,9.72-.95.18-2.43-3.58-1.03Z"/><path d="m51.94,150.56l-20.38-3.07-.39-6.93,8.13-1.93,12.64,11.93Zm-17.52-5.67l8.5,1.28-4.5-4.25-4.11.98.11,1.99Z"/></g><path d="m33.86,90.97l-7.22-20.92,2.03-2.4-2.07-2.41,3.32-5.53,4.56,5.72-1.86,2.2,3.31,3.85-2.07,19.49Zm-3.82-20.28l2.27,6.57.51-4.8-2.15-2.5-.62.73Z"/><path d="m10.83,123.56l.04-1.68c.88-34.08,11.81-70.95,11.92-71.32l.93-3.09,4.09,6.26-1.31,68.49-15.67,1.35Zm13.95-68.98c-2.57,9.4-9.88,38.28-10.85,65.71l9.63-.83,1.24-64.86v-.02Z"/><path d="m24.42,52.39c-.46,2.95-1.07,6.22-1.66,9.16-1.04,5.01-3.09,9.77-4.54,14.69,0,0-7.63,23.38-7.63,23.38,0,0-1.43-1.96-1.43-1.96h5.8l-1.44,1.09c.77-2.78,4.47-15.54,5.1-18.08,1.36-3.53,2.97-6.97,4.56-10.42-.29,2.52-.62,5.03-1,7.53-.26,2.52-.94,4.92-1.67,7.34,0,0-4.11,14.45-4.11,14.45l-.31,1.09c-2.1-.01-6.92,0-9,0,0,0,.64-1.97.64-1.97,2.67-8.22,8.88-27.11,11.41-35.09,1.46-3.78,3.47-7.58,5.27-11.22h0Z"/><path d="m5.11,111.57c-.98,0-1.62-.35-1.98-1.05-.37-.69-.26-1.46.25-2.16-.79-.16-1.36-.42-1.72-.76-.41-.39-.62-.91-.6-1.45.01-.37.1-.75.42-1.11-1.3-.62-1.56-1.24-1.47-2.02.08-.73.49-1.35,1.15-1.74,1.26-.76,3.41-.57,5.14-.22l-1.4-7.5,11.69,4.64-.14,1.15c-.06.48-.42,3.06-1.5,5.59l.29-.02-.36.2c-.86,1.94-2.15,3.84-4.07,4.71-2.59,1.17-4.43,1.75-5.69,1.75Zm4.83-7.3l1.78.42c.78-1.48,1.28-3.29,1.55-4.59l-4.43-1.76,1.1,5.93Z"/></g><g><path d="m28.41,55.82l-9.65-8.84-2.28-8.2c-.23.02-.46.02-.69.02-3.26,0-5.53-1.34-5.53-3.25s2.18-3.19,5.32-3.25l-3.31-21.82h37.12l-.25,22.01-4.45,21.71-16.28,1.62Zm-6.99-10.47l8.03,7.35,12.75-1.27,3.98-19.41.19-18.55H15.76l3.39,22.3-.4-.07,2.67,9.64Zm-7.5-9.8c.44.14,1.07.25,1.88.25.5,0,.99-.05,1.46-.15l.52-.11-.7-.13c-.41-.07-.84-.11-1.29-.11-.8,0-1.43.12-1.88.25Z"/><path d="m16.74,37.88l-5.78-29.31,1.11-.48C29.93.31,44.89-2.07,51.11,1.88c2.04,1.3,3.16,3.26,3.23,5.66.04,1.45-.54,2.79-1.68,3.88-5.58,5.37-25.13,4.75-30.74,4.46l-5.18,22Zm-2.37-27.52l2.63,13.32,2.58-10.96,1.27.08c6.77.45,25.31.7,29.73-3.55.7-.68.77-1.26.76-1.64-.04-1.42-.62-2.44-1.84-3.21-4.26-2.71-16.74-1.88-35.13,5.95Z"/></g></g><g><polygon class="cls-6" points="24.23 51 24.86 38.53 31.58 42.02 32.52 51 29.9 59.67 24.23 51"/><path d="m30.1,61.08l-6.48-9.92.69-13.59,7.83,4.07.99,9.42-3.03,10.02Zm-5.26-10.25l4.85,7.43,2.21-7.33-.89-8.53-5.6-2.91-.57,11.34Z"/></g><g id="yougIdle-2"><g><polyline class="cls-2" points="33.68 53.37 50.57 94.39 45.36 96.93 32.99 58"/><path d="m33.68,53.37c5.88,11.68,12.51,29.11,17.65,41.31,0,0-.51.25-.51.25l-5.21,2.54-.62.3s-.21-.66-.21-.66c-3.58-11.47-9.07-27.57-11.79-39.11,2.42,6.25,4.83,12.85,6.75,19.28,0,0,6.18,19.47,6.18,19.47l-.83-.36,5.21-2.54-.29.77c-4.89-12.13-12.33-28.97-16.33-41.25h0Z"/></g><g><path class="cls-1" d="m50.57,94.39s4.11,7.04,1.54,10.38c-4.38,5.67-5.47,4.05-4.47,2.38.7-1.17,1.34-2.17,1.34-2.17,0,0-4.11,2.49-4.65,1.38-.34-.69,2.59-2.83,2.59-2.83,0,0-4.71,1.23-4.94.65-.61-1.54,3.92-2.96,5.9-3.18l-5.25-4.8,7.94-1.81Z"/><path d="m47.73,109.32c-.22,0-.42-.06-.59-.18-.6-.41-.61-1.33-.03-2.31.06-.1.12-.19.17-.29-1.02.46-2.14.83-2.83.63-.31-.09-.55-.29-.68-.56-.1-.21-.35-.72.83-1.93-2.86.56-3.05.06-3.19-.29-.17-.42-.12-.86.13-1.28.75-1.26,3.32-2.1,5.03-2.49l-5.2-4.75,9.49-2.16.22.38c.18.3,4.29,7.43,1.49,11.05-2.15,2.78-3.77,4.18-4.85,4.18Zm3.14-6.19l-1.39,2.17s-.63.99-1.33,2.15c-.16.26-.23.48-.25.63.38-.14,1.5-.78,3.73-3.68,1.98-2.56-.59-7.86-1.37-9.32l-6.38,1.46,5.38,4.91-1.32.15c-1.72.19-4.8,1.2-5.37,2.14,0,0,0,0,0,0,.75-.01,2.63-.38,4.19-.79l3.07-.8-2.56,1.87c-1.03.75-2.01,1.65-2.3,2.09.52-.03,2.2-.73,3.69-1.64l2.21-1.34Z"/></g><g><path class="cls-2" d="m32.52,51s15.02,29.52,14.92,66.35l-27.35,2.64"/><path d="m20.14,120.59l-.12-1.2,26.81-2.59c-.04-36.01-14.7-65.24-14.85-65.54l1.07-.54c.15.3,15.09,30.07,14.98,66.63v.54s-27.89,2.7-27.89,2.7Z"/></g><g><path class="cls-2" d="m19.6,101.01l19.76-1.86s-.49-22.21-7.63-45.53l.79-2.63-2.62,8.67-5.67-8.67s-3.58,16.78-4.15,22.23c-.74,7.09-.49,27.79-.49,27.79Z"/><path d="m19,101.67v-.65c-.01-.21-.25-20.82.48-27.86.57-5.42,4.01-21.6,4.16-22.29l.3-1.41,5.75,8.8,2.25-7.44,1.15.35-.74,2.45c7.03,23.07,7.6,45.3,7.6,45.52v.56s-20.95,1.97-20.95,1.97Zm5.52-49.14c-.87,4.16-3.38,16.32-3.84,20.75-.65,6.27-.53,23.5-.49,27.07l18.55-1.74c-.13-3.48-1.11-22.66-7.01-42.9l-1.62,5.37-5.58-8.54Z"/></g><g><g><path class="cls-4" d="m39.35,99.16c1.87,24.73-.49,41.11-.49,41.11l8.57,8.09-14.44-2.17-1.99-35.63-2.76,36.17-16.69,1.63,11.62-8.09s-3.18-16.59-3.58-39.25l19.76-1.86Z"/><path d="m49.24,149.24l-16.82-2.53-1.51-27.04-2.11,27.62-19.48,1.9,13.19-9.18c-.47-2.63-3.16-18.4-3.52-38.97v-.56s20.91-1.97,20.91-1.97l.05.61c1.72,22.67-.14,38.54-.45,40.93l9.74,9.2Zm-29.03-47.68c.43,22.07,3.53,38.43,3.56,38.6l.07.38-10.06,7,13.91-1.36,2.72-35.67h1.2s1.96,35.15,1.96,35.15l12.07,1.82-7.4-6.99.04-.31c.02-.16,2.29-16.34.53-40.37l-18.59,1.75Z"/></g><g><g><polygon class="cls-3" points="23.7 102.52 27.76 102.08 27.88 104.36 23.77 104.8 23.7 102.52"/><path d="m23.4,105.21l-.09-3.03,4.79-.52.16,3.03-4.87.52Zm.68-2.36l.04,1.52,3.35-.36-.08-1.53-3.32.36Z"/></g><g><polygon class="cls-3" points="30.29 101.85 34 101.64 34.33 103.92 30.42 104.36 30.29 101.85"/><path d="m30.07,104.78l-.17-3.29,4.42-.24.43,3.01-4.68.53Zm.62-2.58l.09,1.75,3.12-.35-.22-1.56-2.99.16Z"/></g><g><polygon class="cls-3" points="36.52 101.34 40.38 101.14 40.5 103.42 36.75 103.86 36.52 101.34"/><path d="m36.42,104.28l-.3-3.29,4.62-.24.16,3.01-4.48.53Zm.51-2.58l.16,1.75,3.02-.35-.08-1.56-3.1.16Z"/></g><g><polygon class="cls-3" points="18.14 102.97 22 102.77 22.12 105.05 18.37 105.49 18.14 102.97"/><path d="m18.03,105.91l-.3-3.29,4.62-.24.16,3.01-4.48.53Zm.51-2.58l.16,1.75,3.02-.35-.08-1.55-3.1.16Z"/></g></g><g><polygon points="23.28 140.92 27.98 142.27 27.69 146.18 13.78 147.54 23.28 140.92"/><path d="m23.39,141.58l3.96,1.13-.22,2.92-11.12,1.09,7.38-5.14m-.22-1.31l-11.62,8.09,16.69-1.63.37-4.9-5.44-1.56h0Z"/></g><g><polygon points="33.57 145.67 33.37 142.19 38.69 140.93 45.63 147.48 33.57 145.67"/><path d="m38.51,141.59l5.31,5.02-9.69-1.46-.14-2.49,4.51-1.07m.35-1.32l-6.12,1.45.25,4.46,14.44,2.17-8.57-8.09h0Z"/></g></g><polygon class="cls-5" points="30.09 62.34 32.54 65.41 28.34 70.37 33.08 84.11 34.37 71.97 28.45 65.08 30.09 62.34"/><g><path class="cls-2" d="m24.23,51s-10.97,36.65-11.86,70.93l12.65-1.09,1.27-66.67-2.07-3.17Z"/><path d="m11.76,122.58l.02-.67c.88-33.96,11.77-70.72,11.88-71.08l.37-1.24,2.88,4.4v.19s-1.29,67.21-1.29,67.21l-13.86,1.19Zm12.69-70.16c-1.89,6.67-10.56,38.76-11.45,68.85l11.44-.98,1.26-65.95-1.25-1.92Z"/></g><g><polyline class="cls-2" points="24.42 52.39 9.16 99.16 14.96 99.16 23.18 70.25"/><path d="m24.42,52.39c-3.31,13.57-10.44,33.46-14.68,46.96,0,0-.57-.79-.57-.79h5.8s-.58.44-.58.44l4.11-14.45c1.08-4.23,3.24-10.11,4.69-14.29-1.62,8.42-5.25,20.74-7.64,29.07,0,0-.12.44-.12.44h-.45c-.48,0-6.35,0-6.62,0,0,0,.26-.79.26-.79,4.55-13.47,10.47-33.6,15.82-46.58h0Z"/></g><g><path class="cls-1" d="m14.96,99.16s-.94,7.55-4.78,9.29c-6.53,2.96-6.48,1.15-4.81.14,1.17-.71,2.84-1.61,2.84-1.61,0,0-5.7.46-5.65-.78.03-.77,3.62-1.28,3.62-1.28,0,0-4.74-1.12-4.67-1.74.18-1.65,4.85-.78,6.7-.05l-1.34-7.19,8.09,3.21Z"/><path d="m5.14,110.67c-.76,0-1.06-.28-1.21-.57-.33-.62.12-1.42,1.13-2.03.22-.13.45-.27.68-.4-1.39-.02-2.89-.17-3.46-.72-.22-.21-.33-.49-.32-.77,0-.23.03-.8,1.63-1.32-2.78-.85-2.72-1.37-2.68-1.74.05-.45.3-.82.72-1.07,1.3-.79,4.13-.27,5.81.21l-1.35-7.26,9.53,3.79-.06.46c-.04.32-1.03,7.91-5.12,9.76-2.8,1.27-4.38,1.67-5.29,1.67Zm5.89-4.51l-2.53,1.36s-1.67.9-2.82,1.59c-.21.13-.37.26-.48.37.52-.02,1.82-.24,4.73-1.56,2.97-1.35,4.09-6.75,4.36-8.36l-6.63-2.63,1.34,7.19-1.01-.4c-1.61-.63-4.8-1.19-5.75-.62,0,0,0,0,0,0,.67.34,2.5.89,4.07,1.26l3.09.73-3.14.45c-1.16.17-2.34.46-2.88.71.75.24,2.77.32,4.78.16l2.86-.23Z"/></g></g><g><g><path class="cls-6" d="m14.01,11.98l3.33,21.95c-.48-.09-1-.14-1.55-.14-2.23,0-4.03.78-4.03,1.75s1.81,1.75,4.03,1.75c.64,0,1.24-.07,1.78-.19l2.51,9.05,8.84,8.1,14.51-1.44,4.23-20.63.21-20.21H14.01Z"/><path d="m28.72,54.89l-9.17-8.39-2.41-8.69c-2.69.4-5.98-.4-5.98-2.25,0-1.73,2.95-2.53,5.47-2.32l-3.32-21.85h35.17l-.22,20.93-4.32,21.06-15.22,1.51Zm-8.1-9.05l8.52,7.8,13.81-1.37,4.13-20.14.2-19.55H14.71l3.36,22.09-.83-.15c-.46-.08-.95-.13-1.44-.13-2.13,0-3.43.75-3.43,1.15s1.3,1.15,3.43,1.15c.56,0,1.12-.06,1.65-.17l.55-.12,2.62,9.43Z"/></g><g><path d="m16.87,30.79l3.88-16.48s32.34,2.17,32.09-6.73S35.06-.29,12.66,9.46l4.2,21.32Z"/><path d="m17.35,30.9l-.98-.02-4.2-21.32.29-.55C30.03,1.35,44.63-1.06,50.57,2.72c1.77,1.13,2.7,2.76,2.76,4.84.03,1.17-.43,2.23-1.37,3.13-5.6,5.39-27.39,4.33-30.83,4.13l-3.78,16.06Zm-4.12-21.14l3.68,18.66,3.35-14.22.52-.38c.25.02,24.85,1.6,30.49-3.83.74-.71,1.09-1.5,1.07-2.39-.05-1.73-.82-3.09-2.3-4.03C44.5.05,30.07,2.48,13.23,9.76Z"/></g><path d="m27.49,43.83s-.82-.78-.55-1.52c.24-.68,1.29-1.09,3.11-1.22l.02.25c-2.13.15-2.75.65-2.89,1.05-.21.59.48,1.25.49,1.26l-.17.18Z"/><path d="m27.67,12.33c4.89,4.48,2.65,6.26-1.14,7.83,0,0,4.11-1.42-.36-9.45s1.5,1.63,1.5,1.63Z"/><path d="m34.88,48.9s-2.31-2.22-.77-2.98l-3.74-2.48s-3.02,3.22,4.51,5.47Z"/><g><path class="cls-2" d="m34.22,48.9l1.13.2,1.93-2.46s-5.04-.58-6.91-3.2c0,0-3.78,4.43,3.85,5.47Z"/><path d="m35.51,49.51l-1.34-.24c-2.76-.38-4.42-1.25-4.94-2.59-.64-1.69.8-3.41.86-3.48l.31-.37.28.39c1.75,2.45,6.6,3.04,6.65,3.05l.67.08-2.49,3.17Zm-5.12-5.45c-.33.52-.8,1.48-.46,2.36.4,1.05,1.91,1.79,4.34,2.12l.92.16,1.4-1.78c-1.37-.24-4.53-.98-6.2-2.86Z"/></g><polygon points="36.62 47.59 29.59 46.58 29.62 46.33 36.65 47.34 36.62 47.59"/><g><path d="m35.5,49.5c-3.56-.21-5.71-1.11-6.39-2.67-.79-1.82.74-3.7.81-3.78l.45-.55.46.54c1.99,2.32,5.23,2.89,6.86,3.03l-2.87-5.4,6.45-.22-.81-9.61,1.2-.1.91,10.87-5.79.2,2.91,5.48-.96.03c-.22,0-5.11.13-8.27-2.91-.27.51-.55,1.28-.25,1.96.34.76,1.54,1.72,5.36,1.95l-.07,1.2Z"/><g><polygon points="25.21 26.07 36.19 26.35 35.67 24.47 26.71 24.22 25.21 26.07"/><polygon points="40.99 26.24 41.41 24.37 47.5 24.06 48.47 25.83 40.99 26.24"/><g><polygon points="34.1 33.13 31.59 35.66 33.51 32.66 34.1 33.13 34.1 33.13"/><g><g><ellipse class="cls-2" cx="30.29" cy="31.75" rx="3.87" ry="2.41" transform="translate(-2.44 2.53) rotate(-4.59)"/><path d="m29.99,34.77c-1.32,0-2.52-.39-3.3-1.07-.52-.46-.82-1.03-.85-1.64h0c-.1-1.68,1.78-3.13,4.28-3.31,1.5-.11,2.91.29,3.78,1.05.52.46.82,1.03.85,1.64.09,1.68-1.79,3.13-4.28,3.31-.16.01-.32.02-.48.02Zm.61-4.84c-.13,0-.26,0-.39.01-1.93.14-3.21,1.19-3.17,2.04h0c.02.29.17.56.45.81.62.55,1.74.84,2.9.75,1.93-.14,3.21-1.19,3.17-2.05-.02-.29-.17-.56-.45-.81-.55-.49-1.49-.77-2.51-.77Z"/></g><ellipse cx="32.7" cy="31.9" rx="1.68" ry="1.04" transform="translate(-2.32 61.24) rotate(-84.25)"/><g><path class="cls-6" d="m27.57,33.65c.68.4,1.5.68,2.86.53,2.11-.24,3.82-1.2,3.83-2.14l-6.69,1.62Z"/><path d="m29.72,34.59c-1.13,0-1.83-.32-2.33-.62l-.79-.47,8.05-1.95v.48c-.02,1.17-1.81,2.25-4.17,2.51-.27.03-.52.04-.76.04Zm-.94-.85c.42.1.94.14,1.61.06,1.46-.16,2.66-.69,3.2-1.22l-4.81,1.16Z"/></g></g></g><g><polygon points="41.61 32.73 43.29 35.31 41.03 33.21 41.61 32.73 41.61 32.73"/><g><g><ellipse class="cls-2" cx="44.36" cy="31.78" rx="2.41" ry="3.34" transform="translate(6.82 71.38) rotate(-82.15)"/><path d="m44.67,34.81c-.21,0-.43-.01-.65-.04-2.19-.27-3.75-1.8-3.56-3.47h0c.08-.67.42-1.27,1.01-1.72.83-.65,2.01-.94,3.24-.78,2.19.27,3.75,1.8,3.56,3.47-.08.67-.43,1.27-1.01,1.73-.68.53-1.6.82-2.59.82Zm-.61-4.86c-.72,0-1.39.2-1.86.57-.23.18-.51.48-.56.92h0c-.11.98,1.04,1.96,2.52,2.14.9.12,1.78-.09,2.35-.53.23-.18.51-.48.56-.92.11-.98-1.04-1.96-2.52-2.14-.17-.02-.33-.03-.5-.03Z"/></g><ellipse cx="45.81" cy="31.9" rx="1.68" ry="1.04" transform="translate(5.29 70.31) rotate(-78.33)"/><g><path class="cls-6" d="m44.09,34.19c1.06.18,2.01.07,2.62-.24l-5.76-2.05-.04.05c.03.94,1.42,1.93,3.18,2.23Z"/><path d="m45.09,34.66c-.34,0-.7-.03-1.06-.09h0c-1.96-.34-3.46-1.45-3.49-2.59v-.12s.23-.34.23-.34l.31.04,6.58,2.34-.77.4c-.48.25-1.1.37-1.79.37Zm-3.57-2.15c.42.54,1.38,1.1,2.63,1.32h0c.44.08.88.1,1.28.07l-3.91-1.39Z"/></g></g></g></g><g><rect x="34.27" y="53.31" width="4.84" height="1.2" transform="translate(-19.06 87.75) rotate(-87.02)"/><rect x="41.7" y="51.49" width="1.2" height="4.75" transform="translate(-5.71 5.02) rotate(-6.36)"/><rect x="38.9" y="51.51" width="1.2" height="5.51" transform="translate(-10.52 9.51) rotate(-12.13)"/></g></g></g></g></g></svg>