<?xml version="1.0" encoding="UTF-8"?><svg id="Livello_2" xmlns="http://www.w3.org/2000/svg" viewBox="0 0 64.67 154.34"><defs><style>.cls-1{fill:#68d1e7;}.cls-2{fill:#efba95;}.cls-3{fill:#fff;}.cls-4{fill:#ffbc61;}.cls-5{fill:#ff9000;}.cls-6{fill:#8c6239;}.cls-7{fill:#adeaff;}.cls-8{fill:#d3a888;}.cls-9{fill:#51341d;}.cls-10{fill:#4d96ca;}</style></defs><g id="us"><g id="ivan"><g><path d="m28.19,61.42l-.71-18.72,11.76-1.35.89,16.9-11.94,3.18Zm2.4-16.06l.46,12.2,5.96-1.59-.59-11.28-5.83.67Z"/><g id="yougIdle"><path d="m40.07,49.33c2.22,3.46,4.3,6.98,6.37,10.5,3.53,7.39,11.67,25.61,15.22,33.29,0,0,.63,1.38.63,1.38,0,0-1.39.61-1.39.61-1.09.49-6.77,2.98-7.73,3.4,0,0-.54-1.53-.54-1.53-2.06-5.79-8.2-23.48-10.21-28.97-1.24-4.5-2.19-9.1-3.18-13.68,2.45,5.06,5.24,9.96,6.97,15.31,1.19,3.38,7.92,22.54,9.26,26.34,0,0-2.02-.88-2.02-.88,0,0,6.25-2.75,6.25-2.75,0,0-.76,1.99-.76,1.99-3.53-7.82-11.8-25.73-15.13-33.33-1.3-3.88-2.59-7.76-3.74-11.7h0Z"/><path d="m56.9,110.76c-.46,0-.87-.14-1.24-.42-.55-.42-.9-1.14-.77-2.05-.81.2-1.57.27-2.16.1-.55-.16-.99-.52-1.24-.99-.22-.4-.34-.86-.15-1.42-1.98.14-2.41-.35-2.71-1.04-.3-.69-.25-1.44.14-2.11.77-1.33,2.98-2.23,4.93-2.77l-6.29-5.19,13.59-2.8.56.86c.57.88,5.43,8.69,1.72,13.02-2.77,3.24-4.84,4.81-6.38,4.81Zm4.76-9.11l-.5.33.5-.27s0-.04,0-.06Zm-7.5-5.11l5.62,4.64,1.79-.42c-.3-1.89-1.26-3.99-2.01-5.33l-5.4,1.11Z"/><path d="m23.9,122.95l-.26-2.99,31.4-2.74c-.28-38.37-17.5-69.41-17.68-69.73l2.61-1.47c.18.32,18.2,32.76,18.07,72.58v1.37s-34.14,2.98-34.14,2.98Z"/><path d="m21.71,102.54l-.02-1.61c-.01-.92-.29-22.6.6-30.28.68-5.92,4.82-23.49,5-24.24l.75-3.19,7,9.68,1.1-3.3h0s1.11-3.33,1.11-3.33l2.85.95-.79,2.37c8.38,25,9.05,49.02,9.06,49.26l.03,1.41-26.69,2.27Zm7.75-52.23c-1.25,5.47-3.71,16.43-4.2,20.69-.73,6.31-.64,23.02-.59,28.28l20.63-1.75c-.26-5.12-1.59-23.42-7.61-43.11l-1.67,4.98-6.57-9.09Z"/><g><path d="m61.41,154.34l-23.59-3.21-1.19-19.32-1.69,19.97-27.46,2.42,18.32-11.52c-.8-4.18-3.71-20.65-4.12-41.75l-.03-1.41,26.57-2.26.13,1.5c1.96,23.4.04,40.17-.48,44.03l13.53,11.54Zm-36.69-52.06c.58,23.38,4.19,40.64,4.23,40.81l.22,1.02-9.55,6.01,12.55-1.11,3.2-37.9,2.99.03,2.31,37.35,11.03,1.5-7.02-5.99.13-.83c.03-.17,2.67-17.22.69-42.65l-20.77,1.76Z"/><g><polygon points="26.74 106.65 26.57 101.18 34.38 100.41 34.69 105.88 26.74 106.65"/><polygon points="34.75 106.18 34.42 100.38 41.72 100.02 42.57 105.39 34.75 106.18"/><polygon points="42.41 105.64 41.82 99.84 49.51 99.47 49.82 104.85 42.41 105.64"/><polygon points="20.38 107.4 19.79 101.6 27.48 101.24 27.79 106.61 20.38 107.4"/></g><path d="m7.49,154.21l19.74-12.42,8.38,2.17-.66,7.82-27.46,2.42Zm20.24-9.19l-8.12,5.11,12.55-1.11.24-2.79-4.67-1.21Z"/><path d="m61.41,154.34l-23.59-3.21-.45-7.35,9.32-2,14.72,12.56Zm-20.75-5.85l11.02,1.5-5.82-4.96-5.35,1.15.14,2.32Z"/></g><path d="m40.12,88.84l-8.19-21.46,2.44-2.6-2.48-2.61,3.72-5.6,5.13,5.81-2.23,2.38,3.97,4.17-2.34,19.91Zm-4.72-20.78l3.17,8.3.75-6.38-2.88-3.02-1.04,1.11Zm.31-6.23l.72.75.25-.26-.74-.83-.23.35Z"/><path d="m12.99,125.17l.05-1.67c1.06-36.9,14.15-76.82,14.29-77.22l.92-2.78,4.49,6.21-1.57,74.04-18.18,1.41ZM29.28,50.06c-2.91,9.53-12.03,41.53-13.19,71.86l12.14-.94,1.49-70.32-.43-.6Z"/><path d="m28.96,48.26c-.64,3.19-1.46,6.74-2.24,9.92-1.36,5.43-3.73,10.58-5.49,15.9,0,0-9.14,25.32-9.14,25.32,0,0-1.41-2.01-1.41-2.01h6.95l-1.43,1.05c.93-3.01,5.34-16.83,6.12-19.57,1.56-3.82,3.37-7.54,5.15-11.28-.43,2.73-.89,5.45-1.41,8.15-.4,2.73-1.21,5.33-2.08,7.94,0,0-4.92,15.65-4.92,15.65l-.33,1.05c-2.21,0-8.01,0-10.18,0,0,0,.73-2.01.73-2.01,3.21-8.9,10.63-29.35,13.68-37.99,1.7-4.09,3.97-8.2,6.01-12.14h0Z"/><path d="m5.87,112.2c-1.13,0-1.83-.38-2.19-1.14-.28-.6-.27-1.45.44-2.27-1.07-.17-1.82-.46-2.25-.88-.41-.39-.62-.91-.59-1.46.02-.41.13-.83.54-1.22-1.6-.66-1.89-1.3-1.79-2.17.09-.71.49-1.33,1.14-1.73,1.5-.92,4.31-.63,6.42-.2l-1.66-8.04,13.35,4.79-.17,1.21c-.03.21-.47,3.27-1.9,6.21h.01-.01c-1.01,2.1-2.53,4.13-4.75,5.04-3.04,1.24-5.17,1.86-6.61,1.86Zm5.48-7.69l2.61.56c1.01-1.65,1.64-3.71,1.97-5.19l-5.98-2.14,1.4,6.77Z"/></g><g><path d="m54.53,57.98h-27.24l-.37-.97c-.19-.51-4.58-12.17-6.3-24.86-4.32.2-7.73-2.05-7.73-4.9,0-2.7,3.08-4.82,7.06-4.91.09-7.94,2-13.85,5.68-17.61,3.09-3.14,7.39-4.74,12.78-4.74h0c5.57,0,10.03,2.07,13.27,6.14,11.41,14.38,3.47,49.2,3.12,50.68l-.27,1.16Zm-25.16-3h22.76c1.27-6.15,6.62-35.11-2.8-46.98-2.67-3.37-6.24-5-10.91-5.01h0c-4.56,0-8.14,1.29-10.64,3.84-3.34,3.41-4.96,9.14-4.81,17.06l.03,1.74-1.73-.23c-3.17-.42-5.37.98-5.37,1.84,0,.76,1.72,1.91,4.3,1.91.45,0,.91-.05,1.46-.15l1.57-.29.19,1.59c1.28,10.82,4.83,21.47,5.96,24.67Z"/><path d="m41.39,39.48c-4.31,0-8.68-3.97-10.32-9.73-1.88-6.6.54-13.09,5.38-14.47,2.45-.7,5.08-.03,7.43,1.89,2.19,1.79,3.88,4.48,4.76,7.58.88,3.1.86,6.28-.06,8.95-.99,2.86-2.88,4.82-5.32,5.51-.62.18-1.24.26-1.87.26Zm-3.03-21.46c-.37,0-.73.05-1.09.15-3.2.91-4.72,5.84-3.32,10.76,1.4,4.92,5.29,8.31,8.48,7.4,1.48-.42,2.65-1.7,3.31-3.61.72-2.09.73-4.64,0-7.15h0c-.72-2.52-2.06-4.68-3.77-6.08-1.19-.97-2.44-1.48-3.62-1.48Z"/><path d="m61.17,59.59H24.13l-3.7-28.91-.48-6.65c-.17-8.83,1.74-15.29,5.67-19.3,3.09-3.14,7.39-4.74,12.78-4.74h0c6.73,0,11.86,2.93,14.83,8.48l-1.22.65v1.55h-22.92l-2.48,26.04,18.72,5.25,3.92-1.36-.66-3.4,8.41,3.07,4.16,19.31Zm-34.4-3h30.68l-3.03-14.06-1.87-.68.15.75-7.27,2.51-20.88-5.85,2.22,17.32Zm-.5-47.91c-2.33,3.48-3.45,8.59-3.32,15.22l.46,6.48.46,3.56,2.4-25.26Zm.74-1h22.14c-2.5-3.11-6.09-4.69-10.74-4.69h0c-4.56,0-8.14,1.29-10.64,3.84-.26.27-.51.55-.76.85Z"/><path d="m53.88,52.74h-18.77l.98-8.86,9.23-1.84,6.96.79,1.59,9.92Zm-15.42-3h11.9l-.67-4.19-4.23-.48-6.62,1.32-.37,3.35Z"/><path d="m45.08,50.46c-1.41,0-3.11-.21-5.16-.79l.81-2.89c2.9.82,4.89.75,6.13.49l-4.18-4.39,6.53-2.26-3.48-15.14,2.92-.67,4.09,17.76-4.67,1.61,3.54,3.72-1.18,1.03c-.23.2-1.86,1.51-5.37,1.51Z"/><polygon points="41.06 34.34 41.78 22.25 46.48 23.16 47.15 33.81 41.06 34.34"/><path d="m48.72,24.22h-14.87l-1.15-4.63,5.87-2.82,10.15,3.32v4.12Zm-12.48-3h6.27l-3.73-1.22-2.54,1.22Z"/></g></g><g><g><polygon class="cls-8" points="29.04 44.03 29.62 59.49 38.57 57.1 37.83 43.02 29.04 44.03"/><path d="m29.05,60.26l-.63-16.76,9.98-1.15.8,15.21-10.15,2.7Zm.61-15.7l.54,14.15,7.76-2.07-.68-12.96-7.61.88Z"/></g><g id="yougIdle-2"><g><polyline class="cls-3" points="40.07 49.33 60.3 93.74 54.06 96.49 39.24 54.34"/><path d="m40.07,49.33c6.74,12.41,14.75,31.18,20.78,44.16,0,0,.25.55.25.55l-.56.24c-.19.11-6.88,3.01-6.84,3.01,0,0-.21-.61-.21-.61-4.3-12.42-10.81-29.84-14.25-42.35,2.82,6.76,5.64,13.91,7.97,20.88,0,0,7.41,21.07,7.41,21.07,0,0-.81-.35-.81-.35s6.25-2.75,6.25-2.75l-.3.8c-5.88-13.14-14.7-31.36-19.69-44.66h0Z"/></g><g><path class="cls-1" d="m60.3,93.74s4.93,7.63,1.84,11.24c-5.25,6.14-6.56,4.38-5.36,2.57.84-1.27,1.6-2.35,1.6-2.35,0,0-4.93,2.69-5.58,1.49-.4-.75,3.11-3.06,3.11-3.06,0,0-5.64,1.33-5.92.7-.73-1.67,4.7-3.2,7.07-3.44l-6.29-5.19,9.52-1.96Z"/><path d="m56.91,109.85c-.26,0-.5-.07-.7-.22-.61-.46-.58-1.43.08-2.41.11-.16.21-.32.32-.48-1.27.54-2.77,1.04-3.61.79-.4-.12-.61-.37-.71-.55-.12-.23-.43-.81,1.1-2.19-3.55.65-3.78.12-3.93-.21-.19-.42-.15-.87.09-1.29.83-1.41,4.04-2.36,6.12-2.77l-6.23-5.14,11.15-2.3.22.35c.21.33,5.13,8.05,1.79,11.95-1.84,2.15-4.18,4.49-5.69,4.49Zm3.47-6.42l-1.5,2.12s-.76,1.07-1.59,2.33c-.23.35-.31.63-.31.77.32-.04,1.63-.45,4.72-4.06,2.41-2.82-.8-8.69-1.68-10.17l-7.88,1.62,6.43,5.31-1.43.14c-2.16.22-5.96,1.38-6.55,2.4,0,0,0,.01-.01.02.83.02,3.22-.39,5.21-.86l3.3-.78-2.83,1.86c-1.26.83-2.46,1.83-2.79,2.3.61.06,2.72-.71,4.64-1.76l2.28-1.25Z"/></g><g><path class="cls-3" d="m38.67,46.76s18,31.96,17.88,71.84l-32.78,2.86"/><path d="m23.83,122.05l-.1-1.2,32.23-2.81c-.04-39.02-17.62-70.67-17.8-70.99l1.04-.59c.18.32,18.08,32.55,17.95,72.13v.55s-33.32,2.91-33.32,2.91Z"/></g><g><path class="cls-3" d="m23.19,100.91l23.68-2.01s-.58-24.05-9.14-49.29l.95-2.85-3.14,9.39-6.79-9.39s-4.29,18.17-4.97,24.07c-.88,7.67-.59,30.08-.59,30.08Z"/><path d="m22.6,101.56v-.64c-.01-.22-.3-22.54.58-30.16.68-5.87,4.81-23.39,4.98-24.13l.3-1.28,6.87,9.51,2.77-8.28,1.14.38h0s-.89,2.65-.89,2.65c8.43,24.97,9.1,49.04,9.11,49.28v.56s-24.87,2.11-24.87,2.11Zm6.43-53.38c-.99,4.24-4.1,17.83-4.66,22.72-.79,6.82-.63,25.64-.59,29.36l22.46-1.91c-.15-3.68-1.32-24.71-8.52-46.85l-1.99,5.95-6.7-9.27Z"/></g><g><g><path class="cls-6" d="m46.86,98.9c2.25,26.77-.59,44.51-.59,44.51l10.27,8.76-17.31-2.35-2.38-38.57-3.31,39.16-20,1.77,13.93-8.76s-3.82-17.96-4.29-42.5l23.68-2.01Z"/><path d="m58.49,153.04l-19.82-2.7-1.91-30.87-2.66,31.49-22.99,2.03,15.68-9.86c-.56-2.83-3.79-19.92-4.22-42.2v-.56s24.83-2.11,24.83-2.11l.05.6c2.06,24.55-.17,41.74-.54,44.32l11.57,9.87Zm-34.69-51.58c.51,23.91,4.23,41.65,4.26,41.82l.09.41-12.18,7.66,17.02-1.5,3.26-38.66h1.2s2.35,38.1,2.35,38.1l14.79,2.01-8.97-7.65.05-.33c.03-.17,2.75-17.71.63-43.77l-22.52,1.91Z"/></g><g><g><polygon class="cls-4" points="28.11 102.54 32.97 102.06 33.11 104.53 28.19 105 28.11 102.54"/><path d="m27.82,105.41l-.1-3.21,5.6-.55.19,3.22-5.68.55Zm.67-2.54l.05,1.71,4.17-.4-.1-1.72-4.12.41Z"/></g><g><polygon class="cls-4" points="36.01 101.81 40.45 101.59 40.84 104.06 36.16 104.53 36.01 101.81"/><path d="m35.81,104.94l-.2-3.49,5.15-.26.51,3.2-5.46.56Zm.59-2.78l.11,1.96,3.89-.4-.28-1.75-3.73.19Z"/></g><g><polygon class="cls-4" points="43.47 101.26 48.1 101.04 48.24 103.51 43.75 103.99 43.47 101.26"/><path d="m43.41,104.4l-.36-3.5,5.39-.26.19,3.2-5.22.55Zm.47-2.78l.2,1.96,3.76-.4-.1-1.74-3.86.18Z"/></g><g><polygon class="cls-4" points="21.44 103.02 26.07 102.8 26.21 105.27 21.72 105.75 21.44 103.02"/><path d="m21.38,106.16l-.36-3.5,5.39-.26.18,3.2-5.22.56Zm.47-2.78l.2,1.96,3.76-.4-.1-1.74-3.86.18Z"/></g></g><g><polygon points="27.58 144.05 33.36 145.55 33 149.85 15.97 151.35 27.58 144.05"/><path d="m27.68,144.7l5.04,1.31-.28,3.29-14.04,1.24,9.28-5.84m-.2-1.29l-13.93,8.76,20-1.77.45-5.3-6.52-1.69h0Z"/></g><g><polygon points="39.81 149.28 39.57 145.46 46.11 144.05 54.6 151.3 39.81 149.28"/><path d="m45.95,144.7l6.71,5.72-12.28-1.67-.17-2.82,5.75-1.23m.33-1.3l-7.34,1.57.3,4.83,17.31,2.35-10.27-8.76h0Z"/></g></g><polygon class="cls-5" points="35.77 59.04 38.7 62.36 33.66 67.73 39.34 82.61 40.89 69.46 33.79 62.01 35.77 59.04"/><g><path class="cls-3" d="m28.74,46.76s-13.15,39.68-14.21,76.79l15.16-1.18,1.53-72.18-2.48-3.43Z"/><path d="m13.91,124.2l.02-.67c1.05-36.77,14.11-76.56,14.24-76.96l.37-1.11,3.29,4.54v.2s-1.54,72.73-1.54,72.73l-16.37,1.27Zm15.04-76.13c-2.1,6.68-12.73,41.88-13.8,74.83l13.95-1.08,1.51-71.44-1.67-2.3Z"/></g><g><polyline class="cls-3" points="28.96 48.26 10.68 98.9 17.63 98.9 27.48 67.6"/><path d="m28.96,48.26c-4.18,14.7-12.6,36.23-17.72,50.84,0,0-.56-.8-.56-.8h6.95l-.57.42,4.92-15.65c1.28-4.51,3.85-11.03,5.5-15.47-.76,2.82-2.33,9.21-3.11,11.92-.81,2.52-5.27,16.72-6.17,19.56,0,0-.13.42-.13.42h-.44c-.37.03-7.76-.02-7.8,0,0,0,.29-.8.29-.8,5.43-14.58,12.63-36.38,18.84-50.43h0Z"/></g><g><path class="cls-1" d="m17.63,98.9s-1.13,8.18-5.73,10.06c-7.82,3.2-7.77,1.24-5.77.15,1.4-.77,3.41-1.74,3.41-1.74,0,0-6.83.5-6.77-.84.03-.83,4.33-1.39,4.33-1.39,0,0-5.68-1.21-5.59-1.88.22-1.78,5.81-.84,8.03-.05l-1.61-7.79,9.69,3.48Z"/><path d="m5.83,111.31c-1.04,0-1.23-.41-1.34-.64-.32-.66.2-1.47,1.36-2.1.3-.17.63-.34.97-.51-1.74,0-3.67-.17-4.32-.79-.28-.27-.33-.57-.32-.77.01-.27.04-.88,2.04-1.43-3.42-.92-3.35-1.49-3.3-1.89.04-.31.19-.75.72-1.07,1.45-.9,5.03-.33,7.11.23l-1.62-7.84,11.16,4-.07.48c-.05.35-1.23,8.54-6.09,10.53-3.41,1.4-5.27,1.8-6.3,1.8Zm-.07-1.21c.55.02,2.09-.14,5.91-1.7,3.61-1.48,4.96-7.38,5.28-9.11l-8.21-2.95,1.6,7.78-1-.36c-2.02-.72-5.97-1.32-7.07-.64,0,0-.01,0-.02.01.78.38,3.04,1,4.98,1.41l3.43.73-3.48.45c-1.48.19-2.97.54-3.59.82.85.3,3.38.4,5.91.22l3.12-.23-2.82,1.37s-2.01.97-3.38,1.72c-.31.17-.53.34-.66.47Z"/></g></g><g><g><path class="cls-2" d="m38.41,1.5c-13.57,0-17.18,10.56-16.96,22.43-.41-.05-.83-.09-1.26-.09-3.2,0-5.8,1.53-5.8,3.41s2.6,3.41,5.8,3.41c.61,0,1.18-.07,1.73-.17,1.56,13.23,6.4,25.99,6.4,25.99h25.02S66.15,1.5,38.41,1.5Z"/><path d="m53.82,57.08h-25.91l-.15-.39c-.05-.13-4.74-12.58-6.36-25.51-.42.06-.82.08-1.21.08-3.59,0-6.4-1.76-6.4-4.01,0-2.38,3.18-4.25,7.05-3.99-.05-8.16,1.77-14.17,5.42-17.89,2.91-2.97,7-4.47,12.14-4.47h0c5.28,0,9.51,1.95,12.56,5.8,4.7,5.92,6.62,16.13,5.71,30.36-.67,10.53-2.73,19.47-2.76,19.56l-.11.46Zm-25.08-1.2h24.12c.91-4.2,7.28-35.7-2.83-48.43-2.82-3.55-6.73-5.35-11.62-5.35h0c-4.81,0-8.61,1.38-11.28,4.11-3.52,3.58-5.22,9.54-5.07,17.71v.7s-.68-.09-.68-.09c-.41-.05-.8-.08-1.18-.08-2.82,0-5.2,1.29-5.2,2.81s2.38,2.81,5.2,2.81c.5,0,1.03-.05,1.62-.16l.63-.12.08.64c1.38,11.73,5.41,23.23,6.22,25.46Z"/></g><g><path class="cls-7" d="m61.86,25.16c-1.65-5.81-6.28-9.59-10.34-8.44-3.65,1.04-5.58,5.71-4.73,10.86l.93-.15,1.42,6.17c2.19,3.24,5.42,5.01,8.36,4.17,4.06-1.15,6-6.8,4.35-12.61Z"/><path class="cls-10" d="m56.05,38.58c-2.64,0-5.41-1.69-7.4-4.64l-.09-.2-1.29-5.62-.97.16-.1-.59c-.92-5.58,1.25-10.43,5.16-11.54,2.15-.61,4.5,0,6.61,1.72,2.05,1.67,3.63,4.2,4.46,7.13h0c.83,2.93.82,5.92-.04,8.41-.89,2.57-2.56,4.33-4.72,4.94-.53.15-1.08.22-1.63.22Zm-6.34-5.22c2.1,3.06,5.09,4.56,7.64,3.84,1.77-.5,3.16-1.99,3.91-4.18.78-2.27.79-5,.02-7.69h0c-.77-2.69-2.21-5.01-4.07-6.53-1.79-1.47-3.75-2-5.53-1.49-3.12.89-4.95,4.96-4.39,9.6l.89-.14,1.52,6.6Z"/></g><g><ellipse class="cls-7" cx="39.86" cy="27.25" rx="7.63" ry="10.94" transform="translate(-5.93 11.94) rotate(-15.88)"/><path class="cls-10" d="m41.38,38.58c-3.91,0-7.91-3.71-9.44-9.08-1.74-6.12.4-12.11,4.76-13.35,2.15-.61,4.5,0,6.61,1.72,2.05,1.67,3.63,4.2,4.46,7.13.83,2.93.82,5.92-.04,8.41-.89,2.57-2.56,4.33-4.72,4.94-.54.15-1.09.23-1.64.23Zm-3.01-21.46c-.45,0-.9.06-1.33.18-3.73,1.06-5.5,6.39-3.94,11.87,1.56,5.48,5.86,9.08,9.59,8.02,1.77-.5,3.16-1.99,3.91-4.18.78-2.27.79-5,.02-7.69h0c-.77-2.69-2.21-5.01-4.07-6.53-1.35-1.11-2.8-1.68-4.19-1.68Z"/></g><g><path class="cls-9" d="m51.92,9.19c-2.77-5.16-7.45-7.69-13.51-7.69-13.57,0-17.18,10.56-16.96,22.43l.47,6.56,3.53,27.6h33.86l-3.59-16.68-5.14-1.87.4,2.08-5.6,1.93-20.38-5.71,2.72-28.65h24.28"/><path d="m60.06,58.69H24.93l-3.6-28.13-.47-6.59c-.16-8.53,1.66-14.78,5.41-18.6,2.91-2.97,7-4.47,12.14-4.47h0c6.38,0,11.23,2.77,14.04,8l-.43.23v.65h-23.74l-2.63,27.61,19.71,5.53,4.93-1.7-.51-2.61,6.45,2.35,3.82,17.73Zm-34.08-1.2h32.59l-3.37-15.63-3.83-1.4.3,1.55-6.27,2.17-.18-.05-20.86-5.85,2.82-29.69h23.69c-2.66-4.3-6.85-6.49-12.47-6.49h0c-4.81,0-8.61,1.38-11.28,4.11-3.52,3.58-5.22,9.54-5.07,17.71l.47,6.53,3.46,27.05Z"/></g><g><polygon class="cls-2" points="45.39 43.55 37.46 45.13 36.79 51.24 52.12 51.24 50.99 44.18 45.39 43.55"/><path d="m52.83,51.84h-16.71l.8-7.21,8.45-1.69,6.14.7,1.32,8.2Zm-15.37-1.2h13.96l-.95-5.91-5.05-.57-7.4,1.48-.56,5Z"/></g><path d="m45.07,49.56c-1.32,0-2.94-.2-4.9-.75l.33-1.15c4.47,1.26,6.98.53,8.01.04l-4.2-4.41,5.97-2.06-3.67-15.92,1.17-.27,3.91,16.98-5.23,1.81,3.86,4.05-.47.41c-.08.07-1.52,1.28-4.79,1.28Z"/><polygon points="45.06 24.41 43.17 24.05 42.66 32.7 45.57 32.44 45.06 24.41"/><polygon points="58.15 23.98 56.3 24.35 56.34 32.46 58.74 32.76 58.15 23.98"/><polygon points="47.22 22.72 35.03 22.72 34.45 20.41 38.67 18.38 47.22 21.18 47.22 22.72"/><polygon points="48.13 22.72 60.32 22.72 60.9 20.41 56.67 18.38 48.13 21.18 48.13 22.72"/><polygon points="18.06 21.36 31.97 24.35 19.46 18.38 18.06 21.36"/></g></g></g></g></svg>