<?xml version="1.0" encoding="UTF-8"?><svg id="Livello_2" xmlns="http://www.w3.org/2000/svg" viewBox="0 0 56.53 159.38"><defs><style>.cls-1{fill:#68d1e7;}.cls-2{fill:#fff;}.cls-3{fill:#ffbc61;}.cls-4{fill:#8c6239;}.cls-5{fill:#adeaff;}.cls-6{fill:#d3a888;}.cls-7{fill:#444fd3;}.cls-8{fill:#51341d;}.cls-9{fill:#4d96ca;}</style></defs><g id="us"><g id="marco"><g><path d="m23.3,73.51l-.66-17.54,11.09-1.28.83,15.82-11.26,3Zm2.44-14.88l.42,11.02,5.28-1.41-.54-10.2-5.16.59Z"/><g id="yougIdle"><path d="m33.68,62.19c1.95,3.19,3.76,6.45,5.56,9.7,2.96,6.82,9.74,23.65,12.71,30.74,0,0,.54,1.3.54,1.3l-1.27.62c-1.14.55-5.72,2.79-6.77,3.3,0,0-.53-1.66-.53-1.66l-6.18-19.47c-.83-2.88-2.41-6.87-2.9-9.79-.67-3.36-1.3-6.73-1.85-10.13,1.84,3.88,3.73,7.74,5.32,11.7.44,1.63,1.77,5.63,2.29,7.31,0,0,6.18,19.47,6.18,19.47l-2.09-.89,5.21-2.54s-.73,1.92-.73,1.92c-2.94-7.22-9.86-23.76-12.61-30.79-1.01-3.58-2.02-7.16-2.88-10.81h0Z"/><path d="m47.74,119.06c-.4,0-.76-.12-1.11-.35-.61-.41-.89-1.08-.84-1.86-.59.13-1.13.15-1.59.01-.55-.16-.99-.53-1.24-1.04-.16-.33-.26-.71-.15-1.18-1.43.07-1.95-.36-2.24-1.09-.27-.68-.2-1.42.2-2.08.69-1.15,2.41-1.96,3.99-2.46l-5.27-4.81,11.81-2.69.55.95c.47.81,4.53,8.03,1.43,12.05-2.38,3.08-4.15,4.55-5.55,4.55Zm-1.99-13.21l4.47,4.08,1.15-.3c-.25-1.65-.99-3.47-1.59-4.7l-4.03.92Z"/><path d="m20.23,130.31l-.29-2.99,25.99-2.51c-.26-35.4-14.6-64.02-14.75-64.31l2.67-1.36c.15.3,15.19,30.26,15.08,67.04v1.36s-28.71,2.78-28.71,2.78Z"/><path d="m18.11,111.48l-.02-1.63c0-.85-.24-20.87.5-27.96.57-5.46,4.03-21.7,4.17-22.39l.75-3.53,5.88,9,1.69-5.59,2.87.87-.66,2.19c6.99,23.09,7.56,45.28,7.56,45.5l.03,1.4-22.77,2.14Zm6.84-47.81c-1.08,5.21-2.99,14.74-3.38,18.53-.6,5.77-.54,20.97-.5,25.99l16.72-1.57c-.23-4.77-1.32-21.12-6.11-38.87l-1.29,4.26-5.44-8.34Z"/><g><path d="m51.94,159.38l-20.38-3.07-.79-14.17-1.13,14.78-23.66,2.31,15.55-10.83c-.67-3.88-3.09-19.08-3.43-38.55l-.02-1.39,22.66-2.13.12,1.52c1.64,21.61.03,37.09-.4,40.66l11.49,10.85Zm-30.82-48.18c.49,21.57,3.49,37.45,3.52,37.61l.18.96-7.71,5.37,9.72-.95,2.66-34.92,2.99.03,1.92,34.41,8.5,1.28-5.66-5.34.11-.77c.02-.16,2.22-15.85.59-39.26l-16.85,1.58Z"/><g><polygon points="22.31 115.28 22.16 110 29.17 109.24 29.45 114.52 22.31 115.28"/><polygon points="29 114.85 28.72 109.25 35.29 108.89 36.03 114.06 29 114.85"/><polygon points="35.4 114.35 34.88 108.75 41.8 108.38 42.07 113.57 35.4 114.35"/><polygon points="17.02 115.98 16.5 110.38 23.42 110.01 23.69 115.19 17.02 115.98"/></g><path d="m23.72,152.37l1.59.46-2.62.26,1.02-.71m-.54-3.28l-11.62,8.09,16.69-1.63.37-4.9-5.44-1.56h0Z"/><path d="m37.98,152.38l.43.41-1.31-.2.88-.21m.88-3.29l-6.12,1.45.25,4.46,14.44,2.17-8.57-8.09h0Z"/></g><path d="m30.09,71.16l-1.65,2.74,2.2,2.56,1.89-2.23-2.45-3.07h0Zm.55,5.3l-2.31,2.72,4.74,13.74,1.29-12.14-3.72-4.33h0Z"/><path d="m10.83,132.38l.04-1.68c.88-34.08,11.81-70.95,11.92-71.32l.93-3.1,4.09,6.26-1.31,68.49-15.67,1.35Zm13.95-68.98c-2.57,9.4-9.88,38.27-10.86,65.71l9.63-.83,1.24-64.86v-.02Z"/><path d="m24.42,61.21c-.46,2.95-1.07,6.22-1.66,9.16-1.04,5.01-3.09,9.77-4.54,14.69,0,0-7.63,23.38-7.63,23.38l-1.43-1.97h5.8s-1.44,1.09-1.44,1.09c.77-2.78,4.47-15.54,5.1-18.08,1.36-3.53,2.97-6.97,4.56-10.42-.29,2.52-.62,5.03-1,7.53-.26,2.52-.94,4.92-1.67,7.34,0,0-4.11,14.45-4.11,14.45,0,0-.31,1.09-.31,1.09-2.1-.01-6.92,0-9,0,0,0,.64-1.97.64-1.97,2.67-8.22,8.88-27.11,11.41-35.09,1.46-3.78,3.47-7.58,5.27-11.22h0Z"/><path d="m5.11,120.39c-.98,0-1.62-.35-1.98-1.05-.36-.69-.26-1.46.25-2.16-.79-.16-1.36-.42-1.72-.76-.41-.39-.62-.91-.6-1.45.01-.37.1-.75.42-1.11-1.3-.62-1.56-1.24-1.47-2.02.08-.73.49-1.35,1.15-1.74,1.26-.76,3.41-.58,5.13-.22l-1.4-7.5,11.69,4.64-.14,1.15c-.06.48-.42,3.06-1.5,5.59l.29-.02-.37.2c-.86,1.95-2.15,3.84-4.07,4.71-2.59,1.17-4.43,1.75-5.69,1.75Zm4.83-7.3l1.78.42c.78-1.48,1.28-3.29,1.55-4.59l-4.43-1.76,1.1,5.93Z"/></g><g><path d="m35.62,58.8h-12.78l-2.19-21.05c-2.52-.49-4.25-2.31-3.99-4.27.2-1.51,1.47-2.62,3.23-2.98l-1.68-16.18,32.99-3.65.27,1.34c.07.36,1.79,8.92.81,18.94-1.32,13.51-6.97,23.09-16.36,27.69l-.31.15Zm-10.08-3h9.38c17.73-9.01,14.82-35.54,13.85-41.83l-27.26,3.01,1.72,16.54-1.79-.13c-1.09-.08-1.74.32-1.8.49.02.17.6.8,1.83.97.18.02.36.03.53.03l1.37-.02,2.18,20.94Z"/><path d="m21.6,46.93l-2.7-25.93c-1.27-.46-2.24-1.43-2.6-2.66-.16-.54-.2-1.1-.12-1.65-1.09-.38-1.9-1.14-2.2-2.16-.5-1.71.6-3.54,2.58-4.51-.01-.17-.02-.34-.02-.51,0-2.89,1.73-5.15,3.93-5.15,1.14,0,2.17.6,2.89,1.62.42-.15.86-.21,1.31-.19.19-1.3.8-2.6,2.58-3.28,1.53-.58,2.84.33,3.81,1.74.4-.26.85-.43,1.36-.44h.04c.83-2,2.4-3.25,4.2-3.25,1.4,0,2.68.77,3.58,2.1.44-.11.9-.12,1.34-.03.69-1.59,1.99-2.63,3.49-2.63s2.79,1.02,3.49,2.63c.11.02.23.05.34.08,1.97-1.41,4.33-1.56,5.92-.28,2.03,1.63,2.02,4.9.01,7.47,1.51,1.47,2.12,3.49,1.41,5.22-.51,1.25-1.64,2.18-3.1,2.56-1.32.34-2.82.22-4.21-.35-.07-.03-.15-.06-.22-.09-.65.64-1.51,1.15-2.5,1.44-2.03.59-4,.14-5.06-1.04-.16.06-.32.12-.48.16-.91.27-1.84.29-2.69.09-.42.85-1.23,1.49-2.28,1.79-1.01.29-2.2.25-3.33-.12-.71-.23-1.35-.57-1.9-.99-.29.14-.58.26-.9.35-.21.06-.43.11-.65.15-.29.64-.74,1.22-1.32,1.69l-6.01,26.17Zm.42-33.39l-2.5,2.88c-.15.17-.47.61-.34,1.08.12.43.61.74,1.24.8l1.22.12,1.07,10.26,2.24-9.73.52-.33c.47-.29.77-.72.82-1.14l.16-1.42,1.43.09c.29.02.57-.01.84-.09.35-.1.66-.28.93-.52l1.26-1.15.98,1.4c.28.4.8.75,1.39.94.57.18,1.15.21,1.59.09.28-.08.39-.19.4-.22h0s0-.05-.04-.14l-.85-2,3.19-.13.44.36c.44.36,1.14.46,1.8.26.31-.09.59-.24.84-.44l.39-.32,2.34-.09v1.57c.01.1.78.5,1.97.15.84-.25,1.38-.75,1.53-1.11l.73-1.76,1.54,1.12c.28.2.58.37.9.5.79.32,1.64.4,2.33.22.31-.08.87-.29,1.07-.79.32-.79-.42-1.95-1.64-2.59l-2.09-1.1,1.89-1.42c.32-.24.58-.49.79-.75,1.05-1.31,1.14-2.85.52-3.35-.58-.47-1.82-.12-2.77.79l-.89.85-1.01-.71c-.12-.08-.22-.12-.32-.12l-1.52.4-.43-1.52c-.2-.94-.68-1.45-.93-1.45-.32,0-.94.78-1.02,2.06l-.23,4.06-2.46-3.23c-.38-.5-.48-.34-.68-.13l-1.68,1.74-.81-2.29c-.35-.99-.96-1.65-1.52-1.65-.6,0-1.41.87-1.71,2.32l-.44,2.17-1.85-1.21s0,0-.05-.01c-.17.14-.43.48-.59.75l-1.56,2.72-1.14-2.91c-.31-.79-.87-1.69-1.21-1.98-.32.15-.53.44-.53,1.64,0,.25.03.51.1.79l.3,1.27-2.21.86-.72-.8c-.09-.11-.34-.36-.57-.36-.25,0-.5.27-.6.38l-1.88,2.28-.72-2.87c-.21-.82-.63-1.23-.81-1.23-.29,0-.93.81-.93,2.15,0,.36.05.72.15,1.06l.46,1.52-1.69.41c-1.14.33-1.6,1.02-1.59,1.2.06.1.56.33,1.36.25l3.79-.4Z"/><path d="m45.31,23.75c-.05-.28-.12-.54-.2-.76-.16.02-.32.04-.48.04-.03,0-.05,0-.08,0-1.46,0-2.53-.87-2.67-2.19-.13-1.24.62-2.26,1.78-2.43.11-.02.22-.02.33-.02l.77-2.37c2.47.8,3.61,2.25,3.46,4.45-.03.43-.19.81-.45,1.14.2.49.36,1.02.47,1.61l-2.95.55Z"/><path d="m35.54,58.8h-12.71l-2.83-27.22,7.17,11.36,13.91,1.51-.18-2.57,8.58,1.5-.78,1.76c-4.57,10.29-12.58,13.44-12.92,13.57l-.26.1Zm-10.01-3h9.42c1.03-.47,5.38-2.69,8.91-8.03l-18.46-2-1.1-1.74,1.23,11.77Zm18.63-10.31l.11,1.64c.29-.47.57-.96.85-1.47l-.96-.17Z"/><path d="m33.96,54.57c-.14,0-.28,0-.42-.02-2.3-.22-4.17-2.27-5.55-6.07l2.82-1.02c.91,2.51,2.01,4.01,3.02,4.1.99.1,2.2-1.01,3.03-2.02l-7.54-5.94,11.72.15-.86-12.43,2.99-.21,1.08,15.68-6.14-.08,2.77,2.18-.68,1.13c-.29.48-2.83,4.54-6.24,4.54Z"/><polygon points="44.33 47.82 29.24 46.18 29.56 43.2 41.09 44.45 40.66 38.23 43.65 38.03 44.33 47.82"/><path d="m38.16,35.31c-.99,0-1.71-1.32-1.71-3.14s.72-3.14,1.71-3.14,1.71,1.32,1.71,3.14-.72,3.14-1.71,3.14Zm0-5.27c-.21,0-.71.75-.71,2.14s.51,2.14.71,2.14.71-.75.71-2.14-.5-2.14-.71-2.14Z"/><path d="m50.07,33.71c-.99,0-1.71-1.32-1.71-3.14s.72-3.14,1.71-3.14,1.71,1.32,1.71,3.14-.72,3.14-1.71,3.14Zm0-5.27c-.21,0-.71.75-.71,2.14s.5,2.14.71,2.14.71-.75.71-2.14-.51-2.14-.71-2.14Z"/></g></g><g><g><polygon class="cls-6" points="24.19 57.3 24.72 71.58 32.99 69.38 32.31 56.37 24.19 57.3"/><path d="m24.15,72.35l-.59-15.58,9.31-1.07.74,14.13-9.46,2.52Zm.65-14.52l.49,12.97,7.07-1.88-.62-11.89-6.94.8Z"/></g><g id="yougIdle-2"><g><polyline class="cls-2" points="33.68 62.19 50.57 103.21 45.35 105.75 32.99 66.82"/><path d="m33.68,62.19c5.88,11.68,12.51,29.11,17.65,41.31,0,0-.51.25-.51.25,0,0-5.21,2.54-5.21,2.54l-.62.3-.21-.66c-3.58-11.47-9.07-27.57-11.79-39.11,2.42,6.25,4.83,12.85,6.75,19.28,0,0,6.18,19.47,6.18,19.47,0,0-.83-.36-.83-.36l5.21-2.54s-.29.77-.29.77c-4.89-12.13-12.33-28.97-16.33-41.25h0Z"/></g><g><path class="cls-1" d="m50.57,103.21s4.11,7.04,1.54,10.38c-4.38,5.67-5.47,4.05-4.47,2.38.7-1.17,1.34-2.17,1.34-2.17,0,0-4.11,2.49-4.65,1.38-.34-.69,2.59-2.83,2.59-2.83,0,0-4.71,1.23-4.94.65-.61-1.54,3.92-2.96,5.9-3.18l-5.25-4.8,7.94-1.81Z"/><path d="m47.73,118.14c-.22,0-.42-.06-.59-.18-.6-.41-.61-1.33-.03-2.31.06-.1.12-.19.17-.29-1.02.46-2.15.83-2.83.63-.31-.09-.55-.29-.68-.56-.1-.21-.35-.72.83-1.93-2.85.55-3.05.06-3.19-.28-.17-.42-.12-.87.13-1.28.75-1.26,3.32-2.1,5.03-2.49l-5.2-4.75,9.49-2.16.22.38c.18.3,4.29,7.44,1.49,11.05-2.15,2.78-3.77,4.18-4.85,4.18Zm3.14-6.19l-1.39,2.17s-.63.99-1.33,2.15c-.16.26-.23.48-.25.63.38-.14,1.5-.78,3.73-3.68,1.98-2.56-.59-7.86-1.37-9.33l-6.38,1.46,5.38,4.91-1.32.15c-1.72.19-4.8,1.2-5.37,2.14,0,0,0,0,0,0,.75-.01,2.63-.38,4.19-.79l3.07-.8-2.56,1.87c-1.03.75-2.01,1.65-2.3,2.09.52-.03,2.2-.73,3.69-1.64l2.21-1.34Z"/></g><g><path class="cls-2" d="m32.52,59.82s15.02,29.52,14.92,66.35l-27.35,2.64"/><path d="m20.14,129.41l-.12-1.2,26.81-2.59c-.04-36.02-14.7-65.24-14.85-65.53l1.07-.54c.15.3,15.09,30.07,14.98,66.63v.54s-27.89,2.7-27.89,2.7Z"/></g><g><path class="cls-2" d="m19.6,109.84l19.76-1.86s-.49-22.21-7.63-45.53l.79-2.63-2.62,8.67-5.67-8.67s-3.58,16.78-4.15,22.23c-.74,7.09-.49,27.79-.49,27.79Z"/><path d="m19,110.49v-.65c-.01-.21-.25-20.82.49-27.86.56-5.42,4.01-21.6,4.16-22.29l.3-1.41,5.75,8.8,2.25-7.44,1.15.35-.74,2.45c7.03,23.07,7.6,45.3,7.6,45.52v.56s-20.95,1.97-20.95,1.97Zm5.52-49.14c-.87,4.16-3.38,16.32-3.84,20.75-.65,6.27-.53,23.5-.49,27.07l18.55-1.74c-.13-3.48-1.11-22.66-7.01-42.9l-1.62,5.37-5.58-8.54Z"/></g><g><g><path class="cls-4" d="m39.35,107.98c1.87,24.73-.49,41.11-.49,41.11l8.57,8.09-14.44-2.17-1.99-35.63-2.76,36.17-16.69,1.63,11.62-8.09s-3.18-16.59-3.58-39.25l19.76-1.86Z"/><path d="m49.24,158.06l-16.82-2.53-1.51-27.04-2.11,27.62-19.48,1.9,13.19-9.18c-.47-2.63-3.16-18.4-3.52-38.97v-.56s20.91-1.97,20.91-1.97l.05.61c1.72,22.67-.14,38.54-.45,40.93l9.74,9.2Zm-29.03-47.68c.43,22.07,3.53,38.43,3.56,38.6l.07.38-10.06,7,13.9-1.36,2.72-35.67h1.2s1.96,35.15,1.96,35.15l12.07,1.82-7.4-6.99.04-.31c.02-.16,2.29-16.34.53-40.37l-18.6,1.75Z"/></g><g><g><polygon class="cls-3" points="23.7 111.34 27.76 110.9 27.88 113.18 23.77 113.62 23.7 111.34"/><path d="m23.4,114.03l-.09-3.03,4.79-.52.16,3.03-4.87.52Zm.68-2.36l.04,1.52,3.35-.36-.08-1.53-3.32.36Z"/></g><g><polygon class="cls-3" points="30.29 110.67 34 110.46 34.32 112.74 30.42 113.18 30.29 110.67"/><path d="m30.07,113.6l-.17-3.29,4.42-.24.43,3-4.68.53Zm.62-2.58l.09,1.75,3.12-.35-.22-1.56-2.99.16Z"/></g><g><polygon class="cls-3" points="36.52 110.16 40.38 109.96 40.5 112.24 36.75 112.68 36.52 110.16"/><path d="m36.41,113.1l-.3-3.29,4.62-.24.16,3.01-4.48.53Zm.51-2.58l.16,1.75,3.02-.35-.08-1.56-3.1.16Z"/></g><g><polygon class="cls-3" points="18.14 111.79 22 111.59 22.12 113.87 18.37 114.31 18.14 111.79"/><path d="m18.03,114.73l-.3-3.29,4.62-.24.16,3.01-4.48.53Zm.51-2.58l.16,1.75,3.02-.35-.08-1.55-3.1.16Z"/></g></g><g><polygon points="23.28 149.75 27.98 151.09 27.69 155 13.78 156.36 23.28 149.75"/><path d="m23.39,150.4l3.96,1.13-.22,2.92-11.12,1.09,7.38-5.14m-.22-1.31l-11.62,8.09,16.69-1.63.37-4.9-5.44-1.56h0Z"/></g><g><polygon points="33.57 154.49 33.37 151.01 38.69 149.75 45.63 156.3 33.57 154.49"/><path d="m38.51,150.41l5.31,5.02-9.69-1.46-.14-2.49,4.51-1.07m.35-1.32l-6.12,1.45.25,4.46,14.44,2.17-8.57-8.09h0Z"/></g></g><polygon class="cls-7" points="30.09 71.16 32.54 74.23 28.34 79.19 33.08 92.93 34.37 80.79 28.45 73.91 30.09 71.16"/><g><path class="cls-2" d="m24.23,59.82s-10.97,36.65-11.86,70.93l12.65-1.09,1.27-66.67-2.07-3.17Z"/><path d="m11.76,131.4l.02-.67c.88-33.96,11.77-70.72,11.88-71.08l.37-1.24,2.88,4.41v.18s-1.29,67.21-1.29,67.21l-13.86,1.19Zm12.69-70.16c-1.89,6.67-10.56,38.77-11.45,68.85l11.44-.98,1.26-65.95-1.25-1.92Z"/></g><g><polyline class="cls-2" points="24.42 61.21 9.16 107.98 14.96 107.98 23.17 79.07"/><path d="m24.42,61.21c-3.31,13.57-10.44,33.46-14.68,46.96,0,0-.57-.79-.57-.79h5.8s-.58.44-.58.44l4.11-14.45c1.08-4.23,3.24-10.11,4.69-14.29-1.62,8.42-5.25,20.74-7.64,29.07,0,0-.12.44-.12.44h-.45c-.48,0-6.35,0-6.62,0,0,0,.26-.79.26-.79,4.55-13.47,10.47-33.6,15.82-46.58h0Z"/></g><g><path class="cls-1" d="m14.96,107.98s-.94,7.55-4.78,9.29c-6.53,2.96-6.48,1.15-4.81.14,1.17-.71,2.84-1.61,2.84-1.61,0,0-5.7.46-5.65-.78.03-.77,3.62-1.28,3.62-1.28,0,0-4.74-1.12-4.67-1.74.18-1.65,4.85-.78,6.7-.05l-1.34-7.19,8.09,3.21Z"/><path d="m5.13,119.49c-.76,0-1.05-.28-1.21-.57-.33-.62.12-1.42,1.13-2.03.22-.13.45-.27.68-.4-1.39-.02-2.89-.17-3.46-.72-.22-.21-.33-.48-.32-.77,0-.23.03-.8,1.63-1.32-2.78-.85-2.72-1.37-2.68-1.74.05-.45.3-.82.71-1.07,1.3-.79,4.13-.27,5.81.21l-1.35-7.26,9.53,3.79-.06.46c-.04.32-1.03,7.91-5.12,9.76-2.8,1.27-4.38,1.67-5.29,1.67Zm5.89-4.52l-2.53,1.36s-1.67.9-2.82,1.59c-.21.13-.37.26-.48.37.52-.02,1.82-.24,4.73-1.56,2.97-1.35,4.09-6.75,4.36-8.36l-6.63-2.63,1.34,7.19-1.01-.4c-1.61-.63-4.8-1.19-5.75-.62,0,0,0,0,0,0,.67.34,2.5.89,4.07,1.26l3.09.73-3.14.45c-1.16.17-2.34.46-2.88.71.75.24,2.77.32,4.78.16l2.86-.23Z"/></g></g><g><g><path class="cls-6" d="m50.01,12.32l-30.15,3.33,1.69,16.25c-1.75-.13-3.25.63-3.4,1.78-.16,1.22,1.24,2.41,3.12,2.66.25.03.5.04.74.04l2.18,20.92h11.08c21.74-10.66,14.74-44.98,14.74-44.98Z"/><path d="m35.41,57.9h-11.76l-2.18-20.94c-.09,0-.19-.02-.28-.03-2.25-.3-3.84-1.76-3.64-3.33.17-1.3,1.55-2.22,3.33-2.31l-1.68-16.17,31.29-3.46.11.54c.07.35,6.85,34.89-15.06,45.64l-.12.06Zm-10.68-1.2h10.4c19.46-9.68,15.14-39.35,14.39-43.72l-29,3.2,1.7,16.37-.71-.05c-1.41-.11-2.65.46-2.76,1.26-.11.86,1.1,1.79,2.6,1.98.22.03.45.04.66.04h.54s2.18,20.92,2.18,20.92Z"/></g><g><path class="cls-8" d="m52.51,10.07c.38-.28.74-.61,1.06-1.01,1.54-1.91,1.67-4.35.29-5.46-1.23-.99-3.23-.58-4.75.87-.36-.25-.76-.39-1.18-.39-.16,0-.32.03-.48.07-.33-1.53-1.27-2.64-2.4-2.64-1.33,0-2.4,1.53-2.51,3.48-.42-.56-.98-.91-1.58-.91-.51,0-.98.24-1.37.64-.56-1.58-1.66-2.65-2.93-2.65-1.49,0-2.76,1.48-3.17,3.52-.27-.18-.48-.27-1.06-.26-.86,0-1.71,1.51-1.71,1.51,0,0-1.37-3.52-2.94-2.92-1.17.45-1.7,1.25-1.7,3.13,0,.4.05.78.14,1.13h-.02c-.47-.55-1.07-.88-1.72-.88s-1.27.35-1.75.93c-.35-1.38-1.23-2.36-2.27-2.36-1.34,0-2.43,1.63-2.43,3.65,0,.53.08,1.04.22,1.49-.08.02-.15.03-.23.05-1.78.52-2.95,1.89-2.61,3.05.28.97,1.52,1.48,2.96,1.32-.62.71-.9,1.62-.64,2.49.31,1.06,1.33,1.76,2.54,1.87l1.87,18.01,4.12-17.92c.86-.54,1.41-1.37,1.51-2.25.44.03.9-.02,1.36-.15.6-.18,1.1-.48,1.51-.86.44.64,1.2,1.2,2.16,1.51,1.77.57,3.51.08,3.89-1.1.12-.38.08-.79-.09-1.18l.46-.02c.79.64,1.98.89,3.17.53.52-.15.98-.41,1.37-.72h.26c0,.12,0,.25.05.38.35,1.19,2.08,1.73,3.86,1.21,1.23-.36,2.15-1.14,2.49-1.97.36.26.77.49,1.22.67,2.27.92,4.66.3,5.35-1.39.63-1.55-.4-3.47-2.33-4.48Z"/><path d="m21.93,41.45l-2.2-21.14c-1.27-.27-2.23-1.09-2.57-2.22-.2-.68-.15-1.39.14-2.06-1.24-.15-2.17-.79-2.46-1.75-.42-1.43.75-3,2.69-3.69-.07-.35-.1-.71-.1-1.07,0-2.38,1.33-4.25,3.03-4.25,1.05,0,1.99.72,2.53,1.91.76-.51,1.68-.61,2.49-.27.03-1.96.64-2.99,2.08-3.55,1.47-.56,2.65,1.12,3.26,2.29.4-.46.96-.92,1.59-.93.26,0,.47.01.65.05.62-2,2-3.3,3.58-3.3,1.28,0,2.46.87,3.18,2.3.71-.4,1.56-.39,2.28.03.43-1.71,1.58-2.89,2.94-2.89,1.25,0,2.34,1.01,2.84,2.57.42,0,.77.08,1.14.25,1.71-1.43,3.84-1.69,5.2-.6,1.63,1.32,1.54,4.15-.2,6.31-.16.19-.33.38-.51.56,1.73,1.24,2.52,3.18,1.87,4.79-.41,1-1.29,1.72-2.49,2.03-1.13.29-2.43.18-3.65-.31-.27-.11-.53-.24-.78-.38-.54.76-1.45,1.38-2.53,1.7-1.99.58-3.89,0-4.5-1.32-.32.19-.67.34-1.04.45-1.06.31-2.15.23-3.04-.21-.01.17-.04.33-.09.49-.25.77-.9,1.33-1.83,1.6-.85.24-1.84.2-2.81-.11-.82-.26-1.53-.7-2.07-1.25-.38.26-.81.46-1.26.6-.34.1-.69.16-1.05.18-.23.77-.75,1.49-1.47,2.01l-4.88,21.21Zm-2.1-26.78l-1,1.15c-.52.59-.71,1.3-.52,1.92.23.79,1.01,1.34,2.02,1.44l.49.05,1.55,14.91,3.37-14.65.21-.13c.7-.44,1.16-1.11,1.24-1.8l.06-.57.57.04c.39.03.78-.02,1.16-.13.48-.14.91-.38,1.28-.72l.51-.46.39.56c.39.56,1.07,1.03,1.85,1.28.73.24,1.5.27,2.12.1.31-.09.85-.31,1.01-.81.07-.22.05-.48-.07-.76l-.34-.8,1.55-.06.18.14c.67.54,1.67.7,2.62.43.42-.13.81-.33,1.15-.61l.16-.13,1.09-.04v.63c0,.1,0,.17.02.22.25.86,1.68,1.22,3.11.8,1.01-.3,1.82-.92,2.11-1.63l.29-.7.62.45c.33.24.7.45,1.09.6.98.4,2,.49,2.89.26.82-.21,1.42-.68,1.68-1.32.51-1.24-.38-2.84-2.05-3.73l-.84-.44.76-.57c.38-.29.69-.58.95-.91,1.33-1.65,1.5-3.72.38-4.62-.96-.77-2.65-.41-3.95.84l-.36.34-.4-.28c-.37-.26-.71-.36-1.16-.24l-.61.16-.13-.61c-.27-1.27-1.02-2.16-1.81-2.16-.96,0-1.82,1.31-1.91,2.91l-.09,1.62-.98-1.29c-.23-.31-.61-.67-1.11-.67-.41,0-.74.25-.94.46l-.67.7-.32-.91c-.49-1.39-1.4-2.25-2.37-2.25-1.16,0-2.22,1.25-2.59,3.04l-.18.87-.74-.49c-.17-.11-.22-.18-.72-.17-.29,0-.86.64-1.19,1.21l-.62,1.09-.46-1.17c-.41-1.03-1.46-2.85-2.17-2.58-.85.33-1.31.83-1.31,2.57,0,.32.04.64.12.99l.12.51-.88.35-.3-.32c-.26-.31-.7-.68-1.26-.68s-1.02.39-1.29.71l-.75.91-.29-1.15c-.29-1.14-.96-1.91-1.69-1.91-.99,0-1.83,1.4-1.83,3.05,0,.45.07.9.19,1.32l.18.61-.73.17c-1.49.43-2.52,1.51-2.28,2.33.19.64,1.17,1.02,2.32.9l1.51-.16Z"/></g><g><ellipse class="cls-5" cx="47.51" cy="29.01" rx="5.83" ry="7.45"/><path class="cls-9" d="m47.51,37.06c-3.54,0-6.43-3.61-6.43-8.05s2.88-8.05,6.43-8.05,6.43,3.61,6.43,8.05-2.88,8.05-6.43,8.05Zm0-14.89c-2.88,0-5.23,3.07-5.23,6.85s2.34,6.85,5.23,6.85,5.23-3.07,5.23-6.85-2.34-6.85-5.23-6.85Z"/></g><path d="m46.19,23.58c-.12-.65-.32-1.2-.55-1.64-.35.11-.71.17-1.03.18-1.03.06-1.74-.51-1.83-1.39-.09-.88.44-1.36,1.02-1.44.64-.08,1.5.27,2.23,1.12.05-.05.09-.09.11-.12.04-.66.1-1.6-2.02-2.28l.37-1.14c2.67.86,2.92,2.34,2.84,3.53-.03.4-.27.74-.62,1.01.29.55.52,1.2.66,1.96l-1.18.22Zm-2.23-3.1s0,.05.01.13c.01.11.03.25.38.3.16.02.33.02.49,0-.14-.12-.28-.22-.41-.29-.26-.14-.42-.14-.47-.13Z"/><g><ellipse class="cls-5" cx="35.38" cy="31.22" rx="6.3" ry="8.05"/><path class="cls-9" d="m35.38,39.87c-3.8,0-6.9-3.88-6.9-8.65s3.09-8.65,6.9-8.65,6.9,3.88,6.9,8.65-3.09,8.65-6.9,8.65Zm0-16.1c-3.14,0-5.7,3.34-5.7,7.45s2.56,7.45,5.7,7.45,5.7-3.34,5.7-7.45-2.56-7.45-5.7-7.45Z"/></g><rect x="22.7" y="26.98" width="1.2" height="7.83" transform="translate(-9.4 51.59) rotate(-85.29)"/><g><path class="cls-8" d="m22.16,37.8l2.03,19.5h11.08s7.71-2.94,12.08-12.78l-4.81-.84.17,2.45-16.42-1.78-4.14-6.55Z"/><path d="m35.38,57.9h-11.73l-2.35-22.59,5.35,8.48,15.42,1.67-.17-2.49,6.32,1.1-.31.7c-4.42,9.95-12.09,12.97-12.41,13.09l-.1.04Zm-10.65-1.2h10.42c.87-.37,7.34-3.37,11.33-11.72l-3.28-.57.16,2.4-17.42-1.89-2.92-4.63,1.71,16.41Z"/></g><g><polygon class="cls-6" points="33.72 45.16 25.63 48.04 28.59 54.61 37.31 54.61 41.68 48.33 33.72 45.16"/><path d="m37.63,55.21h-9.42l-3.38-7.51,8.91-3.18,8.88,3.54-4.98,7.15Zm-8.65-1.2h8.02l3.76-5.4-7.05-2.81-7.26,2.59,2.53,5.62Z"/></g><path d="m33.95,53.67c-.11,0-.21,0-.32-.02-1.93-.19-3.54-2.03-4.79-5.48l1.13-.41c1.06,2.93,2.37,4.56,3.78,4.69,1.71.17,3.53-1.87,4.37-3.07l-6.15-4.85,10.04.12-.92-13.4,1.2-.08,1.01,14.7-7.82-.1,4.22,3.33-.27.45c-.1.17-2.5,4.1-5.48,4.1Z"/><g><polyline class="cls-6" points="42.16 38.13 42.71 46.13 29.4 44.69"/><polygon points="43.36 46.81 29.34 45.29 29.47 44.09 42.06 45.46 41.56 38.17 42.76 38.09 43.36 46.81"/></g><g><line class="cls-8" x1="32.93" y1="27.06" x2="40.58" y2="23.5"/><rect x="32.54" y="24.68" width="8.43" height="1.2" transform="translate(-7.23 17.85) rotate(-24.94)"/></g><g><line class="cls-8" x1="46.13" y1="25.43" x2="54.01" y2="25.13"/><rect x="46.13" y="24.68" width="7.89" height="1.2" transform="translate(-.91 1.89) rotate(-2.15)"/></g><ellipse cx="38.16" cy="32.18" rx="1.21" ry="2.64"/><ellipse cx="50.07" cy="30.57" rx="1.21" ry="2.64"/></g></g></g></g></svg>