<?xml version="1.0" encoding="UTF-8"?><svg id="Livello_2" xmlns="http://www.w3.org/2000/svg" viewBox="0 0 67.04 156.15"><defs><style>.cls-1{fill:#f9bb91;}.cls-2{fill:#68d1e7;}.cls-3{fill:#fff;}.cls-4{fill:#ffbc61;}.cls-5{fill:#8c6239;}.cls-6{fill:#60a328;}.cls-7{fill:#51341d;}</style></defs><g id="us"><g id="raff"><g id="raff-2"><path d="m36.55,61.21l-10.22-14.14h14.95l-4.73,14.14Zm-4.35-11.14l3.36,4.65,1.55-4.65h-4.91Z"/><g id="yougIdle"><path d="m41.05,51.14c2.32,3.44,4.49,6.96,6.67,10.47,3.73,7.38,12.38,25.61,16.14,33.28,0,0,.69,1.43.69,1.43-1.98.82-7.54,3.13-9.53,3.96-1.84-4.93-8.62-23.13-10.36-27.8-2.1-5.25-3.12-10.84-4.48-16.33,2.18,4.19,4.41,8.35,6.34,12.64,1.94,5.44,8.67,23.29,10.77,28.99,0,0-1.98-.86-1.98-.86l6.62-2.75-.78,2.04c-3.74-7.82-12.51-25.73-16.04-33.33-1.4-3.89-2.8-7.78-4.06-11.73h0Z"/><path d="m58.91,112.58c-.5,0-.93-.16-1.32-.46-.53-.42-.85-1.14-.73-2.02-2.73.69-3.33-.37-3.6-.86-.27-.47-.33-.95-.15-1.46-2.33.19-2.59-.38-2.88-1-.32-.68-.28-1.43.11-2.1.78-1.36,3.13-2.27,5.23-2.82l-6.67-5.19,14.3-2.78.56.81c.6.88,5.78,8.73,1.83,13.09-2.92,3.22-5.08,4.79-6.66,4.79Zm4.85-7.44l-.79,1.05c.12-.13.24-.26.37-.41.17-.19.31-.41.42-.64Zm.27-1.76l-1.08.67,1.09-.56s0-.08,0-.11Zm-8.09-5.03l5.97,4.65,2.02-.45c-.33-1.89-1.36-4-2.15-5.34l-5.84,1.14Z"/><path d="m23.9,124.77l-.25-2.99,33.37-2.75c-.3-38.35-18.55-69.37-18.74-69.69l2.58-1.54c.19.32,19.3,32.77,19.16,72.61v1.38s-36.13,2.98-36.13,2.98Z"/><path d="m21.68,104.35l-.02-1.6c-.01-.92-.31-22.6.63-30.29.72-5.92,5.12-23.5,5.3-24.25l.75-3.02,7.41,9.67,2.41-6.79,2.83,1-.83,2.34c8.88,25,9.59,49.02,9.6,49.26l.04,1.42-28.12,2.25Zm8.08-52.38c-1.32,5.41-3.97,16.56-4.49,20.85-.77,6.3-.68,23.03-.63,28.28l22.06-1.77c-.28-5.15-1.7-23.58-8.15-43.36l-1.81,5.09-6.98-9.1Z"/><g><path d="m63.61,156.15l-24.85-3.19-1.34-20.49-1.89,21.14-28.96,2.41,19.45-11.54c-.86-4.25-3.93-20.69-4.36-41.73l-.03-1.41,28-2.24.13,1.48c2.08,23.34.05,40.09-.5,44.01l14.36,11.55Zm-38.92-52.04c.61,23.37,4.44,40.61,4.48,40.79l.24,1.06-10.1,5.99,13.46-1.12,3.39-37.9,2.99.04,2.45,37.34,11.85,1.52-7.43-5.98.15-.87c.03-.17,2.83-17.22.73-42.65l-22.2,1.78Z"/><g><polygon points="27.01 108.45 26.83 102.99 34.93 102.24 35.26 107.71 27.01 108.45"/><polygon points="35.5 107.99 35.15 102.2 42.71 101.84 43.61 107.21 35.5 107.99"/><polygon points="43.62 107.44 42.99 101.65 50.97 101.29 51.3 106.67 43.62 107.44"/><polygon points="20.27 109.21 19.64 103.41 27.62 103.06 27.95 108.44 20.27 109.21"/></g><path d="m6.56,156.02l20.9-12.4,8.76,2.14-.7,7.85-28.96,2.41Zm21.38-9.19l-8.63,5.12,13.46-1.12.25-2.76-5.07-1.24Z"/><path d="m63.61,156.15l-24.85-3.19-.48-7.37,9.75-1.97,15.58,12.53Zm-22.02-5.85l11.85,1.52-6.2-4.99-5.8,1.17.15,2.29Z"/></g><path d="m41.06,90.33l-8.56-21.15,2.57-2.59-2.63-2.6,3.88-5.52,5.36,5.73-2.37,2.38,4.18,4.14-2.45,19.6Zm-5.04-20.44l3.49,8.62.83-6.69-3.14-3.11-1.18,1.19Zm.33-6.25l.83.82.33-.33-.86-.92-.3.43Z"/><path d="m12.43,126.98l.05-1.66c1.12-36.91,15.01-76.84,15.15-77.24l.92-2.62,4.64,6.05-1.66,74.07-19.09,1.4ZM29.57,51.73c-3.02,9.31-12.8,41.51-14.04,72.02l13.05-.96,1.58-70.29-.59-.77Z"/><path d="m29.28,50.08c-.71,3.2-1.61,6.76-2.45,9.95-1.48,5.44-3.96,10.58-5.84,15.91,0,0-9.69,25.32-9.69,25.32l-1.4-2.04s7.36,0,7.36,0-1.42,1.03-1.42,1.03c2-5.47,5.67-18.31,8.21-23.35,1.17-2.51,2.4-5,3.65-7.48-.48,2.74-1,5.46-1.57,8.17-.97,5.49-5.79,18.1-7.45,23.6,0,0-.34,1.03-.34,1.03-.42,0-7.78,0-8.45,0,0,0-2.18,0-2.18,0l.78-2.04c3.4-8.9,11.27-29.35,14.51-37.99,1.79-4.08,4.15-8.18,6.27-12.11h0Z"/><path d="m5.76,114.02c-1.1,0-1.79-.38-2.15-1.12-.29-.6-.28-1.46.43-2.29-1.04-.17-1.77-.46-2.19-.87-.41-.39-.62-.91-.6-1.46.02-.42.13-.84.54-1.23-1.57-.66-1.86-1.31-1.76-2.16.09-.72.5-1.34,1.15-1.74,1.47-.9,4.19-.62,6.24-.2l-1.62-8.05,13.12,4.82-.16,1.19c-.05.37-1.28,9.05-6.5,11.24-2.98,1.25-5.07,1.86-6.49,1.86Zm5.39-7.69l2.49.54c.98-1.65,1.6-3.71,1.92-5.19l-5.77-2.12,1.36,6.76Z"/></g><g><path d="m36.86,52.12c-4.4,0-8.72-1.71-12.38-4.95-4.29-3.8-7.17-9.27-8.1-15.39-.08-.51-.14-1.04-.19-1.57-.28-.04-.55-.09-.82-.17-1.34-.37-2.48-1.17-3.23-2.24-.79-1.14-1.05-2.51-.7-3.76.35-1.25,1.28-2.29,2.55-2.85.91-.4,1.94-.55,2.97-.43,2.18-8.12,8.11-13.97,15.43-15.08,5.27-.8,10.58.89,14.95,4.75,4.29,3.8,7.17,9.27,8.1,15.39h0c.93,6.12-.19,12.2-3.16,17.11-3.02,4.99-7.59,8.18-12.85,8.99-.86.13-1.72.2-2.57.2Zm-17.84-25.1l.07,1.64c.04.92.12,1.82.25,2.67.83,5.43,3.36,10.26,7.13,13.59,3.69,3.27,8.13,4.7,12.51,4.03,4.37-.67,8.19-3.36,10.74-7.57,2.61-4.31,3.58-9.67,2.76-15.1-.83-5.43-3.36-10.26-7.13-13.6-3.69-3.27-8.13-4.7-12.51-4.03-6.52.99-11.75,6.59-13.31,14.26l-.37,1.79-1.69-.71c-.12-.05-.25-.11-.38-.14-.66-.18-1.35-.15-1.9.09-.26.12-.73.39-.88.92-.15.52.11,1,.27,1.24.34.49.92.88,1.57,1.06.39.11.8.13,1.22.08l1.62-.21Z"/><path d="m19.86,34.49l-1.13-3.18c-.25-.7-6.03-17.25-.94-24.45,1.59-2.25,3.98-3.38,7.11-3.38h24.83c2.12,0,2.57-.45,2.58-.46-.01-.12-.29-.66-.52-.92l2.14-2.1c.81.74,7.89,7.34,5.41,12.59-.86,1.82-3.44,7.3-29.58,3.58l-9.88,18.32Zm5.04-28.02c-2.13,0-3.65.69-4.66,2.11-2.8,3.97-1.24,12.8.28,18.37l7.58-14.05,1.04.15c22.49,3.33,26.7-.11,27.47-1.74.81-1.71-.57-4.22-2.12-6.24-1.32,1.4-3.85,1.4-4.77,1.4h-24.83Z"/><path d="m35.56,35.95c-.42,0-.84-.05-1.26-.14-1.81-.42-3.28-1.7-4.14-3.6-.8-1.76-.97-3.88-.49-5.96.48-2.08,1.57-3.9,3.06-5.14,1.61-1.33,3.49-1.83,5.3-1.41,1.81.42,3.28,1.7,4.14,3.6.8,1.76.97,3.88.49,5.96h0c-.48,2.08-1.57,3.9-3.06,5.14-1.24,1.02-2.64,1.56-4.04,1.56Zm1.23-13.39c-.72,0-1.46.3-2.15.87-.99.82-1.71,2.06-2.05,3.5-.33,1.44-.23,2.88.3,4.05.47,1.03,1.21,1.71,2.09,1.91.88.2,1.84-.08,2.71-.8.99-.82,1.71-2.06,2.05-3.5.33-1.44.23-2.88-.3-4.05-.47-1.03-1.21-1.71-2.09-1.91-.19-.04-.38-.06-.57-.06Z"/><path d="m49.24,35.07c-3.12,0-6.01-2.83-6.67-6.71-.34-1.98-.05-3.97.8-5.58.92-1.75,2.39-2.88,4.13-3.17,1.72-.29,3.52.3,4.94,1.63,1.34,1.25,2.26,3.02,2.59,5.01h0c.72,4.24-1.49,8.17-4.92,8.75-.29.05-.58.07-.86.07Zm-.88-12.54c-.12,0-.25.01-.37.03-.8.14-1.5.71-1.97,1.61-.54,1.02-.72,2.36-.49,3.68.44,2.57,2.32,4.48,4.08,4.18,1.77-.3,2.9-2.73,2.47-5.29h0c-.22-1.32-.84-2.53-1.68-3.31-.63-.59-1.34-.9-2.02-.9Z"/><g><path d="m41.51,45.37c-1.83,0-4.13-.56-6.48-2.56l1.95-2.29c2.36,2.01,4.58,1.98,5.86,1.7l-1.42-4.86,1.74-.22c2.62-.33,3.98-1.71,4.69-2.96l-4.16.96-.68-2.92,8.77-2.03-.2,2.08c-.21,2.14-1.81,6.15-6.33,7.49l1.21,4.13-1.05.58c-.11.06-1.66.89-3.89.89Z"/><path d="m33.63,44.22l-.21-2.99c.5-.04,1.2-.28,1.35-.53.27-.46.12-1.23.07-1.36l2.86-.92c.07.21.64,2.14-.35,3.81-1.05,1.76-3.45,1.98-3.72,2Z"/></g><path d="m50.98,32.36c-.25,0-.49-.03-.74-.09-1.95-.51-2.97-2.89-2.31-5.42.29-1.1.86-2.08,1.61-2.75.91-.81,2.02-1.12,3.05-.85,1.03.27,1.85,1.08,2.24,2.23.33.95.35,2.08.06,3.18h0c-.58,2.21-2.21,3.7-3.92,3.7Zm.84-6.22c-.14.02-.73.48-.98,1.46-.26.99.03,1.67.18,1.77.14-.02.73-.48.98-1.46h0c.26-.98-.03-1.67-.18-1.77Z"/><path d="m38.61,32.66c-.25,0-.49-.03-.74-.09-1.95-.51-2.97-2.89-2.31-5.42.66-2.53,2.71-4.11,4.66-3.6,1.03.27,1.85,1.08,2.24,2.23.33.95.35,2.08.06,3.18-.58,2.21-2.21,3.7-3.92,3.7Zm.84-6.22c-.14.02-.73.48-.99,1.46-.26.98.03,1.67.18,1.77.14-.02.73-.48.98-1.46.26-.98-.03-1.67-.18-1.77Z"/><path d="m40.04,22.37c-2.81-1.91-6.57-1.01-6.61-1l-.75-2.9c.21-.05,5.08-1.27,9.05,1.42l-1.69,2.48Z"/><path d="m44.76,21l-1.51-2.59c.18-.11,4.54-2.61,9.09-1.09l-.95,2.85c-3.24-1.08-6.6.82-6.64.84Z"/></g></g><g><polygon class="cls-1" points="29.26 48.57 39.19 48.57 36.05 57.96 29.26 48.57"/><path d="m36.25,59.26l-8.16-11.29h11.94l-3.78,11.29Zm-5.81-10.09l5.42,7.49,2.51-7.49h-7.92Z"/></g><g id="yougIdle-2"><g><polyline class="cls-3" points="41.05 51.14 62.5 95.55 55.88 98.3 40.18 56.16"/><path d="m41.05,51.14c7.08,12.39,15.6,31.17,21.99,44.15,0,0,.28.57.28.57,0,0-.59.24-.59.24l-6.62,2.75s-.57.24-.57.24l-.22-.58c-4.56-12.42-11.44-29.84-15.14-42.36,5.37,11.82,11.62,29.62,16.27,41.94,0,0-.79-.34-.79-.34l6.62-2.75-.31.82c-6.24-13.14-15.56-31.36-20.91-44.67h0Z"/></g><g><path class="cls-2" d="m62.5,95.55s5.23,7.63,1.95,11.24c-5.57,6.14-6.96,4.38-5.68,2.57.89-1.27,1.7-2.35,1.7-2.35,0,0-5.23,2.69-5.91,1.49-.43-.75,3.3-3.06,3.3-3.06,0,0-5.98,1.33-6.28.7-.77-1.67,4.98-3.2,7.5-3.44l-6.67-5.19,10.09-1.96Z"/><path d="m58.92,111.67c-.29,0-.55-.08-.76-.25-.6-.48-.54-1.44.13-2.4.11-.16.22-.32.33-.47-1.91.79-3.97,1.31-4.57.25-.15-.26-.47-.83,1.15-2.21-3.76.66-4,.14-4.15-.19-.19-.41-.16-.86.07-1.27.79-1.38,4.2-2.38,6.5-2.81l-6.61-5.14,11.77-2.29.22.33c.22.33,5.45,8.06,1.9,11.98-1.95,2.15-4.42,4.48-5.99,4.48Zm.02-1.2c.43-.04,2-.68,5.08-4.08,2.56-2.82-.88-8.71-1.79-10.17l-8.4,1.63,6.82,5.31-1.5.14c-2.33.22-6.38,1.39-6.98,2.42.86.04,3.43-.38,5.57-.86l3.45-.77-3.01,1.86c-1.32.82-2.58,1.81-2.95,2.29.67.08,2.91-.7,4.98-1.76l2.33-1.2-1.58,2.09s-.8,1.07-1.69,2.33c-.25.36-.33.63-.33.76Z"/></g><g><path class="cls-3" d="m39.57,48.57s19.09,31.96,18.95,71.84l-34.75,2.86"/><path d="m23.82,123.87l-.1-1.2,34.2-2.82c-.04-38.99-18.68-70.66-18.87-70.98l1.03-.62c.19.32,19.17,32.56,19.04,72.15v.55s-35.3,2.91-35.3,2.91Z"/></g><g><path class="cls-3" d="m23.15,102.72l25.1-2.01s-.62-24.05-9.69-49.29l1.01-2.85-3.33,9.39-7.2-9.39s-4.55,18.17-5.27,24.07c-.94,7.67-.62,30.08-.62,30.08Z"/><path d="m22.56,103.37v-.64c-.02-.92-.31-22.54.62-30.17.72-5.87,5.1-23.39,5.28-24.14l.3-1.21,7.28,9.5,2.96-8.35,1.13.4-.94,2.64c8.93,24.97,9.65,49.04,9.66,49.28v.57s-26.29,2.11-26.29,2.11Zm6.77-53.45c-1.02,4.16-4.36,17.87-4.96,22.78-.83,6.82-.67,25.65-.63,29.36l23.89-1.91c-.16-3.69-1.41-24.78-9.07-46.94l-2.12,5.99-7.11-9.28Z"/></g><g><g><path class="cls-5" d="m48.26,100.71c2.38,26.77-.62,44.51-.62,44.51l10.89,8.76-18.35-2.35-2.53-38.57-3.51,39.16-21.21,1.77,14.77-8.76s-4.05-17.96-4.55-42.5l25.1-2.01Z"/><path d="m60.56,154.85l-20.95-2.69-2.05-31.34-2.86,31.95-24.31,2.02,16.64-9.87c-.61-2.88-4.01-19.94-4.47-42.19v-.57s26.25-2.1,26.25-2.1l.05.59c2.18,24.51-.17,41.68-.57,44.31l12.27,9.88Zm-36.79-51.57c.54,23.9,4.48,41.64,4.52,41.81l.1.43-12.9,7.65,18.11-1.51,3.46-38.66h1.2s2.49,38.09,2.49,38.09l15.75,2.02-9.5-7.65.06-.35c.03-.18,2.92-17.71.67-43.76l-23.95,1.92Z"/></g><g><g><polygon class="cls-4" points="28.37 104.35 33.52 103.88 33.68 106.34 28.45 106.82 28.37 104.35"/><path d="m28.09,107.23l-.11-3.21,5.89-.55.2,3.22-5.98.54Zm.67-2.53l.06,1.71,4.46-.4-.11-1.72-4.42.41Z"/></g><g><polygon class="cls-4" points="36.74 103.62 41.45 103.4 41.87 105.87 36.91 106.35 36.74 103.62"/><path d="m36.56,106.76l-.21-3.49,5.42-.25.54,3.2-5.75.55Zm.58-2.78l.12,1.96,4.17-.4-.29-1.75-4,.19Z"/></g><g><polygon class="cls-4" points="44.66 103.08 49.56 102.86 49.72 105.33 44.95 105.8 44.66 103.08"/><path d="m44.62,106.21l-.38-3.49,5.67-.25.2,3.2-5.49.55Zm.45-2.78l.21,1.96,4.03-.4-.11-1.74-4.14.18Z"/></g><g><polygon class="cls-4" points="21.3 104.84 26.21 104.62 26.36 107.09 21.6 107.57 21.3 104.84"/><path d="m21.26,107.98l-.38-3.49,5.67-.25.2,3.2-5.49.55Zm.45-2.78l.21,1.96,4.03-.4-.11-1.74-4.14.18Z"/></g></g><g><polygon points="27.8 145.86 33.97 147.37 33.59 151.66 15.48 153.17 27.8 145.86"/><path d="m27.89,146.5l5.44,1.33-.29,3.27-15.01,1.25,9.86-5.85m-.19-1.28l-14.77,8.76,21.21-1.77.47-5.3-6.92-1.69h0Z"/></g><g><polygon points="40.74 151.1 40.49 147.28 47.48 145.87 56.49 153.12 40.74 151.1"/><path d="m47.32,146.51l7.14,5.74-13.15-1.69-.18-2.8,6.2-1.25m.31-1.29l-7.78,1.57.32,4.83,18.35,2.35-10.89-8.76h0Z"/></g></g><polygon class="cls-6" points="36.49 60.85 39.6 64.18 34.26 69.54 40.28 84.42 41.92 71.28 34.4 63.82 36.49 60.85"/><g><path class="cls-3" d="m29.05,48.57s-13.94,39.68-15.07,76.79l16.08-1.18,1.62-72.18-2.63-3.43Z"/><path d="m13.36,126.01l.02-.67c1.12-36.77,14.96-76.57,15.1-76.97l.37-1.05,3.43,4.48v.21s-1.64,72.73-1.64,72.73l-17.28,1.27Zm15.89-76.18c-2.18,6.51-13.51,41.83-14.65,74.89l14.87-1.09,1.6-71.43-1.82-2.37Z"/></g><g><polyline class="cls-3" points="29.28 50.08 9.9 100.71 17.26 100.71 27.7 69.41"/><path d="m29.28,50.08c-2.25,7.5-6.2,18.15-9.13,25.53,0,0-9.69,25.32-9.69,25.32,0,0-.56-.81-.56-.81h7.36l-.57.41,5.22-15.65c1.37-4.51,4.06-11.02,5.79-15.46-.81,2.82-2.5,9.22-3.33,11.93-.86,2.52-5.59,16.72-6.54,19.56,0,0-.14.41-.14.41h-.43c-.5-.02-7.94.01-8.24,0,0,0,.31-.81.31-.81,5.75-14.58,13.42-36.38,19.94-50.42h0Z"/></g><g><path class="cls-2" d="m17.26,100.71s-1.1,8.18-5.59,10.06c-7.64,3.2-7.59,1.24-5.64.15,1.37-.77,3.33-1.74,3.33-1.74,0,0-6.67.5-6.62-.84.03-.83,4.23-1.39,4.23-1.39,0,0-5.55-1.21-5.47-1.88.21-1.78,5.68-.84,7.85-.05l-1.57-7.79,9.47,3.48Z"/><path d="m5.77,113.13c-.88,0-1.2-.31-1.35-.62-.32-.66.18-1.47,1.32-2.11.3-.17.62-.34.95-.52-1.69,0-3.58-.17-4.22-.79-.28-.27-.33-.57-.33-.78,0-.25.04-.87,2.01-1.43-3.35-.92-3.29-1.49-3.24-1.89.04-.31.2-.76.73-1.08,1.44-.88,4.89-.32,6.93.24l-1.58-7.85,10.93,4.01-.06.48c-.05.35-1.2,8.54-5.96,10.53-3.26,1.37-5.09,1.8-6.13,1.8Zm-.09-1.21c.55.02,2.04-.15,5.76-1.7,3.53-1.48,4.84-7.39,5.15-9.11l-8-2.94,1.57,7.78-1.01-.37c-1.96-.71-5.8-1.32-6.88-.65-.01,0-.02.01-.03.02.75.38,2.96,1,4.87,1.41l3.35.73-3.4.45c-1.45.19-2.9.54-3.51.82.83.3,3.29.4,5.77.22l3.06-.23-2.75,1.36s-1.96.97-3.3,1.72c-.31.17-.52.34-.65.48Z"/></g></g><g><g><path class="cls-1" d="m53.96,26.06c-1.82-11.95-11.38-20.41-21.34-18.89-7.38,1.12-12.91,7.4-14.55,15.44-.18-.08-.36-.15-.56-.21-2.07-.58-4.14.34-4.62,2.05s.81,3.57,2.89,4.15c.62.17,1.24.2,1.82.12.04.94.13,1.88.27,2.84,1.82,11.95,11.37,20.41,21.34,18.89,9.97-1.52,16.57-12.43,14.75-24.38Z"/><path d="m36.86,51.22c-4.18,0-8.29-1.63-11.78-4.72-4.14-3.66-6.91-8.94-7.81-14.85-.11-.74-.19-1.5-.24-2.29-.48,0-.95-.06-1.41-.18-1.14-.32-2.11-.99-2.73-1.88-.65-.93-.85-2-.57-3s1.01-1.81,2.05-2.27c.99-.44,2.15-.51,3.27-.21,1.91-8.19,7.7-14.14,14.9-15.23,4.99-.76,10.05.85,14.21,4.54,4.14,3.66,6.91,8.94,7.81,14.85h0c.9,5.92-.18,11.78-3.04,16.5-2.88,4.76-7.22,7.8-12.22,8.56-.81.12-1.62.18-2.43.18Zm-18.7-23.18l.03.66c.04.95.13,1.88.26,2.77.86,5.64,3.5,10.66,7.42,14.13,3.9,3.45,8.6,4.95,13.24,4.25,4.64-.71,8.68-3.55,11.38-8,2.71-4.49,3.74-10.06,2.88-15.7h0c-.86-5.64-3.5-10.66-7.42-14.14-3.9-3.45-8.6-4.95-13.24-4.25-6.9,1.05-12.42,6.92-14.06,14.97l-.15.72-.67-.28c-.16-.07-.32-.13-.49-.18-.87-.24-1.76-.19-2.5.14-.71.31-1.19.84-1.38,1.5-.18.65-.04,1.36.4,1.99.47.67,1.2,1.17,2.07,1.41.51.14,1.04.18,1.58.11l.65-.09Z"/></g><g><path class="cls-7" d="m20.14,30.81S10.97,4.97,24.89,4.97h24.83c6.54,0,3.19-3.86,3.19-3.86,0,0,22.48,20.3-23.99,13.42l-8.78,16.27Z"/><path d="m20.03,32.28l-.45-1.27c-.24-.68-5.88-16.8-1.06-23.63,1.41-1.99,3.55-3,6.38-3h24.83c1.87,0,3.1-.35,3.38-.95.29-.62-.39-1.62-.64-1.92l.86-.84c.3.28,7.44,6.79,5.2,11.54-2.12,4.5-11.97,5.5-29.26,2.98l-9.22,17.09Zm4.87-26.71c-2.44,0-4.21.82-5.4,2.5-3.71,5.26-.46,17.24.78,21.22l8.31-15.41.42.06c21.13,3.13,27.12.5,28.42-2.25,1.22-2.58-1.23-6.09-3.09-8.23-.03.15-.08.3-.14.46-.51,1.11-1.97,1.65-4.47,1.65h-24.83Z"/></g><g><g><ellipse class="cls-3" cx="50.37" cy="28.05" rx="3.85" ry="5.04" transform="translate(-3.98 8.82) rotate(-9.63)"/><path d="m50.7,33.67c-1,0-1.99-.42-2.83-1.2-.97-.91-1.64-2.21-1.89-3.67-.25-1.46-.04-2.91.58-4.08.65-1.23,1.67-2.02,2.87-2.22,2.43-.4,4.81,1.75,5.34,4.82h0c.25,1.46.04,2.91-.58,4.08-.65,1.23-1.67,2.02-2.87,2.22-.2.03-.41.05-.61.05Zm-.68-10.03c-.13,0-.27.01-.4.03-.83.14-1.54.71-2.01,1.6-.5.95-.66,2.13-.46,3.33.2,1.2.75,2.26,1.53,2.99.74.69,1.6.99,2.42.85.83-.14,1.54-.71,2.01-1.6.5-.95.66-2.13.46-3.33h0c-.38-2.23-1.92-3.87-3.55-3.87Z"/></g><ellipse cx="52.46" cy="28.41" rx="2.53" ry="1.68" transform="translate(11.73 72.01) rotate(-75.39)"/></g><g><g><ellipse class="cls-3" cx="38.87" cy="28.73" rx="5.41" ry="4.13" transform="translate(2.12 60.13) rotate(-76.98)"/><path d="m38.39,34.69c-.29,0-.58-.03-.87-.1-1.26-.29-2.29-1.19-2.9-2.54-.58-1.29-.71-2.85-.36-4.38.75-3.23,3.43-5.38,5.97-4.79,1.26.29,2.29,1.19,2.9,2.54.58,1.29.71,2.85.36,4.38-.36,1.54-1.15,2.88-2.24,3.78-.88.73-1.87,1.11-2.86,1.11Zm.98-10.71c-1.71,0-3.4,1.64-3.93,3.96-.3,1.28-.2,2.57.28,3.62.45,1,1.19,1.66,2.08,1.87.89.2,1.84-.06,2.69-.76.89-.74,1.54-1.85,1.84-3.13h0c.3-1.28.2-2.57-.28-3.62-.45-1-1.19-1.66-2.08-1.87-.2-.05-.4-.07-.59-.07Z"/></g><ellipse cx="41.18" cy="28.97" rx="2.53" ry="1.68" transform="translate(2.76 61.52) rotate(-75.39)"/></g><path d="m42.82,22.11c-3.22-2.19-7.38-1.15-7.42-1.14l-.25-.97c.19-.05,4.64-1.16,8.23,1.28l-.56.83Z"/><path d="m45.26,20.76l-.5-.86c.17-.1,4.15-2.38,8.27-1.01l-.32.95c-3.69-1.23-7.42.9-7.45.92Z"/><g><g><path class="cls-1" d="m38.01,41.44c4.48,3.82,8.67,1.49,8.67,1.49l-1.33-4.53c6.18-.79,5.35-6.06,5.35-6.06l-6.73,1.56"/><path d="m43.53,44.25c-1.66,0-3.75-.51-5.91-2.35l.78-.91c3.34,2.84,6.44,2.05,7.56,1.62l-1.38-4.71.7-.09c1.82-.23,3.15-.89,3.96-1.96.73-.96.88-2.07.9-2.75l-6.03,1.4-.27-1.17,7.36-1.7.1.64c.01.1.36,2.37-1.09,4.3-.9,1.2-2.27,1.98-4.08,2.33l1.27,4.34-.42.23c-.1.06-1.46.79-3.44.79Z"/></g><g><path class="cls-1" d="m35.34,42.56s1.86-.13,2.53-1.26.21-2.58.21-2.58"/><path d="m35.38,43.15l-.08-1.2c.43-.03,1.64-.27,2.06-.97.52-.88.16-2.08.16-2.09l1.14-.37c.02.07.54,1.72-.27,3.07-.83,1.39-2.92,1.55-3,1.56Z"/></g></g><rect x="45.37" y="23.71" width="1.2" height="10.05"/></g></g></g></svg>