<?xml version="1.0" encoding="UTF-8"?><svg id="Livello_2" xmlns="http://www.w3.org/2000/svg" viewBox="0 0 71.93 152.44"><defs><style>.cls-1{fill:#68d1e7;}.cls-2{fill:#fff;}.cls-3{fill:#ffe100;}.cls-4{fill:#edc4a9;}.cls-5{fill:#ffbc61;}.cls-6{fill:#8c6239;}</style></defs><g id="us"><g id="ric"><g id="ric-2"><g><path d="m29.62,59.48l-.83-18.67,13.24-1.3,1.04,16.91-13.46,3.07Zm2.3-15.97l.54,12.24,7.47-1.7-.69-11.26-7.32.72Z"/><g id="yougIdle"><path d="m43.25,47.45c2.49,3.42,4.84,6.92,7.19,10.42,4.1,7.38,13.64,25.6,17.78,33.28,0,0,.8,1.51.8,1.51l-1.6.6c-.97.39-7.88,2.96-8.66,3.26,0,0-.55-1.35-.55-1.35l-8.66-21.07c-1.19-3.13-3.29-7.42-4.14-10.61-1.09-3.66-2.15-7.33-3.12-11.03,2.75,5.02,5.83,9.89,7.88,15.24,1.39,3.38,9.26,22.54,10.82,26.34,0,0-1.92-.83-1.92-.83,0,0,7.3-2.75,7.3-2.75,0,0-.8,2.11-.8,2.11-4.13-7.82-13.78-25.72-17.69-33.33-1.59-3.9-3.18-7.81-4.64-11.78h0Z"/><path d="m64.91,107.89c-.49,0-.94-.15-1.33-.44-.66-.5-.94-1.29-.82-2.15-1.73.32-2.9-.01-3.49-.98-.26-.42-.33-.93-.2-1.42,0-.04.02-.07.03-.11h-.04c-2.27,0-2.55-.54-2.82-1.07-.37-.72-.34-1.53.07-2.21.72-1.18,2.61-1.83,4.37-2.18l-6.7-5.6,13.67-1.45.51.72c.63.89,6.08,8.84,2.64,12.78-2.41,2.75-4.38,4.13-5.89,4.13Zm3.97-6.81l-1.01,1.44c.21-.22.43-.47.66-.73.17-.19.28-.43.34-.71Zm-.67-1.2l-.83.47,1.05-.47h-.22Zm.13-.08l.09.07.46-.21c0-.05-.02-.11-.03-.17l-.52.3Zm-7-5.85l5.89,4.92,1.45-.2c-.47-1.7-1.47-3.68-2.48-5.24l-4.86.51Z"/><path d="m24.32,121.08l-.22-2.99,36.91-2.76c-.34-38.3-20.44-69.31-20.64-69.62l2.51-1.65c.21.32,21.29,32.79,21.14,72.67v1.39s-39.69,2.97-39.69,2.97Z"/><path d="m22.04,100.64l-.02-1.59c-.01-.92-.34-22.61.7-30.31.8-5.93,5.64-23.52,5.85-24.26l.76-2.74,8.14,9.64,1.43-3.65h0l1.33-3.39,2.79,1.09-.9,2.3c9.78,25,10.57,49.01,10.57,49.25l.04,1.43-30.69,2.23Zm8.67-52.61c-1.42,5.29-4.43,16.75-5.02,21.11-.85,6.3-.75,23.04-.69,28.27l24.62-1.79c-.32-5.2-1.9-23.83-9.13-43.73l-2.06,5.27-7.72-9.13Z"/><g><path d="m68,152.44l-27.12-3.16-1.61-22.3-2.26,22.94-31.68,2.39,21.49-11.57c-.97-4.36-4.32-20.74-4.79-41.69l-.03-1.43,30.55-2.22.14,1.46c2.28,23.24.08,39.95-.55,43.99l15.86,11.58Zm-42.94-52.02c.68,23.34,4.89,40.57,4.93,40.75l.28,1.13-11.08,5.96,15.08-1.14,3.74-37.91,2.99.04,2.69,37.33,13.33,1.55-8.16-5.96.17-.93c.03-.17,3.12-17.22.8-42.63l-24.78,1.8Z"/><g><polygon points="27.92 104.75 27.72 99.29 36.34 98.56 36.71 104.03 27.92 104.75"/><polygon points="37.29 104.28 36.9 98.5 44.93 98.16 45.92 103.53 37.29 104.28"/><polygon points="46.23 103.74 45.54 97.95 54.03 97.61 54.39 103 46.23 103.74"/><polygon points="20.49 105.5 19.8 99.72 28.29 99.37 28.65 104.76 20.49 105.5"/></g><path d="m5.32,152.32l22.99-12.37,9.47,2.1-.78,7.88-31.68,2.39Zm23.43-9.2l-9.57,5.15,15.08-1.14.27-2.73-5.78-1.28Z"/><path d="m68,152.44l-27.12-3.16-.53-7.41,10.53-1.93,17.13,12.5Zm-24.31-5.85l13.33,1.55-6.88-5.02-6.62,1.22.16,2.25Z"/></g><path d="m43.17,86.14l-9.22-20.67,2.81-2.56-2.89-2.59,4.19-5.4,5.78,5.6-2.61,2.38,4.57,4.11-2.63,19.14Zm-5.6-19.91l4.06,9.09.98-7.16-3.61-3.24-1.43,1.3Zm.39-6.28l1.03.93.47-.43-1.08-1.05-.42.55Z"/><path d="m11.85,123.28l.06-1.66c1.24-36.93,16.55-76.88,16.71-77.28l.91-2.36,4.9,5.8v.57s-1.83,73.55-1.83,73.55l-20.74,1.38ZM30.53,47.82c-3.22,8.95-14.18,41.46-15.56,72.25l14.69-.98,1.74-70.25-.87-1.03Z"/><path d="m30.27,46.39c-1.21,4.36-2.37,9.01-3.93,13.25-3.66,8.46-12.32,29.19-16.05,37.96,0,0-1.38-2.08-1.38-2.08h8.12l-1.41.98c1.09-3.01,6.24-16.83,7.16-19.57,1.77-3.8,3.77-7.5,5.75-11.21-.89,4.11-1.76,8.22-2.88,12.27-1.05,2.62-6.13,16.64-7.22,19.55,0,0-.36.98-.36.98h-1.05c-1.63,0-8.89,0-10.38,0,0,0,.88-2.08.88-2.08,3.75-8.9,12.42-29.35,15.99-37.99,1.95-4.08,4.47-8.15,6.75-12.06h0Z"/><path d="m5.69,110.33c-1.09,0-1.77-.37-2.13-1.11-.3-.6-.29-1.47.42-2.3-1.01-.17-1.73-.46-2.15-.86-.41-.4-.62-.92-.6-1.46.02-.42.13-.84.54-1.24-1.55-.66-1.84-1.31-1.74-2.15.09-.73.5-1.35,1.16-1.75,1.45-.89,4.11-.62,6.12-.2l-1.6-8.05,12.97,4.83-.16,1.19c-.12.92-1.34,9.09-6.41,11.24-2.94,1.25-5.01,1.87-6.41,1.87Zm5.34-7.69l2.42.54c.96-1.65,1.57-3.71,1.88-5.19l-5.64-2.1,1.34,6.75Z"/></g></g><g><path d="m27.64,45.92l-1.87-3.07-1.34,2.98-1.84-4-3.71,3.63.67-23.51,10.68,17.38-2.58,6.59Zm-4.1-9.22l.87,1.88.78-1.73-2.92-4.76-.17,6.03,1.45-1.42Z"/><path d="m43.45,51.46c-9.84,0-19.4-7.8-22.69-19.37-.17-.58-.32-1.18-.45-1.79-.33.01-.68-.02-1.01-.07-3.15-.47-5.39-3.08-4.99-5.82.2-1.37,1.04-2.59,2.31-3.35.93-.56,2.02-.85,3.16-.85.02,0,.05,0,.07,0,1.22-9.15,6.84-16.35,14.65-18.57,5.59-1.59,11.56-.49,16.82,3.1,5.17,3.53,9.05,9.06,10.9,15.57h0c3.85,13.55-2.31,27.21-13.75,30.46-1.67.47-3.35.7-5.03.7Zm-20.73-24.7l.28,1.62c.17,1,.39,1.98.65,2.89,3.4,11.96,14.17,19.4,24.01,16.61,9.84-2.8,15.08-14.8,11.68-26.76-1.66-5.84-5.11-10.78-9.7-13.92-4.51-3.08-9.59-4.03-14.31-2.69-7.03,2-11.99,8.87-12.64,17.5l-.14,1.83-1.76-.5c-.15-.04-.3-.09-.46-.11-.77-.12-1.56.02-2.15.38-.29.18-.8.57-.9,1.22-.16,1.09.96,2.2,2.46,2.42.46.07.93.04,1.4-.08l1.58-.42Z"/></g></g><g><g><polygon class="cls-4" points="30.36 42.16 31.04 57.61 41.5 55.23 40.64 41.14 30.36 42.16"/><path d="m30.47,58.36l-.74-16.75,11.46-1.13.94,15.22-11.66,2.66Zm.51-15.66l.63,14.17,9.26-2.11-.8-12.96-9.09.89Z"/></g><g id="yougIdle-2"><g><polyline class="cls-2" points="43.25 47.45 66.9 91.86 59.6 94.61 42.28 52.46"/><path d="m43.25,47.45c7.7,12.36,17.15,31.15,24.18,44.13,0,0,.32.6.32.6l-.64.24s-7.3,2.75-7.3,2.75l-.55.21-.22-.54c-5.04-12.42-12.58-29.83-16.76-42.38,3.22,6.74,6.47,13.87,9.21,20.85,0,0,8.66,21.07,8.66,21.07l-.77-.33,7.3-2.75s-.32.84-.32.84c-6.89-13.14-17.11-31.34-23.12-44.69h0Z"/></g><g><path class="cls-1" d="m66.94,91.84s5.5,7.77,2.73,10.93c-4.71,5.38-6.15,3.58-5.11,1.96.73-1.14,1.4-2.1,1.4-2.1,0,0-4.67,2.12-5.41.9-.46-.76,2.84-2.64,2.84-2.64,0,0-5.49.74-5.81.12-.86-1.67,4.4-2.62,6.73-2.63l-6.65-5.56,9.28-.98Z"/><path d="m64.92,106.98c-.31,0-.57-.08-.8-.25-.62-.47-.64-1.42-.06-2.32.11-.17.21-.33.32-.49-1.68.58-3.69.99-4.33-.07-.09-.15-.18-.4-.1-.73.11-.43.55-.9,1.08-1.34-3.56.31-3.83-.21-3.97-.48-.23-.44-.21-.92.04-1.33.75-1.24,3.68-1.85,5.69-2.07l-6.59-5.51,11.03-1.17.2.29c.24.33,5.74,8.19,2.69,11.67-2.19,2.5-3.99,3.82-5.2,3.82Zm2.79-5.8l-1.26,1.79s-.67.95-1.39,2.08c-.25.39-.24.67-.21.73.19.09,1.54-.17,4.36-3.4,1.93-2.2-1.04-7.64-2.57-9.9l-7.51.8,6.83,5.71h-1.65c-2.29.01-5.71.79-6.2,1.6,0,.01-.01.03-.02.04.7.15,3.16-.04,5.22-.31l3.06-.41-2.68,1.53c-1.13.65-2.22,1.46-2.51,1.87.52.17,2.49-.27,4.54-1.2l1.99-.9Z"/></g><g><path class="cls-2" d="m41.62,44.88s21.04,31.96,20.89,71.84l-38.31,2.86"/><path d="m24.25,120.18l-.09-1.2,37.75-2.82c-.05-38.99-20.58-70.63-20.79-70.95l1-.66c.21.32,21.14,32.56,20.99,72.17v.55s-38.86,2.9-38.86,2.9Z"/></g><g><path class="cls-2" d="m23.52,99.03l27.67-2.01s-.68-24.05-10.69-49.29l1.11-2.85-3.67,9.39-7.93-9.39s-5.01,18.17-5.81,24.07c-1.03,7.67-.69,30.08-.69,30.08Z"/><path d="m22.93,99.68v-.63c-.02-.92-.35-22.54.68-30.17.79-5.87,5.62-23.4,5.83-24.14l.3-1.1,8.02,9.49,3.3-8.45,1.12.44-1.03,2.62c9.84,24.98,10.63,49.04,10.64,49.28l.02.57-28.88,2.1Zm7.36-53.54c-1.09,4.02-4.82,17.93-5.49,22.89-.92,6.82-.74,25.66-.69,29.36l26.46-1.92c-.18-3.72-1.56-24.89-10.06-47.09l-2.37,6.05-7.85-9.29Z"/></g><g><g><path class="cls-6" d="m51.19,97.02c2.62,26.77-.68,44.51-.68,44.51l12,8.76-20.23-2.35-2.78-38.57-3.87,39.16-23.38,1.77,16.28-8.76s-4.46-17.96-5.01-42.5l27.67-2.01Z"/><path d="m64.71,151.15l-22.99-2.67-2.31-32.06-3.22,32.67-26.7,2.02,18.36-9.88c-.69-2.96-4.42-19.99-4.92-42.18v-.57s28.81-2.09,28.81-2.09l.06.58c2.4,24.44-.18,41.59-.63,44.3l13.54,9.89Zm-40.57-51.56c.6,23.89,4.94,41.62,4.98,41.8l.11.45-14.2,7.64,20.06-1.51,3.82-38.66,1.2.02,2.75,38.08,17.47,2.03-10.47-7.64.07-.37c.03-.17,3.21-17.71.73-43.76l-26.52,1.93Z"/></g><g><g><polygon class="cls-5" points="29.27 100.66 34.95 100.18 35.12 102.65 29.36 103.13 29.27 100.66"/><path d="m29,103.53l-.12-3.21,6.42-.54.22,3.22-6.52.54Zm.66-2.53l.06,1.71,5-.41-.12-1.72-4.94.42Z"/></g><g><polygon class="cls-5" points="38.5 99.93 43.69 99.71 44.15 102.18 38.68 102.66 38.5 99.93"/><path d="m38.33,103.06l-.23-3.49,5.9-.25.59,3.2-6.26.54Zm.57-2.77l.13,1.96,4.67-.41-.32-1.74-4.48.19Z"/></g><g><polygon class="cls-5" points="47.22 99.39 52.63 99.17 52.8 101.63 47.55 102.11 47.22 99.39"/><path d="m47.22,102.52l-.42-3.49,6.18-.25.22,3.2-5.98.54Zm.42-2.77l.23,1.96,4.52-.41-.12-1.74-4.64.19Z"/></g><g><polygon class="cls-5" points="21.48 101.15 26.89 100.93 27.05 103.4 21.8 103.88 21.48 101.15"/><path d="m21.47,104.28l-.42-3.49,6.18-.25.22,3.2-5.98.54Zm.42-2.77l.23,1.96,4.52-.41-.12-1.74-4.64.19Z"/></g></g><g><polygon points="28.62 142.16 35.51 143.69 35.09 147.97 15.03 149.48 28.62 142.16"/><path d="m28.71,142.8l6.15,1.36-.32,3.24-16.74,1.26,10.91-5.87m-.18-1.27l-16.28,8.76,23.38-1.77.52-5.3-7.63-1.69h0Z"/></g><g><polygon points="42.85 147.4 42.57 143.6 50.36 142.17 60.31 149.43 42.85 147.4"/><path d="m50.22,142.8l7.9,5.77-14.71-1.71-.2-2.77,7.01-1.29m.29-1.27l-8.57,1.57.35,4.83,20.23,2.35-12-8.76h0Z"/></g></g><polygon class="cls-3" points="38.22 57.16 41.65 60.48 35.76 65.85 42.4 80.73 44.21 67.58 35.92 60.13 38.22 57.16"/><g><path class="cls-2" d="m30.01,44.88s-15.37,39.68-16.61,76.79l17.72-1.18,1.78-72.18-2.9-3.43Z"/><path d="m12.78,122.31l.02-.66c1.23-36.78,16.49-76.59,16.65-76.99l.37-.94,3.7,4.38v.23s-1.8,72.73-1.8,72.73l-18.93,1.26ZM30.22,46.05c-2.3,6.22-14.92,41.75-16.19,74.98l16.51-1.1,1.76-71.41-2.09-2.47Z"/></g><g><polyline class="cls-2" points="30.27 46.39 8.91 97.02 17.02 97.02 28.53 65.72"/><path d="m30.27,46.39c-5.07,14.76-14.8,36.25-20.81,50.87,0,0-.55-.83-.55-.83h8.12l-.56.39,5.75-15.65c1.52-4.51,4.44-11.01,6.32-15.44-.91,2.83-2.81,9.24-3.74,11.95-.95,2.52-6.16,16.72-7.2,19.56,0,0-.14.39-.14.39h-.42c-.45.01-8.84-.01-9.02,0,0,0,.35-.83.35-.83,6.32-14.57,14.84-36.4,21.92-50.4h0Z"/></g><g><path class="cls-1" d="m17.02,97.02s-1.09,8.18-5.51,10.06c-7.53,3.2-7.48,1.24-5.55.15,1.35-.77,3.28-1.74,3.28-1.74,0,0-6.57.5-6.52-.84.03-.83,4.17-1.39,4.17-1.39,0,0-5.46-1.21-5.38-1.88.21-1.78,5.59-.84,7.73-.05l-1.55-7.79,9.33,3.48Z"/><path d="m5.7,109.44c-.86,0-1.18-.3-1.33-.62-.32-.65.19-1.48,1.3-2.11.29-.17.62-.34.94-.52-1.67,0-3.51-.17-4.15-.78-.29-.28-.33-.58-.33-.78,0-.25.04-.87,1.98-1.43-3.31-.93-3.24-1.49-3.19-1.89.04-.32.2-.76.73-1.09,1.42-.87,4.81-.31,6.81.24l-1.56-7.85,10.79,4.02-.06.47c-.05.35-1.18,8.54-5.87,10.53-3.22,1.37-5.02,1.8-6.05,1.8Zm-.08-1.21c.52.02,2.01-.15,5.66-1.7,3.47-1.48,4.77-7.4,5.08-9.12l-7.86-2.93,1.54,7.78-1.01-.37c-1.92-.71-5.68-1.31-6.76-.65-.01,0-.03.02-.04.03.74.38,2.91.99,4.79,1.41l3.3.73-3.35.45c-1.43.19-2.87.54-3.46.82.8.3,3.24.4,5.68.22l3.02-.23-2.7,1.36s-1.93.97-3.25,1.72c-.3.17-.51.35-.64.48Z"/></g></g></g><g><g><polygon points="20.9 27.01 20.49 41.78 23.06 39.26 24.42 42.2 25.57 39.63 27.35 42.55 28.56 39.47 20.9 27.01"/><path d="m27.47,43.9l-1.81-2.98-1.23,2.73-1.55-3.37-3.03,2.97.52-18.27,8.86,14.43-1.76,4.49Zm-1.97-5.55l1.74,2.86.66-1.68-6.44-10.49-.32,11.27,2.13-2.08,1.16,2.52,1.08-2.4Z"/></g><g><path class="cls-4" d="m60.78,20.71C57.15,7.94,45.57.04,34.92,3.07c-7.89,2.24-13.05,9.85-13.73,18.83-.21-.06-.42-.12-.64-.15-2.34-.35-4.47.94-4.75,2.87s1.38,3.78,3.72,4.12c.7.1,1.38.05,2-.12.17,1.01.4,2.03.69,3.05,3.63,12.77,15.21,20.67,25.87,17.64,10.65-3.03,16.35-15.84,12.71-28.61Z"/><path d="m43.44,50.56c-9.45,0-18.64-7.54-21.82-18.72-.23-.8-.43-1.64-.59-2.51-.54.08-1.07.08-1.6,0-2.66-.39-4.56-2.55-4.23-4.8.17-1.11.84-2.08,1.89-2.71,1.02-.61,2.27-.85,3.54-.66,0,0,0,0,.01,0,.93-9.2,6.41-16.48,14.1-18.67,5.33-1.51,11.03-.46,16.07,2.97,5,3.41,8.74,8.76,10.54,15.08h0c3.72,13.07-2.17,26.24-13.13,29.35-1.58.45-3.19.67-4.79.67Zm-21.45-22.68l.11.65c.18,1.04.4,2.04.67,2.99,3.54,12.43,14.8,20.16,25.12,17.23,10.32-2.93,15.83-15.44,12.3-27.87h0c-1.72-6.04-5.29-11.16-10.06-14.41-4.74-3.23-10.08-4.23-15.06-2.81-7.4,2.1-12.62,9.29-13.29,18.3l-.06.73-.71-.2c-.18-.05-.37-.1-.56-.13-1-.15-1.97.03-2.75.5-.74.45-1.21,1.11-1.32,1.86-.24,1.6,1.21,3.14,3.21,3.44.58.08,1.17.05,1.76-.1l.63-.17Z"/></g><g><path d="m21.19,21.9l4.82,6.72s.54-13.55,2.38-15.56,19.4-5.9,26.14-3.62c0,0-3.13-4.94-8.43-6.41-7.63-2.11-23.53-1.53-24.91,18.86Z"/><path d="m26.54,30.39l-5.96-8.32v-.22c.55-7.85,3.23-13.55,8-16.92,5.51-3.91,12.75-3.84,17.68-2.47,5.46,1.51,8.64,6.46,8.78,6.67l.91,1.44-1.61-.55c-6.77-2.3-23.96,1.77-25.5,3.45-1.23,1.35-2.02,10.02-2.23,15.18l-.07,1.74Zm-4.73-8.67l3.69,5.15c.22-3.85.87-12.49,2.46-14.21,1.94-2.12,17.27-5.59,25.07-4.2-1.28-1.52-3.75-3.92-7.08-4.84-4.67-1.29-11.5-1.37-16.67,2.3-4.41,3.13-6.93,8.45-7.47,15.81Z"/></g><g><ellipse cx="17.41" cy="6.76" rx="6.48" ry="5.05" transform="translate(2.85 18.46) rotate(-60)"/><path d="m16.23,13.51c-.83,0-1.63-.2-2.36-.62-2.7-1.56-3.3-5.58-1.35-8.96.93-1.62,2.31-2.85,3.87-3.49,1.61-.65,3.23-.59,4.56.18,1.33.77,2.2,2.14,2.43,3.87.23,1.67-.16,3.48-1.09,5.09h0c-1.43,2.47-3.83,3.93-6.07,3.93Zm2.35-12.31c-.56,0-1.15.12-1.74.36-1.31.53-2.48,1.59-3.28,2.98-1.62,2.81-1.22,6.09.91,7.32,2.13,1.23,5.17-.07,6.79-2.87h0c.8-1.38,1.13-2.92.94-4.33-.19-1.35-.84-2.41-1.85-2.99-.53-.31-1.14-.46-1.77-.46Z"/></g><g><g><g><path class="cls-4" d="m39.1,41.52c4.27,4.29,10.81,1.33,10.81,1.33l-4.09-3.79,8.18-1.07-1.28-12.36"/><path d="m45.02,44.46c-2.06,0-4.4-.56-6.35-2.51l.85-.85c3.04,3.06,7.41,2.12,9.26,1.53l-4.31-3.99,8.87-1.16-1.22-11.78,1.19-.12,1.34,12.94-7.49.98,3.81,3.53-.82.37c-.16.07-2.4,1.06-5.13,1.06Z"/></g><g><path class="cls-4" d="m36.59,42.63s1.79-.3,2.5-1.11.61-2.54.61-2.54"/><path d="m36.69,43.22l-.2-1.18c.61-.1,1.74-.44,2.15-.92.46-.52.48-1.72.46-2.1l1.2-.08c.01.2.11,2-.75,2.98-.83.95-2.65,1.27-2.86,1.31Z"/></g></g><g><g><ellipse class="cls-2" cx="43.5" cy="26.05" rx="5.97" ry="4.82" transform="translate(11.37 65.28) rotate(-81.6)"/><path d="m43.21,32.6c-.22,0-.45-.02-.67-.05-1.46-.21-2.72-1.11-3.54-2.52-.81-1.37-1.11-3.06-.86-4.77.25-1.71,1.03-3.25,2.2-4.32,1.2-1.11,2.66-1.6,4.12-1.38,1.46.21,2.71,1.11,3.54,2.52.81,1.37,1.11,3.06.86,4.77-.25,1.71-1.03,3.25-2.2,4.32-1.02.94-2.22,1.43-3.45,1.43Zm.58-11.89c-.93,0-1.85.39-2.64,1.12-.96.89-1.61,2.17-1.83,3.61-.21,1.44.04,2.86.7,3.99.64,1.09,1.6,1.78,2.69,1.94,1.09.16,2.2-.22,3.13-1.08.96-.89,1.61-2.17,1.83-3.62.21-1.44-.04-2.86-.7-3.99-.64-1.09-1.6-1.78-2.69-1.94-.16-.02-.33-.04-.49-.04Z"/></g><g><path class="cls-4" d="m39.28,23.45l8.01-1.38c-.7-1.03-1.72-1.75-2.92-1.93-2.09-.31-4.1,1.09-5.09,3.31Z"/><path d="m38.45,24.1l.38-.86c1.11-2.48,3.37-3.92,5.62-3.6,1.29.19,2.45.95,3.26,2.14l.44.64-9.7,1.67Zm5.36-3.5c-1.37,0-2.7.82-3.59,2.18l6.15-1.06c-.58-.59-1.3-.97-2.06-1.08-.17-.02-.33-.04-.5-.04Z"/></g><ellipse cx="45.29" cy="26.32" rx="1.57" ry="3.06" transform="translate(-3.85 8.19) rotate(-9.91)"/></g><g><g><ellipse class="cls-2" cx="56.8" cy="25.63" rx="4.06" ry="5.97" transform="translate(-3.56 10.16) rotate(-9.91)"/><path d="m57.36,32.15c-2.33,0-4.57-2.42-5.14-5.72-.29-1.69-.12-3.36.49-4.71.65-1.43,1.7-2.34,2.97-2.56,2.54-.45,5.1,2.1,5.72,5.67h0c.62,3.57-.93,6.83-3.46,7.27-.19.03-.38.05-.58.05Zm-1.09-11.84c-.13,0-.26.01-.39.03-.87.15-1.61.82-2.08,1.87-.51,1.13-.65,2.56-.4,4.01.51,2.92,2.45,5.02,4.33,4.69,1.88-.33,2.99-2.97,2.48-5.88h0c-.47-2.71-2.19-4.73-3.94-4.73Z"/></g><g><path class="cls-4" d="m53.28,21.91l7.01,1.23c-.93-2.26-2.73-3.7-4.51-3.39-1.09.19-1.96,1-2.5,2.16Z"/><path d="m61.09,23.79l-8.54-1.5.28-.59c.63-1.36,1.65-2.23,2.87-2.44,1.97-.35,4,1.14,5.06,3.69l.35.84Zm-7.04-2.25l5.35.94c-.91-1.58-2.25-2.46-3.54-2.24-.71.12-1.33.58-1.81,1.3Z"/></g><ellipse cx="57.92" cy="26.03" rx="1.57" ry="3.06" transform="translate(-3.62 10.36) rotate(-9.91)"/></g><path d="m37.17,20.1s4.8-1.03,6.82-1.46,1.58-2.73-.49-2.29-6.33,3.75-6.33,3.75Z"/><path d="m60.42,18.88s-4.26-.63-6.06-.89-1.54-2.31.3-2.03,5.76,2.93,5.76,2.93Z"/><g><rect x="47.92" y="47.65" width="1.2" height="4.84" transform="translate(-15.75 23.04) rotate(-23.09)"/><rect x="52.94" y="45.19" width="1.2" height="4.75" transform="translate(-17.15 36.08) rotate(-32.39)"/><rect x="50.6" y="46.4" width="1.2" height="5.51" transform="translate(-19.43 42.14) rotate(-38.16)"/></g></g></g></g></g></svg>