<?xml version="1.0" encoding="UTF-8"?><svg id="Livello_2" xmlns="http://www.w3.org/2000/svg" viewBox="0 0 192.03 215.04"><defs><style>.cls-1{stroke-width:.75px;}.cls-1,.cls-2{stroke-miterlimit:10;}.cls-1,.cls-2,.cls-3{stroke:#fff;}.cls-4,.cls-3{fill:#fff;}.cls-3{stroke-miterlimit:12;stroke-width:2px;}</style></defs><g id="youngLaser"><g id="youngLaserB"><polygon points="56.59 64.5 43.81 35.69 72.29 46.56 67.66 15.52 86.72 33.25 86.72 16.85 99.21 27.93 116.82 0 122.45 39.02 138.35 29.26 133.11 51.55 146.8 50.28 141.26 68.25 152.39 65.17 155.95 75.38 164.32 71.27 168.98 78.8 181.9 77.64 173.85 89.1 191.14 104.11 171.85 106.2 180.9 133.28 150.64 129.81 169.93 142.32 152.32 155.32 171.63 153.8 169.76 162.9 183.82 160.54 175.4 171.29 192.03 178.98 172.96 182.9 184.49 203.29 168.53 195.76 157.91 215.04 148.13 195.76 124.19 211.27 122.45 187.66 114.33 205.51 96.14 191.77 89.67 210.83 75.96 204.18 64.57 215.04 60.23 201.08 38.39 203.07 47.61 192.43 27.09 182.9 43.42 180.63 35.46 159.1 57.9 163.09 47.61 142.26 66.1 134.89 52.55 127.65 53.5 117.99 40 123.27 39.66 112.82 19.77 119.19 29.52 102.66 0 93.06 27.97 85.85 18.88 60.6 46.39 73.58 46.38 61.48 56.59 64.5"/><g><path class="cls-3" d="m157.23,93.68s23.46-5.94-2.35-2.33c0,0,17.87-18.13-3.09-1.35,0,0-5.77-16.34-2.69.71l-7.15.96.99,2.43-32.97,8.58c-.29-.61-.83-2.08-.83-2.08l-.9-3.54,10.01-3.68c.74-26.43-8.07-51.98-10.57-58.65l3.58-4.76-13.39,8.63-19.79,12.03,10.27,23.99c-.7.06-1.46.26-2.21.6-2.23,1.01-3.54,2.92-2.93,4.26.61,1.34,2.91,1.6,5.14.58.71-.32,1.33-.74,1.82-1.2l11.1,24.32s-.12-1.12-.28-.57l-40.37-7.05.95-2.34-7.15-.96c3.08-17.04-2.69-.71-2.69-.71-20.96-16.78-3.09,1.35-3.09,1.35-25.81-3.62-2.35,2.33-2.35,2.33-25.38,4.11,2.9,2.73,2.9,2.73-17.54,12.18,3.39,1.23,3.39,1.23l5.22,3.34.97-2.39,40.47,8.96c-2.67,10.31-7.26,30.17-9.1,50.93l-22.45,25.43-12.99-2.29,12.33,10.51,28.13-21.86,16.19-2.44h0l9.3-.9,35.73,16.33,5.99-15.45-8.13,6.99-30.25-19.88c-1.68-20.91-7.58-38.34-11.31-47.58l32.23-9.97.85,2.09,5.22-3.34s20.93,10.95,3.39-1.23c0,0,28.28,1.39,2.9-2.73Z"/><g><path d="m101.69,95.21l14.61-5.16-7.3-15.03s5.8-2.68,4.32-13.78c-1.48-11.1-3.31-22.24-19.33-16.58-14.59,5.16-7.91,18.45-6.61,22.27,1.97,5.79,7.39,12.94,11.01,11.53l3.3,16.75Z"/><polygon class="cls-4" points="87.64 56.24 89.89 58.5 96.27 49.86 94.58 48.17 87.64 56.24"/><polygon class="cls-4" points="96.9 48.5 96.82 46.52 107.93 48.81 106.94 52.37 96.9 48.5"/><ellipse class="cls-4" cx="96.82" cy="64.83" rx="4.89" ry="8.89" transform="translate(-6.57 11.09) rotate(-6.34)"/><ellipse class="cls-4" cx="106.46" cy="60.61" rx="3.97" ry="7.21" transform="translate(-15.62 50.41) rotate(-24.88)"/><polygon class="cls-4" points="105.03 80.54 105.03 75 108.69 79.21 105.03 80.54"/><path class="cls-2" d="m103.03,93s1.13-8.56,3.84-9.81,7.03,4.9,7.03,4.9l-10.86,4.9Z"/><line class="cls-1" x1="103.97" y1="88.41" x2="111.79" y2="85.58"/><line class="cls-1" x1="106.12" y1="83.75" x2="107.43" y2="91.01"/><line class="cls-1" x1="107.88" y1="83.02" x2="111.4" y2="89.22"/><polygon points="101.82 97.71 101.82 100.26 106.06 98.99 105.75 96.71 101.82 97.71"/><polygon points="102.76 101.6 102.76 103.75 107.3 102.67 106.62 100.26 102.76 101.6"/><ellipse cx="76.19" cy="100.67" rx="1.32" ry=".94" transform="translate(-40.13 51.58) rotate(-30)"/><ellipse cx="130.2" cy="100.26" rx="1.05" ry="1.46" transform="translate(-11.75 183.05) rotate(-67.85)"/><path d="m79.35,102.23l.61-1.56,14.21,3.16s2.53-2,3.85-1.3c1.53.81.72,2.49-1.28,2.33,0,0,1.98,1.56.11,2.47-1.36.67-3.12-.59-3.67-2.04l-13.84-3.07Z"/><path d="m126.48,100.55l.23,1.66-12.4,3.83s-.72,2.44-2.22,2.48c-1.74.05-2.17-2.1-.36-2.94,0,0-2.38-.35-1.2-2.06.86-1.25,2.39-.46,3.58.54l12.36-3.5Z"/><polygon points="72.26 100.55 72.52 98.86 57.17 95.83 57.09 97.14 72.26 100.55"/><polygon points="51.09 93.28 50.15 96.57 53.65 97.76 55.42 92.94 51.09 93.28"/><polygon points="52.58 90.98 54.01 86.1 54.88 86.8 53.78 91.24 52.58 90.98"/><polygon points="48.56 91.95 43.66 87.04 44.51 86.39 49.58 91.19 48.56 91.95"/><polygon points="40.24 93.1 40.24 92.28 47.84 93.3 47.28 94.67 40.24 93.1"/><polygon points="39.9 97.76 39.9 96.85 46.86 96.03 47.42 97.16 39.9 97.76"/><polygon points="45.21 101.24 45.78 101.89 49.62 99.3 49.03 98.19 45.21 101.24"/><polygon points="133.34 98.49 147.14 94.16 148.36 95.35 134.06 100.26 133.34 98.49"/><polygon points="148.97 92.38 150.8 96.38 153.46 95.25 152.69 91.96 148.97 92.38"/><polygon points="149.97 89.99 148.97 85.87 149.6 85.57 151.05 90.07 149.97 89.99"/><polygon points="153.34 89.94 157.72 85.74 158.53 86.1 154.29 90.48 153.34 89.94"/><polygon points="156.18 91.61 162.54 90.76 163.15 91.61 156.41 92.76 156.18 91.61"/><polygon points="156.5 95.37 156.76 94.16 163.07 95.23 163.26 96.29 156.5 95.37"/><polygon points="153.34 97.75 154.25 97 158.14 99.41 157.51 99.97 153.34 97.75"/><g><path d="m120.61,155.84l-24.99,2.17s-1.45,5.43,3.27,5.06,8.59-5.28,8.59-5.28c0,0,4.72,4.16,11.01,3.85s2.12-5.81,2.12-5.81Z"/><path class="cls-4" d="m119.8,156.99l-8.01.72s2.81,2.55,5.06,2.16,2.94-2.88,2.94-2.88Z"/><path class="cls-4" d="m96.37,158.85l6.94-.42s-1.97,2.91-3.96,2.85-2.98-2.43-2.98-2.43Z"/></g><polygon points="106.9 111.35 109.17 110.71 110.48 112.4 107.04 113.07 106.9 111.35"/><polygon points="105.58 113.3 105.68 111.49 102.8 111.35 101.4 113.5 105.58 113.3"/><polygon points="105.66 114.93 105.75 116.97 99.44 117.2 100.06 114.98 105.66 114.93"/><polygon points="107.2 115.04 107.25 117.08 113.22 116.88 112.76 114.69 107.2 115.04"/><polygon points="98.93 118.84 105.84 118.87 105.95 121.16 98.81 121 98.93 118.84"/><polygon points="98.24 122.64 106.03 122.85 106.14 125.36 97.86 124.95 98.24 122.64"/><polygon points="106.21 126.83 106.34 128.87 97.43 128.88 97.53 126.89 106.21 126.83"/><polygon points="106.4 130.76 106.29 132.78 97 132.56 97.13 130.29 106.4 130.76"/><polygon points="97.32 137.14 97.09 135.02 106.34 134.93 104.59 137.17 97.32 137.14"/><polygon points="107.49 118.76 107.66 120.89 114.56 120.49 114.18 118.22 107.49 118.76"/><polygon points="107.85 123.22 108.03 125.54 115.84 125.13 115.39 122.72 107.85 123.22"/><polygon points="108.17 127.2 108.34 129.35 117.05 129.13 116.76 127.01 108.17 127.2"/><polygon points="108.48 131.14 108.38 133.02 117.82 132.91 117.41 130.54 108.48 131.14"/><polygon points="109.5 134.76 111.47 136.76 118.11 136.34 118.07 134.26 109.5 134.76"/><polygon points="104.97 140.7 111.34 140.15 111.73 143.03 104.97 143.47 104.97 140.7"/><polygon points="104.03 147.84 104.03 145.18 110.79 145.18 110.84 148.29 104.03 147.84"/><polygon points="104.77 153.66 104.77 150.2 111.4 150.2 111.4 152.96 104.77 153.66"/><path d="m95.42,156.38s-6.03-13.64,7.34-5.49l-.76,2.11s-3.67-2.93-5-1.1.42,4.49.42,4.49h-2.01Z"/><path d="m118.4,154.38h2.32s4.77-5.77-.58-5.35c-4.61.36-6.33,2.9-6.33,2.9l1.06,1.73s3.37-4.44,4.91-3.27-1.37,3.99-1.37,3.99Z"/><polygon points="60.46 185.56 66.45 191.54 69.88 189.1 60.46 185.56"/><polygon points="151.91 180.9 155.52 181.9 157.47 175.14 151.91 180.9"/><ellipse cx="81.91" cy="175.36" rx="1.66" ry="1.27"/><ellipse cx="136.48" cy="169.91" rx="1.37" ry="1.05" transform="translate(-77.5 128.59) rotate(-40.3)"/><path d="m83.79,172.14l7.15-6.04s-1.39-1.77,1.11-2.66,1.11,2.49,1.11,2.49c0,0,2.53-2.04,2.83-.06.38,2.56-3.55,1.5-3.55,1.5l-6.93,6.21-1.72-1.44Z"/><path d="m134.54,167.37l-8.1-4.08s.81-2.05-1.7-2.3-.37,2.68-.37,2.68c0,0-2.84-1.35-2.6.64.32,2.56,3.63.57,3.63.57l7.94,4.29,1.2-1.81Z"/><path d="m78.64,176.88l1.61,1.39-7.32,7.37s1.05,1.94-.83,2.72c-1.13.47-.67-1.88-.67-1.88,0,0-2.38.78-2.11-.61.45-2.27,2.05-1,2.05-1l7.26-7.98Z"/><path d="m139.46,170.26l-.87,1.92,9.19,4.92s-.18,2.29,1.76,2.43c1.17.09-.14-2.1-.14-2.1,0,0,2.37-.02,1.6-1.31-1.26-2.11-2.17-.31-2.17-.31l-9.37-5.54Z"/><polygon class="cls-4" points="86.95 69.83 81.91 74.66 79.35 71.99 86.4 68.28 86.95 69.83"/></g></g></g></g></svg>