<?xml version="1.0" encoding="UTF-8"?><svg id="Livello_2" xmlns="http://www.w3.org/2000/svg" xmlns:xlink="http://www.w3.org/1999/xlink" viewBox="0 0 2407.52 1400.85"><defs><style>.cls-1,.cls-2,.cls-3,.cls-4,.cls-5,.cls-6,.cls-7,.cls-8,.cls-9,.cls-10,.cls-11,.cls-12,.cls-13,.cls-14{fill:none;}.cls-2{stroke-width:3px;}.cls-2,.cls-3,.cls-4,.cls-5,.cls-6,.cls-7,.cls-8,.cls-9,.cls-10,.cls-11,.cls-12,.cls-13,.cls-14{stroke-miterlimit:10;}.cls-2,.cls-4,.cls-5,.cls-7,.cls-8,.cls-9,.cls-10,.cls-11,.cls-12,.cls-13,.cls-14{stroke:#223199;}.cls-3{stroke:#5b3bb2;stroke-width:6px;}.cls-15{clip-path:url(#clippath);}.cls-16{fill:#818eea;}.cls-17{fill:#6b4ec6;}.cls-18{fill:#9ea8f4;}.cls-19{fill:#915fe0;}.cls-20{fill:#b0baff;}.cls-21{fill:#c46dff;}.cls-22{fill:#3f2189;}.cls-23{fill:#6f77eb;}.cls-24{fill:#525ddd;}.cls-4{stroke-width:3.09px;}.cls-5{stroke-width:9.59px;}.cls-6{stroke:#b871f7;stroke-width:5px;}.cls-25{clip-path:url(#clippath-1);}.cls-26{clip-path:url(#clippath-4);}.cls-27{clip-path:url(#clippath-3);}.cls-28{clip-path:url(#clippath-2);}.cls-29{clip-path:url(#clippath-6);}.cls-30{clip-path:url(#clippath-5);}.cls-7{stroke-width:1.37px;}.cls-8{stroke-width:1.02px;}.cls-9{stroke-width:3.97px;}.cls-10{stroke-width:3.36px;}.cls-11{stroke-width:2.36px;}.cls-12{stroke-width:5.57px;}.cls-13{stroke-width:1.88px;}.cls-14{stroke-width:1.95px;}</style><clipPath id="clippath"><rect class="cls-1" x="319.93" y="183.66" width="1920" height="1079.75"/></clipPath><clipPath id="clippath-1"><path class="cls-1" d="m270.29,1177.95s161.72-157.08,1009.65-157.08,1041.47,145.11,1041.47,145.11l7.98,159.62-2047.12-25.94-11.97-121.71Z"/></clipPath><clipPath id="clippath-2"><rect class="cls-1" x="95.74" y="1020.78" width="2173.23" height="380.07"/></clipPath><clipPath id="clippath-3"><path class="cls-1" d="m884.26,572.81s-281.99,721-585.03-55.19v-41.86s147.75,341.98,317.24,361.41c113.01,12.96,267.79-264.36,267.79-264.36Z"/></clipPath><clipPath id="clippath-4"><polygon class="cls-1" points="1660.16 331.83 2076.65 376.53 2152.47 77.24 2038.08 62.61 1996.94 267.24 1672.48 231.54 1660.16 331.83"/></clipPath><clipPath id="clippath-5"><path class="cls-1" d="m1387.24,0s201.7,1371.72,930.32,914.75l-2.58-158.24S1760.65,1394.73,1387.24,0Z"/></clipPath><clipPath id="clippath-6"><path class="cls-1" d="m828.5,469.62l-304.61,33.27,44.97-202.18-163.36-218.81,135.68-56.53,154.3,247.41-29.69,109.07,181.33-15.96s39.9,43.86-18.62,103.74Z"/></clipPath></defs><g id="lab3export"><g id="BKG3Main"><g class="cls-15"><g><rect class="cls-22" x="282.26" y="142.42" width="1986.71" height="1095.39"/><g><polygon class="cls-17" points="818.9 78.57 231.96 534.3 246.35 605.05 818.9 78.57"/><path class="cls-17" d="m525.43,1141.94s97.29-541.9,456.8-1034.66h0s-372.74,601.82-384.72,1046.73l-72.08-12.07Z"/><path class="cls-17" d="m1732.34,78.57s435.43,213.32,648.92,421.41l-17.96,30.16L1732.34,78.57Z"/><path class="cls-17" d="m1529.29,116.03s418.53,561.46,527.51,1026.75l49.12-27.89s-119.71-432.84-576.63-998.86Z"/><path class="cls-17" d="m982.23,1129.45s-11.61-297.58,195.9-1013.43c0,0-147.65,609.32-153.63,1026.75l-42.27-13.33Z"/><path class="cls-17" d="m1320.79,116.03s232.45,622.21,218.48,1013.43l35.91-26.61s21.95-312.58-254.39-986.81Z"/></g><g class="cls-25"><g><rect class="cls-17" y="1020.87" width="2407.52" height="357.84"/><g class="cls-28"><g><line class="cls-3" x1="95.74" y1="1337.66" x2="1297.56" y2="768.85"/><line class="cls-3" x1="59.94" y1="1141.84" x2="1367.61" y2="775.34"/><line class="cls-3" x1="673.56" y1="1315.51" x2="1316.24" y2="760.51"/><line class="cls-3" x1="1165.23" y1="1302.69" x2="1258.64" y2="758.55"/><line class="cls-3" x1="1173.11" y1="768.85" x2="1546.64" y2="1286.37"/><line class="cls-3" x1="1338.03" y1="775.34" x2="1939.33" y2="1286.37"/><line class="cls-3" x1="1199.49" y1="798.84" x2="2316.24" y2="1189.77"/><line class="cls-3" x1="173.58" y1="1053.26" x2="2382.62" y2="1064.91"/><line class="cls-3" x1="184.48" y1="1133.68" x2="2343.7" y2="1124.36"/><line class="cls-3" x1="2349.92" y1="1200.12" x2="59.94" y2="1200.12"/></g></g></g></g></g><g><g><path class="cls-20" d="m884.26,572.81s-281.99,721-585.03-55.19v-41.86s147.75,341.98,317.24,361.41c113.01,12.96,267.79-264.36,267.79-264.36Z"/><path class="cls-24" d="m299.23,517.62v-23.81s266.36,759.55,585.03,79c0,0-276.75,695.3-585.03-55.19Z"/><g class="cls-27"><g><g><line class="cls-2" x1="306.88" y1="611.84" x2="383.34" y2="562.35"/><line class="cls-2" x1="311.23" y1="622.03" x2="387.68" y2="572.54"/><line class="cls-2" x1="315.57" y1="632.22" x2="392.03" y2="582.73"/></g><g><line class="cls-9" x1="416.3" y1="790.13" x2="497.92" y2="701.45"/><line class="cls-9" x1="425.24" y1="801.75" x2="506.86" y2="713.07"/><line class="cls-9" x1="434.17" y1="813.38" x2="515.79" y2="724.7"/></g><g><line class="cls-2" x1="640.51" y1="897.72" x2="622.71" y2="808.4"/><line class="cls-2" x1="651.59" y1="897.44" x2="633.79" y2="808.12"/><line class="cls-2" x1="662.66" y1="897.16" x2="644.86" y2="807.84"/></g><g><line class="cls-14" x1="770.48" y1="798.83" x2="726.01" y2="759.97"/><line class="cls-14" x1="776.06" y1="794.31" x2="731.59" y2="755.44"/><line class="cls-14" x1="781.64" y1="789.78" x2="737.18" y2="750.92"/></g><g><line class="cls-7" x1="830.62" y1="704.21" x2="799.32" y2="676.85"/><line class="cls-7" x1="834.55" y1="701.02" x2="803.25" y2="673.66"/><line class="cls-7" x1="838.47" y1="697.84" x2="807.18" y2="670.48"/></g></g></g></g><g><polygon class="cls-20" points="1660.16 331.83 2076.65 376.53 2152.47 77.24 2038.08 62.61 1996.94 267.24 1672.48 231.54 1660.16 331.83"/><polygon class="cls-24" points="1754.88 325.31 2023.45 351.92 2075.32 62.61 2048.72 48.64 2002.16 321.32 1754.88 290.73 1754.88 325.31"/><g class="cls-26"><g><line class="cls-9" x1="1826.41" y1="234.2" x2="1826.41" y2="371.87"/><line class="cls-9" x1="1865.53" y1="364.89" x2="1891.43" y2="234.2"/><line class="cls-9" x1="1939.31" y1="246.17" x2="1939.31" y2="383.84"/><line class="cls-9" x1="1995.18" y1="376.53" x2="1985.2" y2="234.2"/><line class="cls-9" x1="2105.92" y1="323.98" x2="1974.23" y2="246.17"/><line class="cls-9" x1="2133.85" y1="246.17" x2="1974.23" y2="215.24"/><line class="cls-9" x1="1990.19" y1="163.37" x2="2152.47" y2="200.28"/></g></g></g><g><polygon class="cls-19" points="787.05 542.18 733.46 107.28 1826.41 125.79 1733.74 568.73 787.05 542.18"/><path class="cls-16" d="m765.45,622.74s190.5,202.98,977.12,0l-8.82-54-835.34-38.6-132.95,92.6Z"/><path class="cls-18" d="m765.45,622.74l-1.4-92.6s634.19-151.52,990.82,12.04l-12.31,80.56s-352.58-148.98-977.12,0Z"/></g><g><path class="cls-20" d="m1387.24,0s201.7,1371.72,930.32,914.75l-2.58-158.24S1760.65,1394.73,1387.24,0Z"/><path class="cls-24" d="m1387.24,0s211.34,1361.95,930.32,893.67v-59.66S1686.58,1395.04,1387.24,0Z"/><g class="cls-30"><g><g><line class="cls-10" x1="1549.91" y1="613.19" x2="1629.08" y2="553.11"/><line class="cls-10" x1="1554.41" y1="625.56" x2="1633.58" y2="565.48"/><line class="cls-10" x1="1558.91" y1="637.93" x2="1638.08" y2="577.85"/></g><g><line class="cls-12" x1="1703.88" y1="879.96" x2="1797.77" y2="733.67"/><line class="cls-12" x1="1716.89" y1="896.2" x2="1810.78" y2="749.9"/><line class="cls-12" x1="1729.9" y1="912.43" x2="1823.79" y2="766.13"/></g><g><line class="cls-5" x1="2118.24" y1="1076.27" x2="2033.85" y2="776.96"/><line class="cls-5" x1="2150.6" y1="1070.63" x2="2066.21" y2="771.31"/><line class="cls-5" x1="2182.96" y1="1064.98" x2="2098.57" y2="765.66"/></g><g><line class="cls-4" x1="1476.51" y1="423.94" x2="1554.08" y2="378.34"/><line class="cls-4" x1="1479.56" y1="435.78" x2="1557.13" y2="390.19"/><line class="cls-4" x1="1482.61" y1="447.63" x2="1560.18" y2="402.04"/></g><g><line class="cls-11" x1="1435.44" y1="287.67" x2="1497.38" y2="260.58"/><line class="cls-11" x1="1436.93" y1="296.94" x2="1498.86" y2="269.85"/><line class="cls-11" x1="1438.41" y1="306.21" x2="1500.35" y2="279.11"/></g><g><line class="cls-13" x1="1407.11" y1="180.4" x2="1455.96" y2="157.51"/><line class="cls-13" x1="1408.43" y1="187.74" x2="1457.29" y2="164.85"/><line class="cls-13" x1="1409.76" y1="195.08" x2="1458.62" y2="172.19"/></g><g><line class="cls-8" x1="1395.73" y1="102.23" x2="1422.83" y2="92.02"/><line class="cls-8" x1="1396.21" y1="106.26" x2="1423.32" y2="96.04"/><line class="cls-8" x1="1396.69" y1="110.28" x2="1423.8" y2="100.07"/></g></g></g></g><g><path class="cls-20" d="m828.5,469.62l-304.61,33.27,44.97-202.18-163.36-218.81,135.68-56.53,154.3,247.41-29.69,109.07,181.33-15.96s39.9,43.86-18.62,103.74Z"/><g class="cls-29"><polygon class="cls-24" points="424.88 73.82 591.74 304.35 544.3 482.62 878.17 450.35 888.82 423.39 591.74 446.36 621.45 292.06 424.88 73.82"/><g><line class="cls-9" x1="481.79" y1="241.51" x2="654.71" y2="142.42"/><line class="cls-9" x1="534.99" y1="329.31" x2="725.21" y2="338.01"/><line class="cls-9" x1="618.79" y1="515.53" x2="689.29" y2="362.56"/><line class="cls-9" x1="746.49" y1="362.56" x2="733.46" y2="530.14"/><line class="cls-9" x1="791.71" y1="493.82" x2="824.97" y2="289.4"/><line class="cls-9" x1="534.99" y1="289.4" x2="733.46" y2="219.57"/></g></g></g><path class="cls-6" d="m783.73,304.35c-47.89,20.96-78.48,68.85-102.42,118.06-23.94,49.22-8.83,123.71-58.95,146.32-50.12,22.61-57.53-28.5-34.89-30.48,31.45-2.74-15.7,75.32-85.74,30.48-70.03-44.84-54.87-74.92-23.94-74.92s25.27,24.37,5.42,30.05c-31.13,8.91-63.54-33.62-77.71-78.84-14.17-45.23,50.6-31.92,32.39,6.65-18.22,38.57-99.76-36.93-98.43-96.28,1.33-59.35,73.16,1.84,29.26,21.13-43.9,19.29-105.08-112.4-105.08-112.4"/><path class="cls-21" d="m1742.57,428.63l559.88-5.24-4.99,79.5-565.12-36.67s-18.92-27.72,10.23-37.59Z"/><g><polygon class="cls-18" points="1262.59 727.02 1272.61 814.82 1290.7 812.15 1298.51 720.37 1262.59 727.02"/><path class="cls-18" d="m1272.61,814.82s-5.8-.67-5.14,3.77,27.27.67,27.27-3.77-4.03-2.66-4.03-2.66l-18.1,2.66Z"/><polygon class="cls-19" points="1311.73 682.84 1379.41 683.28 1372.98 654.33 1396.98 650.67 1395.31 697.1 1313.9 697.07 1311.73 682.84"/><polygon class="cls-19" points="1230.34 696.43 1173.8 700.75 1160.5 641.23 1174.8 641.23 1184.78 683.13 1233.33 685.79 1230.34 696.43"/><path class="cls-23" d="m1242.2,652.98s-52.88,79.36,37.97,81.36c90.85,2,41.48-81.36,41.48-81.36h-79.45Z"/><polygon class="cls-18" points="1229.63 654.96 1226.9 629.4 1342.79 629.4 1335.14 657.9 1229.63 654.96"/></g></g></g></g></g></svg>