<?xml version="1.0" encoding="UTF-8"?><svg id="Livello_2" xmlns="http://www.w3.org/2000/svg" viewBox="0 0 653.85 81.14"><defs><style>.cls-1{fill:#818eea;}.cls-2{fill:none;stroke:#444fd3;stroke-miterlimit:10;stroke-width:2px;}</style></defs><g id="lab3export"><g id="BKG3Door"><path class="cls-1" d="m359.36,1.9l-17.37,16.63,6.36,11.83-22.95,23.28-24.09,3.85-22.06,21.13c15.24.66,30.81,1.2,46.65,1.61,180.55,4.68,327.38-9.29,327.95-31.2.53-20.62-128.72-40.93-294.49-47.14Z"/><path class="cls-1" d="m325.4,53.64l22.95-23.28-6.36-11.83,17.37-16.63c-10.34-.39-20.81-.72-31.41-1C147.4-3.77.57,10.2,0,32.1c-.52,19.99,120.87,39.67,279.25,46.52l22.06-21.13,24.09-3.85Z"/><path class="cls-2" d="m279.25,78.63l22.06-21.13,24.09-3.85,22.95-23.28-6.36-11.83,17.37-16.63"/></g></g></svg>