<?xml version="1.0" encoding="UTF-8"?><svg id="Livello_2" xmlns="http://www.w3.org/2000/svg" xmlns:xlink="http://www.w3.org/1999/xlink" viewBox="0 0 42.57 53.71"><defs><style>.cls-1{fill:none;}.cls-2{clip-path:url(#clippath);}.cls-3{fill:#fff;}.cls-4{fill:#ffe100;}.cls-5{fill:#fff099;}.cls-6{fill:#8c6239;}.cls-7{fill:#9ea8f4;}.cls-8{fill:#444fd3;}.cls-9{fill:#2a389e;}.cls-10{clip-path:url(#clippath-1);}</style><clipPath id="clippath"><ellipse class="cls-1" cx="17.4" cy="16.6" rx="3.92" ry="3.04" transform="translate(-2.88 3.67) rotate(-11.14)"/></clipPath><clipPath id="clippath-1"><ellipse class="cls-1" cx="25.8" cy="16.27" rx="3.04" ry="3.92" transform="translate(5.31 38.87) rotate(-80.06)"/></clipPath></defs><g id="lab3export"><g id="BKG3Bot1A"><polygon class="cls-9" points="17.99 31.17 32.67 32.39 33.44 29.28 17.94 27.24 17.99 31.17"/><path class="cls-9" d="m18.12,48.06c-2.85-.23-6.9,1.04-5.22-7.51s25.83,9.18,5.22,7.51Z"/><path class="cls-4" d="m11.61,33.07l-2.62-.21s2.62-3.2-1.36-3.37c-5.04-.22-3.37,3.96-.92,4.04.09,0,.16,0,.23,0-.13,0-.23,0-.23,0-2.79-.03-3.38,3.92,0,3.73,3.38-.19,2.61-2.59,2.61-2.59l2.3-.1v-1.49Zm-4.39,2.79c-.73.27-1.45.12-1.62-.34s.28-1.04,1.01-1.31,1.45-.12,1.62.34-.29,1.04-1.01,1.31Zm.52-2.3c.08,0,.06,0,0,0h0Zm-.52-1.2c-.73.27-1.45.12-1.62-.34s.28-1.04,1.01-1.31,1.45-.12,1.62.34c.17.46-.29,1.04-1.01,1.31Z"/><polygon class="cls-7" points="11.44 41.79 10.93 28.18 22.63 27.24 21.34 43.19 11.44 41.79"/><polygon class="cls-7" points="8.9 28.24 27.2 27.59 27.2 10.05 7.62 10.05 8.9 28.24"/><g><path class="cls-3" d="m11.7,12.53s-1.45.49-1.82-1.09.91-1.4.91-1.4c0,0-1.13.36-.98-1.18s1.12-.74,1.12-.74c0,0-1.55-.75-.43-2s1.5,0,1.5,0c0,0-.67-1.04,1-1.75s1.7.05,1.7.05c0,0-.87-1.01.87-1.47s1.34.79,1.34.79c0,0,.09-.99,1.64-.89s.9,1.2.9,1.2c0,0,.19-1.23,1.56-.36s.27,1.52.27,1.52c0,0,.65-.77,1.56.19s-.22,1.87-.22,1.87c0,0,1.42-.67,2.34.62s-.86,1.75-.86,1.75"/><g><path d="m11.93,11.97c-.33-.57-1-1.95-.62-3.46.36-1.44,1.57-2.66,3.61-3.63.93-.44,1.83-.67,2.67-.67,3.4,0,5.27,3.71,5.84,5.09l-11.5,2.67Z"/><path class="cls-3" d="m17.59,4.71c2.74,0,4.41,2.71,5.14,4.24l-10.54,2.44c-.3-.61-.68-1.66-.4-2.77.32-1.28,1.45-2.39,3.34-3.29.86-.41,1.69-.62,2.46-.62m0-1c-.87,0-1.83.21-2.89.72-6.67,3.18-3,8.1-3,8.1l12.4-2.87s-1.94-5.95-6.52-5.95h0Z"/></g><path class="cls-3" d="m10.69,11.36s-2.73,2.43-1.27,3.96.64,2.94.64,2.94c0,0,2.3-3.08.87-3.91s2.23-2.49,2.23-2.49l-2.47-.5Z"/></g><ellipse class="cls-3" cx="17.4" cy="16.6" rx="3.92" ry="3.04" transform="translate(-2.88 3.67) rotate(-11.14)"/><g class="cls-2"><polygon points="17.73 20.48 19.36 20.43 19.95 17.09 17.67 16.88 17.73 20.48"/></g><path class="cls-8" d="m21.28,16.35c0-.17,0-.34-.03-.51-.32-1.65-2.31-2.65-4.43-2.23s-3.58,2.09-3.26,3.74c.03.17.09.33.16.48l7.56-1.49Z"/><ellipse class="cls-3" cx="25.8" cy="16.27" rx="3.04" ry="3.92" transform="translate(5.31 38.87) rotate(-80.06)"/><g class="cls-10"><polygon points="25.06 20.63 26.7 20.65 27.42 17.33 25.15 17.03 25.06 20.63"/></g><path class="cls-8" d="m29.5,17.43c.06-.16.12-.32.15-.49.29-1.65-1.2-3.3-3.33-3.67-2.13-.37-4.09.66-4.38,2.32-.03.17-.03.34-.02.51l7.59,1.33Z"/><path class="cls-8" d="m10.28,48.66c-2.85-.23-6.9,1.04-5.22-7.51s25.83,9.18,5.22,7.51Z"/><polygon class="cls-3" points="25.58 22.11 18.13 22.49 17.98 24.8 25.84 24.63 25.58 22.11"/><g><polygon class="cls-6" points="24.66 46.27 30.25 23.46 34.58 24.48 26.52 46.53 24.66 46.27"/><path class="cls-5" d="m28.9,52.34s-7.89-2.18-6.91-7.46c.99-5.27,10.42-1.98,7.62,2.34s-.72,5.12-.72,5.12Z"/></g><polygon class="cls-8" points="14.74 32.98 29.42 34.19 30.19 31.08 14.7 29.04 14.74 32.98"/><rect class="cls-1" width="42.57" height="53.71"/></g></g></svg>