<?xml version="1.0" encoding="UTF-8"?><svg id="Livello_2" xmlns="http://www.w3.org/2000/svg" xmlns:xlink="http://www.w3.org/1999/xlink" viewBox="0 0 44.59 507.98"><defs><style>.cls-1{fill:none;}.cls-2{clip-path:url(#clippath);}.cls-3{fill:#fff;}.cls-4{fill:#ffe100;}.cls-5{fill:#9ea8f4;}.cls-6{fill:#8bc5ea;}.cls-7{fill:#dddafd;}.cls-8{fill:#444fd3;}.cls-9{fill:#2a389e;}.cls-10{clip-path:url(#clippath-1);}.cls-11{clip-path:url(#clippath-3);}.cls-12{clip-path:url(#clippath-2);}.cls-13{fill:url(#Sfumatura_senza_nome_10);opacity:.35;}</style><clipPath id="clippath"><ellipse class="cls-1" cx="13.08" cy="471.77" rx="3.92" ry="3.04" transform="translate(-203.8 52.6) rotate(-25.77)"/></clipPath><clipPath id="clippath-1"><ellipse class="cls-1" cx="21.12" cy="469.33" rx="3.92" ry="3.04" transform="translate(-38.3 3.3) rotate(-4.69)"/></clipPath><linearGradient id="Sfumatura_senza_nome_10" x1="176.51" y1="-521.2" x2="178.42" y2="-504.15" gradientTransform="translate(-225.36 959.29) rotate(9.43)" gradientUnits="userSpaceOnUse"><stop offset="0" stop-color="#fff"/><stop offset="1" stop-color="#fff" stop-opacity="0"/></linearGradient><clipPath id="clippath-2"><ellipse class="cls-1" cx="13.08" cy="471.77" rx="3.92" ry="3.04" transform="translate(-203.8 52.6) rotate(-25.77)"/></clipPath><clipPath id="clippath-3"><ellipse class="cls-1" cx="21.12" cy="469.33" rx="3.92" ry="3.04" transform="translate(-38.3 3.3) rotate(-4.69)"/></clipPath></defs><g id="lab3export"><g id="BKG3Bot3A"><polygon class="cls-7" points="17.32 467.93 6.7 6.44 11.23 6.44 21.37 472.37 17.32 467.93"/><polygon class="cls-9" points="18.61 469.46 19.73 454.76 16.62 454.02 14.68 469.52 18.61 469.46"/><path class="cls-9" d="m21.73,502.03c-2.82.5-6.41,2.74-6.95-5.95-.53-8.69,27.31,2.36,6.95,5.95Z"/><path class="cls-4" d="m11.64,489.17l-2.59.45s1.73-3.76-2.17-2.92c-4.93,1.06-2.26,4.68.13,4.14.09-.02.15-.03.23-.05-.13.03-.23.05-.23.05-2.71.68-2.28,4.65.94,3.61,3.23-1.03,1.87-3.17,1.87-3.17l2.2-.67-.38-1.45Zm-3.54,3.81c-.64.44-1.38.48-1.65.08s.01-1.08.65-1.52,1.38-.48,1.66-.08-.01,1.08-.65,1.52Zm-.08-2.36c.07-.02.06-.01,0,0h0Zm-.81-1.03c-.64.44-1.38.48-1.65.08s.01-1.08.65-1.52,1.38-.48,1.66-.08c.28.4-.01,1.08-.65,1.52Z"/><polygon class="cls-5" points="13.68 497.65 9.75 484.61 20.83 480.75 23.61 496.5 13.68 497.65"/><polygon class="cls-5" points="7.8 485.19 25.34 479.93 20.91 462.96 1.96 467.9 7.8 485.19"/><g><path class="cls-3" d="m6.54,469.28s-1.28.84-2.04-.59.53-1.58.53-1.58c0,0-1,.63-1.25-.89s.9-1,.9-1c0,0-1.69-.34-.92-1.83s1.45-.38,1.45-.38c0,0-.91-.84.52-1.94s1.66-.38,1.66-.38c0,0-1.1-.76.47-1.64s1.5.42,1.5.42c0,0-.16-.98,1.36-1.28s1.17.94,1.17.94c0,0-.13-1.24,1.42-.74s.64,1.4.64,1.4c0,0,.43-.91,1.56-.21s.26,1.87.26,1.87c0,0,1.21-1,2.42.01s-.39,1.91-.39,1.91"/><g><path d="m6.62,468.67c-.46-.46-1.46-1.64-1.48-3.19-.02-1.48.85-2.97,2.57-4.42,1.16-.98,2.36-1.47,3.57-1.47,2.76,0,4.98,2.55,5.78,3.6l-10.45,5.48Z"/><path class="cls-3" d="m11.29,460.09c2.2,0,4.07,1.81,5.02,2.94l-9.58,5.03c-.45-.52-1.07-1.44-1.08-2.58-.01-1.32.8-2.68,2.4-4.03,1.07-.9,2.16-1.36,3.25-1.36m0-1c-1.21,0-2.53.44-3.9,1.59-5.65,4.76-.85,8.6-.85,8.6l11.27-5.91s-2.74-4.27-6.53-4.27h0Z"/></g><path class="cls-3" d="m5.27,468.4s-2.03,3.04-.23,4.15,1.36,2.69,1.36,2.69c0,0,1.44-3.56-.14-4s1.53-2.98,1.53-2.98l-2.51.14Z"/></g><ellipse class="cls-3" cx="13.08" cy="471.77" rx="3.92" ry="3.04" transform="translate(-203.8 52.6) rotate(-25.77)"/><g class="cls-2"><polygon points="14.84 474.04 16.41 473.57 16.13 470.19 13.87 470.57 14.84 474.04"/></g><path class="cls-8" d="m16.77,470.55c-.04-.16-.09-.33-.16-.48-.73-1.51-2.9-1.98-4.85-1.04s-2.94,2.93-2.21,4.44c.08.16.17.29.28.43l6.94-3.35Z"/><ellipse class="cls-3" cx="21.12" cy="469.33" rx="3.92" ry="3.04" transform="translate(-38.3 3.3) rotate(-4.69)"/><g class="cls-10"><polygon points="22.08 472.14 23.67 471.74 23.53 468.35 21.26 468.63 22.08 472.14"/></g><path class="cls-8" d="m25,469.52c.02-.17.04-.34.02-.51-.14-1.67-2-2.89-4.15-2.71-2.16.18-3.79,1.68-3.66,3.35.01.17.06.34.11.5l7.68-.63Z"/><path class="cls-8" d="m14.29,504.59c-2.82.5-6.41,2.74-6.95-5.95-.53-8.69,27.31,2.36,6.95,5.95Z"/><polygon class="cls-3" points="22.39 475.04 15.28 477.29 15.71 479.56 23.28 477.4 22.39 475.04"/><path class="cls-13" d="m28.66,478.88s8.31.71,4.75,13.38c0,0,10.28-10.82,3.1-19.66l-7.85,6.29Z"/><g><polygon class="cls-6" points="28.35 480.26 25.88 472.59 35.5 468.79 37.41 476.32 28.35 480.26"/><polygon class="cls-8" points="18.77 485.81 30.67 477.13 29.22 474.27 16.16 482.86 18.77 485.81"/></g><rect class="cls-1" width="44.59" height="507.98"/><polygon class="cls-7" points="17.32 467.93 6.7 6.44 11.23 6.44 21.37 472.37 17.32 467.93"/><polygon class="cls-9" points="18.61 469.46 19.73 454.76 16.62 454.02 14.68 469.52 18.61 469.46"/><path class="cls-9" d="m21.73,502.03c-2.82.5-6.41,2.74-6.95-5.95-.53-8.69,27.31,2.36,6.95,5.95Z"/><path class="cls-4" d="m11.64,489.17l-2.59.45s1.73-3.76-2.17-2.92c-4.93,1.06-2.26,4.68.13,4.14.09-.02.15-.03.23-.05-.13.03-.23.05-.23.05-2.71.68-2.28,4.65.94,3.61,3.23-1.03,1.87-3.17,1.87-3.17l2.2-.67-.38-1.45Zm-3.54,3.81c-.64.44-1.38.48-1.65.08s.01-1.08.65-1.52,1.38-.48,1.66-.08-.01,1.08-.65,1.52Zm-.08-2.36c.07-.02.06-.01,0,0h0Zm-.81-1.03c-.64.44-1.38.48-1.65.08s.01-1.08.65-1.52,1.38-.48,1.66-.08c.28.4-.01,1.08-.65,1.52Z"/><polygon class="cls-5" points="13.68 497.65 9.75 484.61 20.83 480.75 23.61 496.5 13.68 497.65"/><polygon class="cls-5" points="7.8 485.19 25.34 479.93 20.91 462.96 1.96 467.9 7.8 485.19"/><g><path class="cls-3" d="m6.54,469.28s-1.28.84-2.04-.59.53-1.58.53-1.58c0,0-1,.63-1.25-.89s.9-1,.9-1c0,0-1.69-.34-.92-1.83s1.45-.38,1.45-.38c0,0-.91-.84.52-1.94s1.66-.38,1.66-.38c0,0-1.1-.76.47-1.64s1.5.42,1.5.42c0,0-.16-.98,1.36-1.28s1.17.94,1.17.94c0,0-.13-1.24,1.42-.74s.64,1.4.64,1.4c0,0,.43-.91,1.56-.21s.26,1.87.26,1.87c0,0,1.21-1,2.42.01s-.39,1.91-.39,1.91"/><g><path d="m6.62,468.67c-.46-.46-1.46-1.64-1.48-3.19-.02-1.48.85-2.97,2.57-4.42,1.16-.98,2.36-1.47,3.57-1.47,2.76,0,4.98,2.55,5.78,3.6l-10.45,5.48Z"/><path class="cls-3" d="m11.29,460.09c2.2,0,4.07,1.81,5.02,2.94l-9.58,5.03c-.45-.52-1.07-1.44-1.08-2.58-.01-1.32.8-2.68,2.4-4.03,1.07-.9,2.16-1.36,3.25-1.36m0-1c-1.21,0-2.53.44-3.9,1.59-5.65,4.76-.85,8.6-.85,8.6l11.27-5.91s-2.74-4.27-6.53-4.27h0Z"/></g><path class="cls-3" d="m5.27,468.4s-2.03,3.04-.23,4.15,1.36,2.69,1.36,2.69c0,0,1.44-3.56-.14-4s1.53-2.98,1.53-2.98l-2.51.14Z"/></g><ellipse class="cls-3" cx="13.08" cy="471.77" rx="3.92" ry="3.04" transform="translate(-203.8 52.6) rotate(-25.77)"/><g class="cls-12"><polygon points="14.84 474.04 16.41 473.57 16.13 470.19 13.87 470.57 14.84 474.04"/></g><path class="cls-8" d="m16.77,470.55c-.04-.16-.09-.33-.16-.48-.73-1.51-2.9-1.98-4.85-1.04s-2.94,2.93-2.21,4.44c.08.16.17.29.28.43l6.94-3.35Z"/><ellipse class="cls-3" cx="21.12" cy="469.33" rx="3.92" ry="3.04" transform="translate(-38.3 3.3) rotate(-4.69)"/><g class="cls-11"><polygon points="22.08 472.14 23.67 471.74 23.53 468.35 21.26 468.63 22.08 472.14"/></g><path class="cls-8" d="m25,469.52c.02-.17.04-.34.02-.51-.14-1.67-2-2.89-4.15-2.71-2.16.18-3.79,1.68-3.66,3.35.01.17.06.34.11.5l7.68-.63Z"/><path class="cls-8" d="m14.29,504.59c-2.82.5-6.41,2.74-6.95-5.95-.53-8.69,27.31,2.36,6.95,5.95Z"/><polygon class="cls-3" points="22.39 475.04 15.28 477.29 15.71 479.56 23.28 477.4 22.39 475.04"/><g><polygon class="cls-6" points="28.35 480.26 25.88 472.59 35.5 468.79 37.41 476.32 28.35 480.26"/><polygon class="cls-8" points="18.77 485.81 30.67 477.13 29.22 474.27 16.16 482.86 18.77 485.81"/></g><rect class="cls-1" width="44.59" height="507.98"/></g></g></svg>