<?xml version="1.0" encoding="UTF-8"?><svg id="Livello_2" xmlns="http://www.w3.org/2000/svg" xmlns:xlink="http://www.w3.org/1999/xlink" viewBox="0 0 56.24 47.83"><defs><style>.cls-1{fill:none;}.cls-2{clip-path:url(#clippath);}.cls-3{fill:#fff;}.cls-4{fill:#ffe100;}.cls-5{fill:#e2e2f2;}.cls-6{fill:#8a8a99;}.cls-7{fill:#9ea8f4;}.cls-8{fill:#aa8f68;}.cls-9{fill:#d3b88c;}.cls-10{fill:#444fd3;}.cls-11{fill:#2a389e;}.cls-12{clip-path:url(#clippath-1);}</style><clipPath id="clippath"><ellipse class="cls-1" cx="13.36" cy="14.45" rx="3.92" ry="3.04" transform="translate(-2.54 2.85) rotate(-11.14)"/></clipPath><clipPath id="clippath-1"><ellipse class="cls-1" cx="21.75" cy="14.12" rx="3.04" ry="3.92" transform="translate(4.08 33.11) rotate(-80.06)"/></clipPath></defs><g id="lab3export"><g id="BKG3Bot2"><polygon class="cls-11" points="13.94 29.03 28.62 30.24 29.39 27.13 13.9 25.09 13.94 29.03"/><path class="cls-4" d="m7.56,30.92l-2.62-.21s2.62-3.2-1.36-3.37c-5.04-.22-3.37,3.96-.92,4.04.09,0,.16,0,.23,0-.13,0-.23,0-.23,0-2.79-.03-3.38,3.92,0,3.73,3.38-.19,2.61-2.59,2.61-2.59l2.3-.1v-1.49Zm-4.39,2.79c-.73.27-1.45.12-1.62-.34s.28-1.04,1.01-1.31,1.45-.12,1.62.34-.29,1.04-1.01,1.31Zm.52-2.3c.08,0,.06,0,0,0h0Zm-.52-1.2c-.73.27-1.45.12-1.62-.34s.28-1.04,1.01-1.31,1.45-.12,1.62.34c.17.46-.29,1.04-1.01,1.31Z"/><polygon class="cls-7" points="7.39 39.64 6.89 26.03 18.58 25.09 17.29 41.04 7.39 39.64"/><polygon class="cls-7" points="4.85 26.1 23.15 25.44 23.15 7.9 3.57 7.9 4.85 26.1"/><ellipse class="cls-3" cx="13.36" cy="14.45" rx="3.92" ry="3.04" transform="translate(-2.54 2.85) rotate(-11.14)"/><g class="cls-2"><polygon points="14.57 16.77 16.21 16.72 16.79 13.38 14.51 13.17 14.57 16.77"/></g><path class="cls-10" d="m17.23,14.2c0-.17,0-.34-.03-.51-.32-1.65-2.31-2.65-4.43-2.23s-3.58,2.09-3.26,3.74c.03.17.09.33.16.48l7.56-1.49Z"/><ellipse class="cls-3" cx="21.75" cy="14.12" rx="3.04" ry="3.92" transform="translate(4.08 33.11) rotate(-80.06)"/><g class="cls-12"><polygon points="22.76 17.08 24.4 17.1 25.12 13.78 22.85 13.48 22.76 17.08"/></g><path class="cls-10" d="m25.46,15.29c.06-.16.12-.32.15-.49.29-1.65-1.2-3.3-3.33-3.67-2.13-.37-4.09.66-4.38,2.32-.03.17-.03.34-.02.51l7.59,1.33Z"/><path class="cls-10" d="m11.41,46.51c-4.15-.23-10.04,1.04-7.6-7.51s37.57,9.18,7.6,7.51Z"/><polygon class="cls-3" points="21.53 19.97 14.09 20.34 13.93 22.66 21.8 22.48 21.53 19.97"/><g><g><polygon class="cls-8" points="42.57 34.54 51.14 37 54.66 27.07 37.48 22.47 35.26 32.69 42.57 34.54"/><polygon class="cls-9" points="31.73 41.52 32.52 29.65 40.15 30.61 41.21 41.98 31.73 41.52"/><g id="BKG1Microwave"><rect class="cls-1" x="38.17" y="33.23" width="16.92" height="10.13"/><g><polygon class="cls-3" points="39.24 42.96 54.66 42.86 54.48 34.17 39.45 33.72 39.24 42.96"/><polygon class="cls-5" points="50.68 34.06 51.1 42.88 54.66 42.86 54.48 34.17 50.68 34.06"/><polygon class="cls-6" points="40.53 35.81 40.64 41.26 49.59 41.42 49.78 36.02 40.53 35.81"/><ellipse class="cls-3" cx="52.74" cy="38.74" rx="1.29" ry="1.02" transform="translate(-10.34 21.32) rotate(-20.86)"/><polygon class="cls-3" points="51.57 41.89 51.72 40.68 52.55 40.77 52.57 41.87 51.57 41.89"/><polygon class="cls-3" points="53.13 42.07 53.11 41.16 53.9 41.15 54.03 42.05 53.13 42.07"/><polygon class="cls-6" points="51.47 36.94 54.02 37 54.15 35.87 51.31 35.81 51.47 36.94"/></g></g></g><path class="cls-4" d="m56.24,42.61l-26.84-1.9c.31-2.65.69-6.15.84-8.85.28-4.99-7.43-3.11-7.43-3.11l.5,2.23s.95-.26,3.38-.28.72,13.9.72,13.9h1.5s0,0,0-.01l27.32-.51v-1.46Z"/><ellipse cx="33.88" cy="44.08" rx="3.9" ry="2.36" transform="translate(-19.19 60.64) rotate(-69.79)"/><ellipse cx="51.53" cy="44.59" rx="2.02" ry="3.35" transform="translate(-12.2 20.45) rotate(-20.12)"/></g><polygon class="cls-10" points="10.7 30.83 25.38 32.05 26.14 28.93 10.65 26.9 10.7 30.83"/><polygon class="cls-10" points="3.77 10.64 18.17 5.57 18.17 3.24 11.47 7.32 11.85 0 0 4.49 3.77 10.64"/><polygon class="cls-3" points="1.43 6.82 11.73 2.29 11.57 5.49 1.91 7.6 1.43 6.82"/></g></g></svg>