<?xml version="1.0" encoding="UTF-8"?><svg id="Livello_2" xmlns="http://www.w3.org/2000/svg" xmlns:xlink="http://www.w3.org/1999/xlink" viewBox="0 0 64.97 41.9"><defs><style>.cls-1{fill:none;}.cls-2{clip-path:url(#clippath);}.cls-3{fill:#fff;}.cls-4{fill:#ffe100;}.cls-5{fill:#ff4842;}.cls-6{fill:#818eea;}.cls-7{fill:#9ea8f4;}.cls-8{fill:#444fd3;}.cls-9{clip-path:url(#clippath-1);}</style><clipPath id="clippath"><ellipse class="cls-1" cx="13.06" cy="9.11" rx="3.92" ry="3.04" transform="translate(-1.51 2.69) rotate(-11.14)"/></clipPath><clipPath id="clippath-1"><ellipse class="cls-1" cx="21.45" cy="8.79" rx="3.04" ry="3.92" transform="translate(9.09 28.4) rotate(-80.06)"/></clipPath></defs><g id="lab3export"><g id="BKG3Bot4"><g><polygon class="cls-8" points="35.2 28.03 35.7 21.56 36.31 21.56 36.59 28.03 35.2 28.03"/><polygon class="cls-7" points="54.88 27.31 54.43 38.5 36.14 38.5 35.2 28.03 54.88 27.31"/><path class="cls-4" d="m7.26,25.58l-2.62-.21s2.62-3.2-1.36-3.37c-5.04-.22-3.37,3.96-.92,4.04.09,0,.16,0,.23,0-.13,0-.23,0-.23,0-2.79-.03-3.38,3.92,0,3.73,3.38-.19,2.61-2.59,2.61-2.59l2.3-.1v-1.49Zm-4.39,2.79c-.73.27-1.45.12-1.62-.34s.28-1.04,1.01-1.31,1.45-.12,1.62.34-.29,1.04-1.01,1.31Zm.52-2.3c.08,0,.06,0,0,0h0Zm-.52-1.2c-.73.27-1.45.12-1.62-.34s.28-1.04,1.01-1.31,1.45-.12,1.62.34c.17.46-.29,1.04-1.01,1.31Z"/><polygon class="cls-7" points="7.09 34.31 6.59 20.69 18.28 19.75 16.99 35.7 7.09 34.31"/><polygon class="cls-7" points="4.55 20.76 22.85 20.1 22.85 2.56 3.28 2.56 4.55 20.76"/><ellipse class="cls-3" cx="13.06" cy="9.11" rx="3.92" ry="3.04" transform="translate(-1.51 2.69) rotate(-11.14)"/><g class="cls-2"><polygon points="14.27 11.43 15.91 11.38 16.49 8.04 14.21 7.83 14.27 11.43"/></g><path class="cls-8" d="m16.94,8.86c0-.17,0-.34-.03-.51-.32-1.65-2.31-2.65-4.43-2.23s-3.58,2.09-3.26,3.74c.03.17.09.33.16.48l7.56-1.49Z"/><ellipse class="cls-3" cx="21.45" cy="8.79" rx="3.04" ry="3.92" transform="translate(9.09 28.4) rotate(-80.06)"/><g class="cls-9"><polygon points="22.46 11.74 24.1 11.76 24.82 8.44 22.55 8.14 22.46 11.74"/></g><path class="cls-8" d="m25.16,9.95c.06-.16.12-.32.15-.49.29-1.65-1.2-3.3-3.33-3.67-2.13-.37-4.09.66-4.38,2.32-.03.17-.03.34-.02.51l7.59,1.33Z"/><path class="cls-8" d="m11.12,41.18c-4.15-.23-10.04,1.04-7.6-7.51s37.57,9.18,7.6,7.51Z"/><polygon class="cls-3" points="21.24 14.63 13.79 15.01 13.63 17.32 21.5 17.14 21.24 14.63"/><polygon class="cls-8" points="10.4 25.49 25.08 26.71 25.85 23.6 10.35 21.56 10.4 25.49"/><polygon class="cls-6" points="50.61 30 50.61 19.3 57.43 18.86 59.31 24.43 64.97 25.42 63.52 29.3 50.61 30"/><path class="cls-8" d="m60.75,28.15s-1.39,3.8.83,3.69,1.28-3.69,1.28-3.69h-2.11Z"/><polygon class="cls-8" points="51.16 19.75 48.34 26.07 52.83 27.73 53.16 21.27 51.16 19.75"/><ellipse class="cls-8" cx="39.66" cy="38.75" rx="3.35" ry="2.05" transform="translate(-12.45 57.69) rotate(-64.3)"/><ellipse class="cls-8" cx="50.75" cy="38.5" rx="2.76" ry="1.69" transform="translate(1.09 78.4) rotate(-75.96)"/><polygon points="54.32 22.49 54.95 26.49 56.1 26.59 56.32 22.16 54.32 22.49"/><polygon points="56.93 21.2 57.56 25.2 58.7 25.29 58.93 20.87 56.93 21.2"/><polygon class="cls-8" points="64.97 25.42 63.06 25.08 63.06 27.09 64.49 26.71 64.97 25.42"/><polygon class="cls-5" points="23.16 23.08 21.5 26.86 22.63 26.86 24.21 22.79 23.16 23.08"/><polygon class="cls-5" points="22.72 25.38 50.61 28.5 50.61 27.73 23.6 24.04 22.72 25.38"/><path d="m7.66,1.07s-.26,4.19,5.7,3.66S15.51,0,15.51,0l-7.85,1.07Z"/><path d="m17.22,0s-2.93,4.36,2.86,4.39,4.5-3.86,4.5-3.86l-6.7-.53"/><polyline points="8.19 2.95 2.56 6.74 9.49 3.66 8.86 2.95"/></g></g></g></svg>