<?xml version="1.0" encoding="UTF-8"?><svg id="Livello_2" xmlns="http://www.w3.org/2000/svg" viewBox="0 0 428.3 225.57"><defs><style>.cls-1,.cls-2,.cls-3,.cls-4,.cls-5,.cls-6,.cls-7{fill:none;}.cls-8{fill:#f9e14c;}.cls-9{fill:#ea574c;}.cls-10{fill:#fff;}.cls-11{fill:#6577db;}.cls-12{fill:#818eea;}.cls-13{fill:#b871f7;}.cls-14{fill:#9ea8f4;}.cls-15{fill:#8bc5ea;}.cls-16{fill:#e1e1f0;}.cls-17{fill:#6f77eb;}.cls-18{fill:#898997;}.cls-19,.cls-20,.cls-21,.cls-22{stroke-width:.25px;}.cls-19,.cls-20,.cls-21,.cls-22,.cls-2,.cls-3,.cls-4,.cls-5,.cls-23,.cls-24,.cls-25,.cls-6,.cls-7{stroke-miterlimit:10;}.cls-19,.cls-3,.cls-24{stroke:#adfb62;}.cls-19,.cls-24{fill:#70a03e;}.cls-20{fill:#58859f;stroke:#82cee3;}.cls-21,.cls-25{fill:#95342d;}.cls-21,.cls-25,.cls-6{stroke:#ea574c;}.cls-22,.cls-23{fill:#9f8f2d;stroke:#f9e14c;}.cls-2{stroke:#b871f7;stroke-width:.34px;}.cls-3{stroke-width:.2px;}.cls-4{stroke:#9ea8f4;}.cls-5{stroke:#ef9536;}.cls-23,.cls-24,.cls-25{stroke-width:.19px;}.cls-6{stroke-width:.33px;}.cls-7{stroke:#9f8f2d;stroke-width:.5px;}</style></defs><g id="lab3export"><g id="BKG3TimeMachine"><polygon class="cls-17" points="196 189.05 200.86 225.57 226.06 225.57 230.27 189.05 196 189.05"/><ellipse class="cls-12" cx="214.15" cy="162.61" rx="214.16" ry="26.37" transform="translate(-1.47 1.95) rotate(-.52)"/><g><ellipse class="cls-17" cx="23.96" cy="161.67" rx="4.92" ry="2.17" transform="translate(-15.86 3.16) rotate(-5.67)"/><ellipse class="cls-17" cx="51.86" cy="170.87" rx="4.92" ry="2.17" transform="translate(-16.63 5.96) rotate(-5.67)"/><ellipse class="cls-17" cx="87.64" cy="176.72" rx="4.92" ry="2.17" transform="translate(-17.03 9.52) rotate(-5.67)"/><ellipse class="cls-17" cx="126.83" cy="179.66" rx="4.92" ry="2.17" transform="translate(-17.13 13.41) rotate(-5.67)"/><ellipse class="cls-17" cx="169.55" cy="181.11" rx="4.92" ry="2.17" transform="translate(-17.06 17.64) rotate(-5.67)"/><ellipse class="cls-17" cx="208.79" cy="181.11" rx="4.92" ry="2.17" transform="translate(-16.87 21.51) rotate(-5.67)"/><ellipse class="cls-17" cx="255.06" cy="181.11" rx="4.92" ry="2.17" transform="translate(-16.64 26.08) rotate(-5.67)"/><ellipse class="cls-17" cx="295.64" cy="179.66" rx="4.92" ry="2.17" transform="translate(-16.3 30.09) rotate(-5.67)"/><ellipse class="cls-17" cx="335.7" cy="176.72" rx="4.92" ry="2.17" transform="translate(-15.82 34.03) rotate(-5.67)"/><ellipse class="cls-17" cx="370.23" cy="172.25" rx="4.92" ry="2.17" transform="translate(-15.21 37.42) rotate(-5.67)"/><ellipse class="cls-17" cx="400.81" cy="166.41" rx="4.92" ry="2.17" transform="translate(-14.48 40.41) rotate(-5.67)"/><ellipse class="cls-17" cx="411.81" cy="157.06" rx="4.92" ry="2.17" transform="translate(-13.5 41.45) rotate(-5.67)"/><ellipse class="cls-17" cx="389.55" cy="152.47" rx="4.92" ry="2.17" transform="translate(-13.16 39.23) rotate(-5.67)"/><ellipse class="cls-17" cx="360.73" cy="147.42" rx="4.92" ry="2.17" transform="translate(-12.8 36.36) rotate(-5.67)"/><ellipse class="cls-17" cx="332.56" cy="145.18" rx="4.92" ry="2.17" transform="translate(-12.72 33.57) rotate(-5.67)"/><ellipse class="cls-17" cx="301.9" cy="143.21" rx="4.92" ry="2.17" transform="translate(-12.67 30.53) rotate(-5.67)"/><ellipse class="cls-17" cx="271.21" cy="142.2" rx="4.92" ry="2.17" transform="translate(-12.72 27.49) rotate(-5.67)"/><ellipse class="cls-17" cx="237.48" cy="141.05" rx="4.92" ry="2.17" transform="translate(-12.77 24.15) rotate(-5.67)"/><ellipse class="cls-17" cx="188.15" cy="142.2" rx="4.92" ry="2.17" transform="translate(-13.13 19.28) rotate(-5.67)"/><ellipse class="cls-17" cx="158.03" cy="144" rx="4.92" ry="2.17" transform="translate(-13.45 16.32) rotate(-5.67)"/><ellipse class="cls-17" cx="123.48" cy="145.94" rx="4.92" ry="2.17" transform="translate(-13.81 12.91) rotate(-5.67)"/><ellipse class="cls-17" cx="87.64" cy="148.07" rx="4.92" ry="2.17" transform="translate(-14.2 9.38) rotate(-5.67)"/><ellipse class="cls-17" cx="54.97" cy="152.47" rx="4.92" ry="2.17" transform="translate(-14.79 6.18) rotate(-5.67)"/></g><g><g id="machine"><g><path class="cls-5" d="m203.09,100.95c0-3.37,3.36-3.88,3.78-1.1s-1.55,2.73-1.17.62,1.49-2.45,2.09-2.41c1.11.08,2.12,3.34.81,3.7s-.53-3.44,1.13-3.7,2.55,3.24,1.06,3.24-.2-3.44,1.58-3.71,1.9,4.71.46,4.42,1-3.8,2.25-1.8"/><polygon class="cls-10" points="202.94 102.75 203.87 105.61 202.87 105.84 202.44 102.87 202.94 102.75 202.94 102.75"/><ellipse class="cls-10" cx="202.56" cy="102.02" rx=".69" ry=".54" transform="translate(-3.51 196.73) rotate(-51.42)"/><polygon class="cls-10" points="215.53 102.45 214.68 105.58 213.64 105.19 215.02 102.26 215.53 102.45 215.53 102.45"/><ellipse class="cls-10" cx="215.61" cy="101.6" rx=".5" ry=".89" transform="translate(-22.03 83.29) rotate(-20.82)"/></g><path class="cls-11" d="m199.76,159.52l3.03-42.99s-4.53-3.97-1.52-9.65l8.3-3.67,7.8,4.49s1.97,5.09-2.11,8.01l1.26,44.28-16.77-.47Z"/><g><polygon class="cls-16" points="196.4 167.16 198.76 159.51 217.42 160.07 219.5 167.19 196.4 167.16"/><line class="cls-16" x1="202.54" y1="167.17" x2="203.12" y2="159.64"/><line class="cls-16" x1="213.04" y1="159.94" x2="213.38" y2="167.19"/><line class="cls-16" x1="198.76" y1="167.16" x2="201.95" y2="159.61"/><line class="cls-16" x1="214.37" y1="159.98" x2="217.42" y2="167.16"/><polyline class="cls-1" points="204.62 167.16 204.99 163.7 211 163.57 211.3 167.16"/></g><polygon class="cls-11" points="199.28 108.23 209.62 103.66 219.39 109.34 219.84 108.56 209.62 102.7 199.09 107.41 199.28 108.23"/><ellipse class="cls-10" cx="209.04" cy="111.32" rx="6.01" ry="4.25" transform="translate(-25.78 80.5) rotate(-20.56)"/><g><polygon points="208.87 112.25 204.95 107.84 205.72 107.21 209.25 111.94 208.87 112.25 208.87 112.25"/><polygon points="204.82 107.01 205.25 109.15 206.72 107.47 204.82 107.01"/><polygon points="208.78 111.99 212.32 109.63 212.6 110.08 208.92 112.21 208.78 111.99 208.78 111.99"/><polygon points="212.88 109.54 211.31 109.65 212.38 110.85 212.88 109.54"/></g><polygon class="cls-10" points="202.88 157.4 205.23 117.6 212.35 117.32 212.93 158.06 202.88 157.4"/><g><rect class="cls-8" x="207.9" y="128.33" width=".74" height="3.64"/><rect class="cls-8" x="208.53" y="125.02" width="3.64" height=".74" transform="translate(-20.7 206.55) rotate(-50.15)"/><rect class="cls-8" x="206.53" y="123.41" width=".74" height="3.64" transform="translate(-34.16 105.74) rotate(-26.56)"/><line class="cls-7" x1="205.92" y1="123.89" x2="205.8" y2="126.24"/><line class="cls-7" x1="211.67" y1="124.02" x2="211.56" y2="126.36"/><line class="cls-7" x1="208.57" y1="131.97" x2="210.91" y2="132.23"/><ellipse class="cls-9" cx="211.61" cy="123.78" rx=".43" ry=".56" transform="translate(-25.58 61.81) rotate(-15.68)"/><ellipse class="cls-9" cx="206.08" cy="123.44" rx=".59" ry=".49" transform="translate(-25.7 60.3) rotate(-15.68)"/><ellipse class="cls-9" cx="208.27" cy="131.9" rx=".59" ry=".49" transform="translate(-27.9 61.21) rotate(-15.68)"/></g><g><g><path class="cls-2" d="m206.19,150.35c-.1,1.68.85,2.38,1.82,2.38s2.46-1.33,2.42-2.38"/><path class="cls-2" d="m208.01,152.72s-1.04,1.42-.37,1.98,1.94.36,2.1-.56-1.73.42-.94,1.36,1.99.7,2.27,0-.78-1-1.06.06,1.67,2.03,2.2,1.22-.28-1.86-.7-.56,1.52,1.22,1.52,1.22"/></g><polygon class="cls-13" points="204.3 150.35 212 150.35 212 140.81 204.62 140.39 204.3 150.35"/><polygon class="cls-15" points="204.62 140.39 204.49 144.41 212 143.97 212 140.81 204.62 140.39"/></g><path class="cls-6" d="m203.23,153.28c.85-.81,3.19.06,1.96,1.81s-1.24-.28-.65-.72,3.18,1.31,1.63,2.92l-.43.3"/><polygon class="cls-18" points="204.01 137.99 212.76 138.14 212.73 136.17 204.11 136.31 204.01 137.99"/><polygon class="cls-18" points="204.11 136.31 204.25 133.72 212.69 133.72 212.73 136.17 204.11 136.31"/><g><polygon class="cls-18" points="204.95 121.82 205.2 117.6 212.46 117.32 212.46 121.33 204.95 121.82"/><g><ellipse class="cls-19" cx="206.26" cy="118.82" rx=".56" ry=".48" transform="translate(21.32 268.68) rotate(-68.96)"/><ellipse class="cls-22" cx="207.44" cy="120.43" rx=".56" ry=".48" transform="translate(20.57 270.81) rotate(-68.96)"/><ellipse class="cls-21" cx="208.78" cy="118.82" rx=".56" ry=".48" transform="translate(22.94 271.03) rotate(-68.96)"/><ellipse class="cls-20" cx="210.06" cy="120.26" rx=".56" ry=".48" transform="translate(22.4 273.15) rotate(-68.96)"/><ellipse class="cls-19" cx="211.47" cy="118.7" rx=".56" ry=".48" transform="translate(24.77 273.47) rotate(-68.96)"/></g></g><polygon class="cls-1" points="202.99 157.4 205.34 117.6 212.46 117.32 213.04 158.06 202.99 157.4"/><g><polygon class="cls-3" points="211.37 135.61 212 135.61 212 134.27 211.37 134.35 211.37 135.61"/><line class="cls-3" x1="211.37" y1="134.94" x2="212" y2="134.94"/><polygon class="cls-3" points="210.33 135.68 210.96 135.68 210.96 134.35 210.33 134.42 210.33 135.68"/><line class="cls-3" x1="210.33" y1="135.02" x2="210.96" y2="135.02"/><polygon class="cls-3" points="209.21 135.68 209.84 135.68 209.84 134.35 209.21 134.42 209.21 135.68"/><line class="cls-3" x1="209.21" y1="135.02" x2="209.84" y2="135.02"/><polygon class="cls-3" points="208.07 135.61 208.7 135.61 208.7 134.28 208.07 134.35 208.07 135.61"/><line class="cls-3" x1="208.07" y1="134.95" x2="208.7" y2="134.95"/></g><ellipse class="cls-23" cx="211.56" cy="137.15" rx=".42" ry=".36" transform="translate(13.53 293.21) rotate(-71.2)"/><ellipse class="cls-24" cx="210.35" cy="137.15" rx=".42" ry=".36" transform="translate(12.72 292.07) rotate(-71.2)"/><ellipse class="cls-25" cx="205.21" cy="137.15" rx=".42" ry=".36" transform="translate(9.23 287.2) rotate(-71.2)"/></g><path class="cls-4" d="m208.9,73.25c.13,7.65-4.19,22.79-15.94,25.97s-12.53,12.94-8.42,16.26,6.43-3.26,3.55-4.73-10.64,13.97-4.88,18.83,6.1-3.74,3.66-5.09-8.76,10.17-4.21,14.83,23.69,2.33,23.69,2.33"/><g><polygon class="cls-14" points="207.87 73.25 207.09 64.82 194.68 45.64 224.23 45.64 210.87 64.63 210.04 73.25 207.87 73.25"/><path class="cls-14" d="m225.41,49.73c-.14-1.43-1.64-2.45-3.35-2.28-.08,0-.16.02-.25.03.06,0,.13,0,.19.01,1.45.14,2.53,1.25,2.41,2.46s-1.39,2.09-2.85,1.95c-1.17-.12-2.1-.86-2.36-1.78,0,.07,0,.15,0,.22.14,1.43,1.64,2.45,3.35,2.28,1.71-.17,2.98-1.47,2.84-2.9Z"/></g><g><g><g><polygon class="cls-17" points="219.22 46.33 225.42 30.37 246.9 34.75 235.41 59.45 220.96 54.99 226.2 50.03 233.94 53.32 242.85 37.36 229.31 35.47 224.23 47.93 219.22 46.33"/><ellipse class="cls-17" cx="245.83" cy="34.25" rx="7.36" ry="12.23" transform="translate(.02 68.66) rotate(-15.9)"/></g><g><ellipse class="cls-17" cx="269.59" cy="83.63" rx="10.78" ry="6.49" transform="translate(56.89 269.18) rotate(-58.33)"/><polygon class="cls-17" points="251.65 47.71 256.64 39.42 269.73 71.99 265.71 75.08 251.65 47.71"/><polygon class="cls-17" points="268.03 95.16 273.44 92.98 264.79 167.19 251.65 166.83 268.03 95.16"/></g></g><polygon class="cls-17" points="247.49 40.36 220.92 12.08 226.26 5.88 249.21 40.63 247.49 40.36"/><polygon class="cls-17" points="229.27 3.32 249.23 39.4 251.65 39.74 235.03 0 229.27 3.32"/><polygon class="cls-17" points="244.01 4.65 246.05 39.78 247.67 41.01 249.21 4.95 244.01 4.65"/></g></g></g></g></svg>