<?xml version="1.0" encoding="UTF-8"?><svg id="Livello_2" xmlns="http://www.w3.org/2000/svg" viewBox="0 0 251.58 78.98"><defs><style>.cls-1{fill:#ff4842;}.cls-2,.cls-3{fill:#a22a27;}.cls-3{stroke:#ff4842;stroke-miterlimit:10;stroke-width:3px;}</style></defs><g id="BUTTON_objects"><g id="buttonResetConfirm"><g id="buttonSend"><polygon class="cls-2" points="247.88 78.98 0 73.75 1.86 0 251.58 0 247.88 78.98"/><polygon class="cls-3" points="240.35 71.53 7.17 66.09 9.49 7.66 243.65 7.04 240.35 71.53"/></g><g><path class="cls-1" d="m91.46,47.5v3.36c-.45.19-1.13.28-2.04.28-1.6,0-3.01-.37-4.22-1.12-1.21-.75-2.15-1.79-2.82-3.12-.67-1.33-1-2.85-1-4.56,0-2.8.91-5.44,2.72-7.92v-.12h-7.6c-.29,2.91-.68,5.56-1.16,7.96-.48,2.4-1.12,5.25-1.92,8.56h-4.52c1.01-2.96,1.9-6.07,2.66-9.32.76-3.25,1.25-6.01,1.46-8.28-.56-.35-1-.81-1.32-1.4-.32-.59-.48-1.23-.48-1.92,0-.99.34-1.79,1.02-2.4.68-.61,1.65-.92,2.9-.92.53,0,1.11.07,1.72.2,0,1.36-.04,2.71-.12,4.04h11.84v3.48c-.93.67-1.71,1.67-2.32,3-.62,1.33-.92,2.81-.92,4.44,0,1.97.46,3.45,1.38,4.42.92.97,2.07,1.46,3.46,1.46.45,0,.88-.04,1.28-.12Z"/><path class="cls-1" d="m113.82,42.42h-15.48c.24,1.84.94,3.18,2.1,4.02s2.87,1.26,5.14,1.26c2.56,0,4.88-.36,6.96-1.08v3.44c-.72.27-1.7.51-2.94.74-1.24.23-2.61.34-4.1.34-3.76,0-6.56-.93-8.4-2.78s-2.76-4.37-2.76-7.54c0-2.24.44-4.13,1.32-5.68.88-1.55,2.09-2.71,3.64-3.48s3.32-1.16,5.32-1.16c2.88,0,5.13.81,6.76,2.42,1.63,1.61,2.44,4.02,2.44,7.22v2.28Zm-3.68-3.08c0-3.6-1.84-5.4-5.52-5.4-1.79,0-3.23.41-4.32,1.22-1.09.81-1.75,2.21-1.96,4.18h11.8Z"/><path class="cls-1" d="m120.92,32.2c1.72-1.13,4.13-1.7,7.22-1.7,1.52,0,2.96.13,4.34.38,1.37.25,2.42.51,3.14.78v3.44c-.77-.29-1.82-.56-3.14-.8-1.32-.24-2.74-.36-4.26-.36-3.97,0-5.96,1.03-5.96,3.08,0,.77.36,1.31,1.08,1.6.72.29,1.72.48,3,.56l4.04.2c2.45.16,4.3.65,5.56,1.46,1.25.81,1.88,2.07,1.88,3.78,0,2.16-.87,3.79-2.62,4.88-1.75,1.09-4.27,1.64-7.58,1.64-1.76,0-3.39-.16-4.88-.48-1.49-.32-2.6-.64-3.32-.96v-3.44c.8.35,1.92.67,3.36.98,1.44.31,3.03.46,4.76.46,4.24,0,6.36-1.03,6.36-3.08,0-.77-.34-1.3-1.02-1.58-.68-.28-1.71-.47-3.1-.58l-3.96-.2c-2.45-.16-4.31-.65-5.58-1.46-1.27-.81-1.9-2.07-1.9-3.78,0-2.08.86-3.69,2.58-4.82Z"/><path class="cls-1" d="m161.82,42.42h-15.48c.24,1.84.94,3.18,2.1,4.02s2.87,1.26,5.14,1.26c2.56,0,4.88-.36,6.96-1.08v3.44c-.72.27-1.7.51-2.94.74-1.24.23-2.61.34-4.1.34-3.76,0-6.56-.93-8.4-2.78s-2.76-4.37-2.76-7.54c0-2.24.44-4.13,1.32-5.68s2.09-2.71,3.64-3.48c1.54-.77,3.32-1.16,5.32-1.16,2.88,0,5.13.81,6.76,2.42,1.62,1.61,2.44,4.02,2.44,7.22v2.28Zm-3.68-3.08c0-3.6-1.84-5.4-5.52-5.4-1.79,0-3.23.41-4.32,1.22-1.09.81-1.75,2.21-1.96,4.18h11.8Z"/><path class="cls-1" d="m174.9,34.26v7.08c0,1.52.16,2.73.48,3.64.32.91.9,1.59,1.74,2.04.84.45,2.02.68,3.54.68s3.19-.17,5-.52l-.04,3.28c-.43.13-1.17.28-2.24.44-1.07.16-2.01.24-2.84.24-1.89,0-3.54-.25-4.92-.76-1.39-.51-2.51-1.48-3.36-2.92-.85-1.44-1.28-3.48-1.28-6.12v-7.08h-5.72v-3.44h5.72v-5.28h3.92v5.28h11.28v3.44h-11.28Z"/></g></g></g></svg>