<?xml version="1.0" encoding="UTF-8"?><svg id="Livello_2" xmlns="http://www.w3.org/2000/svg" viewBox="0 0 256.3 84"><defs><style>.cls-1,.cls-2{fill:#e1e1f1;}.cls-3{fill:#898998;}.cls-2{stroke:#898998;stroke-miterlimit:10;stroke-width:3px;}</style></defs><g id="BUTTON_objects"><g id="buttonBack"><g id="buttonSend"><polygon class="cls-1" points="252.17 84 3.81 79.19 0 0 256.3 6.63 252.17 84"/><polygon class="cls-2" points="244.64 76.55 10.98 71.53 7.63 7.66 248.37 13.67 244.64 76.55"/></g><g><path class="cls-3" d="m99.29,38.49c1.45,1.84,2.18,4.28,2.18,7.32,0,2.16-.37,4.04-1.12,5.64-.75,1.6-1.76,2.82-3.04,3.66-1.28.84-2.72,1.26-4.32,1.26-1.49,0-2.77-.28-3.82-.84-1.05-.56-1.75-1.56-2.1-3h-.24l-.88,3.52h-2.52v-30h3.92v9.4l-.28,4.04h.16c.43-1.39,1.13-2.36,2.1-2.92.97-.56,2.26-.84,3.86-.84,2.61,0,4.65.92,6.1,2.76Zm-3.16,12.56c.95-1.25,1.42-2.99,1.42-5.2,0-2.08-.47-3.71-1.4-4.9-.93-1.19-2.21-1.78-3.84-1.78-1.17,0-2.19.25-3.04.74s-1.49,1.21-1.92,2.14v7.48c.93,2.27,2.6,3.4,5,3.4,1.57,0,2.83-.63,3.78-1.88Z"/><path class="cls-3" d="m126.47,52.81v3.24c-.64.21-1.35.32-2.12.32-2.37,0-3.8-1.32-4.28-3.96h-.12c-.64,2.64-2.77,3.96-6.4,3.96-2.32,0-4.17-.59-5.54-1.76-1.37-1.17-2.06-2.79-2.06-4.84,0-1.79.67-3.23,2.02-4.32s3.29-1.64,5.82-1.64c2.16,0,4.17.19,6.04.56h.08v-.24c0-1.17-.17-2.11-.5-2.82-.33-.71-.95-1.24-1.86-1.6-.91-.36-2.2-.54-3.88-.54-1.28,0-2.58.14-3.9.42-1.32.28-2.31.55-2.98.82l-.04-3.56c.77-.29,1.82-.55,3.14-.78,1.32-.23,2.66-.34,4.02-.34,3.6,0,6.15.71,7.66,2.14,1.51,1.43,2.26,3.5,2.26,6.22v6.72c0,.67.11,1.19.32,1.56.21.37.63.56,1.24.56.24,0,.6-.04,1.08-.12Zm-8.9-.62c1.05-.49,1.83-1.21,2.34-2.14v-3.16h-5.68c-2.91,0-4.36.97-4.36,2.92,0,.88.33,1.62,1,2.22.67.6,1.65.9,2.96.9,1.44,0,2.69-.25,3.74-.74Z"/><path class="cls-3" d="m132.01,40.53c.95-1.55,2.25-2.73,3.92-3.56,1.67-.83,3.57-1.24,5.7-1.24,1.55,0,2.88.17,4,.5,1.12.33,1.97.7,2.56,1.1v4.04c-1.95-1.47-4.12-2.2-6.52-2.2-2.08,0-3.79.57-5.14,1.7-1.35,1.13-2.02,2.86-2.02,5.18s.66,3.98,1.98,5.14c1.32,1.16,3.14,1.74,5.46,1.74,1.44,0,2.8-.26,4.08-.78,1.28-.52,2.37-1.14,3.28-1.86v3.88c-.69.53-1.7,1.03-3.02,1.5-1.32.47-2.82.7-4.5.7-2.43,0-4.48-.46-6.16-1.38-1.68-.92-2.94-2.16-3.78-3.72-.84-1.56-1.26-3.3-1.26-5.22,0-2.13.47-3.97,1.42-5.52Z"/><path class="cls-3" d="m160.99,47.69h-1.64v8.36h-3.92v-30h3.92v18.2h1.48l8.16-8.2h5.04l-9.64,9.6,11.12,10.4h-5.56l-8.96-8.36Z"/></g></g></g></svg>