<?xml version="1.0" encoding="UTF-8"?><svg id="Livello_2" xmlns="http://www.w3.org/2000/svg" viewBox="0 0 481.19 114.22"><defs><style>.cls-1{fill:none;}.cls-2{fill:#9da7f3;}.cls-3{fill:#444fd2;}</style></defs><g id="BUTTON_objects"><g id="buttonGalleryIntro"><path class="cls-3" d="m459.07,17.16l-1.81,73.16L27.69,98.97l-2.92-80.19,434.3-1.61m7.18-7.03l-7.2.03L24.75,11.78l-7.23.03.26,7.23,2.92,80.19.25,6.88,6.89-.14,429.57-8.65,6.69-.13.17-6.69,1.81-73.16.18-7.2h0Z"/><g><polygon class="cls-3" points="457.27 90.32 27.69 98.97 24.77 18.78 459.07 17.16 457.27 90.32"/><path class="cls-2" d="m26.25,100.5l-3.03-83.21,437.39-1.63-1.88,76.14-1.43.03L26.25,100.5Zm.08-80.23l2.81,77.17,426.66-8.59,1.73-70.18-431.21,1.6Z"/></g><g><path class="cls-2" d="m121.14,67.56v3.2c-.29.11-.73.22-1.32.34s-1.2.18-1.84.18c-2.51,0-4.51-.68-6.02-2.04-1.51-1.36-2.57-3.2-3.18-5.52-1.01,1.71-2.65,4.12-4.92,7.24h-4.6l1.84-2.44c2.11-2.77,3.67-4.95,4.7-6.52,1.03-1.57,1.79-3.13,2.3-4.68v-6.36h3.92v6.92c0,6.64,2.11,9.96,6.32,9.96,1.17,0,2.11-.09,2.8-.28Zm-13.52-20.96c-.59-.45-.88-1.11-.88-1.96s.29-1.51.88-1.98c.59-.47,1.4-.7,2.44-.7s1.82.23,2.42.7.9,1.13.9,1.98-.3,1.51-.9,1.96c-.6.45-1.41.68-2.42.68s-1.85-.23-2.44-.68Z"/><path class="cls-2" d="m145.34,67.72v3.24c-.59.21-1.29.32-2.12.32-1.52,0-2.64-.47-3.36-1.42-.72-.95-1.08-2.23-1.08-3.86v-7.72c0-1.23-.27-2.23-.8-3.02-.53-.79-1.65-1.18-3.36-1.18-2.35,0-3.87,1.01-4.56,3.04v13.84h-3.92v-20h2.44l1.12,3.48h.2c.29-1.28.92-2.23,1.88-2.86.96-.63,2.3-.94,4.04-.94,2.56,0,4.35.65,5.36,1.94,1.01,1.29,1.52,3.03,1.52,5.22v7.92c0,.72.11,1.25.32,1.6.21.35.61.52,1.2.52.27,0,.64-.04,1.12-.12Z"/><path class="cls-2" d="m157.26,54.4v7.08c0,1.52.16,2.73.48,3.64s.9,1.59,1.74,2.04,2.02.68,3.54.68,3.19-.17,5-.52l-.04,3.28c-.43.13-1.17.28-2.24.44s-2.01.24-2.84.24c-1.89,0-3.53-.25-4.92-.76-1.39-.51-2.51-1.48-3.36-2.92-.85-1.44-1.28-3.48-1.28-6.12v-7.08h-5.72v-3.44h5.72v-5.28h3.92v5.28h11.28v3.44h-11.28Z"/><path class="cls-2" d="m193.82,67.64v3.36c-.45.19-1.13.28-2.04.28-1.6,0-3.01-.37-4.22-1.12-1.21-.75-2.15-1.79-2.82-3.12-.67-1.33-1-2.85-1-4.56,0-2.8.91-5.44,2.72-7.92v-.12h-7.6c-.29,2.91-.68,5.56-1.16,7.96-.48,2.4-1.12,5.25-1.92,8.56h-4.52c1.01-2.96,1.9-6.07,2.66-9.32.76-3.25,1.25-6.01,1.46-8.28-.56-.35-1-.81-1.32-1.4-.32-.59-.48-1.23-.48-1.92,0-.99.34-1.79,1.02-2.4.68-.61,1.65-.92,2.9-.92.53,0,1.11.07,1.72.2,0,1.36-.04,2.71-.12,4.04h11.84v3.48c-.93.67-1.71,1.67-2.32,3-.62,1.33-.92,2.81-.92,4.44,0,1.97.46,3.45,1.38,4.42.92.97,2.07,1.46,3.46,1.46.45,0,.88-.04,1.28-.12Z"/><path class="cls-2" d="m201.3,69.98c-1.47-.87-2.6-2.08-3.4-3.64-.8-1.56-1.2-3.35-1.2-5.38s.4-3.82,1.2-5.38c.8-1.56,1.93-2.77,3.4-3.64,1.47-.87,3.17-1.3,5.12-1.3s3.66.43,5.14,1.3c1.48.87,2.62,2.08,3.42,3.64.8,1.56,1.2,3.35,1.2,5.38s-.4,3.82-1.2,5.38c-.8,1.56-1.94,2.77-3.42,3.64-1.48.87-3.19,1.3-5.14,1.3s-3.65-.43-5.12-1.3Zm9.5-4.02c.97-1.25,1.46-2.92,1.46-5s-.49-3.75-1.46-5c-.97-1.25-2.43-1.88-4.38-1.88s-3.4.63-4.36,1.88c-.96,1.25-1.44,2.92-1.44,5s.48,3.71,1.44,4.98c.96,1.27,2.41,1.9,4.36,1.9s3.41-.63,4.38-1.88Z"/><path class="cls-2" d="m241.34,67.72v3.24c-.64.21-1.32.32-2.04.32-2.35,0-3.76-1.19-4.24-3.56h-.2c-.4,2.37-2.11,3.56-5.12,3.56-1.84,0-3.45-.43-4.82-1.28s-2.42-2.05-3.14-3.6c-.72-1.55-1.08-3.32-1.08-5.32,0-2.11.39-3.95,1.18-5.52.79-1.57,1.87-2.79,3.24-3.64,1.37-.85,2.93-1.28,4.66-1.28,1.6,0,2.79.31,3.56.92.77.61,1.29,1.51,1.56,2.68h.16l-.24-3.88v-9.4h3.92v24.76c0,.72.11,1.25.32,1.6.21.35.61.52,1.2.52.4,0,.76-.04,1.08-.12Zm-6.52-2.76v-8.32c-.88-1.71-2.37-2.56-4.48-2.56-1.76,0-3.15.62-4.18,1.86-1.03,1.24-1.54,2.94-1.54,5.1s.48,3.77,1.44,4.98c.96,1.21,2.32,1.82,4.08,1.82,2.13,0,3.69-.96,4.68-2.88Z"/><path class="cls-2" d="m265.38,67.72v3.24c-.69.21-1.41.32-2.16.32-2.29,0-3.71-1.28-4.24-3.84h-.12c-.21,1.23-.78,2.17-1.68,2.84s-2.15,1-3.72,1c-2.32,0-4.12-.69-5.38-2.08s-1.9-3.4-1.9-6.04v-8.76h-2.84v-3.44h6.76v11.52c0,1.79.29,3.13.86,4.02.57.89,1.69,1.34,3.34,1.34,1.09,0,2.03-.29,2.8-.88.77-.59,1.35-1.43,1.72-2.52v-13.48h3.92v14.76c0,.72.11,1.25.32,1.6.21.35.61.52,1.2.52.35,0,.72-.04,1.12-.12Z"/><path class="cls-2" d="m270.72,55.44c.95-1.55,2.25-2.73,3.92-3.56,1.67-.83,3.57-1.24,5.7-1.24,1.55,0,2.88.17,4,.5,1.12.33,1.97.7,2.56,1.1v4.04c-1.95-1.47-4.12-2.2-6.52-2.2-2.08,0-3.79.57-5.14,1.7-1.35,1.13-2.02,2.86-2.02,5.18s.66,3.98,1.98,5.14c1.32,1.16,3.14,1.74,5.46,1.74,1.44,0,2.8-.26,4.08-.78,1.28-.52,2.37-1.14,3.28-1.86v3.88c-.69.53-1.7,1.03-3.02,1.5-1.32.47-2.82.7-4.5.7-2.43,0-4.48-.46-6.16-1.38-1.68-.92-2.94-2.16-3.78-3.72-.84-1.56-1.26-3.3-1.26-5.22,0-2.13.47-3.97,1.42-5.52Z"/><path class="cls-2" d="m301.26,54.4v7.08c0,1.52.16,2.73.48,3.64s.9,1.59,1.74,2.04,2.02.68,3.54.68,3.19-.17,5-.52l-.04,3.28c-.43.13-1.17.28-2.24.44s-2.01.24-2.84.24c-1.89,0-3.53-.25-4.92-.76-1.39-.51-2.51-1.48-3.36-2.92-.85-1.44-1.28-3.48-1.28-6.12v-7.08h-5.72v-3.44h5.72v-5.28h3.92v5.28h11.28v3.44h-11.28Z"/><path class="cls-2" d="m337.14,67.56v3.2c-.29.11-.73.22-1.32.34s-1.2.18-1.84.18c-2.51,0-4.51-.68-6.02-2.04-1.51-1.36-2.57-3.2-3.18-5.52-1.01,1.71-2.65,4.12-4.92,7.24h-4.6l1.84-2.44c2.11-2.77,3.67-4.95,4.7-6.52,1.03-1.57,1.79-3.13,2.3-4.68v-6.36h3.92v6.92c0,6.64,2.11,9.96,6.32,9.96,1.17,0,2.11-.09,2.8-.28Zm-13.52-20.96c-.59-.45-.88-1.11-.88-1.96s.29-1.51.88-1.98c.59-.47,1.4-.7,2.44-.7s1.82.23,2.42.7.9,1.13.9,1.98-.3,1.51-.9,1.96c-.6.45-1.41.68-2.42.68s-1.85-.23-2.44-.68Z"/><path class="cls-2" d="m345.3,69.98c-1.47-.87-2.6-2.08-3.4-3.64-.8-1.56-1.2-3.35-1.2-5.38s.4-3.82,1.2-5.38c.8-1.56,1.93-2.77,3.4-3.64,1.47-.87,3.17-1.3,5.12-1.3s3.66.43,5.14,1.3c1.48.87,2.62,2.08,3.42,3.64.8,1.56,1.2,3.35,1.2,5.38s-.4,3.82-1.2,5.38c-.8,1.56-1.94,2.77-3.42,3.64-1.48.87-3.19,1.3-5.14,1.3s-3.65-.43-5.12-1.3Zm9.5-4.02c.97-1.25,1.46-2.92,1.46-5s-.49-3.75-1.46-5c-.97-1.25-2.43-1.88-4.38-1.88s-3.4.63-4.36,1.88c-.96,1.25-1.44,2.92-1.44,5s.48,3.71,1.44,4.98c.96,1.27,2.41,1.9,4.36,1.9s3.41-.63,4.38-1.88Z"/><path class="cls-2" d="m385.34,67.72v3.24c-.59.21-1.29.32-2.12.32-1.52,0-2.64-.47-3.36-1.42-.72-.95-1.08-2.23-1.08-3.86v-7.72c0-1.23-.27-2.23-.8-3.02-.53-.79-1.65-1.18-3.36-1.18-2.35,0-3.87,1.01-4.56,3.04v13.84h-3.92v-20h2.44l1.12,3.48h.2c.29-1.28.92-2.23,1.88-2.86.96-.63,2.3-.94,4.04-.94,2.56,0,4.35.65,5.36,1.94,1.01,1.29,1.52,3.03,1.52,5.22v7.92c0,.72.11,1.25.32,1.6.21.35.61.52,1.2.52.27,0,.64-.04,1.12-.12Z"/></g><rect class="cls-1" width="481.19" height="114.22"/></g></g></svg>