<?xml version="1.0" encoding="UTF-8"?><svg id="Livello_2" xmlns="http://www.w3.org/2000/svg" viewBox="0 0 481.19 114.22"><defs><style>.cls-1{fill:none;}.cls-2{fill:#ff4842;}.cls-3,.cls-4{fill:#a22a27;}.cls-4{stroke:#ff4842;stroke-miterlimit:10;stroke-width:3px;}</style></defs><g id="BUTTON_objects"><g id="buttonReset"><path class="cls-3" d="m464.09,16.12l-7.49,74.41-425.84,3.66L24.61,15.58l439.48.54m6.83-7.1l-452.99-.35,5.49,92.51,440.35-3.65,7.15-88.52h0Z"/><polygon class="cls-4" points="456.61 90.53 30.77 94.2 24.61 15.58 464.09 16.12 456.61 90.53"/><g><path class="cls-2" d="m178.25,65.79v3.36c-.46.19-1.13.28-2.04.28-1.6,0-3.01-.37-4.22-1.12-1.21-.75-2.15-1.79-2.82-3.12-.67-1.33-1-2.85-1-4.56,0-2.8.91-5.44,2.72-7.92v-.12h-7.6c-.29,2.91-.68,5.56-1.16,7.96-.48,2.4-1.12,5.25-1.92,8.56h-4.52c1.01-2.96,1.9-6.07,2.66-9.32.76-3.25,1.25-6.01,1.46-8.28-.56-.35-1-.81-1.32-1.4-.32-.59-.48-1.23-.48-1.92,0-.99.34-1.79,1.02-2.4.68-.61,1.65-.92,2.9-.92.53,0,1.11.07,1.72.2,0,1.36-.04,2.71-.12,4.04h11.84v3.48c-.93.67-1.71,1.67-2.32,3-.61,1.33-.92,2.81-.92,4.44,0,1.97.46,3.45,1.38,4.42.92.97,2.07,1.46,3.46,1.46.45,0,.88-.04,1.28-.12Z"/><path class="cls-2" d="m200.61,60.71h-15.48c.24,1.84.94,3.18,2.1,4.02s2.87,1.26,5.14,1.26c2.56,0,4.88-.36,6.96-1.08v3.44c-.72.27-1.7.51-2.94.74-1.24.23-2.61.34-4.1.34-3.76,0-6.56-.93-8.4-2.78s-2.76-4.37-2.76-7.54c0-2.24.44-4.13,1.32-5.68s2.09-2.71,3.64-3.48c1.54-.77,3.32-1.16,5.32-1.16,2.88,0,5.13.81,6.76,2.42,1.62,1.61,2.44,4.02,2.44,7.22v2.28Zm-3.68-3.08c0-3.6-1.84-5.4-5.52-5.4-1.79,0-3.23.41-4.32,1.22-1.09.81-1.75,2.21-1.96,4.18h11.8Z"/><path class="cls-2" d="m207.71,50.49c1.72-1.13,4.13-1.7,7.22-1.7,1.52,0,2.96.13,4.34.38,1.37.25,2.42.51,3.14.78v3.44c-.77-.29-1.82-.56-3.14-.8-1.32-.24-2.74-.36-4.26-.36-3.97,0-5.96,1.03-5.96,3.08,0,.77.36,1.31,1.08,1.6.72.29,1.72.48,3,.56l4.04.2c2.45.16,4.3.65,5.56,1.46,1.25.81,1.88,2.07,1.88,3.78,0,2.16-.87,3.79-2.62,4.88-1.75,1.09-4.27,1.64-7.58,1.64-1.76,0-3.39-.16-4.88-.48-1.49-.32-2.6-.64-3.32-.96v-3.44c.8.35,1.92.67,3.36.98,1.44.31,3.03.46,4.76.46,4.24,0,6.36-1.03,6.36-3.08,0-.77-.34-1.3-1.02-1.58-.68-.28-1.71-.47-3.1-.58l-3.96-.2c-2.45-.16-4.31-.65-5.58-1.46-1.27-.81-1.9-2.07-1.9-3.78,0-2.08.86-3.69,2.58-4.82Z"/><path class="cls-2" d="m248.61,60.71h-15.48c.24,1.84.94,3.18,2.1,4.02s2.87,1.26,5.14,1.26c2.56,0,4.88-.36,6.96-1.08v3.44c-.72.27-1.7.51-2.94.74-1.24.23-2.61.34-4.1.34-3.76,0-6.56-.93-8.4-2.78s-2.76-4.37-2.76-7.54c0-2.24.44-4.13,1.32-5.68s2.09-2.71,3.64-3.48c1.54-.77,3.32-1.16,5.32-1.16,2.88,0,5.13.81,6.76,2.42,1.62,1.61,2.44,4.02,2.44,7.22v2.28Zm-3.68-3.08c0-3.6-1.84-5.4-5.52-5.4-1.79,0-3.23.41-4.32,1.22-1.09.81-1.75,2.21-1.96,4.18h11.8Z"/><path class="cls-2" d="m261.69,52.55v7.08c0,1.52.16,2.73.48,3.64.32.91.9,1.59,1.74,2.04.84.45,2.02.68,3.54.68s3.19-.17,5-.52l-.04,3.28c-.43.13-1.17.28-2.24.44-1.07.16-2.01.24-2.84.24-1.89,0-3.54-.25-4.92-.76-1.39-.51-2.51-1.48-3.36-2.92-.85-1.44-1.28-3.48-1.28-6.12v-7.08h-5.72v-3.44h5.72v-5.28h3.92v5.28h11.28v3.44h-11.28Z"/><path class="cls-2" d="m321.77,65.87v3.24c-.64.21-1.32.32-2.04.32-2.35,0-3.76-1.19-4.24-3.56h-.2c-.4,2.37-2.11,3.56-5.12,3.56-1.84,0-3.45-.43-4.82-1.28-1.38-.85-2.42-2.05-3.14-3.6s-1.08-3.32-1.08-5.32c0-2.11.39-3.95,1.18-5.52.79-1.57,1.87-2.79,3.24-3.64s2.93-1.28,4.66-1.28c1.6,0,2.79.31,3.56.92.77.61,1.29,1.51,1.56,2.68h.16l-.24-3.88v-9.4h3.92v24.76c0,.72.11,1.25.32,1.6.21.35.61.52,1.2.52.4,0,.76-.04,1.08-.12Zm-6.52-2.76v-8.32c-.88-1.71-2.38-2.56-4.48-2.56-1.76,0-3.15.62-4.18,1.86-1.03,1.24-1.54,2.94-1.54,5.1s.48,3.77,1.44,4.98c.96,1.21,2.32,1.82,4.08,1.82,2.13,0,3.69-.96,4.68-2.88Z"/><path class="cls-2" d="m345.61,65.87v3.24c-.64.21-1.35.32-2.12.32-2.37,0-3.8-1.32-4.28-3.96h-.12c-.64,2.64-2.78,3.96-6.4,3.96-2.32,0-4.17-.59-5.54-1.76-1.37-1.17-2.06-2.79-2.06-4.84,0-1.79.67-3.23,2.02-4.32,1.35-1.09,3.29-1.64,5.82-1.64,2.16,0,4.17.19,6.04.56h.08v-.24c0-1.17-.17-2.11-.5-2.82-.33-.71-.95-1.24-1.86-1.6-.91-.36-2.2-.54-3.88-.54-1.28,0-2.58.14-3.9.42-1.32.28-2.31.55-2.98.82l-.04-3.56c.77-.29,1.82-.55,3.14-.78,1.32-.23,2.66-.34,4.02-.34,3.6,0,6.15.71,7.66,2.14s2.26,3.5,2.26,6.22v6.72c0,.67.11,1.19.32,1.56s.63.56,1.24.56c.24,0,.6-.04,1.08-.12Zm-8.9-.62c1.05-.49,1.83-1.21,2.34-2.14v-3.16h-5.68c-2.91,0-4.36.97-4.36,2.92,0,.88.33,1.62,1,2.22.67.6,1.65.9,2.96.9,1.44,0,2.69-.25,3.74-.74Z"/><path class="cls-2" d="m357.69,52.55v7.08c0,1.52.16,2.73.48,3.64.32.91.9,1.59,1.74,2.04.84.45,2.02.68,3.54.68s3.19-.17,5-.52l-.04,3.28c-.43.13-1.17.28-2.24.44-1.07.16-2.01.24-2.84.24-1.89,0-3.54-.25-4.92-.76-1.39-.51-2.51-1.48-3.36-2.92-.85-1.44-1.28-3.48-1.28-6.12v-7.08h-5.72v-3.44h5.72v-5.28h3.92v5.28h11.28v3.44h-11.28Z"/><path class="cls-2" d="m393.61,65.87v3.24c-.64.21-1.35.32-2.12.32-2.37,0-3.8-1.32-4.28-3.96h-.12c-.64,2.64-2.78,3.96-6.4,3.96-2.32,0-4.17-.59-5.54-1.76-1.37-1.17-2.06-2.79-2.06-4.84,0-1.79.67-3.23,2.02-4.32,1.35-1.09,3.29-1.64,5.82-1.64,2.16,0,4.17.19,6.04.56h.08v-.24c0-1.17-.17-2.11-.5-2.82-.33-.71-.95-1.24-1.86-1.6-.91-.36-2.2-.54-3.88-.54-1.28,0-2.58.14-3.9.42-1.32.28-2.31.55-2.98.82l-.04-3.56c.77-.29,1.82-.55,3.14-.78,1.32-.23,2.66-.34,4.02-.34,3.6,0,6.15.71,7.66,2.14s2.26,3.5,2.26,6.22v6.72c0,.67.11,1.19.32,1.56s.63.56,1.24.56c.24,0,.6-.04,1.08-.12Zm-8.9-.62c1.05-.49,1.83-1.21,2.34-2.14v-3.16h-5.68c-2.91,0-4.36.97-4.36,2.92,0,.88.33,1.62,1,2.22.67.6,1.65.9,2.96.9,1.44,0,2.69-.25,3.74-.74Z"/></g><g><g><polygon class="cls-2" points="47.46 48.02 47.56 42.82 73.44 36.86 74.3 40.59 47.46 48.02"/><polygon class="cls-2" points="55.34 42.44 55.99 37.6 63.31 35.58 65.13 40.58 63.75 40.9 62.29 37.49 57.9 38.77 57.69 42.63 55.34 42.44"/></g><path class="cls-2" d="m51.01,49.77l3.48,28.87h18.26l4.17-29.74-25.91.87Zm8.13,26.04l-2.61-21.85h3.72l1.7,21.85h-2.8Zm9.46.65h-2.74l1.11-22.74,4.89-.41-3.26,23.15Z"/></g><rect class="cls-1" width="481.19" height="114.22"/></g></g></svg>