<?xml version="1.0" encoding="UTF-8"?><svg id="Livello_2" xmlns="http://www.w3.org/2000/svg" viewBox="0 0 481.19 114.22"><defs><style>.cls-1{fill:none;}.cls-2{fill:#9da7f3;}.cls-3{fill:#444fd2;}</style></defs><g id="BUTTON_objects"><g id="buttonGalleryOutro"><path class="cls-3" d="m463.87,12.57l-8.6,80.35-434.15,2.34,3.66-76.48,439.1-6.21m7.8-7.11l-7.9.11L24.68,11.78l-6.58.09-.31,6.57-3.66,76.48-.35,7.37,7.38-.04,434.15-2.34,6.26-.03.67-6.22,8.6-80.35.84-7.86h0Z"/><g><polygon class="cls-3" points="455.27 92.92 21.12 95.26 24.77 18.78 463.87 12.57 455.27 92.92"/><path class="cls-2" d="m19.54,96.77l3.8-79.47,1.41-.02,440.79-6.23-8.92,83.37h-1.34s-435.74,2.35-435.74,2.35Zm6.66-76.51l-3.51,73.5,431.23-2.32,8.28-77.33L26.21,20.26Z"/></g><g><path class="cls-2" d="m190.04,60.71h-15.48c.24,1.84.94,3.18,2.1,4.02s2.87,1.26,5.14,1.26c2.56,0,4.88-.36,6.96-1.08v3.44c-.72.27-1.7.51-2.94.74-1.24.23-2.61.34-4.1.34-3.76,0-6.56-.93-8.4-2.78s-2.76-4.37-2.76-7.54c0-2.24.44-4.13,1.32-5.68.88-1.55,2.09-2.71,3.64-3.48,1.55-.77,3.32-1.16,5.32-1.16,2.88,0,5.13.81,6.76,2.42,1.63,1.61,2.44,4.02,2.44,7.22v2.28Zm-3.68-3.08c0-3.6-1.84-5.4-5.52-5.4-1.79,0-3.23.41-4.32,1.22-1.09.81-1.75,2.21-1.96,4.18h11.8Z"/><path class="cls-2" d="m215.2,65.87v3.24c-.59.21-1.29.32-2.12.32-1.52,0-2.64-.47-3.36-1.42-.72-.95-1.08-2.23-1.08-3.86v-7.72c0-1.23-.27-2.23-.8-3.02-.53-.79-1.65-1.18-3.36-1.18-2.35,0-3.87,1.01-4.56,3.04v13.84h-3.92v-20h2.44l1.12,3.48h.2c.29-1.28.92-2.23,1.88-2.86.96-.63,2.31-.94,4.04-.94,2.56,0,4.35.65,5.36,1.94,1.01,1.29,1.52,3.03,1.52,5.22v7.92c0,.72.11,1.25.32,1.6.21.35.61.52,1.2.52.27,0,.64-.04,1.12-.12Z"/><path class="cls-2" d="m239.2,65.87v3.24c-.64.21-1.32.32-2.04.32-2.35,0-3.76-1.19-4.24-3.56h-.2c-.4,2.37-2.11,3.56-5.12,3.56-1.84,0-3.45-.43-4.82-1.28-1.37-.85-2.42-2.05-3.14-3.6-.72-1.55-1.08-3.32-1.08-5.32,0-2.11.39-3.95,1.18-5.52s1.87-2.79,3.24-3.64c1.37-.85,2.93-1.28,4.66-1.28,1.6,0,2.79.31,3.56.92.77.61,1.29,1.51,1.56,2.68h.16l-.24-3.88v-9.4h3.92v24.76c0,.72.11,1.25.32,1.6s.61.52,1.2.52c.4,0,.76-.04,1.08-.12Zm-6.52-2.76v-8.32c-.88-1.71-2.37-2.56-4.48-2.56-1.76,0-3.15.62-4.18,1.86-1.03,1.24-1.54,2.94-1.54,5.1s.48,3.77,1.44,4.98c.96,1.21,2.32,1.82,4.08,1.82,2.13,0,3.69-.96,4.68-2.88Z"/><path class="cls-2" d="m263,65.71v3.2c-.29.11-.73.22-1.32.34-.59.12-1.2.18-1.84.18-2.51,0-4.51-.68-6.02-2.04-1.51-1.36-2.57-3.2-3.18-5.52-1.01,1.71-2.65,4.12-4.92,7.24h-4.6l1.84-2.44c2.11-2.77,3.67-4.95,4.7-6.52s1.79-3.13,2.3-4.68v-6.36h3.92v6.92c0,6.64,2.11,9.96,6.32,9.96,1.17,0,2.11-.09,2.8-.28Zm-13.52-20.96c-.59-.45-.88-1.11-.88-1.96s.29-1.51.88-1.98c.59-.47,1.4-.7,2.44-.7s1.82.23,2.42.7c.6.47.9,1.13.9,1.98s-.3,1.51-.9,1.96c-.6.45-1.41.68-2.42.68s-1.85-.23-2.44-.68Z"/><path class="cls-2" d="m287.2,65.87v3.24c-.59.21-1.29.32-2.12.32-1.52,0-2.64-.47-3.36-1.42-.72-.95-1.08-2.23-1.08-3.86v-7.72c0-1.23-.27-2.23-.8-3.02-.53-.79-1.65-1.18-3.36-1.18-2.35,0-3.87,1.01-4.56,3.04v13.84h-3.92v-20h2.44l1.12,3.48h.2c.29-1.28.92-2.23,1.88-2.86.96-.63,2.31-.94,4.04-.94,2.56,0,4.35.65,5.36,1.94,1.01,1.29,1.52,3.03,1.52,5.22v7.92c0,.72.11,1.25.32,1.6.21.35.61.52,1.2.52.27,0,.64-.04,1.12-.12Z"/><path class="cls-2" d="m308.56,49.11v19.76c0,3.01-.87,5.26-2.6,6.74s-4.08,2.22-7.04,2.22c-1.07,0-2.2-.1-3.4-.3s-2.23-.47-3.08-.82l-.04-3.6c2.19.85,4.29,1.28,6.32,1.28,3.95,0,5.92-1.84,5.92-5.52v-.52l.32-2.84h-.2c-.27,1.41-.85,2.42-1.74,3.02-.89.6-2.13.9-3.7.9-1.71,0-3.23-.43-4.56-1.3-1.33-.87-2.37-2.07-3.1-3.62s-1.1-3.31-1.1-5.28c0-2.11.39-3.95,1.18-5.52s1.87-2.79,3.24-3.64c1.37-.85,2.93-1.28,4.66-1.28,1.6,0,2.85.33,3.74.98s1.43,1.59,1.62,2.82h.16l1.04-3.48h2.36Zm-5.7,16.22c.76-.44,1.35-1.15,1.78-2.14v-8.12c-.4-.99-.99-1.71-1.76-2.16-.77-.45-1.65-.68-2.64-.68-1.76,0-3.16.62-4.2,1.86-1.04,1.24-1.56,2.94-1.56,5.1s.47,3.73,1.42,4.96c.95,1.23,2.27,1.84,3.98,1.84,1.23,0,2.22-.22,2.98-.66Z"/></g><rect class="cls-1" width="481.19" height="114.22"/></g></g></svg>